/* XPM */
static char * barricade1_xpm[] = {
"40 40 524 2",
"  	c #999999",
". 	c #949899",
"+ 	c #8B9496",
"@ 	c #81898D",
"# 	c #757F84",
"$ 	c #68737A",
"% 	c #626F76",
"& 	c #4F5E67",
"* 	c #7A7F83",
"= 	c #949C9F",
"- 	c #909DA4",
"; 	c #8C9CA5",
"> 	c #728189",
", 	c #6A7B83",
"' 	c #5E727D",
") 	c #57707B",
"! 	c #567484",
"~ 	c #3F5F70",
"{ 	c #3E5A6B",
"] 	c #3D5A68",
"^ 	c #3B5564",
"/ 	c #3E5863",
"( 	c #3F5863",
"_ 	c #3E5660",
": 	c #2A3C4B",
"< 	c #70777C",
"[ 	c #89A8B9",
"} 	c #81ADC3",
"| 	c #587B8B",
"1 	c #506E7E",
"2 	c #425862",
"3 	c #3C5361",
"4 	c #405868",
"5 	c #364E5C",
"6 	c #22353F",
"7 	c #2F4451",
"8 	c #3A5564",
"9 	c #385465",
"0 	c #355263",
"a 	c #335062",
"b 	c #385567",
"c 	c #41606F",
"d 	c #4A6877",
"e 	c #506C78",
"f 	c #45606E",
"g 	c #2F4250",
"h 	c #787A7B",
"i 	c #8DB2C5",
"j 	c #7DB1CA",
"k 	c #385360",
"l 	c #425C6A",
"m 	c #222F3D",
"n 	c #2C3A4B",
"o 	c #304553",
"p 	c #2C424E",
"q 	c #2A3E4A",
"r 	c #314854",
"s 	c #334D5C",
"t 	c #385564",
"u 	c #415C6A",
"v 	c #456474",
"w 	c #4D6D7F",
"x 	c #4E6F82",
"y 	c #506F82",
"z 	c #4B6B7A",
"A 	c #425F6C",
"B 	c #2A3B49",
"C 	c #67635D",
"D 	c #8CADBD",
"E 	c #7DAFC8",
"F 	c #355064",
"G 	c #466473",
"H 	c #273845",
"I 	c #32414C",
"J 	c #344858",
"K 	c #3F5965",
"L 	c #3D5665",
"M 	c #374F5F",
"N 	c #395364",
"O 	c #426274",
"P 	c #496A7A",
"Q 	c #4B6A7B",
"R 	c #51707F",
"S 	c #4F717F",
"T 	c #4D6B7B",
"U 	c #4A6978",
"V 	c #425D6A",
"W 	c #2C3E4D",
"X 	c #3B484C",
"Y 	c #939494",
"Z 	c #84A4B4",
"` 	c #78A7C0",
" .	c #324D60",
"..	c #436377",
"+.	c #273847",
"@.	c #32393E",
"#.	c #405561",
"$.	c #4F6A77",
"%.	c #4F6977",
"&.	c #486371",
"*.	c #405C6C",
"=.	c #3B596B",
"-.	c #3F5D6E",
";.	c #446173",
">.	c #486676",
",.	c #4F6D7D",
"'.	c #517080",
").	c #476574",
"!.	c #49606B",
"~.	c #424B4F",
"{.	c #293840",
"].	c #717677",
"^.	c #7C9BA9",
"/.	c #6A97AD",
"(.	c #314D5B",
"_.	c #415F70",
":.	c #233542",
"<.	c #353A3E",
"[.	c #3A4C53",
"}.	c #496474",
"|.	c #4B6775",
"1.	c #46606F",
"2.	c #3E5968",
"3.	c #395667",
"4.	c #3F5E6C",
"5.	c #42606F",
"6.	c #45606F",
"7.	c #61737B",
"8.	c #425A66",
"9.	c #4D6F84",
"0.	c #507F9E",
"a.	c #2A4658",
"b.	c #1A262B",
"c.	c #364145",
"d.	c #748F9F",
"e.	c #598195",
"f.	c #34505A",
"g.	c #3A5665",
"h.	c #1F2F3B",
"i.	c #2E3740",
"j.	c #343736",
"k.	c #3C5460",
"l.	c #3D5662",
"m.	c #3D5562",
"n.	c #3E5763",
"o.	c #556973",
"p.	c #778186",
"q.	c #919395",
"r.	c #848D92",
"s.	c #3D535B",
"t.	c #555D5E",
"u.	c #737D83",
"v.	c #6F7C86",
"w.	c #384045",
"x.	c #243742",
"y.	c #888A8C",
"z.	c #6F8590",
"A.	c #496A7B",
"B.	c #2D4657",
"C.	c #3B5462",
"D.	c #1E2C38",
"E.	c #28343F",
"F.	c #3E3326",
"G.	c #2A3C47",
"H.	c #293E4B",
"I.	c #40535D",
"J.	c #667279",
"K.	c #888D90",
"L.	c #6C8591",
"M.	c #3E647D",
"N.	c #878C8D",
"O.	c #7B7E7E",
"P.	c #294250",
"Q.	c #656F75",
"R.	c #6B7880",
"S.	c #405B67",
"T.	c #243D4D",
"U.	c #374F5E",
"V.	c #1D2937",
"W.	c #23303B",
"X.	c #2E2E29",
"Y.	c #364346",
"Z.	c #7C8082",
"`.	c #959899",
" +	c #4C7589",
".+	c #546771",
"++	c #929496",
"@+	c #50626D",
"#+	c #4C6471",
"$+	c #606D70",
"%+	c #304652",
"&+	c #14232E",
"*+	c #233540",
"=+	c #404A50",
"-+	c #22282C",
";+	c #1D282F",
">+	c #383937",
",+	c #919493",
"'+	c #768792",
")+	c #3A6179",
"!+	c #757F85",
"~+	c #61737A",
"{+	c #457493",
"]+	c #82888E",
"^+	c #858584",
"/+	c #48555A",
"(+	c #3D4D56",
"_+	c #3E535B",
":+	c #43555E",
"<+	c #414B51",
"[+	c #20292B",
"}+	c #18272F",
"|+	c #2E2E2A",
"1+	c #545D62",
"2+	c #506E81",
"3+	c #3D5A6D",
"4+	c #969696",
"5+	c #7F8890",
"6+	c #497491",
"7+	c #728D9D",
"8+	c #525B5D",
"9+	c #465A64",
"0+	c #49738A",
"a+	c #50839E",
"b+	c #558EB1",
"c+	c #294558",
"d+	c #1A2A33",
"e+	c #19272E",
"f+	c #1E2829",
"g+	c #25353E",
"h+	c #8B8D8F",
"i+	c #858B8F",
"j+	c #375A70",
"k+	c #63747E",
"l+	c #4E7085",
"m+	c #5885A2",
"n+	c #888988",
"o+	c #2A363B",
"p+	c #1F323D",
"q+	c #213A49",
"r+	c #29485C",
"s+	c #345973",
"t+	c #38617B",
"u+	c #1B2D38",
"v+	c #182229",
"w+	c #202728",
"x+	c #273238",
"y+	c #656E72",
"z+	c #5D6F7A",
"A+	c #2F4E64",
"B+	c #8E9294",
"C+	c #69808C",
"D+	c #5088AF",
"E+	c #848E94",
"F+	c #878C8C",
"G+	c #2F4856",
"H+	c #1B282F",
"I+	c #2D2D2D",
"J+	c #7A7F7F",
"K+	c #747B7E",
"L+	c #6F797E",
"M+	c #6B7379",
"N+	c #2D3638",
"O+	c #1B252B",
"P+	c #232D32",
"Q+	c #515E64",
"R+	c #959597",
"S+	c #344F61",
"T+	c #4F626F",
"U+	c #8E9291",
"V+	c #929494",
"W+	c #8D9495",
"X+	c #4C7B98",
"Y+	c #708FA3",
"Z+	c #6F8389",
"`+	c #3E6981",
" @	c #2C4556",
".@	c #606462",
"+@	c #787573",
"@@	c #1F3542",
"#@	c #182A34",
"$@	c #324046",
"%@	c #818889",
"&@	c #5D7B86",
"*@	c #5E8195",
"=@	c #779EB3",
"-@	c #81ACC1",
";@	c #7AA5BC",
">@	c #6A92A5",
",@	c #7398AB",
"'@	c #6C8995",
")@	c #748992",
"!@	c #757D7F",
"~@	c #5C737E",
"{@	c #618294",
"]@	c #909191",
"^@	c #507587",
"/@	c #375B72",
"(@	c #7E8586",
"_@	c #959695",
":@	c #365264",
"<@	c #2C4B5B",
"[@	c #354D58",
"}@	c #798185",
"|@	c #444F52",
"1@	c #3D494D",
"2@	c #5A666A",
"3@	c #5D6970",
"4@	c #58676E",
"5@	c #5B707B",
"6@	c #5F7989",
"7@	c #678698",
"8@	c #648EA6",
"9@	c #4E7F9F",
"0@	c #477C9D",
"a@	c #567F97",
"b@	c #819393",
"c@	c #767A7B",
"d@	c #858D91",
"e@	c #3D677F",
"f@	c #2D4C63",
"g@	c #454F53",
"h@	c #666D70",
"i@	c #3F6678",
"j@	c #596C76",
"k@	c #858887",
"l@	c #313C3E",
"m@	c #707676",
"n@	c #929393",
"o@	c #8E908E",
"p@	c #526061",
"q@	c #677981",
"r@	c #677D86",
"s@	c #355B72",
"t@	c #29404C",
"u@	c #616D72",
"v@	c #868988",
"w@	c #375E76",
"x@	c #3C6881",
"y@	c #3C5865",
"z@	c #8B8E8F",
"A@	c #8C8F8E",
"B@	c #7A8786",
"C@	c #7E9A9D",
"D@	c #949495",
"E@	c #456A7F",
"F@	c #2D4F63",
"G@	c #293C45",
"H@	c #8F9192",
"I@	c #4A5F6C",
"J@	c #3E6985",
"K@	c #486E80",
"L@	c #6F7C82",
"M@	c #989899",
"N@	c #818B8F",
"O@	c #355C74",
"P@	c #264054",
"Q@	c #46555A",
"R@	c #707A80",
"S@	c #3C6986",
"T@	c #43728C",
"U@	c #536E7B",
"V@	c #607582",
"W@	c #2E4F65",
"X@	c #233845",
"Y@	c #717A7F",
"Z@	c #939496",
"`@	c #3A5F7B",
" #	c #447393",
".#	c #40677D",
"+#	c #898E90",
"@#	c #969796",
"##	c #385A71",
"$#	c #254055",
"%#	c #283E49",
"&#	c #949697",
"*#	c #5C6F7B",
"=#	c #437294",
"-#	c #4C7C98",
";#	c #697A82",
">#	c #778188",
",#	c #2F4D64",
"'#	c #1E3443",
")#	c #54626B",
"!#	c #7F888B",
"~#	c #3D6A87",
"{#	c #487CA0",
"]#	c #4A6A7C",
"^#	c #566B78",
"/#	c #284353",
"(#	c #213642",
"_#	c #7C8285",
":#	c #44667D",
"<#	c #497A9F",
"[#	c #4B7793",
"}#	c #808689",
"|#	c #969797",
"1#	c #314F61",
"2#	c #203645",
"3#	c #334651",
"4#	c #6D7E85",
"5#	c #487596",
"6#	c #4F82A6",
"7#	c #5E7582",
"8#	c #757D80",
"9#	c #2E4756",
"0#	c #23353F",
"a#	c #374852",
"b#	c #606B72",
"c#	c #728288",
"d#	c #829298",
"e#	c #818B8E",
"f#	c #838A8D",
"g#	c #8E9093",
"h#	c #949696",
"i#	c #8E9194",
"j#	c #416C87",
"k#	c #4D83A6",
"l#	c #466679",
"m#	c #979697",
"n#	c #596769",
"o#	c #5C6E74",
"p#	c #5F757F",
"q#	c #5B7784",
"r#	c #5F7B89",
"s#	c #688998",
"t#	c #678B9A",
"u#	c #64889D",
"v#	c #638CA1",
"w#	c #648B9E",
"x#	c #608495",
"y#	c #536D7B",
"z#	c #59717D",
"A#	c #718897",
"B#	c #6D828F",
"C#	c #70828E",
"D#	c #707C84",
"E#	c #486674",
"F#	c #4B7EA1",
"G#	c #53809B",
"H#	c #70787D",
"I#	c #77797A",
"J#	c #2B3C40",
"K#	c #293F4A",
"L#	c #2C4758",
"M#	c #446276",
"N#	c #64869B",
"O#	c #6C94AA",
"P#	c #6991A7",
"Q#	c #6C97AC",
"R#	c #6B95A7",
"S#	c #6B92A1",
"T#	c #6B8F9A",
"U#	c #6D8C95",
"V#	c #72919C",
"W#	c #6A7D82",
"X#	c #6A7C84",
"Y#	c #647882",
"Z#	c #5C6C71",
"`#	c #4C6A7B",
" $	c #587C8E",
".$	c #405056",
"+$	c #686E70",
"@$	c #253136",
"#$	c #21282B",
"$$	c #454B4D",
"%$	c #4A5258",
"&$	c #434D53",
"*$	c #3F4D55",
"=$	c #3A4E58",
"-$	c #4A6270",
";$	c #5C7989",
">$	c #65889A",
",$	c #638CA2",
"'$	c #76A4BC",
")$	c #71A3C0",
"!$	c #6095B2",
"~$	c #5C859B",
"{$	c #788B8D",
"]$	c #928C7D",
"^$	c #A48A6C",
"/$	c #A78662",
"($	c #97846A",
"_$	c #4C5457",
":$	c #75787A",
"<$	c #485459",
"[$	c #1F292C",
"}$	c #2A3335",
"|$	c #969695",
"1$	c #898C8B",
"2$	c #7E8283",
"3$	c #73787B",
"4$	c #6C757B",
"5$	c #63727A",
"6$	c #5F7380",
"7$	c #4E6679",
"8$	c #3F6179",
"9$	c #396480",
"0$	c #3C6987",
"a$	c #426E8A",
"b$	c #507486",
"c$	c #788E96",
"d$	c #7B898B",
"e$	c #576063",
"f$	c #444D4C",
"g$	c #3D4241",
"h$	c #5D6060",
"i$	c #8F8F8E",
"j$	c #878987",
"k$	c #787B7A",
"l$	c #404D4E",
"m$	c #4D595C",
"n$	c #3D4648",
"o$	c #616E6F",
"p$	c #54767D",
"q$	c #55727D",
"r$	c #838587",
"s$	c #818785",
"t$	c #748684",
"u$	c #668992",
"v$	c #767E7D",
"w$	c #909491",
"x$	c #899394",
"y$	c #848988",
"                                                                                ",
"                                                                                ",
"                                                                                ",
"                                              . + @ # $ % & *                   ",
"                            = - ; > , ' ) ! ~ { ] ^ / ( _ : <                   ",
"                    [ } | 1 2 3 4 5 6 7 8 9 0 a b c d e f g h                   ",
"                    i j k l m n o p q r s t u v w x y z A B C                   ",
"                    D E F G H I J K L M N O P Q R S T U V W X Y                 ",
"                    Z `  ...+.@.#.$.%.&.*.=.-.;.>.,.'.).!.~.{.].                ",
"                    ^./.(._.:.<.[.}.|.1.2.3.4.5.6.7.8.9.0.a.b.c.                ",
"                    d.e.f.g.h.i.j.k.l.m.n.L o.p.q.r.s.t.u.v.w.x.y.              ",
"                    z.A.B.C.D.E.F.G.H.I.J.K.      L.M.N.    O.P.Q.              ",
"                    R.S.T.U.V.W.X.Y.Z.          `. +.+      ++@+#+              ",
"                    $+%+&+*+=+-+;+>+,+          '+)+!+        ~+{+]+            ",
"                  ^+/+(+_+:+<+[+}+|+1+          2+3+4+        5+6+7+            ",
"                  8+9+0+a+b+c+d+e+f+g+h+      i+j+k+            l+m+            ",
"                n+o+p+q+r+s+t+u+v+w+x+y+      z+A+B+            C+D+E+          ",
"                F+G+H+I+J+K+L+M+N+O+P+Q+    R+S+T+U+V+          W+X+Y+          ",
"                Z+`+ @.@        +@@@#@$@    %@&@*@=@-@;@>@,@'@)@!@~@{@]@        ",
"                ^@/@w.(@        _@:@<@[@}@  |@1@2@3@4@5@6@7@8@9@0@a@b@c@        ",
"              d@e@f@g@            h@)+i@j@k@l@m@                n@o@p@q@        ",
"              r@s@t@u@            v@w@x@y@z@A@                      B@C@D@      ",
"              E@F@G@H@              I@J@K@L@                          M@        ",
"            N@O@P@Q@                R@S@T@U@                                    ",
"            V@W@X@Y@                Z@`@ #.#+#                                  ",
"          @###$#%#&#                  *#=#-#;#                                  ",
"          >#,#'#)#                    !#~#{#]#                                  ",
"          ^#/#(#_#                      :#<#[#}#                                ",
"        |#1#2#3#                        4#5#6#7#                                ",
"        8#9#0#a#b#c#d#e#f#g#h#          i#j#k#l#_@                              ",
"      m#n#o#p#q#r#s#t#u#v#w#x#y#z#A#B#C#D#E#F#G#H#                              ",
"      I#J#K#L#M#N#O#P#Q#R#S#T#U#V#W#X#Y#$+Z#`# $.$Y                             ",
"      +$@$#$$$%$&$*$=$-$;$>$,$'$)$!$~${$]$^$/$($_$:$                            ",
"      <$[$}$|$        1$2$3$4$5$6$7$8$9$0$a$b$c$d$e$                            ",
"    _@f$g$h$                            i$j$k$l$m$n$                            ",
"                                              o$p$q$r$                          ",
"                                              s$t$u$v$                          ",
"                                              |#w$x$y$                          ",
"                                                                                ",
"                                                                                "};
