/* XPM */
static char * box1_xpm[] = {
"40 40 491 2",
"  	c #AEAEAE",
". 	c #AEAFAF",
"+ 	c #B1B2B3",
"@ 	c #B0B1B1",
"# 	c #B1B2B4",
"$ 	c #B0B1B2",
"% 	c #AFB0B1",
"& 	c #B1B1B3",
"* 	c #B0B0B1",
"= 	c #AFB0B0",
"- 	c #AEAEAF",
"; 	c #ADADAD",
"> 	c #ACACAC",
", 	c #ADAEAE",
"' 	c #A8A5A2",
") 	c #8A8073",
"! 	c #948C84",
"~ 	c #867C6E",
"{ 	c #867B6E",
"] 	c #877C6F",
"^ 	c #897D6F",
"/ 	c #897D6E",
"( 	c #887C6B",
"_ 	c #958C82",
": 	c #9D968F",
"< 	c #887C6C",
"[ 	c #92877A",
"} 	c #9E9990",
"| 	c #9C968D",
"1 	c #9E9892",
"2 	c #ADAEAF",
"3 	c #AFAEAE",
"4 	c #ABA49C",
"5 	c #9F9586",
"6 	c #8B7D68",
"7 	c #847560",
"8 	c #7F6F5E",
"9 	c #80705D",
"0 	c #7E705B",
"a 	c #796A58",
"b 	c #7E6E5B",
"c 	c #7D6D5A",
"d 	c #7A6A59",
"e 	c #766957",
"f 	c #736755",
"g 	c #716555",
"h 	c #736757",
"i 	c #7D705E",
"j 	c #7F705F",
"k 	c #65594A",
"l 	c #574C3E",
"m 	c #433C34",
"n 	c #959492",
"o 	c #B3B3B3",
"p 	c #AFADA8",
"q 	c #B6A287",
"r 	c #BFA688",
"s 	c #C4AC8D",
"t 	c #BDA586",
"u 	c #AF9B7D",
"v 	c #B9A484",
"w 	c #B49E81",
"x 	c #A38E75",
"y 	c #A89377",
"z 	c #9F8E71",
"A 	c #938269",
"B 	c #918069",
"C 	c #908069",
"D 	c #8C7D66",
"E 	c #887863",
"F 	c #635746",
"G 	c #3A332A",
"H 	c #342D25",
"I 	c #373025",
"J 	c #524D44",
"K 	c #B9B9BA",
"L 	c #AFAEAD",
"M 	c #B9A894",
"N 	c #C9AE90",
"O 	c #D1B798",
"P 	c #D1B898",
"Q 	c #CCB696",
"R 	c #C7B094",
"S 	c #C5AE92",
"T 	c #C6AF90",
"U 	c #C9B091",
"V 	c #C8B391",
"W 	c #C7B090",
"X 	c #C4AE8F",
"Y 	c #C0AA8B",
"Z 	c #BBA488",
"` 	c #665C4B",
" .	c #353027",
"..	c #413A2F",
"+.	c #3E352C",
"@.	c #534D45",
"#.	c #B6B6B7",
"$.	c #ADAFB0",
"%.	c #B3A89A",
"&.	c #C6AB88",
"*.	c #CDB592",
"=.	c #CCB493",
"-.	c #CCB292",
";.	c #CCB294",
">.	c #C6B091",
",.	c #C4AD91",
"'.	c #C6AF91",
").	c #CAB094",
"!.	c #CBB395",
"~.	c #CBB497",
"{.	c #CCB599",
"].	c #CBB59A",
"^.	c #C3AD93",
"/.	c #484137",
"(.	c #40382F",
"_.	c #423A30",
":.	c #3E372B",
"<.	c #534D44",
"[.	c #BAAA97",
"}.	c #C7AD89",
"|.	c #CDB492",
"1.	c #CCB592",
"2.	c #CAB390",
"3.	c #CBB191",
"4.	c #C9AF90",
"5.	c #C6AD8F",
"6.	c #C7B08F",
"7.	c #C8B090",
"8.	c #C8AF8F",
"9.	c #C7B190",
"0.	c #C8B191",
"a.	c #C8B292",
"b.	c #C3AE91",
"c.	c #3F372E",
"d.	c #41392F",
"e.	c #413A30",
"f.	c #3E362B",
"g.	c #ADAEB0",
"h.	c #B4ABA1",
"i.	c #CAAE8B",
"j.	c #D0B694",
"k.	c #D1B794",
"l.	c #CEB693",
"m.	c #CAB290",
"n.	c #C9B090",
"o.	c #C8B08F",
"p.	c #C9B190",
"q.	c #C9B291",
"r.	c #C9B191",
"s.	c #C9B292",
"t.	c #C4AE90",
"u.	c #41392E",
"v.	c #41382D",
"w.	c #42392F",
"x.	c #40372D",
"y.	c #4F4A40",
"z.	c #ACAEB0",
"A.	c #B7ADA2",
"B.	c #CDB18E",
"C.	c #D2B896",
"D.	c #D3B997",
"E.	c #D2B794",
"F.	c #CEB593",
"G.	c #CCB392",
"H.	c #CAB292",
"I.	c #CBB190",
"J.	c #C8B291",
"K.	c #CAB492",
"L.	c #C4AD92",
"M.	c #423930",
"N.	c #433A30",
"O.	c #3E362C",
"P.	c #6F6C65",
"Q.	c #B4B4B4",
"R.	c #B2ADA9",
"S.	c #C9B397",
"T.	c #D6BA97",
"U.	c #D4BB98",
"V.	c #D3B897",
"W.	c #D2B796",
"X.	c #CFB596",
"Y.	c #CCB293",
"Z.	c #CAB392",
"`.	c #CBB593",
" +	c #C0AD91",
".+	c #423931",
"++	c #443A30",
"@+	c #40372C",
"#+	c #393329",
"$+	c #807D78",
"%+	c #B2B2B3",
"&+	c #B1ADAA",
"*+	c #C8B399",
"=+	c #D5B998",
"-+	c #D6BA9A",
";+	c #D4BA9A",
">+	c #D0B695",
",+	c #D4BA97",
"'+	c #D3BB99",
")+	c #CFB796",
"!+	c #CDB494",
"~+	c #CCB595",
"{+	c #CBB596",
"]+	c #C2AB91",
"^+	c #423A31",
"/+	c #453B31",
"(+	c #373028",
"_+	c #645F56",
":+	c #B5B5B5",
"<+	c #B1AEA9",
"[+	c #CAB39A",
"}+	c #D6BB99",
"|+	c #D7BD9B",
"1+	c #D9BF9C",
"2+	c #CCB596",
"3+	c #A7957F",
"4+	c #A79681",
"5+	c #B39F87",
"6+	c #C2AC8F",
"7+	c #CEB596",
"8+	c #CFB697",
"9+	c #D0B799",
"0+	c #CEB898",
"a+	c #C1AC91",
"b+	c #423C31",
"c+	c #453B32",
"d+	c #3C342C",
"e+	c #3D382D",
"f+	c #B2B3B3",
"g+	c #ADADAE",
"h+	c #C5B49E",
"i+	c #D7BF9C",
"j+	c #C9B193",
"k+	c #A99681",
"l+	c #978877",
"m+	c #9D8E7B",
"n+	c #9A8A7A",
"o+	c #A39380",
"p+	c #C7B193",
"q+	c #D1B899",
"r+	c #D0B89A",
"s+	c #D0B99B",
"t+	c #C1AD92",
"u+	c #433B32",
"v+	c #443B31",
"w+	c #3C342A",
"x+	c #B0AFB0",
"y+	c #ABADB0",
"z+	c #C3B4A1",
"A+	c #D7BE9B",
"B+	c #DAC09F",
"C+	c #C6AF92",
"D+	c #928274",
"E+	c #8C7E71",
"F+	c #86796E",
"G+	c #9C8D7C",
"H+	c #B7A48A",
"I+	c #CDB698",
"J+	c #D2B99B",
"K+	c #D0B99C",
"L+	c #443D32",
"M+	c #463C31",
"N+	c #40382E",
"O+	c #888683",
"P+	c #B1B1B1",
"Q+	c #B1AFAD",
"R+	c #C9B59D",
"S+	c #D6BD9B",
"T+	c #DBBF9F",
"U+	c #C5B093",
"V+	c #958676",
"W+	c #9B8A79",
"X+	c #A6947F",
"Y+	c #9A897A",
"Z+	c #968778",
"`+	c #908275",
" @	c #B7A48C",
".@	c #D3BA9C",
"+@	c #D5BD9F",
"@@	c #8C7C6B",
"#@	c #453D32",
"$@	c #403830",
"%@	c #AAAAAA",
"&@	c #C1B3A2",
"*@	c #D8BE9D",
"=@	c #BDA78D",
"-@	c #AE9C85",
";@	c #A08F7D",
">@	c #948678",
",@	c #9B8D7C",
"'@	c #BDA990",
")@	c #D3BB9C",
"!@	c #A3907C",
"~@	c #433C32",
"{@	c #3E382E",
"]@	c #58524A",
"^@	c #C1B4A1",
"/@	c #D6BE9E",
"(@	c #D5BE9E",
"_@	c #C6B096",
":@	c #C6AF95",
"<@	c #C6B095",
"[@	c #BFAA90",
"}@	c #BCA98E",
"|@	c #B6A38C",
"1@	c #AF9D88",
"2@	c #C5B195",
"3@	c #D7BEA0",
"4@	c #D3BC9E",
"5@	c #CFB79E",
"6@	c #463E35",
"7@	c #423B32",
"8@	c #3E372E",
"9@	c #57514A",
"0@	c #B7B0A7",
"a@	c #D3BC9F",
"b@	c #DBC3A3",
"c@	c #DAC1A3",
"d@	c #D5BC9E",
"e@	c #CAB499",
"f@	c #C6B297",
"g@	c #C7B296",
"h@	c #BCA990",
"i@	c #B0A08A",
"j@	c #BDAA91",
"k@	c #D6BDA0",
"l@	c #9B8975",
"m@	c #443C32",
"n@	c #423C32",
"o@	c #3E3930",
"p@	c #3C352C",
"q@	c #ADACAC",
"r@	c #B7B1A7",
"s@	c #D2BCA0",
"t@	c #DAC3A4",
"u@	c #DAC2A4",
"v@	c #D8C1A3",
"w@	c #CFB89C",
"x@	c #C8B298",
"y@	c #CEB89C",
"z@	c #D7C0A1",
"A@	c #D2BA9C",
"B@	c #C5B097",
"C@	c #D4BCA0",
"D@	c #8F7E6C",
"E@	c #443D33",
"F@	c #423A32",
"G@	c #38322C",
"H@	c #534E47",
"I@	c #ACADB0",
"J@	c #BFB3A4",
"K@	c #D5BFA0",
"L@	c #DAC4A4",
"M@	c #DDC4A5",
"N@	c #CCB59C",
"O@	c #9C8E7F",
"P@	c #A39382",
"Q@	c #AD9D8A",
"R@	c #BCA992",
"S@	c #D5BE9F",
"T@	c #D6BFA1",
"U@	c #D4BDA0",
"V@	c #D8C0A1",
"W@	c #8F7F6D",
"X@	c #443C33",
"Y@	c #3F3931",
"Z@	c #312A25",
"`@	c #8F8D8C",
" #	c #B0B1B0",
".#	c #AEAEAD",
"+#	c #CFBCA3",
"@#	c #DCC6A6",
"##	c #DCC6A7",
"$#	c #BEAC96",
"%#	c #9F9282",
"&#	c #B3A38F",
"*#	c #C9B59C",
"=#	c #AC9C89",
"-#	c #BAA790",
";#	c #D7BFA2",
">#	c #DAC0A3",
",#	c #8E7F6D",
"'#	c #433C33",
")#	c #403831",
"!#	c #332D29",
"~#	c #625D5A",
"{#	c #ABADAF",
"]#	c #CBB8A0",
"^#	c #DBC4A4",
"/#	c #DCC6A8",
"(#	c #C3B19A",
"_#	c #A19484",
":#	c #998C81",
"<#	c #B19F8E",
"[#	c #B2A28E",
"}#	c #C8B299",
"|#	c #D7C0A0",
"1#	c #D8C2A2",
"2#	c #90806E",
"3#	c #453E33",
"4#	c #3F3A31",
"5#	c #302A23",
"6#	c #92908E",
"7#	c #B0B0B0",
"8#	c #C1B09A",
"9#	c #D3BC9C",
"0#	c #DAC3A5",
"a#	c #CBB79E",
"b#	c #AE9F8D",
"c#	c #BDAB96",
"d#	c #9D8F81",
"e#	c #B5A492",
"f#	c #AFA08F",
"g#	c #BBA893",
"h#	c #D9C2A4",
"i#	c #D9C3A4",
"j#	c #948672",
"k#	c #443D34",
"l#	c #363028",
"m#	c #5E5A54",
"n#	c #ABABAB",
"o#	c #AFAFAF",
"p#	c #AFAFB1",
"q#	c #A69989",
"r#	c #BFA484",
"s#	c #D0BA9B",
"t#	c #BCAA91",
"u#	c #C0AE96",
"v#	c #C5B299",
"w#	c #A29485",
"x#	c #BEAA93",
"y#	c #DBC4A7",
"z#	c #7C705F",
"A#	c #3B342A",
"B#	c #8D8A88",
"C#	c #B5B6B6",
"D#	c #B0B0B2",
"E#	c #9F9384",
"F#	c #A5937D",
"G#	c #B29777",
"H#	c #C1A785",
"I#	c #C6AD8E",
"J#	c #B49F87",
"K#	c #A99886",
"L#	c #9C8E80",
"M#	c #A99986",
"N#	c #CEB79C",
"O#	c #D7C0A3",
"P#	c #DFC8AA",
"Q#	c #534B3F",
"R#	c #3A3228",
"S#	c #5E5852",
"T#	c #AEADAD",
"U#	c #ACA9A7",
"V#	c #A99983",
"W#	c #A69172",
"X#	c #AF9778",
"Y#	c #B59C7C",
"Z#	c #B5A081",
"`#	c #BDA688",
" $	c #C7AF91",
".$	c #CDB696",
"+$	c #D5BEA2",
"@$	c #877866",
"#$	c #8A8884",
"$$	c #B6B7B7",
"%$	c #ADADAC",
"&$	c #A4927C",
"*$	c #A8937B",
"=$	c #B1977A",
"-$	c #B69A79",
";$	c #BB9F7F",
">$	c #C1A888",
",$	c #7C6D5B",
"'$	c #5E5953",
")$	c #AFB0B2",
"!$	c #B0B2B7",
"~$	c #A6A096",
"{$	c #A29483",
"]$	c #A59380",
"^$	c #9F8363",
"/$	c #AC9074",
"($	c #5B5249",
"_$	c #B1B2B2",
":$	c #B0B2B5",
"<$	c #A29991",
"[$	c #948270",
"}$	c #8E8477",
"|$	c #B1B2B5",
"1$	c #ACAAA9",
"2$	c #ACAAA7",
"                                                                                ",
"                                                                                ",
"                                                                                ",
"                                                                                ",
"                                                                                ",
"                                                                                ",
"                          . + @ + + + + + # $ % # & % * =                       ",
"                  - ; > , ' ) ! ~ { ] ^ / ( _ : < [ } | 1 2                     ",
"                3 4 5 6 7 8 9 0 a b c d e f g h i j k l m n o                   ",
"              - p q r s t u v w x y z A B C D E F G H I J K                     ",
"                L M N O O P Q R S T U V W X Y Z `  ...+.@.#.                    ",
"                $.%.&.*.=.-.;.>.,.'.).!.~.{.].^./.(._.:.<.#.                    ",
"                3 [.}.|.1.2.3.4.5.6.7.8.9.0.a.b.c.d.e.f.<.#.                    ",
"                g.h.i.j.k.l.1.m.n.o.p.p.q.r.s.t.u.v.w.x.y.#.                    ",
"                z.A.B.C.D.E.F.G.H.m.p.I.s.J.K.L.M.d.N.O.P.Q.                    ",
"                2 R.S.T.U.V.W.X.F.F.G.Y.Y.Z.`. +.+++@+#+$+%+                    ",
"                2 &+*+=+-+;+P >+,+'+)+!+~+~+{+]+^+/+O.(+_+:+                    ",
"                2 <+[+}+|+1+2+3+4+5+6+7+8+9+0+a+b+c+d+e+f+;                     ",
"                  g+h+|+i+j+k+l+m+n+o+p+q+r+s+t+u+v+w+u.x+                      ",
"                  y+z+A+B+C+l+D+E+F+G+H+I+J+K+^.L+M+N+u.O+P+                    ",
"                2 Q+R+S+T+U+V+W+X+Y+Z+`+ @.@+@@@^+#@^+$@%@                      ",
"                  y+&@*@K+^.=@-@;@V+>@,@'@)@+@!@~@#@{@]@;                       ",
"                  y+^@/@(@_@:@<@[@}@|@1@2@3@4@5@6@7@8@9@;                       ",
"                  2 0@a@b@b@c@d@e@f@g@h@i@j@k@l@m@n@o@p@q@                      ",
"                  2 r@s@t@u@v@w@x@y@z@A@e@B@C@D@E@F@G@H@;                       ",
"                  I@J@K@L@M@N@O@P@Q@R@S@T@U@V@W@X@Y@Z@`@ #                      ",
"                    .#+#@###$#%#&#*#=#-#;#S@>#,#'#)#!#~#                        ",
"                    {#]#^#/#(#_#:#<#R+[#}#|#1#2#3#4#5#6#7#                      ",
"                    z.8#9#0#a#b#c#d#e#f#g#h#i#j#k#l#m#n#o#                      ",
"                    p#q#r#7+s#t#u#v#w#_#x#u@y#z#u+A#B#C#                        ",
"                    D#E#F#G#H#I#J#K#L#M#N#O#P#Q#R#S#P+o#                        ",
"                      T#U#V#W#X#Y#Z#`# $.$r++$@$e.#$$$                          ",
"                      - -   ; %$&$*$=$-$;$>$U ,$'$C#                            ",
"                                )$!$~${$]$^$/$($_$;                             ",
"                                  .#)$:$g+<$[$}$,                               ",
"                                        . |$1$2$                                ",
"                                            . o#                                ",
"                                                                                ",
"                                                                                ",
"                                                                                "};
