/* XPM */
static char * bstop_xpm[] = {
"40 40 467 2",
"  	c #AEAEAE",
". 	c #B1B1B2",
"+ 	c #B3B5B6",
"@ 	c #B5B7B8",
"# 	c #B7B9BA",
"$ 	c #B6B8B9",
"% 	c #B4B6B6",
"& 	c #B2B3B4",
"* 	c #B0B0B1",
"= 	c #B0B1B1",
"- 	c #B3B6B7",
"; 	c #A19E9C",
"> 	c #8D8580",
", 	c #80736E",
"' 	c #746761",
") 	c #7A6F6A",
"! 	c #877F7B",
"~ 	c #96918F",
"{ 	c #A19F9E",
"] 	c #A7A6A6",
"^ 	c #B4B5B6",
"/ 	c #B5B6B6",
"( 	c #B3B4B4",
"_ 	c #B2B2B3",
": 	c #B0B0B0",
"< 	c #B0B2B2",
"[ 	c #968D87",
"} 	c #6D5142",
"| 	c #583826",
"1 	c #4E2E1D",
"2 	c #452515",
"3 	c #3E200E",
"4 	c #3D2010",
"5 	c #3E2112",
"6 	c #402617",
"7 	c #452B1D",
"8 	c #493123",
"9 	c #493225",
"0 	c #4D382C",
"a 	c #534036",
"b 	c #60524A",
"c 	c #736861",
"d 	c #827A75",
"e 	c #918B88",
"f 	c #979490",
"g 	c #A9A8A8",
"h 	c #AEADAD",
"i 	c #ADADAD",
"j 	c #AFAFAF",
"k 	c #B1B1B1",
"l 	c #8A7A72",
"m 	c #684A3B",
"n 	c #502C17",
"o 	c #512A16",
"p 	c #542C16",
"q 	c #522B17",
"r 	c #4C2916",
"s 	c #482714",
"t 	c #452513",
"u 	c #432312",
"v 	c #412310",
"w 	c #3E2110",
"x 	c #3E200F",
"y 	c #3B1E0E",
"z 	c #3A1D0C",
"A 	c #3B1D0D",
"B 	c #3D2313",
"C 	c #3F2619",
"D 	c #3E261A",
"E 	c #422E22",
"F 	c #4F3F37",
"G 	c #51453E",
"H 	c #5A504C",
"I 	c #68615D",
"J 	c #7B7673",
"K 	c #8D8A87",
"L 	c #9A9898",
"M 	c #A8A7A6",
"N 	c #B4B4B4",
"O 	c #AFAFB0",
"P 	c #B1B2B3",
"Q 	c #B8B9B9",
"R 	c #534034",
"S 	c #523628",
"T 	c #55311D",
"U 	c #522914",
"V 	c #532B15",
"W 	c #552E19",
"X 	c #542E18",
"Y 	c #512C17",
"Z 	c #4D2B16",
"` 	c #4B2916",
" .	c #462412",
"..	c #452614",
"+.	c #503527",
"@.	c #574033",
"#.	c #58453D",
"$.	c #504239",
"%.	c #4E433D",
"&.	c #4D413B",
"*.	c #453934",
"=.	c #3F352F",
"-.	c #302620",
";.	c #21140E",
">.	c #130500",
",.	c #1F140E",
"'.	c #453C36",
").	c #7A7371",
"!.	c #AAAAA9",
"~.	c #ACACAC",
"{.	c #C1C1C1",
"].	c #574C45",
"^.	c #504741",
"/.	c #5B4B43",
"(.	c #5F493C",
"_.	c #5B3A29",
":.	c #522C17",
"<.	c #522A15",
"[.	c #542E19",
"}.	c #542E17",
"|.	c #522B15",
"1.	c #5D3D2B",
"2.	c #6F5B50",
"3.	c #7C6F68",
"4.	c #726761",
"5.	c #8B807B",
"6.	c #BFBBB6",
"7.	c #B3AEAC",
"8.	c #C8C4C2",
"9.	c #C6C3C3",
"0.	c #CECBCB",
"a.	c #BFBFBC",
"b.	c #9C9999",
"c.	c #7F7A79",
"d.	c #6C6765",
"e.	c #40362F",
"f.	c #241912",
"g.	c #625C58",
"h.	c #9F9C9C",
"i.	c #C8C7C7",
"j.	c #60544D",
"k.	c #524740",
"l.	c #5E554F",
"m.	c #675D56",
"n.	c #6D6059",
"o.	c #715F56",
"p.	c #644738",
"q.	c #56301B",
"r.	c #58331F",
"s.	c #745E51",
"t.	c #867871",
"u.	c #847872",
"v.	c #6A625F",
"w.	c #C6C4C3",
"x.	c #EEEDEC",
"y.	c #FFFFFF",
"z.	c #FCFBFD",
"A.	c #FDFDFD",
"B.	c #F9FAFA",
"C.	c #F7F8F8",
"D.	c #D4D2D0",
"E.	c #A09D9D",
"F.	c #A6A6A6",
"G.	c #ADACAC",
"H.	c #C2C3C3",
"I.	c #6A615C",
"J.	c #51453F",
"K.	c #5D534C",
"L.	c #685C56",
"M.	c #71655F",
"N.	c #7A6E68",
"O.	c #7D726D",
"P.	c #83766F",
"Q.	c #E9E3E1",
"R.	c #FEFEFE",
"S.	c #C2BBB6",
"T.	c #68625F",
"U.	c #0C0D0C",
"V.	c #161716",
"W.	c #444544",
"X.	c #C1C4C2",
"Y.	c #F4F7F5",
"Z.	c #EFF1EF",
"`.	c #B8B8B8",
" +	c #AAAAAB",
".+	c #BDBDBD",
"++	c #7A716C",
"@+	c #50443E",
"#+	c #5F524C",
"$+	c #675B55",
"%+	c #71655D",
"&+	c #786C66",
"*+	c #7F736D",
"=+	c #867B74",
"-+	c #FDFFFF",
";+	c #EEEFF0",
">+	c #707172",
",+	c #687268",
"'+	c #767E76",
")+	c #7D887C",
"!+	c #8C998D",
"~+	c #F5FDF5",
"{+	c #FFFEFF",
"]+	c #FEFFFF",
"^+	c #FFFEFE",
"/+	c #D0D2D0",
"(+	c #ACABAC",
"_+	c #AEAFAE",
":+	c #B3B3B4",
"<+	c #8D8682",
"[+	c #4D4038",
"}+	c #594E48",
"|+	c #62564F",
"1+	c #6F655D",
"2+	c #756A64",
"3+	c #7D716B",
"4+	c #837872",
"5+	c #FDFCFD",
"6+	c #EAEAEB",
"7+	c #797978",
"8+	c #858D84",
"9+	c #858F84",
"0+	c #808B81",
"a+	c #99A499",
"b+	c #F6FEF5",
"c+	c #FEFEFF",
"d+	c #FEFFFE",
"e+	c #D8D9D8",
"f+	c #9E9D9D",
"g+	c #928E8D",
"h+	c #493A31",
"i+	c #544A43",
"j+	c #5E534B",
"k+	c #675A54",
"l+	c #6F635D",
"m+	c #766B65",
"n+	c #80746E",
"o+	c #EDEDED",
"p+	c #7F7F7F",
"q+	c #808A7F",
"r+	c #828B82",
"s+	c #7F8A7F",
"t+	c #9DA99D",
"u+	c #F4FDF5",
"v+	c #FFFFFE",
"w+	c #D5D5D6",
"x+	c #A2A2A2",
"y+	c #A19E9D",
"z+	c #463731",
"A+	c #534740",
"B+	c #5B4F47",
"C+	c #62564E",
"D+	c #685C55",
"E+	c #70645E",
"F+	c #766B63",
"G+	c #F3F2F1",
"H+	c #E8E7E8",
"I+	c #727271",
"J+	c #788479",
"K+	c #7D897F",
"L+	c #7F8B7E",
"M+	c #A0ABA0",
"N+	c #F6FEF7",
"O+	c #D0D0D0",
"P+	c #A1A1A1",
"Q+	c #AAA7A5",
"R+	c #473A33",
"S+	c #4D413C",
"T+	c #584C46",
"U+	c #61554E",
"V+	c #60554F",
"W+	c #6E625C",
"X+	c #DDDBDA",
"Y+	c #E6E5E7",
"Z+	c #939494",
"`+	c #B2BAB4",
" @	c #8B968A",
".@	c #758175",
"+@	c #9EA9A0",
"@@	c #FBFEFA",
"#@	c #C6C6C7",
"$@	c #AFADAB",
"%@	c #4A3D36",
"&@	c #463934",
"*@	c #4F443E",
"=@	c #52443E",
"-@	c #6B5F5A",
";@	c #8C8683",
">@	c #969290",
",@	c #E3E2E2",
"'@	c #E3E3E3",
")@	c #AFB0AE",
"!@	c #E4E9E5",
"~@	c #A9B2A8",
"{@	c #9DA99C",
"]@	c #F7FEF6",
"^@	c #B5B5B4",
"/@	c #ACABAB",
"(@	c #B1B0B0",
"_@	c #4C403A",
":@	c #3C2E28",
"<@	c #463830",
"[@	c #493D36",
"}@	c #989290",
"|@	c #AFB0B0",
"1@	c #ADAEAE",
"2@	c #E1E2E1",
"3@	c #E5E4E3",
"4@	c #ABACAB",
"5@	c #FCFCFD",
"6@	c #FCFCFB",
"7@	c #F0F1EF",
"8@	c #F9FFF9",
"9@	c #F9FBF9",
"0@	c #B3B3B2",
"a@	c #58504A",
"b@	c #372C24",
"c@	c #4B4039",
"d@	c #514842",
"e@	c #605651",
"f@	c #746D69",
"g@	c #B9B8B7",
"h@	c #ACADAD",
"i@	c #C8C8C8",
"j@	c #B2B4B2",
"k@	c #FCFCFC",
"l@	c #FBFFFB",
"m@	c #EEEEED",
"n@	c #A9A7A7",
"o@	c #AEAFAF",
"p@	c #817D79",
"q@	c #7A7673",
"r@	c #979594",
"s@	c #B6B7B7",
"t@	c #B1B0B1",
"u@	c #BBBCBC",
"v@	c #9F9E9E",
"w@	c #C6C5C7",
"x@	c #FCFFFC",
"y@	c #FEFFFD",
"z@	c #DEDDDE",
"A@	c #A7A7A7",
"B@	c #B7B7B8",
"C@	c #B2B1B1",
"D@	c #C6C6C6",
"E@	c #A1A1A2",
"F@	c #FFFDFF",
"G@	c #FBFFFA",
"H@	c #FDFFFC",
"I@	c #D8DAD9",
"J@	c #B0B1B0",
"K@	c #C9C9C8",
"L@	c #979796",
"M@	c #E1E9E1",
"N@	c #FDFEFE",
"O@	c #ECF3EC",
"P@	c #F2FAF3",
"Q@	c #CFCFCF",
"R@	c #A8A9A9",
"S@	c #C6C7C6",
"T@	c #979797",
"U@	c #CDD7CC",
"V@	c #D4DDD3",
"W@	c #CDD7CD",
"X@	c #DFEADF",
"Y@	c #F7FCF7",
"Z@	c #C5C4C4",
"`@	c #A8A9A8",
" #	c #979998",
".#	c #CBD3CB",
"+#	c #E8F3E8",
"@#	c #DAE4D9",
"##	c #D0DBD0",
"$#	c #D7E3D8",
"%#	c #F0F9F1",
"&#	c #C7C6C7",
"*#	c #959695",
"=#	c #D5DFD5",
"-#	c #DAE5D9",
";#	c #E1EDE2",
">#	c #DDE8DD",
",#	c #CFDACF",
"'#	c #D3DFD4",
")#	c #E9F2E9",
"!#	c #FBFDFB",
"~#	c #B2B3B2",
"{#	c #C6C6C5",
"]#	c #9A9A99",
"^#	c #D7E0D6",
"/#	c #D8E3D8",
"(#	c #E5F0E6",
"_#	c #E3EEE2",
":#	c #D0DACF",
"<#	c #D2DED1",
"[#	c #E0E9E0",
"}#	c #F8FEF9",
"|#	c #F4F4F4",
"1#	c #AAABAB",
"2#	c #ADADAE",
"3#	c #C6C4C6",
"4#	c #989A98",
"5#	c #D6E1D7",
"6#	c #D9E4D9",
"7#	c #D8E2D8",
"8#	c #DFEBE0",
"9#	c #F1FCF1",
"0#	c #E3EDE3",
"a#	c #D0DAD1",
"b#	c #CDD8CE",
"c#	c #E0E6E0",
"d#	c #EBEAEB",
"e#	c #A6A7A6",
"f#	c #C4C4C4",
"g#	c #9B9A99",
"h#	c #D6E1D6",
"i#	c #D9E4D8",
"j#	c #E1ECE1",
"k#	c #D1DCD1",
"l#	c #D3DDD3",
"m#	c #F6F9F7",
"n#	c #E0E2E0",
"o#	c #A6A6A5",
"p#	c #ACADAC",
"q#	c #C5C5C5",
"r#	c #9D9E9D",
"s#	c #D9E3D9",
"t#	c #D6E2D7",
"u#	c #EBF4EC",
"v#	c #CDD2CD",
"w#	c #ABACAC",
"x#	c #C4C4C5",
"y#	c #9A9B9B",
"z#	c #D6E1D5",
"A#	c #D8E4D8",
"B#	c #DAE4DA",
"C#	c #D5E0D4",
"D#	c #C2C6BE",
"E#	c #A8A6A4",
"F#	c #A9AAAA",
"G#	c #ACACAD",
"H#	c #C1C2C1",
"I#	c #999A99",
"J#	c #DBE6DB",
"K#	c #D9E5D9",
"L#	c #D6E0D6",
"M#	c #CDD5CD",
"N#	c #BDC0BD",
"O#	c #BFBFBF",
"P#	c #969796",
"Q#	c #CBD5CB",
"R#	c #DEEADD",
"S#	c #DAE5DA",
"T#	c #CFD8CF",
"U#	c #C3C9C3",
"V#	c #B5B7B5",
"W#	c #ABABAC",
"X#	c #BCBDBD",
"Y#	c #C6CFC6",
"Z#	c #C8CEC8",
"`#	c #BBBEBB",
" $	c #ABAAAB",
".$	c #ADACAD",
"+$	c #C1C0C1",
"@$	c #9A9A9B",
"#$	c #B3B4B2",
"$$	c #A5A1A0",
"%$	c #949491",
"                                                                                ",
"                                                                                ",
"                                                                                ",
"                                                                                ",
"                                                                                ",
"                . + @ # # $ % & . *                                             ",
"            = - ; > , ' ' ) ! ~ { ] ^ $ / ( _ = :                               ",
"          < [ } | 1 2 3 4 5 6 7 8 9 0 a b c d e f g h i   j : k k :             ",
"        j i l m n o p q r s t u v w x y z A B C D E F G H I J K L M N O         ",
"            P Q R S T U V W X Y Z `  ...+.@.#.$.%.&.*.*.=.-.;.>.,.'.).!.j       ",
"            ~.{.].^./.(._.:.<.[.}.|.1.2.3.4.5.6.7.8.9.0.a.b.c.d.e.f.g.h.:       ",
"            ~.i.j.k.l.m.n.o.p.q.r.s.t.u.v.w.x.y.z.y.y.y.y.A.B.C.D.E.F.G.        ",
"            ~.H.I.J.K.L.M.N.O.P.Q.R.S.T.U.V.W.X.Y.y.R.y.y.y.y.y.Z.`. +          ",
"            ~..+++@+#+$+%+&+*+=+-+y.;+>+,+'+)+!+~+{+y.y.]+^+^+]+/+(+_+          ",
"              :+<+[+}+|+1+2+3+4+5+y.6+7+8+9+0+a+b+y.^+c+d+]+c+y.e+f+:           ",
"              : g+h+i+j+k+l+m+n+A.y.o+p+q+r+s+t+u+{+^+^+]+v+^+y.w+x+j           ",
"              = y+z+A+B+C+D+E+F+G+y.H+I+J+K+L+M+N+{+y.c+y.{+R.y.O+P+j           ",
"              = Q+R+S+T+U+V+C+W+X+y.Y+Z+`+ @.@+@@@{+c+{+d+^+y.{+#@F.j           ",
"              = $@%@&@*@=@-@;@>@,@y.'@)@y.!@~@{@]@y.R.{+v+c+R.R.^@/@            ",
"              = (@_@:@<@[@G }@|@1@2@3@4@5@y.6@7@8@{+c+{+^+^+]+9@G.              ",
"              : 0@a@b@c@d@e@f@g@h@x+i@j@k@v+y.y.l@y.{+c+v+y.y.m@n@o@            ",
"              j /@p@q@r@F.s@( t@u@v@w@_ A.{+d+]+y.d+{+c+y.x@y@z@A@j             ",
"                i k B@_ :       C@h D@E@F@c+R.y.{+c+x@G@^+H@G@I@F.j             ",
"                  j             ~.J@K@L@M@N@R.O@P@y.R.d+y.y.d+Q@R@              ",
"                                  _+S@T@U@V@W@X@Y@y.]+]+]+^+y.Z@`@              ",
"                                h j i@ #.#+#@###$#%#y.{+]+c+y..+~.              ",
"                                  1@&#*#=#-#;#>#,#'#)#]+{+y.!#~#~.              ",
"                                  1@{#]#^#/#/#(#_#:#<#[#}#y.|#1#~.              ",
"                                  2#3#4#5#6#7#8#9#0#a#b#c#y.d#e#h@              ",
"                                  h@f#g#h#/#i#/#X@j#k#l#m#y.n#o#i               ",
"                                  p#q#r#5#/#6#s#/#t#7#6#s#u#v#A@                ",
"                                  w#x#y#z#/#A#/#s#B#@#i#C#D#E#F#                ",
"                                  G#H#I#7#/#s#J#K#L#M#N#|@h i                   ",
"                                  ~.O#P#Q#R#S#T#U#V#W#i                         ",
"                                  ~.X#P#Y#Z#`#=  $.$                            ",
"                                  ~.+$@$#$  (+i                                 ",
"                                  : $$%$~.                                      ",
"                                    j :                                         ",
"                                                                                ",
"                                                                                "};
