/* XPM */
static char * dump1_xpm[] = {
"40 40 606 2",
"  	c #999999",
". 	c #A49783",
"+ 	c #B49763",
"@ 	c #C49745",
"# 	c #D99822",
"$ 	c #E4990F",
"% 	c #DA9A22",
"& 	c #CA983C",
"* 	c #BC9652",
"= 	c #AF9668",
"- 	c #A4977F",
"; 	c #9B9895",
"> 	c #9B9894",
", 	c #A89475",
"' 	c #B89358",
") 	c #C69138",
"! 	c #DA8F16",
"~ 	c #DE900B",
"{ 	c #E1910B",
"] 	c #E1920D",
"^ 	c #E2930D",
"/ 	c #E2920D",
"( 	c #E2920E",
"_ 	c #E0900E",
": 	c #DB900D",
"< 	c #D78D0D",
"[ 	c #D58D0C",
"} 	c #D28C10",
"| 	c #CB8D21",
"1 	c #C38F37",
"2 	c #B79152",
"3 	c #AE9568",
"4 	c #A4957E",
"5 	c #9B9994",
"6 	c #9B9795",
"7 	c #A99169",
"8 	c #B68E4B",
"9 	c #C48C2B",
"0 	c #D28A0E",
"a 	c #D78C0D",
"b 	c #D98D0C",
"c 	c #DD8E0C",
"d 	c #DD8E0D",
"e 	c #E08E0E",
"f 	c #DD8D0E",
"g 	c #D98C0F",
"h 	c #D5890F",
"i 	c #CF8710",
"j 	c #CE840F",
"k 	c #CF8510",
"l 	c #D1860F",
"m 	c #D4860E",
"n 	c #D6870E",
"o 	c #DA8B0C",
"p 	c #DF8F0D",
"q 	c #E6920C",
"r 	c #E9950D",
"s 	c #E8970D",
"t 	c #E59712",
"u 	c #DC9823",
"v 	c #CE9638",
"w 	c #C0954D",
"x 	c #AF9469",
"y 	c #A4957D",
"z 	c #999795",
"A 	c #9D9488",
"B 	c #A26C0F",
"C 	c #A86E0E",
"D 	c #C07D0D",
"E 	c #CB870C",
"F 	c #D28D0C",
"G 	c #D38B0C",
"H 	c #D0890D",
"I 	c #CF870E",
"J 	c #CE870E",
"K 	c #CB850E",
"L 	c #CB830E",
"M 	c #CC830E",
"N 	c #D1840D",
"O 	c #D3850C",
"P 	c #D5850C",
"Q 	c #D8860D",
"R 	c #DB890D",
"S 	c #DF8C0E",
"T 	c #E38D0E",
"U 	c #E38F0C",
"V 	c #E3900C",
"W 	c #E3910D",
"X 	c #E3900D",
"Y 	c #E1900D",
"Z 	c #DF8E0E",
"` 	c #E08E0C",
" .	c #E08F0C",
"..	c #BC7A0A",
"+.	c #8A5B08",
"@.	c #7F745D",
"#.	c #C67F0C",
"$.	c #BB790E",
"%.	c #AC700D",
"&.	c #9B6410",
"*.	c #9C6612",
"=.	c #A66F10",
"-.	c #B57A10",
";.	c #BD7D11",
">.	c #C6840E",
",.	c #CB840C",
"'.	c #CB820C",
").	c #D0830C",
"!.	c #D5860C",
"~.	c #D9890C",
"{.	c #DE8B0C",
"].	c #DF8C0B",
"^.	c #E08D0C",
"/.	c #E18E0C",
"(.	c #E18E0D",
"_.	c #E28E0C",
":.	c #E18D0C",
"<.	c #D3880C",
"[.	c #CD820B",
"}.	c #C97F0B",
"|.	c #C67D0A",
"1.	c #A4690A",
"2.	c #7F5309",
"3.	c #563A0A",
"4.	c #4B340A",
"5.	c #493008",
"6.	c #7C7261",
"7.	c #DD920E",
"8.	c #BF800E",
"9.	c #7B500C",
"0.	c #613D08",
"a.	c #81520B",
"b.	c #9F650C",
"c.	c #A2680F",
"d.	c #9C6916",
"e.	c #9E6B16",
"f.	c #A36C11",
"g.	c #B4760E",
"h.	c #C5830E",
"i.	c #D1880D",
"j.	c #D88B0D",
"k.	c #D5880C",
"l.	c #D6870C",
"m.	c #D8890C",
"n.	c #D8890B",
"o.	c #D4860B",
"p.	c #CE830B",
"q.	c #C97F0C",
"r.	c #C77E0C",
"s.	c #C77F0D",
"t.	c #A1690B",
"u.	c #7A510B",
"v.	c #4C350B",
"w.	c #49320B",
"x.	c #4C3409",
"y.	c #4C320B",
"z.	c #4C3309",
"A.	c #523807",
"B.	c #7F7662",
"C.	c #DB9214",
"D.	c #D48B0D",
"E.	c #895C0D",
"F.	c #281B06",
"G.	c #0E0903",
"H.	c #1A1004",
"I.	c #3F2808",
"J.	c #674711",
"K.	c #8C5B0E",
"L.	c #A1680D",
"M.	c #9F670B",
"N.	c #9B650D",
"O.	c #8A5910",
"P.	c #8B5D16",
"Q.	c #A57013",
"R.	c #B97C11",
"S.	c #C07E0D",
"T.	c #C37E0C",
"U.	c #BF7B0A",
"V.	c #B2720B",
"W.	c #8F5F09",
"X.	c #724D0B",
"Y.	c #513A0D",
"Z.	c #50360B",
"`.	c #52380B",
" +	c #553909",
".+	c #563A08",
"++	c #53380A",
"@+	c #563D0C",
"#+	c #593E0B",
"$+	c #878070",
"%+	c #D4911D",
"&+	c #DE950D",
"*+	c #CB870E",
"=+	c #97640E",
"-+	c #7B510E",
";+	c #63420B",
">+	c #452F09",
",+	c #201607",
"'+	c #090604",
")+	c #1A1104",
"!+	c #3E2805",
"~+	c #664108",
"{+	c #82530B",
"]+	c #935E0D",
"^+	c #A3690F",
"/+	c #AF7110",
"(+	c #A46B14",
"_+	c #A06D17",
":+	c #A47012",
"<+	c #422D09",
"[+	c #49320A",
"}+	c #503A0C",
"|+	c #583D0C",
"1+	c #5A3F0D",
"2+	c #593F0C",
"3+	c #583D0A",
"4+	c #573E0B",
"5+	c #583E0B",
"6+	c #553A0A",
"7+	c #573D0B",
"8+	c #583E0A",
"9+	c #878275",
"0+	c #D39222",
"a+	c #E0910F",
"b+	c #E2940E",
"c+	c #E9990E",
"d+	c #E2950D",
"e+	c #CC860D",
"f+	c #AE730E",
"g+	c #916010",
"h+	c #754F0F",
"i+	c #52390C",
"j+	c #302208",
"k+	c #161004",
"l+	c #040301",
"m+	c #191003",
"n+	c #603F0A",
"o+	c #BA7A0E",
"p+	c #CA830D",
"q+	c #C9830E",
"r+	c #B3760D",
"s+	c #503708",
"t+	c #593E0A",
"u+	c #593E0C",
"v+	c #563A09",
"w+	c #583E08",
"x+	c #563C07",
"y+	c #898379",
"z+	c #CD922F",
"A+	c #E1900E",
"B+	c #E2930E",
"C+	c #E9970D",
"D+	c #E8970E",
"E+	c #E9970C",
"F+	c #E8990C",
"G+	c #EA9A0C",
"H+	c #DB940D",
"I+	c #BE820F",
"J+	c #9F6E0F",
"K+	c #895E0E",
"L+	c #714E0C",
"M+	c #4E360B",
"N+	c #553D0A",
"O+	c #A5720E",
"P+	c #E2990D",
"Q+	c #DD940C",
"R+	c #BA7C0B",
"S+	c #553C0A",
"T+	c #59400D",
"U+	c #583F0B",
"V+	c #583F0A",
"W+	c #583E09",
"X+	c #583C09",
"Y+	c #573D07",
"Z+	c #563B06",
"`+	c #583B06",
" @	c #553B05",
".@	c #908D85",
"+@	c #C78D2F",
"@@	c #E2910D",
"#@	c #E4930C",
"$@	c #E7950D",
"%@	c #E6950D",
"&@	c #E7950C",
"*@	c #E7950E",
"=@	c #E9990C",
"-@	c #E79B0D",
";@	c #E89D0C",
">@	c #E89D0B",
",@	c #E49B0D",
"'@	c #D5920D",
")@	c #BF850F",
"!@	c #BE8511",
"~@	c #DB9A10",
"{@	c #E5A10D",
"]@	c #E1980C",
"^@	c #BC800B",
"/@	c #5A3F0C",
"(@	c #583D09",
"_@	c #583D08",
":@	c #573C08",
"<@	c #573D06",
"[@	c #573C06",
"}@	c #553A04",
"|@	c #553A05",
"1@	c #573B03",
"2@	c #543904",
"3@	c #918C86",
"4@	c #BA893B",
"5@	c #DC8C0C",
"6@	c #E2910E",
"7@	c #E6920E",
"8@	c #E8950D",
"9@	c #E5930C",
"0@	c #E7930D",
"a@	c #E7940D",
"b@	c #E6960D",
"c@	c #E5980B",
"d@	c #E6990C",
"e@	c #E99B0C",
"f@	c #E89C0D",
"g@	c #E89E0D",
"h@	c #E89F0D",
"i@	c #E79D0C",
"j@	c #E4990D",
"k@	c #BD800C",
"l@	c #573F0A",
"m@	c #593F0A",
"n@	c #563D06",
"o@	c #573C05",
"p@	c #583B05",
"q@	c #563A05",
"r@	c #563A04",
"s@	c #553904",
"t@	c #553805",
"u@	c #543802",
"v@	c #553A02",
"w@	c #979595",
"x@	c #B18640",
"y@	c #CB830C",
"z@	c #E4900D",
"A@	c #E6920F",
"B@	c #E5910E",
"C@	c #E4920F",
"D@	c #E5920E",
"E@	c #E5940C",
"F@	c #E6950C",
"G@	c #E6980D",
"H@	c #E7990D",
"I@	c #E8980B",
"J@	c #E6990D",
"K@	c #E5990D",
"L@	c #E69B0D",
"M@	c #E4980D",
"N@	c #BD7E0A",
"O@	c #583C07",
"P@	c #583C08",
"Q@	c #563C05",
"R@	c #563905",
"S@	c #553906",
"T@	c #513504",
"U@	c #553803",
"V@	c #543A03",
"W@	c #B18946",
"X@	c #D4890D",
"Y@	c #DE8D0D",
"Z@	c #E18F0F",
"`@	c #E3900E",
" #	c #E4920E",
".#	c #E4930E",
"+#	c #E5940E",
"@#	c #E5950D",
"##	c #E6970D",
"$#	c #E6980C",
"%#	c #E4960C",
"&#	c #E2970D",
"*#	c #BC7D0A",
"=#	c #593C07",
"-#	c #563B05",
";#	c #573E08",
">#	c #553907",
",#	c #4D3204",
"'#	c #523703",
")#	c #AC8A53",
"!#	c #E08D0E",
"~#	c #E18F0E",
"{#	c #DF8D0E",
"]#	c #E28D0E",
"^#	c #E2900D",
"/#	c #E4910F",
"(#	c #E59210",
"_#	c #E4940F",
":#	c #E5920C",
"<#	c #E6940D",
"[#	c #E7960C",
"}#	c #E6970C",
"|#	c #E5980C",
"1#	c #E4980C",
"2#	c #E3950E",
"3#	c #BD7D0B",
"4#	c #573C07",
"5#	c #593E07",
"6#	c #5B3F0A",
"7#	c #593D0A",
"8#	c #553809",
"9#	c #523607",
"0#	c #4C3206",
"a#	c #513703",
"b#	c #5B4317",
"c#	c #AA8952",
"d#	c #D5880D",
"e#	c #DE8D0E",
"f#	c #E28F0E",
"g#	c #E18D0E",
"h#	c #E18C0D",
"i#	c #E38F0D",
"j#	c #E2900E",
"k#	c #E3930E",
"l#	c #E5920D",
"m#	c #E4970D",
"n#	c #E5960E",
"o#	c #E2960F",
"p#	c #BB7B0B",
"q#	c #553B04",
"r#	c #583C05",
"s#	c #583C06",
"t#	c #5A3F09",
"u#	c #59400C",
"v#	c #573B08",
"w#	c #533706",
"x#	c #4D3306",
"y#	c #4F3504",
"z#	c #5B4115",
"A#	c #A78C5E",
"B#	c #D2860F",
"C#	c #DC8C0D",
"D#	c #E18E0F",
"E#	c #E28D0D",
"F#	c #E38E0F",
"G#	c #E28F0D",
"H#	c #E5920F",
"I#	c #E5930D",
"J#	c #E6950E",
"K#	c #DE920E",
"L#	c #E0910D",
"M#	c #DF940D",
"N#	c #BA7B0B",
"O#	c #543A05",
"P#	c #5A3E0B",
"Q#	c #59400B",
"R#	c #553905",
"S#	c #4F3605",
"T#	c #503403",
"U#	c #5E481F",
"V#	c #A38C63",
"W#	c #CF830C",
"X#	c #D98B0F",
"Y#	c #DC8D0F",
"Z#	c #DF8C0D",
"`#	c #E08F0E",
" $	c #E38F0E",
".$	c #E3910F",
"+$	c #E3910E",
"@$	c #E4930D",
"#$	c #DE910C",
"$$	c #D28B0A",
"%$	c #D3890B",
"&$	c #D68D0C",
"*$	c #B6760B",
"=$	c #533805",
"-$	c #553A03",
";$	c #573C09",
">$	c #543706",
",$	c #4F3305",
"'$	c #472E04",
")$	c #4A3105",
"!$	c #4F3503",
"~$	c #604D28",
"{$	c #9A968C",
"]$	c #AA8953",
"^$	c #C9871D",
"/$	c #D6880E",
"($	c #DB890E",
"_$	c #DD8A0E",
":$	c #DF8D0D",
"<$	c #E18D0D",
"[$	c #E18E0E",
"}$	c #E38E0D",
"|$	c #E3920D",
"1$	c #E3930D",
"2$	c #DB8E0D",
"3$	c #CD840C",
"4$	c #CE870C",
"5$	c #AD720A",
"6$	c #533904",
"7$	c #543804",
"8$	c #543903",
"9$	c #4B3207",
"0$	c #4C2F06",
"a$	c #4C3005",
"b$	c #4B2F04",
"c$	c #4E3302",
"d$	c #503304",
"e$	c #634F2E",
"f$	c #A38F6E",
"g$	c #C38B2F",
"h$	c #D6890E",
"i$	c #DC8B0D",
"j$	c #E28E0D",
"k$	c #DF8D0C",
"l$	c #E2910C",
"m$	c #E3930C",
"n$	c #E2930C",
"o$	c #D4890C",
"p$	c #D48A0C",
"q$	c #AD710A",
"r$	c #523705",
"s$	c #533708",
"t$	c #4E3106",
"u$	c #4B2F06",
"v$	c #4E3205",
"w$	c #4D3104",
"x$	c #4E3103",
"y$	c #4F3402",
"z$	c #4D3203",
"A$	c #68583B",
"B$	c #9F937E",
"C$	c #B68D48",
"D$	c #D18A13",
"E$	c #D98D0D",
"F$	c #DC8F0C",
"G$	c #DE8E0D",
"H$	c #E18F0D",
"I$	c #DF8E0D",
"J$	c #E1900C",
"K$	c #D98C0D",
"L$	c #D98E0D",
"M$	c #AF7409",
"N$	c #533605",
"O$	c #523604",
"P$	c #543704",
"Q$	c #523704",
"R$	c #4F3203",
"S$	c #4F3104",
"T$	c #4E3303",
"U$	c #4E3304",
"V$	c #4E3409",
"W$	c #786E5C",
"X$	c #999690",
"Y$	c #AD8E59",
"Z$	c #CA8E1E",
"`$	c #D18D0F",
" %	c #D78E0E",
".%	c #D68C0E",
"+%	c #DA8C0D",
"@%	c #DD8C0C",
"#%	c #E08F0D",
"$%	c #DC8D0C",
"%%	c #D88C0C",
"&%	c #AD700A",
"*%	c #4F3403",
"=%	c #513404",
"-%	c #503503",
";%	c #503202",
">%	c #4E3104",
",%	c #4C3103",
"'%	c #4C3204",
")%	c #563F17",
"!%	c #776B59",
"~%	c #949390",
"{%	c #A19173",
"]%	c #BF8E30",
"^%	c #D18C0D",
"/%	c #CB890E",
"(%	c #CF880E",
"_%	c #DA8D0D",
":%	c #D98E0C",
"<%	c #A46B09",
"[%	c #4F3303",
"}%	c #4B2F05",
"|%	c #594724",
"1%	c #7D7567",
"2%	c #9C9282",
"3%	c #B08D4C",
"4%	c #C78B17",
"5%	c #D48C0C",
"6%	c #D58B0D",
"7%	c #9A6508",
"8%	c #4E3202",
"9%	c #4A3002",
"0%	c #492E04",
"a%	c #66573D",
"b%	c #8A867E",
"c%	c #999591",
"d%	c #A98F5D",
"e%	c #BC8822",
"f%	c #C6850E",
"g%	c #956209",
"h%	c #4C3003",
"i%	c #513912",
"j%	c #6D604A",
"k%	c #918F8C",
"l%	c #9C8E73",
"m%	c #8A6D37",
"n%	c #7A7062",
"o%	c #969494",
"                                                                                ",
"                                                                                ",
"                                                                                ",
"                                                                                ",
"                                                                                ",
"                                                                                ",
"                                                                                ",
"                                                                                ",
"                        . + @ # $ % & * = - ;                                   ",
"              > , ' ) ! ~ { ] ^ / ( _ : < [ } | 1 2 3 4 5                       ",
"      6 7 8 9 0 a b c d e e f g h i j k l m n o p q r s t u v w x y z           ",
"      A B C D E F G H I J K L M N O P Q R S T U V W X W Y Z `  .Y ..+.@.        ",
"      > #.$.%.&.*.=.-.;.>.,.'.).!.~.{.].^./.(._.:.o <.[.}.|.1.2.3.4.5.6.        ",
"        7.8.9.0.a.b.c.d.e.f.g.h.i.j.k.l.m.n.o.p.q.r.s.t.u.v.w.x.y.z.A.B.        ",
"        C.D.E.F.G.H.I.J.K.L.M.N.O.P.Q.R.S.T.U.V.W.X.Y.Z.`. +.+.+++@+#+$+        ",
"        %+&+*+=+-+;+>+,+'+)+!+~+{+]+^+/+(+_+:+<+[+}+|+1+2+3+4+5+6+7+8+9+        ",
"        0+a+b+c+d+e+f+g+h+i+j+k+l+m+n+o+p+q+r+s+7+3+t+1+u+5+4+8+v+w+x+y+        ",
"        z+A+B+C+D+E+F+G+H+I+J+K+L+M+N+O+P+Q+R+S+T+5+U+V+W+X+Y+Z+.+`+ @.@        ",
"        +@@@#@$@%@&@*@=@-@;@>@,@'@)@!@~@{@]@^@2+/@(@_@:@<@[@Z+}@|@1@2@3@        ",
"        4@5@6@7@8@9@0@a@b@c@d@e@f@g@h@i@h@j@k@l@m@n@o@x+p@q@r@s@t@u@v@w@        ",
"        x@y@Z z@A@B@C@D@E@E@F@G@H@I@J@K@L@M@N@O@w+o@P@O@Q@v@R@S@T@U@V@          ",
"        W@X@Y@V X e Z@`@ #.#+#@#F@##$#d@%#&#*#q@=#-#;#;#o@O@P@>#,#'#.+          ",
"        )#j.!#`@~#{#]#^#/#(#_#:#<#[#}#|#1#2#3# @4#4#w+5#6#7#8#9#0#a#b#          ",
"        c#d#e#f#g#g#h#i#j#X k#l#9@@#%#m#n#o#p#q#r#O@s#t#u#7#v#w#x#y#z#          ",
"        A#B#C#{#D#E#D#F#G#`@.#H#I#J#^ K#L#M#N#O#q@r@Z+P#Q#X+R#S#0#T#U#          ",
"        V#W#X#Y#Y@Z#`#~#i#G# $.$+$@$#$$$%$&$*$=$r@-$|@;$v#>$,$'$)$!$~$          ",
"        {$]$^$/$($_$:$<$/.[$(.}$G#|$1$2$3$4$5$6$7$8$>$9#9$0$a$b$c$d$e$          ",
"            z f$g$h$i$:$j$ $G#k$<$l$m$n$o$p$q$r$7$R#s$t$u$v$w$x$y$z$A$          ",
"                  B$C$D$E$F$G$H$I$!#Y J$K$L$M$N$O$P$Q$R$S$d$T$U$z$V$W$          ",
"                      X$Y$Z$`$ %.%+%@%#%$%%%&%*%=%-%d$;%>%,%'%)%!%~%            ",
"                            {%]%^%/%(%_%2$:%<%T#y#[%x$a$}%|%1%                  ",
"                                2%3%4%H 5%6%7%8%w$9%0%a%b%                      ",
"                                    c%d%e%f%g%h%i%j%k%                          ",
"                                          l%m%n%o%                              ",
"                                                                                ",
"                                                                                ",
"                                                                                ",
"                                                                                ",
"                                                                                ",
"                                                                                "};
