/* XPM */
static char * escape1_xpm[] = {
"40 40 518 2",
"  	c #999999",
". 	c #929495",
"+ 	c #8E8D8F",
"@ 	c #8D8D8E",
"# 	c #75767F",
"$ 	c #6E737F",
"% 	c #696F7A",
"& 	c #696F79",
"* 	c #666A75",
"= 	c #626773",
"- 	c #5F6573",
"; 	c #5B6373",
"> 	c #545A6A",
", 	c #7F828C",
"' 	c #606675",
") 	c #595F6D",
"! 	c #6A6F7A",
"~ 	c #717680",
"{ 	c #787C82",
"] 	c #7A7E84",
"^ 	c #7D8086",
"/ 	c #82858A",
"( 	c #656774",
"_ 	c #797C84",
": 	c #6C717E",
"< 	c #656B78",
"[ 	c #717887",
"} 	c #86898F",
"| 	c #646875",
"1 	c #7E8287",
"2 	c #78797F",
"3 	c #959697",
"4 	c #7D808C",
"5 	c #5D6271",
"6 	c #656976",
"7 	c #8A8F94",
"8 	c #69707B",
"9 	c #83868C",
"0 	c #717279",
"a 	c #8F9094",
"b 	c #6F7584",
"c 	c #5D6574",
"d 	c #707681",
"e 	c #8D8E93",
"f 	c #6E717D",
"g 	c #8B8D91",
"h 	c #717278",
"i 	c #7B818A",
"j 	c #8F9194",
"k 	c #7B818B",
"l 	c #6A7282",
"m 	c #6C7382",
"n 	c #878A93",
"o 	c #969696",
"p 	c #8E8F94",
"q 	c #686C72",
"r 	c #80838D",
"s 	c #8E9095",
"t 	c #606B7E",
"u 	c #62606F",
"v 	c #83848B",
"w 	c #979799",
"x 	c #939495",
"y 	c #696B75",
"z 	c #7E818B",
"A 	c #666B73",
"B 	c #8A8D92",
"C 	c #676772",
"D 	c #5D6274",
"E 	c #6D7585",
"F 	c #8B8E94",
"G 	c #989899",
"H 	c #959696",
"I 	c #5E636D",
"J 	c #6D737F",
"K 	c #676C7E",
"L 	c #6E7182",
"M 	c #67707E",
"N 	c #888C91",
"O 	c #979798",
"P 	c #5E626E",
"Q 	c #81858D",
"R 	c #696E7B",
"S 	c #6F7484",
"T 	c #989898",
"U 	c #85888F",
"V 	c #757988",
"W 	c #626875",
"X 	c #666B78",
"Y 	c #868C92",
"Z 	c #979898",
"` 	c #959796",
" .	c #888889",
"..	c #797A7F",
"+.	c #66676D",
"@.	c #7D7D7F",
"#.	c #5B5E6B",
"$.	c #82858E",
"%.	c #949496",
"&.	c #909093",
"*.	c #88888E",
"=.	c #757C89",
"-.	c #989798",
";.	c #737A88",
">.	c #677383",
",.	c #677184",
"'.	c #828893",
").	c #8A8A8C",
"!.	c #7B7E81",
"~.	c #6E7175",
"{.	c #616468",
"].	c #4E5156",
"^.	c #3C4045",
"/.	c #323841",
"(.	c #30343D",
"_.	c #292B33",
":.	c #222229",
"<.	c #5D616C",
"[.	c #6D7176",
"}.	c #696C73",
"|.	c #5E626A",
"1.	c #6A707E",
"2.	c #626A79",
"3.	c #5B6271",
"4.	c #565968",
"5.	c #524E5A",
"6.	c #848184",
"7.	c #797E8C",
"8.	c #959798",
"9.	c #81858F",
"0.	c #6C778D",
"a.	c #596578",
"b.	c #585663",
"c.	c #5D595E",
"d.	c #49484D",
"e.	c #3D3F48",
"f.	c #343843",
"g.	c #31353D",
"h.	c #31363D",
"i.	c #2C3035",
"j.	c #282A30",
"k.	c #292D31",
"l.	c #282D34",
"m.	c #262A33",
"n.	c #35373E",
"o.	c #3C3D41",
"p.	c #25262D",
"q.	c #686C7B",
"r.	c #464953",
"s.	c #484853",
"t.	c #524F59",
"u.	c #60606A",
"v.	c #5C5E6A",
"w.	c #5C5E6C",
"x.	c #60606B",
"y.	c #605E69",
"z.	c #57505E",
"A.	c #666573",
"B.	c #737989",
"C.	c #949598",
"D.	c #737582",
"E.	c #5D5661",
"F.	c #3F404B",
"G.	c #1F2025",
"H.	c #22242B",
"I.	c #272B32",
"J.	c #272B30",
"K.	c #3A3C40",
"L.	c #494A4F",
"M.	c #5C5D5F",
"N.	c #6D6D70",
"O.	c #7F8083",
"P.	c #969596",
"Q.	c #828284",
"R.	c #40444B",
"S.	c #919295",
"T.	c #777D88",
"U.	c #454B5C",
"V.	c #525971",
"W.	c #62697D",
"X.	c #656C80",
"Y.	c #6A7887",
"Z.	c #6C7B8C",
"`.	c #6E7E91",
" +	c #6D7C97",
".+	c #65748D",
"++	c #6D7386",
"@+	c #81838D",
"#+	c #4A4D5A",
"$+	c #403E42",
"%+	c #737375",
"&+	c #868687",
"*+	c #7F8182",
"=+	c #494E55",
"-+	c #7E838D",
";+	c #576073",
">+	c #616B7F",
",+	c #606E8B",
"'+	c #647690",
")+	c #6D7D91",
"!+	c #758390",
"~+	c #778594",
"{+	c #75849A",
"]+	c #6E7989",
"^+	c #555B6F",
"/+	c #4B4D52",
"(+	c #8A8B8D",
"_+	c #8B8B90",
":+	c #4E5564",
"<+	c #4B4A50",
"[+	c #78787D",
"}+	c #54565F",
"|+	c #82868E",
"1+	c #666F82",
"2+	c #67768D",
"3+	c #677892",
"4+	c #5C6777",
"5+	c #434B52",
"6+	c #3A3E42",
"7+	c #69707E",
"8+	c #5B5E65",
"9+	c #727885",
"0+	c #626272",
"a+	c #7F7C80",
"b+	c #8C8D92",
"c+	c #4C5464",
"d+	c #55575D",
"e+	c #76777B",
"f+	c #5D6066",
"g+	c #8A8C90",
"h+	c #585C6C",
"i+	c #33353B",
"j+	c #606264",
"k+	c #737476",
"l+	c #8A8B8B",
"m+	c #757B89",
"n+	c #909497",
"o+	c #707586",
"p+	c #676169",
"q+	c #8D8E91",
"r+	c #8B8E93",
"s+	c #4E5462",
"t+	c #5C6169",
"u+	c #6F6F74",
"v+	c #616469",
"w+	c #50565E",
"x+	c #919292",
"y+	c #777C8A",
"z+	c #979998",
"A+	c #67646F",
"B+	c #757176",
"C+	c #979797",
"D+	c #8D8F92",
"E+	c #505562",
"F+	c #5E616A",
"G+	c #6B6E72",
"H+	c #686B6F",
"I+	c #939497",
"J+	c #757A87",
"K+	c #606676",
"L+	c #7E8184",
"M+	c #777D89",
"N+	c #969698",
"O+	c #909295",
"P+	c #717787",
"Q+	c #65616B",
"R+	c #6A6A6E",
"S+	c #515563",
"T+	c #5F6167",
"U+	c #63666A",
"V+	c #6B6E70",
"W+	c #969799",
"X+	c #7D828E",
"Y+	c #505663",
"Z+	c #67696D",
"`+	c #757987",
" @	c #8F8F90",
".@	c #646872",
"+@	c #35333C",
"@@	c #515661",
"#@	c #606367",
"$@	c #77777B",
"%@	c #969797",
"&@	c #83878F",
"*@	c #555B69",
"=@	c #5E6474",
"-@	c #909092",
";@	c #2A2929",
">@	c #515152",
",@	c #40424D",
"'@	c #4C4C53",
")@	c #7E7C81",
"!@	c #585A62",
"~@	c #797B7E",
"{@	c #838790",
"]@	c #656B7F",
"^@	c #454851",
"/@	c #1B1B1B",
"(@	c #888988",
"_@	c #7B7D7D",
":@	c #7E8894",
"<@	c #758094",
"[@	c #707B8E",
"}@	c #777F8B",
"|@	c #505561",
"1@	c #555965",
"2@	c #646678",
"3@	c #54575F",
"4@	c #828485",
"5@	c #88898E",
"6@	c #5D5966",
"7@	c #353B47",
"8@	c #576373",
"9@	c #748193",
"0@	c #808B93",
"a@	c #7F878C",
"b@	c #798590",
"c@	c #717F93",
"d@	c #6E7B8D",
"e@	c #4D535C",
"f@	c #5F646F",
"g@	c #768192",
"h@	c #6A7187",
"i@	c #5D6072",
"j@	c #7A7980",
"k@	c #979697",
"l@	c #454B55",
"m@	c #848588",
"n@	c #73798A",
"o@	c #67748A",
"p@	c #4E5664",
"q@	c #545E6D",
"r@	c #707E91",
"s@	c #707B86",
"t@	c #656B72",
"u@	c #75828E",
"v@	c #707D8E",
"w@	c #484D56",
"x@	c #545E6F",
"y@	c #768395",
"z@	c #778495",
"A@	c #707B90",
"B@	c #666D82",
"C@	c #63626D",
"D@	c #8C8B90",
"E@	c #414652",
"F@	c #8C8E90",
"G@	c #6A758A",
"H@	c #3F4245",
"I@	c #6F7884",
"J@	c #444F61",
"K@	c #6C819C",
"L@	c #778597",
"M@	c #6E7A87",
"N@	c #6A7583",
"O@	c #4A5059",
"P@	c #4E5865",
"Q@	c #5D718A",
"R@	c #67758C",
"S@	c #727B8D",
"T@	c #767F91",
"U@	c #6C788D",
"V@	c #5D5F71",
"W@	c #6F6D73",
"X@	c #969796",
"Y@	c #33333C",
"Z@	c #929497",
"`@	c #6F7A8D",
" #	c #80848E",
".#	c #656B7A",
"+#	c #475162",
"@#	c #6B7F9B",
"##	c #6C7D97",
"$#	c #6A7688",
"%#	c #4A505A",
"&#	c #535C67",
"*#	c #687380",
"=#	c #5B6C81",
"-#	c #606A81",
";#	c #575D6C",
">#	c #546175",
",#	c #627292",
"'#	c #5C6681",
")#	c #5B5461",
"!#	c #828184",
"~#	c #969597",
"{#	c #302D36",
"]#	c #878B93",
"^#	c #7C8291",
"/#	c #848687",
"(#	c #747579",
"_#	c #5A5E62",
":#	c #585E69",
"<#	c #6F7785",
"[#	c #485162",
"}#	c #677994",
"|#	c #66738A",
"1#	c #474D58",
"2#	c #55606E",
"3#	c #6C798C",
"4#	c #68778A",
"5#	c #606F87",
"6#	c #63697A",
"7#	c #5E657A",
"8#	c #495571",
"9#	c #2B303F",
"0#	c #1E2129",
"a#	c #2A2D35",
"b#	c #404049",
"c#	c #3B3B42",
"d#	c #7D8592",
"e#	c #424852",
"f#	c #414246",
"g#	c #5F6166",
"h#	c #77787D",
"i#	c #8F8F8F",
"j#	c #5D6067",
"k#	c #71798B",
"l#	c #4B5262",
"m#	c #576173",
"n#	c #454B58",
"o#	c #556174",
"p#	c #65778E",
"q#	c #5E6F88",
"r#	c #525D6D",
"s#	c #4E4E55",
"t#	c #363840",
"u#	c #32363C",
"v#	c #3D3F49",
"w#	c #3D4149",
"x#	c #494D55",
"y#	c #5C6064",
"z#	c #76777A",
"A#	c #939597",
"B#	c #4A4E57",
"C#	c #3F4044",
"D#	c #6E798A",
"E#	c #57596B",
"F#	c #424652",
"G#	c #464750",
"H#	c #3F3F4C",
"I#	c #363D49",
"J#	c #39404B",
"K#	c #3E434B",
"L#	c #494C53",
"M#	c #5F6165",
"N#	c #757679",
"O#	c #8F8E90",
"P#	c #959698",
"Q#	c #778093",
"R#	c #848686",
"S#	c #6F7073",
"T#	c #5C6065",
"U#	c #575C69",
"V#	c #464954",
"W#	c #282A33",
"X#	c #686968",
"Y#	c #939395",
"Z#	c #6D7080",
"`#	c #3C3F4B",
" $	c #333139",
".$	c #3D4148",
"+$	c #585D64",
"@$	c #747578",
"#$	c #8E8F90",
"$$	c #8E9195",
"%$	c #5E6674",
"&$	c #42434A",
"*$	c #616266",
"=$	c #78787B",
"-$	c #929493",
";$	c #575759",
">$	c #353841",
",$	c #949493",
"'$	c #757479",
")$	c #8E8D8E",
"!$	c #868993",
"~$	c #8A8D93",
"{$	c #95969B",
"]$	c #888A92",
"^$	c #4D515D",
"/$	c #3E4043",
"($	c #7B818E",
"_$	c #6B6E74",
":$	c #595D61",
"<$	c #535B65",
"[$	c #42444C",
"}$	c #4B4D54",
"|$	c #23282F",
"1$	c #5E5D5F",
"2$	c #757B8A",
"3$	c #626268",
"4$	c #757579",
"5$	c #8D8D8F",
"6$	c #616061",
"7$	c #2F3438",
"8$	c #8B8A8A",
"9$	c #909195",
"0$	c #7D838E",
"a$	c #8B8E91",
"b$	c #71757A",
"c$	c #52555E",
"d$	c #505466",
"e$	c #3D3E41",
"f$	c #888B92",
"g$	c #5B5C67",
"h$	c #373B43",
"i$	c #4F535A",
"j$	c #65676B",
"k$	c #7E7F82",
"l$	c #292C31",
"m$	c #555555",
"n$	c #7F858E",
"o$	c #878A8E",
"p$	c #91939B",
"q$	c #6B707A",
"r$	c #343840",
"s$	c #818080",
"                                                                                ",
"                                                                                ",
"                  . + @                                                         ",
"    # $ % & * = - ; > *                                                         ",
"    , ' ) ! ~ { ] ^ / (                                                         ",
"    _ : < [ }         |                                                         ",
"    1 2 3 4 5 6 7     8                                                         ",
"    9 0     a b c d e f                                                         ",
"    g h       i j k l m n o                                                     ",
"    p q       r     s b t u v w                                                 ",
"    x y       z       A B C D E F G                                             ",
"    H I       k       J     K L M $ N O                                         ",
"      P       Q O     R     S T U V W X Y Z                         `  ...+.@.  ",
"      #.      $.%.&.*.=     =.    -.U ;.>.,.'.O         ).!.~.{.].^./.(._.:.    ",
"      <.[.}.|.1.2.3.4.5.6.  7.        8.9.0.a.b.c.d.e.f.g.h.i.j.k.l.m.n.o.p.    ",
"      q.r.s.t.u.v.w.x.y.z.A.B.            C.D.E.F.G.H.I.J.K.L.M.N.O.P.  Q.R.    ",
"      S.T.U.V.W.X.Y.Z.`. +.+++@+              *.#+$+%+&+                *+=+    ",
"        Z -+;+>+,+'+)+!+~+{+]+^+/+(+          _+:+<+                    [+}+    ",
"            |+D 1+2+3+4+5+6+7+8+9+0+a+-.      b+c+d+                    e+f+    ",
"              g+h+i+j+k+l+  m+    n+o+p+q+    r+s+t+                    u+v+    ",
"                _+l w+x+    y+      z+|+A+B+C+D+E+F+                    G+H+    ",
"                  I+J+K+L+  M+N+        O+P+Q+R+S+T+                    U+V+    ",
"                    W+X+Y+Z+`+.  @        Z .@+@@@#@                    #@$@    ",
"                      %@&@*@=@-@;@          >@,@@@'@)@                  !@~@    ",
"                          {@]@^@/@(@_@7 :@<@[@}@|@1@2@A+&.              3@4@    ",
"                            5@6@7@8@9@0@a@b@c@d@e@f@g@h@i@j@k@          l@m@    ",
"                              n@o@p@q@r@s@t@u@v@w@x@y@z@A@B@C@D@        E@F@    ",
"                              G@H@I@) J@K@L@M@N@O@P@Q@R@S@T@U@V@W@X@    Y@H     ",
"                            Z@`@  -. #.#+#@###$#%#&#*#=#-#;#>#,#'#)#!#~#{#      ",
"                            ]#^#/#(#_#:#<#[#}#|#1#2#3#4#5#6#7#8#9#0#a#b#c#      ",
"                            d#e#f#g#h#i#j#k#l#m#n#o#p#q#r#s#t#u#v#w#x#y#z#      ",
"                            g@A#      C.B#C#D#E#F#G#H#I#J#K#L#M#N#O#            ",
"                          P#Q#R#S#T#U#V#W#X#Y#Z#`# $.$+$@$#$                    ",
"                          $$%$&$*$=$-$;$>$,$  -.'$)$                            ",
"                          !$~$    {$]$^$/$                                      ",
"                          ($_$:$<$[$}$|$1$                                      ",
"                        G 2$3$4$5$  6$7$8$                                      ",
"                        9$0$-.a$b$c$d$e$                                        ",
"                        f$g$h$i$j$k$l$m$                                        ",
"                        n$o$Y#G p$q$r$s$                                        "};
