/* XPM */
static char *fence[] = {
/* columns rows colors chars-per-pixel */
"20 20 90 1",
"  c #1B1716",
". c #231E1D",
"X c #28201F",
"o c #262322",
"O c #2A2423",
"+ c #2D2826",
"@ c #2D2A28",
"# c #312926",
"$ c #322B29",
"% c #34312E",
"& c #3C3533",
"* c #3D3936",
"= c #3E3A38",
"- c #433536",
"; c #433835",
": c #423B39",
"> c #493D3B",
", c #47413C",
"< c #4B413D",
"1 c #4A4442",
"2 c #4E4845",
"3 c #55514E",
"4 c #5C5752",
"5 c #5E5B56",
"6 c #62524D",
"7 c #625B56",
"8 c #635F59",
"9 c #6E5C57",
"0 c #6D5E5A",
"q c #6B615D",
"w c #74615C",
"e c #6D6863",
"r c #776A66",
"t c #7A6964",
"y c #7C6D68",
"u c #7A756E",
"i c #777473",
"p c #82716C",
"a c #837672",
"s c #847D76",
"d c #807B7A",
"f c #8A7C78",
"g c #868079",
"h c #8A817A",
"j c #92827D",
"k c #938582",
"l c #948A83",
"z c #958D89",
"x c #998A85",
"c c #9B8E8A",
"v c #9B918C",
"b c #9F9491",
"n c #A29591",
"m c #A59A96",
"M c #A19B9B",
"N c #A89D9A",
"B c #A4A29F",
"V c #ADA29E",
"C c #AFA4A1",
"Z c #AEABAB",
"A c #B1A7A4",
"S c #B4A9A6",
"D c #B5ACA9",
"F c #B9ADAA",
"G c #BAB1AE",
"H c #B6B2B1",
"J c #BDB4B1",
"K c #BDBBB8",
"L c #C0B7B4",
"P c #C2B9B6",
"I c #C4BDBA",
"U c #C8BFBD",
"Y c #CAC1BE",
"T c #CCC5C2",
"R c #CFC8C5",
"E c #CCCAC8",
"W c #D2CCCA",
"Q c #D5D0CE",
"! c #D6D2D1",
"~ c #DCD6D4",
"^ c #DAD8D7",
"/ c #DDDBDA",
"( c #E0D9D7",
") c #E0DDDB",
"_ c #E5E0DE",
"` c #E4E2E2",
"' c #E9E4E2",
"] c #ECEAEA",
"[ c #F5F3F3",
"{ c #FEFEFE",
/* pixels */
"{{{{{{{{{{{{{{{{{{{{",
"{{{{{{{{{{{{{{{{{{{{",
"{{{{{[^KT!)_][{{{{{{",
"{{{{He5qghlzvm[{{{{{",
"{{{{B**=555q8z[{{{{{",
"{{{{]538ggssuE{{{{{{",
"{{{{]=@$1222,I{{{{{{",
"cCR~W1o+:,-;&!~]_(['",
"yfpxm:+#,<<;;/PUSYUF",
"xarr0#O#&>>;;DVnxxjf",
"NmCFx$o@:=**&bcnnGSL",
"CbmHN*O+*:=::`RWFWLW",
"pcCAN:O@*>:;>/UWSRJW",
"a6sSD>O@:>;;>/PWSRPW",
"Wm07v1O#<1>-</U/GInn",
"{`Jx6$O#;><;1Wnk9wpV",
"{{]TF1 @*:**:rtcSPT)",
"{{{{/3 @=:&&-)YWWW)[",
"{{{{{)i.$&:qb[Q][{{{",
"{{{{{{{ZiH`{{{{{{{{{"
};
