/* XPM */
static char * fire_truck_icon_xpm[] = {
"20 20 218 2",
"  	c None",
". 	c #A1A1A1",
"+ 	c #A0A1A0",
"@ 	c #A0A0A1",
"# 	c #A1A0A0",
"$ 	c #A1A0A1",
"% 	c #A0A1A1",
"& 	c #A0A0A0",
"* 	c #9EA0A3",
"= 	c #9AA09D",
"- 	c #A59E9F",
"; 	c #A29EA2",
"> 	c #A2A2A5",
", 	c #A5A3A4",
"' 	c #9C9C9C",
") 	c #A0A2A1",
"! 	c #A7A3A4",
"~ 	c #A1A3A2",
"{ 	c #A09F9F",
"] 	c #A5A1A2",
"^ 	c #A2A4A4",
"/ 	c #9FA2A1",
"( 	c #A19EA0",
"_ 	c #A0A19E",
": 	c #9EA19E",
"< 	c #A3A4A4",
"[ 	c #A3A0A1",
"} 	c #A69CA3",
"| 	c #979292",
"1 	c #96908E",
"2 	c #9DAAA3",
"3 	c #9A9C9A",
"4 	c #858282",
"5 	c #9E9A9B",
"6 	c #7E7176",
"7 	c #999697",
"8 	c #929292",
"9 	c #909191",
"0 	c #796C6E",
"a 	c #979191",
"b 	c #979694",
"c 	c #9A9A98",
"d 	c #ABA1A2",
"e 	c #A5A2A1",
"f 	c #9D9D9D",
"g 	c #A2A1A2",
"h 	c #98A7A5",
"i 	c #A89497",
"j 	c #753242",
"k 	c #641C2E",
"l 	c #6B1B2F",
"m 	c #692134",
"n 	c #582A37",
"o 	c #6D5C60",
"p 	c #B5ADB0",
"q 	c #9A9899",
"r 	c #919191",
"s 	c #B4A9A9",
"t 	c #A69C9C",
"u 	c #D4D0CE",
"v 	c #C0C2BE",
"w 	c #887D7F",
"x 	c #93908F",
"y 	c #9EA0A1",
"z 	c #88686D",
"A 	c #773642",
"B 	c #854C55",
"C 	c #814E56",
"D 	c #81515B",
"E 	c #61494C",
"F 	c #6B736E",
"G 	c #606563",
"H 	c #808583",
"I 	c #909291",
"J 	c #7F7C7E",
"K 	c #8C8C88",
"L 	c #BAB4B2",
"M 	c #A49F9D",
"N 	c #A6A7A2",
"O 	c #BFBFBD",
"P 	c #AEB2AE",
"Q 	c #959695",
"R 	c #A2A0A1",
"S 	c #9FA2A0",
"T 	c #8B7577",
"U 	c #711A2E",
"V 	c #6E1F30",
"W 	c #731F2C",
"X 	c #751A2D",
"Y 	c #6A494D",
"Z 	c #69716A",
"` 	c #5F6064",
" .	c #7A8282",
"..	c #868A84",
"+.	c #61584D",
"@.	c #887F77",
"#.	c #7E7C70",
"$.	c #736855",
"%.	c #9A958A",
"&.	c #A1A49E",
"*.	c #999F9B",
"=.	c #919593",
"-.	c #A2A09E",
";.	c #9CA29E",
">.	c #978287",
",.	c #7F4C57",
"'.	c #3D2A25",
").	c #6A2D35",
"!.	c #741D30",
"~.	c #443C39",
"{.	c #53383E",
"].	c #722D3B",
"^.	c #7A3B49",
"/.	c #896368",
"(.	c #6A6559",
"_.	c #67685C",
":.	c #7C8375",
"<.	c #6E6955",
"[.	c #88817A",
"}.	c #9C9694",
"|.	c #AC9799",
"1.	c #9D8A8E",
"2.	c #9CA09F",
"3.	c #998D91",
"4.	c #7F7273",
"5.	c #414B3B",
"6.	c #765D5F",
"7.	c #9E606F",
"8.	c #4C4C47",
"9.	c #5B3640",
"0.	c #721F2F",
"a.	c #681C2E",
"b.	c #691F30",
"c.	c #6B1D2C",
"d.	c #772737",
"e.	c #9A4858",
"f.	c #CA7780",
"g.	c #945967",
"h.	c #5E5B5A",
"i.	c #6A4C50",
"j.	c #866A6E",
"k.	c #A0A3A4",
"l.	c #A0A39E",
"m.	c #A09FA3",
"n.	c #9FA5A2",
"o.	c #676055",
"p.	c #3C423C",
"q.	c #795F64",
"r.	c #524547",
"s.	c #534346",
"t.	c #8F6D77",
"u.	c #2B3432",
"v.	c #36292D",
"w.	c #761F34",
"x.	c #691928",
"y.	c #822337",
"z.	c #924B51",
"A.	c #5F615E",
"B.	c #404141",
"C.	c #625351",
"D.	c #847473",
"E.	c #A3A1A6",
"F.	c #A3A3A4",
"G.	c #A8A8A8",
"H.	c #A7A7A7",
"I.	c #8C8386",
"J.	c #606462",
"K.	c #444341",
"L.	c #484826",
"M.	c #7A777C",
"N.	c #8F7978",
"O.	c #9A636F",
"P.	c #AF8990",
"Q.	c #7F7772",
"R.	c #444545",
"S.	c #606161",
"T.	c #5D5E5E",
"U.	c #919292",
"V.	c #9E9F9F",
"W.	c #A2A3A2",
"X.	c #A4A0A2",
"Y.	c #A2A39C",
"Z.	c #66675E",
"`.	c #56593D",
" +	c #47423F",
".+	c #554347",
"++	c #774E5A",
"@+	c #7A6167",
"#+	c #534C4C",
"$+	c #484848",
"%+	c #4F4F4F",
"&+	c #585858",
"*+	c #959595",
"=+	c #A0A3A2",
"-+	c #9E9E9E",
";+	c #A09FA0",
">+	c #A3A3A6",
",+	c #9C9C9E",
"'+	c #515050",
")+	c #868488",
"!+	c #8E908F",
"~+	c #867A7E",
"{+	c #909493",
"]+	c #929191",
"^+	c #999999",
"/+	c #A9A9A9",
"(+	c #A3A1A2",
"_+	c #9AA19F",
":+	c #9FA09C",
"<+	c #A1A19D",
"[+	c #9F9FA3",
"}+	c #A3A49D",
"|+	c #9EA3A1",
"1+	c #A4A3A2",
"2+	c #9CA4A0",
"3+	c #9FA09E",
"4+	c #9F9F9F",
"5+	c #A2A2A2",
". . . . . . . . . . . . . . . . . . . . ",
". . . . . . . . . . . . . . . . . . . . ",
". . . . . . . . . . . . . . . . . . . . ",
"+ . @ # + + . $ % & . & . & $ % @ $ $ + ",
"* = - ; > , ' ) ! . ~ { ] ^ / ( _ : < [ ",
"} | 1 2 3 4 5 < 6 7 8 9 0 a b c d e f g ",
"h i j k l m n o p q r 8 s t u v w x & { ",
"y z A B C D E F G H I J K L M N O P Q R ",
"S T U V W X Y Z `  ...+.@.#.$.%.&.*.=.-.",
";.>.,.'.).!.~.{.].^./.(._.:.<.[.}.|.1.2.",
";.3.4.5.6.7.8.9.0.a.b.c.d.e.f.g.h.i.j.k.",
"l.m.n.o.p.q.r.s.t.u.v.w.x.y.z.A.B.C.D.E.",
"$ + & F.G./ H.I.J.K.L.M.N.O.P.Q.R.S.T.U.",
". . . . V.W.# X.Y.Z.`. +.+++@+#+$+%+&+*+",
". . . # =+-+;+< >+,+'+)+!+~+*+{+]+^+/+-+",
". . . . 2.# (+_+:+<+[+}+|+1+2+3+& 4+. 5+",
". . . % $ . % # @ @ . @ . % & . . & & . ",
". . . . . . . . . . . . . . . . . . . . ",
". . . . . . . . . . . . . . . . . . . . ",
". . . . . . . . . . . . . . . . . . . . "};
