/* XPM */
static char * flame_icon_xpm[] = {
"20 20 230 2",
"  	c None",
". 	c #242525",
"+ 	c #242425",
"@ 	c #252924",
"# 	c #262427",
"$ 	c #242625",
"% 	c #4C352D",
"& 	c #3F2A24",
"* 	c #3C2D29",
"= 	c #342B2C",
"- 	c #2F2827",
"; 	c #2C2424",
"> 	c #232526",
", 	c #242626",
"' 	c #272324",
") 	c #232429",
"! 	c #3B3C3D",
"~ 	c #010101",
"{ 	c #000101",
"] 	c #080301",
"^ 	c #0A0008",
"/ 	c #070000",
"( 	c #843A2C",
"_ 	c #411C0A",
": 	c #2B0F04",
"< 	c #250D07",
"[ 	c #2B1006",
"} 	c #2A0901",
"| 	c #13090C",
"1 	c #010002",
"2 	c #050000",
"3 	c #000105",
"4 	c #010100",
"5 	c #232424",
"6 	c #030503",
"7 	c #03010B",
"8 	c #030000",
"9 	c #B35032",
"0 	c #5B250A",
"a 	c #471905",
"b 	c #582410",
"c 	c #63230B",
"d 	c #642711",
"e 	c #180606",
"f 	c #020002",
"g 	c #040000",
"h 	c #000103",
"i 	c #010000",
"j 	c #030502",
"k 	c #030105",
"l 	c #1C1008",
"m 	c #F3753F",
"n 	c #87330E",
"o 	c #7B2C0E",
"p 	c #983C1A",
"q 	c #B8471F",
"r 	c #9B4625",
"s 	c #000203",
"t 	c #010001",
"u 	c #000001",
"v 	c #0A0500",
"w 	c #000002",
"x 	c #80573B",
"y 	c #FC6D29",
"z 	c #A64F2F",
"A 	c #C8380C",
"B 	c #A0472C",
"C 	c #A64317",
"D 	c #9A5635",
"E 	c #000201",
"F 	c #000304",
"G 	c #6B4131",
"H 	c #F19439",
"I 	c #FA7441",
"J 	c #933B15",
"K 	c #B44D3B",
"L 	c #0A0006",
"M 	c #C1763E",
"N 	c #814B2A",
"O 	c #000000",
"P 	c #000200",
"Q 	c #010400",
"R 	c #8B4439",
"S 	c #DD8731",
"T 	c #ED7E4A",
"U 	c #853109",
"V 	c #260000",
"W 	c #43200E",
"X 	c #FFB664",
"Y 	c #45251C",
"Z 	c #020000",
"` 	c #0E0100",
" .	c #AC7750",
"..	c #E7A646",
"+.	c #EAA469",
"@.	c #EF945C",
"#.	c #E26C31",
"$.	c #CD6B33",
"%.	c #000100",
"&.	c #11070B",
"*.	c #000005",
"=.	c #DB9654",
"-.	c #F8F186",
";.	c #E29234",
">.	c #C15112",
",.	c #8F2518",
"'.	c #85382A",
").	c #16110E",
"!.	c #9A8B63",
"~.	c #FBE176",
"{.	c #E6A658",
"].	c #9A4F25",
"^.	c #460F00",
"/.	c #8A3C2B",
"(.	c #663A2D",
"_.	c #1E0E0A",
":.	c #010203",
"<.	c #000004",
"[.	c #181009",
"}.	c #AC9257",
"|.	c #F6913F",
"1.	c #F29B5C",
"2.	c #E8AC66",
"3.	c #B6612A",
"4.	c #68290F",
"5.	c #060206",
"6.	c #00050A",
"7.	c #020001",
"8.	c #000205",
"9.	c #7D5537",
"0.	c #F59844",
"a.	c #EF5825",
"b.	c #F35D22",
"c.	c #F9CE6B",
"d.	c #9A844F",
"e.	c #050001",
"f.	c #000309",
"g.	c #040001",
"h.	c #000211",
"i.	c #803F22",
"j.	c #F89D4C",
"k.	c #D14A1D",
"l.	c #F4662F",
"m.	c #FBAD5B",
"n.	c #95471A",
"o.	c #0D0000",
"p.	c #0D0607",
"q.	c #321D18",
"r.	c #8D3D2C",
"s.	c #9E4A25",
"t.	c #FD9E3C",
"u.	c #C94F27",
"v.	c #F58C48",
"w.	c #A42F0F",
"x.	c #27080A",
"y.	c #00010C",
"z.	c #EA9054",
"A.	c #C74E2E",
"B.	c #9F543B",
"C.	c #7B3724",
"D.	c #722218",
"E.	c #BB511D",
"F.	c #94260E",
"G.	c #E0843E",
"H.	c #F07A2C",
"I.	c #71321E",
"J.	c #000108",
"K.	c #8A4229",
"L.	c #4B1105",
"M.	c #321305",
"N.	c #350904",
"O.	c #6E2A10",
"P.	c #9C4113",
"Q.	c #A64B2C",
"R.	c #8F3517",
"S.	c #E7894F",
"T.	c #1F0507",
"U.	c #00040D",
"V.	c #332017",
"W.	c #2C1310",
"X.	c #27090A",
"Y.	c #141605",
"Z.	c #3F1401",
"`.	c #BD7C45",
" +	c #E3B05B",
".+	c #7F2719",
"++	c #CC6A32",
"@+	c #0E0000",
"#+	c #000710",
"$+	c #020101",
"%+	c #211618",
"&+	c #6E281A",
"*+	c #230D03",
"=+	c #160C00",
"-+	c #341406",
";+	c #4F1318",
">+	c #D29556",
",+	c #E09049",
"'+	c #FFB264",
")+	c #66240A",
"!+	c #945846",
"~+	c #0A0000",
"{+	c #000500",
"]+	c #020007",
"^+	c #0E0204",
"/+	c #040403",
"(+	c #2E1610",
"_+	c #8C442E",
":+	c #AF3C19",
"<+	c #C7632E",
"[+	c #C67421",
"}+	c #631401",
"|+	c #D77336",
"1+	c #47251F",
"2+	c #431613",
"3+	c #221110",
"4+	c #000701",
"5+	c #050004",
"6+	c #030001",
"7+	c #000507",
"8+	c #3E1611",
"9+	c #9E4F33",
"0+	c #C66B3D",
"a+	c #8A3F16",
"b+	c #1C0A0B",
"c+	c #692D16",
"d+	c #1F0503",
"e+	c #0C0102",
"f+	c #000301",
"g+	c #222324",
". . . . + @ # $ % & * = - ; > , ' ) . ! ",
"~ ~ ~ ~ { ] ^ / ( _ : < [ } | 1 2 3 4 5 ",
"~ ~ ~ ~ 4 6 7 8 9 0 a b c d e f g h i 5 ",
"~ ~ ~ ~ { j k l m n o p q r / s 8 t 4 5 ",
"~ ~ ~ { u v w x y z A B C D 8 E i i { 5 ",
"~ ~ ~ ~ u F G H I J K L M N O t P { 4 5 ",
"~ ~ ~ ~ u Q R S T U V W X Y Z O E { ~ 5 ",
"~ ~ ~ t O ` u  ...+.@.#.$.O i O P { ~ 5 ",
"~ ~ ~ { %.&.*.=.-.;.>.,.'.).Z u %.{ 4 5 ",
"~ ~ ~ ~ u O O !.~.{.].^./.(._.:.Z <.4 5 ",
"~ ~ ~ ~ u 4 O [.}.|.1.2.3.4.5.6.Z u 4 5 ",
"~ ~ ~ 4 i { 7.8.9.0.a.b.c.d.e.f.Z w 4 5 ",
"~ ~ ~ t i 8.g.h.i.j.k.l.m.n.o.O Z <.4 5 ",
"~ ~ ~ ~ u p.q.O r.s.t.u.v.w.x.y.g t 4 5 ",
"~ ~ O ~ O z.A.B.C.D.E.F.G.H.I.t Z J.i 5 ",
"~ ~ O O O K.L.M.N.O.P.Q.R.S.T.U.g t 4 5 ",
"t { O O O V.W.X.Y.Z.`. +.+++@+#+g 7.4 5 ",
"u u O $+%+&+*+=+-+;+>+,+'+)+!+~+{+]+%.5 ",
"O E %.Z ^+/+(+_+:+<+[+}+|+1+2+3+4+5+%.5 ",
"u %.%.6+6+7+g 8+9+0+a+b+c+d+e+2 f+8 { g+"};
