/* XPM */
static char *fountain[] = {
/* columns rows colors chars-per-pixel */
"20 20 98 2",
"   c #1B1716",
".  c #1A1816",
"X  c #1E1C1A",
"o  c #211F1E",
"O  c #22201E",
"+  c #262322",
"@  c #2A2624",
"#  c #2A2826",
"$  c #2B2A28",
"%  c #312D2A",
"&  c #35312F",
"*  c #343331",
"=  c #373937",
"-  c #393533",
";  c #3D3936",
":  c #3D3B39",
">  c #413C37",
",  c #413D3B",
"<  c #45413E",
"1  c #49433E",
"2  c #464340",
"3  c #494542",
"4  c #4D4946",
"5  c #4E4C49",
"6  c #4E514E",
"7  c #514B46",
"8  c #514D4A",
"9  c #54504D",
"0  c #5A524C",
"q  c #555350",
"w  c #555855",
"e  c #5B5551",
"r  c #5B5955",
"t  c #5D5A58",
"y  c #5A605D",
"u  c #615A55",
"i  c #66605B",
"p  c #6B625D",
"a  c #636562",
"s  c #626965",
"d  c #696765",
"f  c #6B6967",
"g  c #6A6B69",
"h  c #6F7471",
"j  c #766E67",
"k  c #746D68",
"l  c #79716C",
"z  c #767473",
"x  c #717B76",
"c  c #757E7A",
"v  c #787E7C",
"b  c #76817D",
"n  c #798681",
"m  c #7D8A85",
"M  c #837C75",
"N  c #88807A",
"B  c #838D8A",
"V  c #8F8A85",
"C  c #84938E",
"Z  c #89938F",
"A  c #899591",
"S  c #8A9A95",
"D  c #928E8B",
"F  c #9A948F",
"G  c #979491",
"H  c #999795",
"J  c #9C9A97",
"K  c #91A09B",
"L  c #96A6A1",
"P  c #97ABA5",
"I  c #99A6A3",
"U  c #99AAA5",
"Y  c #9BADA8",
"T  c #9DB2AB",
"R  c #A09E9C",
"E  c #A8A6A6",
"W  c #ABA8A6",
"Q  c #ADAAA8",
"!  c #B1ACA9",
"~  c #B5B0AB",
"^  c #B6B5B4",
"/  c #B8B4B1",
"(  c #BBB9B7",
")  c #BEBBBA",
"_  c #C7C5C3",
"`  c #CBC8C7",
"'  c #CECCCC",
"]  c #D2D0CD",
"[  c #D5D5D4",
"{  c #DAD8D7",
"}  c #DBDAD8",
"|  c #E3E2E2",
" . c #E8E7E7",
".. c #EEEDEC",
"X. c #F0EFEF",
"o. c #F6F6F6",
"O. c #F8F8F7",
"+. c #FEFEFE",
/* pixels */
"+.+.+.+.+.+.+.+.+.+.+.+.+.+.+.+.+.+.+.+.",
"+.+.+.+.+.+.+. .' ` ' | +.+.+.+.+.+.+.+.",
"+.+.+.+.+.^ f 8 2 2 2 4 f E O.+.+.+.+.+.",
"+.+.+.| f * ; 4 5 - 3 8 , % r [ +.+.+.+.",
"+.+.X.8 # ; a A s $ 6 A g : % ; { +.+.+.",
"+.+.z X - x I v 5 4 5 z I m ; + 8 o.+.+.",
"+.) + O s U A q p M l 8 B U c #   H +.+.",
"+.f X + A I B 9 M N N u v P I =   5 ..+.",
"| 5 o # S I S 5 u j p 3 C P P 2   - ) +.",
"[ 2 & o S U T S t 9 w m T P P = + ; Q +.",
"{ 1 , + y T U T T T T T P T n o - ; J +.",
"} 8 , , ; b U T T T T T T C , = 1 > R +.",
"..u 3 2 4 , 5 s m m n x w < < 2 2 4 ' +.",
"+.G 1 2 4 8 2 , : , ; ; 3 9 3 < 8 i O.+.",
"+.| 7 8 8 2 3 9 e 8 9 e 8 4 4 4 3 W +.+.",
"+.+.( r 8 8 4 5 q 5 4 8 9 9 8 1 D +.+.+.",
"+.+.+.` u 7 7 8 8 8 7 7 8 e 0 V O.+.+.+.",
"+.+.+.+.} G j u u u 0 0 u D ` +.+.+.+.+.",
"+.+.+.+.+.+.X.` W ! ! / ] +.+.+.+.+.+.+.",
"+.+.+.+.+.+.+.+.+.+.+.+.+.+.+.+.+.+.+.+."
};
