/* XPM */
static char *geo[] = {
/* columns rows colors chars-per-pixel */
"20 20 188 2",
"   c #080E4B",
".  c #020E5A",
"X  c #001152",
"o  c #00175B",
"O  c #001B50",
"+  c #071858",
"@  c #061C58",
"#  c #08195B",
"$  c #071F64",
"%  c #011F68",
"&  c #091B68",
"*  c #0C1E7E",
"=  c #141073",
"-  c #042556",
";  c #032658",
":  c #03275A",
">  c #022A59",
",  c #032A5B",
"<  c #022D5D",
"1  c #1D265B",
"2  c #002766",
"3  c #072061",
"4  c #072265",
"5  c #05216D",
"6  c #002864",
"7  c #002F69",
"8  c #07286D",
"9  c #08226A",
"0  c #002472",
"q  c #002F73",
"w  c #072B77",
"e  c #042E71",
"r  c #062D71",
"t  c #082472",
"y  c #0A267D",
"u  c #023060",
"i  c #023061",
"p  c #003167",
"a  c #003265",
"s  c #003365",
"d  c #013564",
"f  c #023465",
"g  c #003169",
"h  c #00356B",
"j  c #003B69",
"k  c #003C71",
"l  c #003D73",
"z  c #0F3F77",
"x  c #182073",
"c  c #302E4B",
"v  c #3C3751",
"b  c #3A3B5C",
"n  c #253575",
"m  c #2F3A77",
"M  c #004473",
"N  c #004573",
"B  c #004575",
"V  c #004576",
"C  c #004676",
"Z  c #004677",
"A  c #004776",
"S  c #004777",
"D  c #004778",
"F  c #004779",
"G  c #004877",
"H  c #004878",
"J  c #004879",
"K  c #004979",
"L  c #00487A",
"P  c #00497A",
"I  c #004A79",
"U  c #004B7B",
"Y  c #3C497A",
"T  c #403C53",
"R  c #5A5A57",
"E  c gray37",
"W  c #444771",
"Q  c #51577C",
"!  c #53587D",
"~  c #54587D",
"^  c #71716F",
"/  c #0A2880",
"(  c #0C2C95",
")  c #03369F",
"_  c #083D9C",
"`  c #143A92",
"'  c #00438F",
"]  c #00489E",
"[  c #005098",
"{  c #015599",
"}  c #00579E",
"|  c #0A4FB6",
" . c #015CA2",
".. c #005FA6",
"X. c #0754BA",
"o. c #0062A5",
"O. c #0064AC",
"+. c #0066AC",
"@. c #0067AD",
"#. c #0069AF",
"$. c #006AAF",
"%. c #234B87",
"&. c #2355A8",
"*. c #205CAE",
"=. c #275CAB",
"-. c #0050C0",
";. c #0464C2",
":. c #006BD1",
">. c #056CD5",
",. c #007ADD",
"<. c #0078E0",
"1. c #4B4E99",
"2. c #445E91",
"3. c #55578A",
"4. c #5B5F82",
"5. c #445AA4",
"6. c #5C719D",
"7. c #4665A7",
"8. c #69678F",
"9. c #64759E",
"0. c #626EAD",
"q. c #6A71AC",
"w. c #6C7EB1",
"e. c #757AA2",
"r. c #0088EE",
"t. c #028CEF",
"y. c #0287F0",
"u. c #0090F7",
"i. c #0094FD",
"p. c #0096FF",
"a. c #0097FF",
"s. c #0196FE",
"d. c #0099FF",
"f. c #009AFF",
"g. c #009BFF",
"h. c #009DFF",
"j. c #009FFF",
"k. c #00A1FF",
"l. c #00A4FF",
"z. c #7784A6",
"x. c #838380",
"c. c #8180AB",
"v. c #8F95B0",
"b. c #8B95BB",
"n. c #999AAD",
"m. c #9794B7",
"M. c #9F9CB2",
"N. c #A4A4A4",
"B. c #ABA9BC",
"V. c #9697C2",
"C. c #A5AAC5",
"Z. c #B9B8C1",
"A. c #C1C1C1",
"S. c #C5C0CE",
"D. c #C6C4CC",
"F. c #CACACA",
"G. c #C6C5D1",
"H. c #C8C0D1",
"J. c #C8C4D5",
"K. c #C8C6D9",
"L. c #C9C8DF",
"P. c #D5D4D1",
"I. c #D7D5D7",
"U. c #E0D8DE",
"Y. c #E1DBE2",
"T. c #E3E2E7",
"R. c #E4E4E4",
"E. c #E5E3E8",
"W. c #E8E2E5",
"Q. c #EFECEE",
"!. c #F4EFEE",
"~. c #F5F5F7",
"^. c #F6F6F5",
"/. c #FCF7F2",
"(. c #FAF9F4",
"). c #FAF8F8",
"_. c #FBFBFB",
"`. c #FFFCF8",
"'. c #FFFDF9",
"]. c #FEFCFA",
"[. c #FFFEF9",
"{. c #FEFEFA",
"}. c #FDFDFC",
"|. c #FDFDFD",
" X c #FFFFFD",
".X c #FEFEFE",
"XX c #FFFFFE",
"oX c gray100",
/* pixels */
"oXoXoXoXoXoXoXoXoXoXoXoXoXoXoXoXoXoXoXoX",
"oXoXoXoXoXoXoXoXoXoXoXoXoXoXoXoXoXoXoXoX",
"oXoXoXoXoXoXoX].Y.W./.].oXoXoXoXoXoXoXoX",
"oXoXoXoXoX].H.q.&.=.7.w.b.C.S.U.~.oXoXoX",
"oXoXoXoXJ.0.| ,.f.s.s.r.,.:.;.*.1.D.oXoX",
"oXoXoXc.= -.u.s.f.k.h.h.h.l.f.) . n.oXoX",
"oXoXoXW X 4 t y _ X.>.y.f.t.( 5 z D.oXoX",
"oXoXoX! s B j < : @ # & y * w o.%.!.oXoX",
"oXoXoX! g Z Z Z B G B j ,   { O.2.oXoXoX",
"oXoXoX4.g Z Z V B B Z U s +  ...6.oXoXoX",
"oXoX].! h G V V Z B Z Z d $ @.} 9.oXoXoX",
"oXoXP.b g Z V V B Z B Z < 4 #.[ z.oXoXoX",
"(.F.^ c 7 G Z B V B Z Z i r #.' v.oXoXoX",
"N.E R v 6 G Z Z V Z Z U , 8 @.` J.oXoXoX",
"R.A.x.b o l B Z Z B B G : r ] V.oXoXoXoX",
"oXoX[.B.e.m % q k V G U - 0 5.(.oXoXoXoX",
"oXoXoXoXoXE.B.3.n 9 2 k O x L.oXoXoXoXoX",
"oXoXoXoXoXoXoX(.I.M.8.Y 1 m.oXoXoXoXoXoX",
"oXoXoXoXoXoXoXoXoXoX].Q.T.oXoXoXoXoXoXoX",
"oXoXoXoXoXoXoXoXoXoXoXoXoXoXoXoXoX].oXoX"
};
