/* XPM */
static char *hydrant[] = {
/* columns rows colors chars-per-pixel */
"20 20 107 2",
"   c #130000",
".  c #240000",
"X  c #2D0101",
"o  c #2F0808",
"O  c #351F1F",
"+  c #3A2020",
"@  c #430303",
"#  c #400807",
"$  c #440C0C",
"%  c #4C0201",
"&  c #4B0909",
"*  c #431212",
"=  c #4E1414",
"-  c #530404",
";  c #560C0B",
":  c #5E0405",
">  c #5B0807",
",  c #580D0C",
"<  c #561717",
"1  c #5F1817",
"2  c #5E191A",
"3  c #4C2C2C",
"4  c #4A3737",
"5  c #660101",
"6  c #650708",
"7  c #640C0D",
"8  c #6B0101",
"9  c #6B0B0C",
"0  c #61100F",
"q  c #6B1313",
"w  c #740505",
"e  c #740708",
"r  c #730C0C",
"t  c #7A0B0C",
"y  c #700F10",
"u  c #721112",
"i  c #7D1314",
"p  c #653837",
"a  c #693534",
"s  c #6D3D3D",
"d  c #742425",
"f  c #752728",
"g  c #6E3F40",
"h  c #6B5454",
"j  c #724545",
"k  c #784C4C",
"l  c #715050",
"z  c #7A6B6B",
"x  c #7A7171",
"c  c #840C0C",
"v  c #8B0A0B",
"b  c #8D0F11",
"n  c #821112",
"m  c #851819",
"M  c #8B1414",
"N  c #940C0C",
"B  c #990D0E",
"V  c #960E10",
"C  c #921213",
"Z  c #9B1112",
"A  c #9B1719",
"S  c #9C191B",
"D  c #A00F0F",
"F  c #A21213",
"G  c #A11B1B",
"H  c #AC1A1C",
"J  c #B31B1D",
"K  c #B91C1E",
"L  c #B71D20",
"P  c #B91D20",
"I  c #A52325",
"U  c #AE2123",
"Y  c #835B5B",
"T  c #8F595A",
"R  c #905D5D",
"E  c #886363",
"W  c #8D7272",
"Q  c #8E8888",
"!  c #968C8C",
"~  c #9B8484",
"^  c #A08685",
"/  c #A88F8F",
"(  c #A99493",
")  c #B59696",
"_  c #AFA09F",
"`  c #AFA0A0",
"'  c #B2A2A2",
"]  c #BAAAAA",
"[  c #B9B1B1",
"{  c #C8A9A9",
"}  c #C0BAB9",
"|  c #CAB8B7",
" . c #D0B1B1",
".. c #D9B8B8",
"X. c #C9C8C8",
"o. c #CFD2D2",
"O. c #D8CECE",
"+. c #D5D2D2",
"@. c #DDD4D4",
"#. c #E2D6D6",
"$. c #E4DDDC",
"%. c #E5E4E4",
"&. c #ECE2E2",
"*. c #EBEDED",
"=. c #F1F2F1",
"-. c #FAF3F3",
";. c #FEFEFE",
/* pixels */
";.;.;.;.;.;.%./ f d ^ %.;.;.;.;.;.;.;.;.",
";.;.;.;.$.R q 8 r r 8 u T O.;.;.;.;.;.;.",
";.;.;.*.a 8 v v b b A V 8 2 @.;.;.;.;.;.",
";.;.;.] % i r t r i i m r % ~ ;.;.;.;.;.",
";.&.p O 6 r > 9 y q 9 m 6 # & < [ ;.;.;.",
";.%.h + & n v Z J H S S t : + W +.;.;.;.",
";.;.;.) % C Z F L J H H v : Y | ) $.;.;.",
";.;.=.~ - v B D P L S t t r r e 5 q { ;.",
"[ 3 < o , C B F P P n v V c n M 7 6 6 ' ",
"4 X - & ; V N F K J C 9 r t 7 y r t @ 3 ",
"!   . X , C B F K K H C 9 & # @ ; X   z ",
";.X.Q h - C B F K J H J v r $ * o O x *.",
";.;.;.' - C N F K J H H v 8 Y *.o.*.;.;.",
";.;.;.) % C N D L J H J v 8 Y ;.;.;.;.;.",
";.;.;.` % M N D K J H H v 8 l ;.;.;.;.;.",
";.;.=.( - M N B J J G G v 8 k &.-.;.;.;.",
";.@., q i V v Z F D N G F e 0 w E ;.;.;.",
";.=. .W ; m v N H F S G c 8 s ..#.;.;.;.",
";.;.;.) @ n v N H H G G c 5 s ;.;.;.;.;.",
";.;.;.' - M C A U U I G M 9 j ;.;.;.;.;."
};
