/* XPM */
static char * lamp_xpm[] = {
"40 40 525 2",
"  	c #AEAEAE",
". 	c #ACB1B2",
"+ 	c #AAB4B5",
"@ 	c #A9B7B8",
"# 	c #AABABB",
"$ 	c #AEAFAF",
"% 	c #B7A19E",
"& 	c #C58B84",
"* 	c #CC776E",
"= 	c #C96258",
"- 	c #C86257",
"; 	c #AFABA9",
"> 	c #ACB3B4",
", 	c #DC6356",
"' 	c #F63821",
") 	c #FB301A",
"! 	c #FA2710",
"~ 	c #F31E08",
"{ 	c #E41B08",
"] 	c #BE7A72",
"^ 	c #ABB8B8",
"/ 	c #AAB3B5",
"( 	c #BE958F",
"_ 	c #F9351E",
": 	c #FF270D",
"< 	c #FF250F",
"[ 	c #FC250F",
"} 	c #EF240F",
"| 	c #E51A06",
"1 	c #CD4336",
"2 	c #AEA9A9",
"3 	c #AEB1B1",
"4 	c #AEAFAE",
"5 	c #A9B6B8",
"6 	c #DC6455",
"7 	c #FF280D",
"8 	c #FF270F",
"9 	c #FE2710",
"0 	c #F9270F",
"a 	c #E9230E",
"b 	c #E31E0C",
"c 	c #D22515",
"d 	c #B58B87",
"e 	c #ADB5B6",
"f 	c #ADAFAF",
"g 	c #ADB1B1",
"h 	c #AEB1B2",
"i 	c #AFB1B2",
"j 	c #AFB2B2",
"k 	c #B4A4A2",
"l 	c #EE432F",
"m 	c #FF240A",
"n 	c #FF452F",
"o 	c #FD5E48",
"p 	c #F21F0B",
"q 	c #E7220F",
"r 	c #DC1E0B",
"s 	c #CD2111",
"t 	c #B38884",
"u 	c #ADB0B1",
"v 	c #B7A2A0",
"w 	c #C08C86",
"x 	c #B48682",
"y 	c #A68482",
"z 	c #A18281",
"A 	c #A18482",
"B 	c #AEB0B0",
"C 	c #AAB7B9",
"D 	c #C0908B",
"E 	c #F92E19",
"F 	c #FF260F",
"G 	c #FF7159",
"H 	c #FB624F",
"I 	c #EE1D08",
"J 	c #E0200D",
"K 	c #D81D0B",
"L 	c #C71E0E",
"M 	c #B28581",
"N 	c #ADB6B6",
"O 	c #A8B8BA",
"P 	c #D56E63",
"Q 	c #FD2C16",
"R 	c #C71C0B",
"S 	c #921108",
"T 	c #770D05",
"U 	c #750D06",
"V 	c #A9827E",
"W 	c #B49390",
"X 	c #B3928E",
"Y 	c #B4938E",
"Z 	c #B09896",
"` 	c #C4736C",
" .	c #F82612",
"..	c #FD3721",
"+.	c #EF2B17",
"@.	c #E4200C",
"#.	c #DF200E",
"$.	c #CD1C0B",
"%.	c #BF1B0B",
"&.	c #B1837E",
"*.	c #ADB6B7",
"=.	c #A7B9BB",
"-.	c #DD5E50",
";.	c #FD230D",
">.	c #C91C0B",
",.	c #901107",
"'.	c #780C05",
").	c #740B04",
"!.	c #9D0B00",
"~.	c #B70F00",
"{.	c #BD1000",
"].	c #B50E00",
"^.	c #A80B00",
"/.	c #B11001",
"(.	c #D31D0D",
"_.	c #FC2610",
":.	c #F3230E",
"<.	c #E6210D",
"[.	c #DA210D",
"}.	c #D41E0C",
"|.	c #C61909",
"1.	c #B41305",
"2.	c #AE7E79",
"3.	c #AEB6B7",
"4.	c #ADB0B0",
"5.	c #AFAEAE",
"6.	c #E74D3C",
"7.	c #F01D07",
"8.	c #CA1D0D",
"9.	c #911207",
"0.	c #780C04",
"a.	c #760B05",
"b.	c #790C05",
"c.	c #840E05",
"d.	c #8B1005",
"e.	c #800C04",
"f.	c #7B0D04",
"g.	c #7C0D05",
"h.	c #BB1A0B",
"i.	c #F4240F",
"j.	c #E8220E",
"k.	c #D71F0C",
"l.	c #D01F0D",
"m.	c #C51B0C",
"n.	c #BC190A",
"o.	c #A80C00",
"p.	c #A97773",
"q.	c #AFB7B8",
"r.	c #ACB2B3",
"s.	c #B89D9B",
"t.	c #EF3D2A",
"u.	c #EC1E09",
"v.	c #C51B0B",
"w.	c #931106",
"x.	c #730C05",
"y.	c #721510",
"z.	c #71140E",
"A.	c #751510",
"B.	c #731610",
"C.	c #6B100A",
"D.	c #C01B09",
"E.	c #EF2510",
"F.	c #DB200E",
"G.	c #CB1D0C",
"H.	c #C61B0C",
"I.	c #B21709",
"J.	c #AC1607",
"K.	c #9C1105",
"L.	c #A57E7C",
"M.	c #AFB6B7",
"N.	c #ABB4B5",
"O.	c #C0908A",
"P.	c #F62F1B",
"Q.	c #E81F0B",
"R.	c #C11B0B",
"S.	c #941307",
"T.	c #790C03",
"U.	c #740800",
"V.	c #79211B",
"W.	c #ABA7A8",
"X.	c #ADACAC",
"Y.	c #A8B4B5",
"Z.	c #C7807A",
"`.	c #FC2009",
" +	c #CF1D0C",
".+	c #C21B0A",
"++	c #B6190A",
"@+	c #A51509",
"#+	c #A11104",
"$+	c #922218",
"%+	c #A7918F",
"&+	c #AFB4B5",
"*+	c #AAB6B7",
"=+	c #CA837B",
"-+	c #FE220B",
";+	c #E4210C",
">+	c #BD1A0B",
",+	c #941207",
"'+	c #7A0C04",
")+	c #750B01",
"!+	c #77160D",
"~+	c #9F8685",
"{+	c #B1B5B5",
"]+	c #AAB5B6",
"^+	c #C48A83",
"/+	c #F22711",
"(+	c #D21C0A",
"_+	c #BF1A0A",
":+	c #B5180A",
"<+	c #A91509",
"[+	c #9B1407",
"}+	c #8A0900",
"|+	c #8B352F",
"1+	c #ACA8A7",
"2+	c #AFB1B1",
"3+	c #D76D62",
"4+	c #FC1B03",
"5+	c #E0210E",
"6+	c #BD190A",
"7+	c #951207",
"8+	c #760B03",
"9+	c #750B04",
"0+	c #946A66",
"a+	c #B2B9BA",
"b+	c #B79E9B",
"c+	c #CB3527",
"d+	c #BF1404",
"e+	c #B4180B",
"f+	c #A41508",
"g+	c #881005",
"h+	c #710300",
"i+	c #884642",
"j+	c #B1B6B7",
"k+	c #B0ABAB",
"l+	c #E2594B",
"m+	c #F71C05",
"n+	c #DF220D",
"o+	c #BB1A0A",
"p+	c #921106",
"q+	c #770C05",
"r+	c #720500",
"s+	c #8D4E4A",
"t+	c #B4B6B7",
"u+	c #AFBBBD",
"v+	c #A75851",
"w+	c #A30E00",
"x+	c #A11407",
"y+	c #921207",
"z+	c #870F05",
"A+	c #740B03",
"B+	c #6B0600",
"C+	c #90605C",
"D+	c #B3BABB",
"E+	c #ADB1B2",
"F+	c #B89A98",
"G+	c #B46A63",
"H+	c #BF3B2E",
"I+	c #F52914",
"J+	c #F8240E",
"K+	c #DD220E",
"L+	c #BC1A0B",
"M+	c #901207",
"N+	c #7A0C05",
"O+	c #720B05",
"P+	c #6C0A04",
"Q+	c #850C04",
"R+	c #BF291A",
"S+	c #B3544B",
"T+	c #9E8D8C",
"U+	c #AAACAC",
"V+	c #A69694",
"W+	c #882017",
"X+	c #7B0400",
"Y+	c #6F0200",
"Z+	c #650200",
"`+	c #640000",
" @	c #762521",
".@	c #A89E9E",
"+@	c #B0B1B1",
"@@	c #BC9893",
"#@	c #DB695C",
"$@	c #F32B16",
"%@	c #CE1502",
"&@	c #C11808",
"*@	c #DF210D",
"=@	c #E1210D",
"-@	c #D21E0C",
";@	c #931208",
">@	c #850E06",
",@	c #891006",
"'@	c #8E1006",
")@	c #9D1508",
"!@	c #B51709",
"~@	c #A20F02",
"{@	c #600100",
"]@	c #662E2E",
"^@	c #8F7B7A",
"/@	c #9C817E",
"(@	c #83504D",
"_@	c #723B38",
":@	c #6E2D29",
"<@	c #6F2621",
"[@	c #A08E8C",
"}@	c #B0B3B3",
"|@	c #AEADAD",
"1@	c #C8867E",
"2@	c #F73621",
"3@	c #FF1F05",
"4@	c #FB240D",
"5@	c #EE2510",
"6@	c #DA1F0E",
"7@	c #CA1C0C",
"8@	c #C91C0C",
"9@	c #C61B0B",
"0@	c #BD1A0A",
"a@	c #B2170A",
"b@	c #AF1609",
"c@	c #B11809",
"d@	c #B01709",
"e@	c #AA170A",
"f@	c #911106",
"g@	c #760C05",
"h@	c #680902",
"i@	c #530000",
"j@	c #4D0000",
"k@	c #8C7472",
"l@	c #B6BFC0",
"m@	c #B0B3B4",
"n@	c #A8A5A4",
"o@	c #A49C9B",
"p@	c #C88379",
"q@	c #FB311A",
"r@	c #FF250D",
"s@	c #F9240E",
"t@	c #EB2210",
"u@	c #D8200D",
"v@	c #CC1E0C",
"w@	c #C71B0B",
"x@	c #C01A0B",
"y@	c #B6180A",
"z@	c #AB1609",
"A@	c #9D1409",
"B@	c #911107",
"C@	c #8A0F06",
"D@	c #6A0904",
"E@	c #5D0803",
"F@	c #5B0400",
"G@	c #620E0A",
"H@	c #A19492",
"I@	c #B0B1B2",
"J@	c #E8503F",
"K@	c #FF2309",
"L@	c #FE280F",
"M@	c #FE230C",
"N@	c #FB2B16",
"O@	c #F62A16",
"P@	c #EA230F",
"Q@	c #E0210D",
"R@	c #D9200E",
"S@	c #CC1E0D",
"T@	c #BB190A",
"U@	c #AF1709",
"V@	c #A81509",
"W@	c #9A1307",
"X@	c #901206",
"Y@	c #840F05",
"Z@	c #790C04",
"`@	c #6E0B03",
" #	c #630803",
".#	c #630703",
"+#	c #620600",
"@#	c #8B615D",
"##	c #B1B4B4",
"$#	c #B6A19F",
"%#	c #F04530",
"&#	c #FF2F19",
"*#	c #FE8B7B",
"=#	c #FF9989",
"-#	c #FB3F2A",
";#	c #E7230F",
">#	c #D61F0D",
",#	c #CA1D0A",
"'#	c #C41C0C",
")#	c #BA1A09",
"!#	c #B01609",
"~#	c #A61608",
"{#	c #951308",
"]#	c #8E1106",
"^#	c #830D05",
"/#	c #750C03",
"(#	c #6C0A03",
"_#	c #6A0A03",
":#	c #690700",
"<#	c #7F403D",
"[#	c #B2B8B9",
"}#	c #ABB3B4",
"|#	c #BD9490",
"1#	c #F63720",
"2#	c #FF230B",
"3#	c #FF3C26",
"4#	c #FFE4D5",
"5#	c #FFE1D3",
"6#	c #F74D37",
"7#	c #E21F0C",
"8#	c #D8200C",
"9#	c #CD1E0C",
"0#	c #BE1A0A",
"a#	c #B5180B",
"b#	c #AE1709",
"c#	c #A31408",
"d#	c #981307",
"e#	c #911206",
"f#	c #800D05",
"g#	c #6B0A04",
"h#	c #6D0A04",
"i#	c #6C0701",
"j#	c #792521",
"k#	c #B0B5B4",
"l#	c #AAB4B6",
"m#	c #C28C86",
"n#	c #FC2B14",
"o#	c #FF260D",
"p#	c #FD2B14",
"q#	c #F5442E",
"r#	c #FA4D39",
"s#	c #F63520",
"t#	c #E6230F",
"u#	c #DA200D",
"v#	c #D31E0E",
"w#	c #BC1B0B",
"x#	c #B1170A",
"y#	c #AC1709",
"z#	c #A51608",
"A#	c #9B1307",
"B#	c #850F06",
"C#	c #710B03",
"D#	c #6D0B03",
"E#	c #6F0A04",
"F#	c #700500",
"G#	c #7A231D",
"H#	c #ACA6A5",
"I#	c #DE5E50",
"J#	c #FF2209",
"K#	c #FB260F",
"L#	c #E11E0B",
"M#	c #E5210E",
"N#	c #E5230F",
"O#	c #DE200D",
"P#	c #D41F0C",
"Q#	c #BD1B0B",
"R#	c #9F1409",
"S#	c #981308",
"T#	c #9C1408",
"U#	c #860F06",
"V#	c #7B0D05",
"W#	c #720A03",
"X#	c #720A02",
"Y#	c #6E0500",
"Z#	c #7A241E",
"`#	c #A3908F",
" $	c #AFB0B0",
".$	c #E05B4D",
"+$	c #F71D06",
"@$	c #D61B07",
"#$	c #DA1E0C",
"$$	c #DA1F0D",
"%$	c #DB210D",
"&$	c #DC200D",
"*$	c #D81F0E",
"=$	c #CE1E0C",
"-$	c #C01B0B",
";$	c #861006",
">$	c #8D1106",
",$	c #830E06",
"'$	c #7F0E05",
")$	c #800E05",
"!$	c #780A02",
"~$	c #720300",
"{$	c #6F0000",
"]$	c #80322E",
"^$	c #A99F9D",
"/$	c #B0B2B2",
"($	c #B0ACAC",
"_$	c #CD5E53",
":$	c #C73022",
"<$	c #CC2110",
"[$	c #D11402",
"}$	c #D21604",
"|$	c #D41A06",
"1$	c #D41B09",
"2$	c #D11D0B",
"3$	c #BF1A0B",
"4$	c #7E0C04",
"5$	c #7B0A04",
"6$	c #7A0A02",
"7$	c #740600",
"8$	c #760500",
"9$	c #770600",
"0$	c #7F1E17",
"a$	c #863631",
"b$	c #905956",
"c$	c #AAA3A3",
"d$	c #B0B4B4",
"e$	c #ADADAD",
"f$	c #B0A09E",
"g$	c #B19B99",
"h$	c #B48D89",
"i$	c #B87B74",
"j$	c #BE5F57",
"k$	c #C24236",
"l$	c #C82C1D",
"m$	c #BE1D0D",
"n$	c #851C15",
"o$	c #8A342E",
"p$	c #8F443F",
"q$	c #996A65",
"r$	c #9F7C7A",
"s$	c #A69493",
"t$	c #A99D9D",
"u$	c #ABA5A5",
"v$	c #B0B2B3",
"w$	c #AEB0B1",
"x$	c #AEACAC",
"y$	c #AFA4A3",
"z$	c #ADA6A6",
"                                                                                ",
"                                                                                ",
"                                                                                ",
"                                                                                ",
"                                                                                ",
"                                                        . + @ # # $             ",
"                                                      + % & * = - ; $           ",
"                                                    > , ' ) ! ~ { ] ^           ",
"                                                  / ( _ : < [ } | 1 2 3         ",
"                                                4 5 6 7 8 9 0 a b c d e         ",
"                            f g h i j i         . k l m n o p q r s t e         ",
"                          u v w x y z A B h 3 3 C D E F G H I J K L M N         ",
"                          O P Q R S T U V W X Y Z `  .F ..+.@.#.$.%.&.*.        ",
"                          =.-.;.>.,.'.).!.~.{.].^./.(._.:.<.[.}.|.1.2.3.        ",
"                        4.5.6.7.8.9.0.a.b.c.d.e.f.g.h.i.j.k.l.m.n.o.p.q.        ",
"                        r.s.t.u.v.w.0.a.x.y.z.A.B.C.D.E.F.G.H.I.J.K.L.M.        ",
"                        N.O.P.Q.R.S.T.U.V.W.  X.Y.Z.`.J  +.+++@+#+$+%+&+        ",
"                        *+=+-+;+>+,+'+)+!+~+{+  ]+^+/+(+_+:+<+[+}+|+1+2+        ",
"                      $ r.3+4+5+6+7+'+8+9+0+a+  r.b+c+d+e+f+7+g+h+i+j+$         ",
"                  $ g u k+l+m+n+o+p+f.q+r+s+t+$ j u+v+w+x+y+z+A+B+C+D+          ",
"                N.E+F+G+H+I+J+K+L+M+N+O+P+Q+R+S+T+U+V+W+X+Y+Z+`+ @.@+@          ",
"              ]+@@#@$@%@&@*@=@-@e+;@>@,@'@)@!@~@{@]@^@/@(@_@:@<@[@}@            ",
"          |@+ 1@2@3@4@5@6@7@8@9@0@a@b@c@d@e@f@g@h@i@j@k@l@m@n@o@m@              ",
"          ]+p@q@r@8 s@i.t@*@u@v@w@x@y@z@A@B@C@0.D@E@F@G@H@I@I@}@                ",
"        4.5.J@K@L@M@N@O@P@Q@R@S@R T@U@V@W@X@Y@Z@`@ #.#+#@###                    ",
"        . $#%#m &#*#=#-#;#6@>#,#'#)#!#~#{#]#^#/#(#h@_#:#<#[#                    ",
"        }#|#1#2#3#4#5#6#7#8#9#v.0#a#b#c#d#e#f#9+P+g#h#i#j#k#                    ",
"        l#m#n#o#p#q#r#s#t#u#v#R w#x#y#z#A#S B#f.C#D#E#F#G#H#2+                  ",
"        4.  I#J#K#L#b M#N#O#P#7@Q#R#S#T#d#e#U#V#W#X#Y#Z#`# $                    ",
"          4.4 .$+$@$#$$$%$&$*$=$-$y+;$>$,$'$)$!$~${$]$^$/$                      ",
"            u ($_$:$<$[$}$|$1$2$3$4$5$6$7$8$9$0$a$b$c$d$                        ",
"              4.e$f$g$h$i$j$k$l$m$n$o$p$q$r$s$t$u$2+v$                          ",
"                $ w$g g B $ |@x$y$z$     $2+i 2+ $$                             ",
"                                $ $                                             ",
"                                                                                ",
"                                                                                ",
"                                                                                ",
"                                                                                ",
"                                                                                ",
"                                                                                "};
