/* XPM */
static char *lighting[] = {
/* columns rows colors chars-per-pixel */
"20 20 130 2",
"   c #3B2D00",
".  c #392F05",
"X  c #443B00",
"o  c #483C00",
"O  c #4E3E00",
"+  c #533F00",
"@  c #574600",
"#  c #594600",
"$  c #594801",
"%  c #5C4900",
"&  c #5E5E00",
"*  c #604D00",
"=  c #604E04",
"-  c #635500",
";  c #6D5800",
":  c #6E5900",
">  c #6D5804",
",  c #6E5904",
"<  c #665B28",
"1  c #7B6200",
"2  c #7F6700",
"3  c #747000",
"4  c #646451",
"5  c #776D4B",
"6  c #806602",
"7  c #896E00",
"8  c #8D7F00",
"9  c #907900",
"0  c #997C00",
"q  c #88762B",
"w  c #8F7A28",
"e  c #878500",
"r  c #939300",
"t  c #969300",
"y  c #949400",
"u  c #969700",
"i  c #989800",
"p  c #998637",
"a  c #A08100",
"s  c #AA8500",
"d  c #A88800",
"f  c #A38915",
"g  c #A2A300",
"h  c #ADAE02",
"j  c #B9A208",
"k  c #87867E",
"l  c #888371",
"z  c #88837E",
"x  c #99937D",
"c  c #AA9E66",
"v  c #A29B7B",
"b  c #ABA073",
"n  c #BABA74",
"m  c #C29B00",
"M  c #C99D00",
"N  c #D1A200",
"B  c #D7AC00",
"V  c #D5B708",
"C  c #C1A534",
"Z  c #D5BD31",
"A  c #E2B300",
"S  c #C5C400",
"D  c #DCC11D",
"F  c #DED505",
"G  c #D4D422",
"H  c #ECCF00",
"J  c #F5D000",
"K  c #F7D100",
"L  c #FFDE00",
"P  c #E5CB23",
"I  c #E6E600",
"U  c #E7E700",
"Y  c #FFE500",
"T  c #F2F400",
"R  c #F8F800",
"E  c #FCFC00",
"W  c yellow",
"Q  c #D8C055",
"!  c #9A9789",
"~  c #9D9881",
"^  c #A19B81",
"/  c #A19C82",
"(  c #A8A182",
")  c #ACA999",
"_  c #B8B899",
"`  c #AFAFB4",
"'  c #B9B9B9",
"]  c #CFCF9A",
"[  c #C3C0B2",
"{  c #C8C4B0",
"}  c #D5D5A6",
"|  c #DAD4AE",
" . c #D6D0BD",
".. c #F2DF94",
"X. c #F9E8A4",
"o. c #F6E7B4",
"O. c #C3C3C2",
"+. c #C5C5CF",
"@. c #CBCACA",
"#. c #D1D0CE",
"$. c #D6D4CE",
"%. c gray83",
"&. c #D6D6D4",
"*. c #DFDED6",
"=. c #E0DFDD",
"-. c #E1E2E8",
";. c #E1E2EA",
":. c #E6E7E9",
">. c #E8E8E9",
",. c #E7E8F1",
"<. c #EEEEF2",
"1. c #F2F2F1",
"2. c #F1F2F5",
"3. c #F3F4F4",
"4. c #F1F2F8",
"5. c #F6F6F9",
"6. c #F6F7F9",
"7. c #F7F7F8",
"8. c #F6F7FB",
"9. c #F8F8F8",
"0. c #F8F8FC",
"q. c GhostWhite",
"w. c #F9FAFD",
"e. c #FAFBFF",
"r. c #FBFDFF",
"t. c #FDFDFD",
"y. c #FCFCFF",
"u. c #FEFEFF",
"i. c #FEFFFF",
"p. c gray100",
/* pixels */
"p.p.p.p.p.p.p.p.p.p.p.p.p.p.p.p.p.p.p.p.",
"p.p.p.p.p.p.p.p.p.p.p.p.p.p.p.p.p.p.p.p.",
"p.p.p.=.:.p.p.p.p.p.p.p.p.p.p.p.p.p.p.p.",
"p.2.~ D Z *.p.p.p.p.p.p.p.p.p.p.p.p.p.p.",
"p.$.@ 9 J P | p.p.p.p.p.p.p.p.p.p.p.p.p.",
"p.[ > # - H V ! e.p.p.p.p.p.p.p.p.p.p.p.",
"p.6./ , % o 2 s Q ..X.o.@.O.1.p.p.p.p.p.",
"p.p.6./ =   ; a B A s 8 j 2 ( p.p.p.p.p.",
"p.p.p.8.k . : * 1 0 t T L M c p.p.p.p.p.",
"p.p.p.p.p.) # 7 O & W W J m { p.p.p.p.p.",
"p.p.p.p.p.3.< + 3 g y W Y C 4.p.p.p.p.p.",
"p.p.p.p.p.p.5 X I W r y F  .p.p.p.p.p.p.",
"p.p.p.p.p.p.z e W W W y 4 e.;.p.p.p.p.p.",
"p.p.p.p.p.p.` S W W U n ;.x w %.p.p.p.p.",
"p.p.p.p.p.p.+.h R G ] e.,.q N p >.p.p.p.",
"p.p.p.p.p.p.6._ } >.p.p.6.#.b f v p.p.p.",
"p.p.p.p.p.p.p.p.p.p.p.p.p.p.p.%.l ' p.p.",
"p.p.p.p.p.p.p.p.p.p.p.p.p.p.p.p.e.%.7.p.",
"p.p.p.p.p.p.p.p.p.p.p.p.p.p.p.p.p.p.p.p.",
"p.p.p.p.p.p.p.p.p.p.p.p.p.p.p.p.p.p.p.p."
};
