/* XPM */
static char * lpost_xpm[] = {
"40 40 238 2",
"  	c #AEAEAE",
". 	c #AFAFB0",
"+ 	c #AFAEAE",
"@ 	c #B1B1B1",
"# 	c #93979E",
"$ 	c #A0A3AB",
"% 	c #B0B0B0",
"& 	c #B3B3B2",
"* 	c #8A8C8F",
"= 	c #949BA4",
"- 	c #ABACAD",
"; 	c #B3B2B2",
"> 	c #B5B4B4",
", 	c #B1B1B0",
"' 	c #AFAFAF",
") 	c #A9AAAB",
"! 	c #6B727B",
"~ 	c #4D5359",
"{ 	c #696C73",
"] 	c #808389",
"^ 	c #949699",
"/ 	c #A3A4A6",
"( 	c #B8B7B6",
"_ 	c #B6B5B4",
": 	c #B0B0AF",
"< 	c #B5B5B3",
"[ 	c #74787F",
"} 	c #7B818E",
"| 	c #616567",
"1 	c #494E56",
"2 	c #414750",
"3 	c #424A53",
"4 	c #545B64",
"5 	c #686D73",
"6 	c #7F8388",
"7 	c #95989B",
"8 	c #AAAAAC",
"9 	c #AFAFAE",
"0 	c #9B9DA0",
"a 	c #B3BDCA",
"b 	c #B5B6B7",
"c 	c #A3A4A4",
"d 	c #9B9C9D",
"e 	c #929395",
"f 	c #777B7E",
"g 	c #585D63",
"h 	c #3F454D",
"i 	c #373F48",
"j 	c #414C55",
"k 	c #646C79",
"l 	c #9CA0A9",
"m 	c #AFB0B1",
"n 	c #ACADAD",
"o 	c #969EAD",
"p 	c #BDC0C8",
"q 	c #AEADAC",
"r 	c #B1B0B0",
"s 	c #ACACAC",
"t 	c #A2A2A3",
"u 	c #898A8D",
"v 	c #696E75",
"w 	c #626B77",
"x 	c #828998",
"y 	c #A6AAAD",
"z 	c #B2B2B3",
"A 	c #959CA7",
"B 	c #BCC4D2",
"C 	c #ADADAC",
"D 	c #B5B5B4",
"E 	c #A1A1A1",
"F 	c #777B81",
"G 	c #67707D",
"H 	c #898F9B",
"I 	c #AFB1B5",
"J 	c #B2B2B1",
"K 	c #AEAEAD",
"L 	c #A1A4A9",
"M 	c #B1BBCB",
"N 	c #B4B4B2",
"O 	c #909292",
"P 	c #6F747B",
"Q 	c #636A76",
"R 	c #969CA4",
"S 	c #9E9FA0",
"T 	c #A2A3A5",
"U 	c #ADADAD",
"V 	c #A6A7A9",
"W 	c #A5B0C0",
"X 	c #BCC1C7",
"Y 	c #ACACAB",
"Z 	c #B3B3B3",
"` 	c #ABABAB",
" .	c #8D8F91",
"..	c #424549",
"+.	c #414245",
"@.	c #787E85",
"#.	c #969DA5",
"$.	c #A6ACB2",
"%.	c #AEADAD",
"&.	c #A7A7A7",
"*.	c #A1AAB6",
"=.	c #BAC2CD",
"-.	c #5F5F5F",
";.	c #101113",
">.	c #62686F",
",.	c #9199A1",
"'.	c #ABB6C0",
").	c #BAC1CE",
"!.	c #B9BEC5",
"~.	c #A4A9AF",
"{.	c #B2BDCD",
"].	c #B3B4B6",
"^.	c #636363",
"/.	c #060708",
"(.	c #505559",
"_.	c #858D95",
":.	c #A7AFBB",
"<.	c #C1CAD8",
"[.	c #D2DDED",
"}.	c #C5CBD2",
"|.	c #ADAEAD",
"1.	c #B0AFAF",
"2.	c #9E9EA0",
"3.	c #ADBDCF",
"4.	c #B6BABF",
"5.	c #7F7E7F",
"6.	c #3A3D41",
"7.	c #6C747B",
"8.	c #929AA4",
"9.	c #B6C1CD",
"0.	c #D5E0EE",
"a.	c #DEEAF8",
"b.	c #C7CFD8",
"c.	c #AAA9A7",
"d.	c #A5AFBD",
"e.	c #B8BFC9",
"f.	c #9C9C9C",
"g.	c #262628",
"h.	c #2A2D31",
"i.	c #51555B",
"j.	c #7B8388",
"k.	c #9CA7B0",
"l.	c #BECAD5",
"m.	c #D5E2F1",
"n.	c #E3EFFF",
"o.	c #CAD1DC",
"p.	c #B1B0AF",
"q.	c #969AA0",
"r.	c #BCCAD9",
"s.	c #B2B2B2",
"t.	c #797979",
"u.	c #222527",
"v.	c #393B40",
"w.	c #5D6467",
"x.	c #7E898F",
"y.	c #A3AFB8",
"z.	c #C2CCDC",
"A.	c #D9E5F4",
"B.	c #E8F7FF",
"C.	c #CDD5DC",
"D.	c #AFB0B0",
"E.	c #A0A1A1",
"F.	c #B2C4D6",
"G.	c #B3B5B9",
"H.	c #B4B5B4",
"I.	c #737374",
"J.	c #2D3033",
"K.	c #363C3E",
"L.	c #5D6469",
"M.	c #818892",
"N.	c #A0AAB8",
"O.	c #C0CEDA",
"P.	c #DEEDF9",
"Q.	c #F1FFFF",
"R.	c #D0D3D4",
"S.	c #B0B0AE",
"T.	c #95A0AB",
"U.	c #BBC4CD",
"V.	c #ADACAB",
"W.	c #8F9090",
"X.	c #626566",
"Y.	c #414649",
"Z.	c #52565E",
"`.	c #788089",
" +	c #A2ADB8",
".+	c #EEF5F9",
"++	c #CECECE",
"@+	c #96999E",
"#+	c #BCC8D7",
"$+	c #ADACAA",
"%+	c #B4B4B4",
"&+	c #999A9B",
"*+	c #676D78",
"=+	c #575D68",
"-+	c #727B83",
";+	c #B8C0C7",
">+	c #DDDDDF",
",+	c #A9AAAD",
"'+	c #A2AEBC",
")+	c #B6B9BC",
"!+	c #A4A5A6",
"~+	c #878A8D",
"{+	c #ACAEB3",
"]+	c #B6B6B6",
"^+	c #99A2AB",
"/+	c #C0CAD4",
"(+	c #ABAAA8",
"_+	c #A5A9AF",
":+	c #B2BFCD",
"<+	c #A7A9AC",
"[+	c #A4B0BE",
"}+	c #B8BBBF",
"|+	c #ADACAC",
"1+	c #A9A9A8",
"2+	c #A7AEBC",
"3+	c #B6BCC6",
"4+	c #AFAEAD",
"5+	c #A1A7B1",
"6+	c #A8B1BF",
"7+	c #9DA0A1",
"8+	c #A5AFBB",
"9+	c #B5B6B9",
"0+	c #A7A5A5",
"a+	c #949BA3",
"b+	c #929598",
"c+	c #969596",
"d+	c #4C4D51",
"e+	c #767C7F",
"f+	c #909394",
"g+	c #A0A0A0",
"h+	c #333333",
"i+	c #74797D",
"j+	c #74787B",
"k+	c #AAABAA",
"l+	c #8D8C8D",
"m+	c #757576",
"n+	c #9E9E9F",
"o+	c #ABAAAA",
"                                                                                ",
"                                                                                ",
"            . +                                                                 ",
"          @ # $ %                                                               ",
"          & * = - ; > & , '                                                     ",
"          ' ) ! ~ { ] ^ / @ ( _ ; :                                             ",
"            < [ } | 1 2 3 4 5 6 7 8 & 9                                         ",
"            : 0 a b c d e f g h i j k l m '                                     ",
"              n o p q % r '   s t u v w x y z 9                                 ",
"              s A B C           ' @ D E F G H I J @ %                           ",
"              K L M b C               @ N O P Q R S T U +                       ",
"              9 V W X Y                 + Z `  ...+.@.#.$.m %.                  ",
"              9 &.*.=.K                     ' J -.;.>.,.'.).!.  U               ",
"                + ~.{.].K                     % ^./.(._.:.<.[.}.|.%.            ",
"                1.2.3.4.%.                    @ 5./.6.7.8.9.0.a.b.U U           ",
"                  c.d.e.9                     % f.g.h.i.j.k.l.m.n.o.U U         ",
"                  p.q.r.%                       s.t.u.v.w.x.y.z.A.B.C.D.        ",
"                  1.E.F.G.K                     + H.I.J.K.L.M.N.O.P.Q.R.U       ",
"                    S.T.U.V.                      ' @ W.X.Y.Z.`. +O..+++U       ",
"                    p.@+#+$+                        ' %+K &+*+=+-+;+>+'         ",
"                      ,+'+)+C                           ' % ' !+~+{+]+U         ",
"                      s ^+/+(+                                ' @   U           ",
"                      %._+:+: U                                                 ",
"                      + <+[+}+|+                                                ",
"                        1+2+3+V.                                                ",
"                        4+5+6+@                                                 ",
"                        % 7+8+9+K                                               ",
"                        ' 0+a+b+K                                               ",
"                        s.c+d+e+f+                                              ",
"                        s.g+h+i+j+k+'                                           ",
"                          Z l+m+n+@                                             ",
"                            s.o+r                                               ",
"                              '                                                 ",
"                                                                                ",
"                                                                                ",
"                                                                                ",
"                                                                                ",
"                                                                                ",
"                                                                                ",
"                                                                                "};
