/* XPM */
static char * mbox_xpm[] = {
"40 40 599 2",
"  	c #999999",
". 	c #636682",
"+ 	c #393D7A",
"@ 	c #1E247A",
"# 	c #212982",
"$ 	c #262E89",
"% 	c #282F8B",
"& 	c #272F89",
"* 	c #313990",
"= 	c #3B4396",
"- 	c #3C4397",
"; 	c #3D4499",
"> 	c #3F479F",
", 	c #373D84",
"' 	c #565778",
") 	c #89898F",
"! 	c #4E5182",
"~ 	c #0B0D35",
"{ 	c #00002B",
"] 	c #000031",
"^ 	c #010031",
"/ 	c #000132",
"( 	c #000032",
"_ 	c #1F268B",
": 	c #181E78",
"< 	c #0A0B4F",
"[ 	c #040640",
"} 	c #0B0C43",
"| 	c #7F8188",
"1 	c #595C88",
"2 	c #16184F",
"3 	c #0B0D30",
"4 	c #010216",
"5 	c #000030",
"6 	c #00002F",
"7 	c #1E237E",
"8 	c #1D2385",
"9 	c #080C4A",
"0 	c #060840",
"a 	c #050540",
"b 	c #030340",
"c 	c #17174A",
"d 	c #8C8C91",
"e 	c #949599",
"f 	c #22296D",
"g 	c #1D2253",
"h 	c #0D1031",
"i 	c #02020A",
"j 	c #00002A",
"k 	c #090B47",
"l 	c #2832A3",
"m 	c #0F125C",
"n 	c #06083F",
"o 	c #090A43",
"p 	c #0A0B41",
"q 	c #07083E",
"r 	c #05073E",
"s 	c #55586F",
"t 	c #6B7095",
"u 	c #161B52",
"v 	c #1C2053",
"w 	c #0F112F",
"x 	c #040415",
"y 	c #000009",
"z 	c #040433",
"A 	c #020334",
"B 	c #010133",
"C 	c #151974",
"D 	c #181D84",
"E 	c #050844",
"F 	c #090C41",
"G 	c #0E1142",
"H 	c #0F113F",
"I 	c #0D0C3E",
"J 	c #080B40",
"K 	c #282A54",
"L 	c #41447D",
"M 	c #171A4F",
"N 	c #191950",
"O 	c #0B0B27",
"P 	c #040511",
"Q 	c #000102",
"R 	c #1D162F",
"S 	c #2A224E",
"T 	c #231F4D",
"U 	c #1D1E49",
"V 	c #1B1B48",
"W 	c #27309A",
"X 	c #0F1468",
"Y 	c #080C40",
"Z 	c #0E1042",
"` 	c #111343",
" .	c #111240",
"..	c #111341",
"+.	c #101242",
"@.	c #0B0D40",
"#.	c #313577",
"$.	c #191D53",
"%.	c #181C49",
"&.	c #141527",
"*.	c #443642",
"=.	c #734B56",
"-.	c #7C4950",
";.	c #844D50",
">.	c #8B4E50",
",.	c #8B494C",
"'.	c #834550",
").	c #1C2495",
"!.	c #0C0F53",
"~.	c #0B0E40",
"{.	c #101443",
"].	c #131642",
"^.	c #121541",
"/.	c #161842",
"(.	c #131641",
"_.	c #0D0F41",
":.	c #8C8C90",
"<.	c #21266F",
"[.	c #3C447E",
"}.	c #595F94",
"|.	c #575E8F",
"1.	c #5C5E82",
"2.	c #605B76",
"3.	c #676072",
"4.	c #726A78",
"5.	c #6A606A",
"6.	c #64595F",
"7.	c #615A7A",
"8.	c #121885",
"9.	c #0F124C",
"0.	c #0F1441",
"a.	c #141743",
"b.	c #131741",
"c.	c #141740",
"d.	c #161A43",
"e.	c #131541",
"f.	c #0C0F40",
"g.	c #88888E",
"h.	c #121790",
"i.	c #171D91",
"j.	c #1D2294",
"k.	c #262B98",
"l.	c #2D349D",
"m.	c #323A98",
"n.	c #394196",
"o.	c #434898",
"p.	c #4D529C",
"q.	c #4F5597",
"r.	c #3F4598",
"s.	c #13187A",
"t.	c #0F1244",
"u.	c #131640",
"v.	c #161941",
"w.	c #18193F",
"x.	c #171A40",
"y.	c #151840",
"z.	c #13153F",
"A.	c #0C0E3F",
"B.	c #88898D",
"C.	c #1C2193",
"D.	c #0B108F",
"E.	c #0F158E",
"F.	c #12188F",
"G.	c #151A8E",
"H.	c #191D8F",
"I.	c #1A1F8E",
"J.	c #181D8B",
"K.	c #1A1D8C",
"L.	c #171B8E",
"M.	c #0A0B81",
"N.	c #11156D",
"O.	c #111443",
"P.	c #141842",
"Q.	c #181A41",
"R.	c #191B3E",
"S.	c #191A3D",
"T.	c #17173D",
"U.	c #13123C",
"V.	c #0D0E3F",
"W.	c #88878D",
"X.	c #252996",
"Y.	c #101594",
"Z.	c #151C97",
"`.	c #1B2097",
" +	c #202695",
".+	c #232B96",
"++	c #282E96",
"@+	c #293295",
"#+	c #2F3797",
"$+	c #292F96",
"%+	c #0D0F85",
"&+	c #11136A",
"*+	c #101441",
"=+	c #151841",
"-+	c #191B40",
";+	c #191A3E",
">+	c #19193D",
",+	c #16153A",
"'+	c #11133E",
")+	c #0B0F3F",
"!+	c #87888D",
"~+	c #111996",
"{+	c #172099",
"]+	c #202798",
"^+	c #252B97",
"/+	c #2B3298",
"(+	c #303697",
"_+	c #333C9A",
":+	c #38419E",
"<+	c #2F379E",
"[+	c #0E1189",
"}+	c #10136A",
"|+	c #111440",
"1+	c #171941",
"2+	c #161840",
"3+	c #181A3D",
"4+	c #191739",
"5+	c #161339",
"6+	c #10123D",
"7+	c #0A0E3F",
"8+	c #88888C",
"9+	c #131B95",
"0+	c #1A2299",
"a+	c #21279A",
"b+	c #262D98",
"c+	c #2D3399",
"d+	c #343894",
"e+	c #383E97",
"f+	c #3C459F",
"g+	c #30399E",
"h+	c #0F108A",
"i+	c #10146C",
"j+	c #121540",
"k+	c #181C41",
"l+	c #171840",
"m+	c #16183F",
"n+	c #1A193B",
"o+	c #151137",
"p+	c #0F113D",
"q+	c #0B0D3F",
"r+	c #909092",
"s+	c #262996",
"t+	c #171C96",
"u+	c #1C2599",
"v+	c #222999",
"w+	c #28309B",
"x+	c #313898",
"y+	c #373B95",
"z+	c #3A4198",
"A+	c #3F499F",
"B+	c #323C9E",
"C+	c #0E118A",
"D+	c #10156B",
"E+	c #131540",
"F+	c #191C43",
"G+	c #181B3F",
"H+	c #171B40",
"I+	c #15153B",
"J+	c #11123F",
"K+	c #0A0D41",
"L+	c #2D3195",
"M+	c #1C1D90",
"N+	c #292895",
"O+	c #2F309A",
"P+	c #2E319D",
"Q+	c #30379B",
"R+	c #353C9B",
"S+	c #39419D",
"T+	c #333B9C",
"U+	c #0F108B",
"V+	c #131740",
"W+	c #1B1E43",
"X+	c #1D2042",
"Y+	c #1B1F42",
"Z+	c #18193D",
"`+	c #14143E",
" @	c #101241",
".@	c #353996",
"+@	c #291F89",
"@@	c #634185",
"#@	c #6C4B89",
"$@	c #513D85",
"%@	c #38287C",
"&@	c #352D83",
"*@	c #37348B",
"=@	c #3F4497",
"-@	c #363C9D",
";@	c #0E128C",
">@	c #11146B",
",@	c #1D1F41",
"'@	c #14153E",
")@	c #13133E",
"!@	c #11143F",
"~@	c #0F1240",
"{@	c #0B0D3E",
"]@	c #373B97",
"^@	c #382588",
"/@	c #9678A4",
"(@	c #9077A4",
"_@	c #75558B",
":@	c #603774",
"<@	c #4A1C61",
"[@	c #471A60",
"}@	c #553D81",
"|@	c #373D9B",
"1@	c #0E158D",
"2@	c #12166B",
"3@	c #141640",
"4@	c #1D2041",
"5@	c #13143C",
"6@	c #13123B",
"7@	c #0F103A",
"8@	c #0E113D",
"9@	c #0A0D3E",
"0@	c #373A95",
"a@	c #3A2588",
"b@	c #9B85B0",
"c@	c #6765A4",
"d@	c #4E4B99",
"e@	c #9290C0",
"f@	c #6F6CAA",
"g@	c #42368A",
"h@	c #6F4880",
"i@	c #3D3E9B",
"j@	c #10158F",
"k@	c #11176C",
"l@	c #1E1F42",
"m@	c #19173C",
"n@	c #16163C",
"o@	c #15153C",
"p@	c #14133B",
"q@	c #0F103B",
"r@	c #131545",
"s@	c #383B96",
"t@	c #3A278A",
"u@	c #826BA2",
"v@	c #474593",
"w@	c #3B398C",
"x@	c #7F7FB4",
"y@	c #7B79B2",
"z@	c #5C58A2",
"A@	c #754D82",
"B@	c #3F3F99",
"C@	c #11168F",
"D@	c #12156A",
"E@	c #141841",
"F@	c #1D2142",
"G@	c #1E1D3D",
"H@	c #1A1C3C",
"I@	c #13133B",
"J@	c #0E0F3C",
"K@	c #1B1D4B",
"L@	c #393D94",
"M@	c #3A2689",
"N@	c #77619E",
"O@	c #59579F",
"P@	c #38358A",
"Q@	c #37348A",
"R@	c #2A2782",
"S@	c #57559D",
"T@	c #744C84",
"U@	c #3F3F98",
"V@	c #13178E",
"W@	c #11166A",
"X@	c #141840",
"Y@	c #1D2141",
"Z@	c #1E1E3D",
"`@	c #1B1A3B",
" #	c #12133B",
".#	c #0D0F3D",
"+#	c #1C1D4B",
"@#	c #424696",
"##	c #39268A",
"$#	c #836BA5",
"%#	c #9A96C8",
"&#	c #8281BA",
"*#	c #6561A6",
"=#	c #544F9C",
"-#	c #7C7AB2",
";#	c #734C86",
">#	c #3D3B98",
",#	c #13188F",
"'#	c #121769",
")#	c #141940",
"!#	c #1C1F42",
"~#	c #1C1D3D",
"{#	c #1A1A3B",
"]#	c #18183E",
"^#	c #13133D",
"/#	c #0C0F3E",
"(#	c #1B1D4A",
"_#	c #4B4D95",
":#	c #2D248E",
"<#	c #6A4F96",
"[#	c #8A7EB8",
"}#	c #918DC3",
"|#	c #908CC6",
"1#	c #A29ECD",
"2#	c #D0D0E2",
"3#	c #734E8A",
"4#	c #383697",
"5#	c #14188B",
"6#	c #121768",
"7#	c #151940",
"8#	c #1C2140",
"9#	c #1D1C3C",
"0#	c #1A193D",
"a#	c #13143E",
"b#	c #0D0E3E",
"c#	c #1C1C4A",
"d#	c #4B4E95",
"e#	c #222193",
"f#	c #412C8B",
"g#	c #5E3A86",
"h#	c #6C4287",
"i#	c #785191",
"j#	c #8769A3",
"k#	c #AE9EC0",
"l#	c #6A4587",
"m#	c #333293",
"n#	c #13188A",
"o#	c #151768",
"p#	c #1E2040",
"q#	c #1C1E3D",
"r#	c #1A1A3D",
"s#	c #0B0C3E",
"t#	c #242550",
"u#	c #4A4D96",
"v#	c #151B96",
"w#	c #1F1F95",
"x#	c #2F2995",
"y#	c #392E92",
"z#	c #46328F",
"A#	c #51378B",
"B#	c #5C3987",
"C#	c #3D2A8A",
"D#	c #242897",
"E#	c #131587",
"F#	c #161764",
"G#	c #15193F",
"H#	c #1D1E40",
"I#	c #1C1E40",
"J#	c #1A1B40",
"K#	c #171A3E",
"L#	c #121340",
"M#	c #0A0D40",
"N#	c #2D2E55",
"O#	c #4A4F98",
"P#	c #101797",
"Q#	c #121997",
"R#	c #161D99",
"S#	c #1C229C",
"T#	c #20259A",
"U#	c #242697",
"V#	c #2B2894",
"W#	c #212396",
"X#	c #1F2295",
"Y#	c #131586",
"Z#	c #161865",
"`#	c #1B1E41",
" $	c #1B1E42",
".$	c #171A42",
"+$	c #151A42",
"@$	c #101440",
"#$	c #090C3F",
"$$	c #2C2E55",
"%$	c #525595",
"&$	c #0B0E95",
"*$	c #0A0D95",
"=$	c #141595",
"-$	c #191C98",
";$	c #1A1E99",
">$	c #1A2099",
",$	c #141C97",
"'$	c #0F1387",
")$	c #151865",
"!$	c #16193F",
"~$	c #191D42",
"{$	c #171942",
"]$	c #131742",
"^$	c #101240",
"/$	c #090C3E",
"($	c #5B5D96",
"_$	c #0B0B93",
":$	c #090892",
"<$	c #111093",
"[$	c #141294",
"}$	c #121294",
"|$	c #121295",
"1$	c #0F1396",
"2$	c #0B1195",
"3$	c #101696",
"4$	c #0F148B",
"5$	c #171A6F",
"6$	c #161A40",
"7$	c #191F41",
"8$	c #0D113F",
"9$	c #0A0C3C",
"0$	c #2E2D56",
"a$	c #5B5D95",
"b$	c #090A91",
"c$	c #06048F",
"d$	c #0C088D",
"e$	c #0F0C8F",
"f$	c #0F0C90",
"g$	c #0D0E92",
"h$	c #0C0D96",
"i$	c #050895",
"j$	c #0C1095",
"k$	c #0F1388",
"l$	c #151A67",
"m$	c #151941",
"n$	c #191E42",
"o$	c #181C42",
"p$	c #111442",
"q$	c #0D0F3F",
"r$	c #0A0A3B",
"s$	c #35385A",
"t$	c #595B93",
"u$	c #0C0F90",
"v$	c #07058C",
"w$	c #08078B",
"x$	c #0B068A",
"y$	c #0A078D",
"z$	c #080690",
"A$	c #080893",
"B$	c #040592",
"C$	c #0C0E91",
"D$	c #0E1287",
"E$	c #151967",
"F$	c #1A1E43",
"G$	c #181B41",
"H$	c #151741",
"I$	c #0F1340",
"J$	c #080A3E",
"K$	c #3E3F62",
"L$	c #5A5B93",
"M$	c #15188D",
"N$	c #090B88",
"O$	c #090A87",
"P$	c #080888",
"Q$	c #070689",
"R$	c #07068C",
"S$	c #05068F",
"T$	c #03028F",
"U$	c #0E1389",
"V$	c #161A67",
"W$	c #191C42",
"X$	c #121740",
"Y$	c #0E1241",
"Z$	c #0E1041",
"`$	c #454564",
" %	c #585869",
".%	c #636286",
"+%	c #919199",
"@%	c #717495",
"#%	c #454890",
"$%	c #15188A",
"%%	c #090A89",
"&%	c #080988",
"*%	c #05078B",
"=%	c #05058A",
"-%	c #0B0D8F",
";%	c #0E1186",
">%	c #171A65",
",%	c #151A40",
"'%	c #171C41",
")%	c #131744",
"!%	c #484A66",
"~%	c #8B8C8F",
"{%	c #5A5A69",
"]%	c #6A6B87",
"^%	c #7A7C96",
"/%	c #4D4F91",
"(%	c #23258D",
"_%	c #070A8A",
":%	c #0D128D",
"<%	c #101081",
"[%	c #171A63",
"}%	c #181B44",
"|%	c #4A4D65",
"1%	c #8B8B8F",
"2%	c #6C6C78",
"3%	c #878795",
"4%	c #868696",
"5%	c #545592",
"6%	c #272380",
"7%	c #1A1B61",
"8%	c #3E3F5C",
"9%	c #8C8B91",
"0%	c #5E5D8A",
"a%	c #1C1C61",
"b%	c #696A79",
"c%	c #615F8D",
"d%	c #1E1F65",
"e%	c #696A7A",
"f%	c #60618E",
"g%	c #212466",
"h%	c #717280",
"                                                                                ",
"                                                                                ",
"                          . + @ # $ % & * = - ; > , ' )                         ",
"                        ! ~ { ] ^ ] / ( ] ^ ( _ : < [ } |                       ",
"                      1 2 3 4 5 5 5 5 5 6 ] 7 8 9 0 a b c d                     ",
"                    e f g h i j 5 6 5 5 5 k l m n o p q r s                     ",
"                    t u v w x y z A B ( ( C D E F G H I J K                     ",
"                    L M N O P Q R S T U V W X Y Z `  ...+.@.                    ",
"                    #.$.%.&.*.=.-.;.>.,.'.).!.~.{.].^./.(._.:.                  ",
"                    <.[.}.|.1.2.3.4.5.6.7.8.9.0.a.b.c.d.e.f.g.                  ",
"                    h.i.j.k.l.m.n.o.p.q.r.s.t.u.v.w.x.y.z.A.B.                  ",
"                    C.D.E.F.G.H.I.J.K.L.M.N.O.P.Q.R.S.T.U.V.W.                  ",
"                    X.Y.Z.`. +.+++@+#+$+%+&+*+=+-+;+>+,+'+)+!+                  ",
"                    X.~+{+]+^+/+(+_+:+<+[+}+|+1+2+3+4+5+6+7+8+                  ",
"                    X.9+0+a+b+c+d+e+f+g+h+i+j+k+l+m+n+o+p+q+r+                  ",
"                    s+t+u+v+w+x+y+z+A+B+C+D+E+F+G+H+;+I+J+K+                    ",
"                    L+M+N+O+P+Q+R+S+> T+U+D+V+W+X+Y+Z+`+ @q+                    ",
"                    .@+@@@#@$@%@&@*@=@-@;@>@u.,@T.'@)@!@~@{@                    ",
"                    ]@^@/@(@_@:@<@[@}@|@1@2@3@4@I+5@6@7@8@9@                    ",
"                    0@a@b@c@d@e@f@g@h@i@j@k@c.l@m@n@o@p@q@r@                    ",
"                    s@t@u@v@w@x@y@z@A@B@C@D@E@F@G@H@T.I@J@K@                    ",
"                    L@M@N@O@P@Q@R@S@T@U@V@W@X@Y@Z@`@T. #.#+#                    ",
"                    @###$#%#&#*#=#-#;#>#,#'#)#!#~#{#]#^#/#(#                    ",
"                    _#:#<#[#}#|#1#2#3#4#5#6#7#8#9#{#0#a#b#c#                    ",
"                    d#e#f#g#h#i#j#k#l#m#n#o#y.p#q#r#;+^#s#t#                    ",
"                    u#v#w#x#y#z#A#B#C#D#E#F#G#H#I#J#K#L#M#N#                    ",
"                    O#P#Q#R#S#T#U#V#W#X#Y#Z#G#`# $.$+$@$#$$$                    ",
"                    %$&$*$=$-$;$>$R#~+,$'$)$!$`#~${$]$^$/$$$                    ",
"                    ($_$:$<$[$}$|$1$2$3$4$5$6$7$~$6$].8$9$0$                    ",
"                    a$b$c$d$e$f$g$h$i$j$k$l$m$n$o$)#p$q$r$s$                    ",
"                    t$u$v$w$x$y$z$A$B$C$D$E$7#F$G$H$I$q$J$K$                    ",
"                    L$M$N$O$P$Q$R$S$T$C$U$V$!$W$.$X$Y$Z$`$ %                    ",
"                    .%+%@%#%$%%%&%*%=%-%;%>%,%'%E@)%!%~%  {%                    ",
"                    ]%        ^%/%(%_%:%<%[%m+}%|%1%      2%                    ",
"                    3%              4%5%6%7%8%9%                                ",
"                                        0%a%b%                                  ",
"                                        c%d%e%                                  ",
"                                        f%g%h%                                  ",
"                                                                                ",
"                                                                                "};
