/* XPM */
static char *park[] = {
/* columns rows colors chars-per-pixel */
"20 20 226 2",
"   c #373527",
".  c #30332F",
"X  c #3A3723",
"o  c #3D3A2B",
"O  c #3C3A2D",
"+  c #3D3B2D",
"@  c #3D3B2E",
"#  c #3D3B2F",
"$  c #323732",
"%  c #333732",
"&  c #333F36",
"*  c #3C3B31",
"=  c #3E3937",
"-  c #3F3D30",
";  c #3F3D31",
":  c #3E3A39",
">  c #3E3B38",
",  c #3C3F3A",
"<  c #3E3C39",
"1  c #364339",
"2  c #35453B",
"3  c #37483D",
"4  c #364B3E",
"5  c #384139",
"6  c #3B433B",
"7  c #3A443C",
"8  c #3C453C",
"9  c #39483C",
"0  c #39493D",
"q  c #394A3E",
"w  c #3A4F42",
"e  c #3C4A41",
"r  c #3E4A40",
"t  c #3E4E43",
"y  c #3A5143",
"u  c #3A5345",
"i  c #3B5547",
"p  c #3D5244",
"a  c #3C5546",
"s  c #423D20",
"d  c #433F2A",
"f  c #413E2C",
"g  c #413E2E",
"h  c #413F2F",
"j  c #403E30",
"k  c #403E32",
"l  c #403F33",
"z  c #413F32",
"x  c #413F3B",
"c  c #423E3C",
"v  c #423F3D",
"b  c #444613",
"n  c #444416",
"m  c #44411E",
"M  c #45421E",
"N  c #48461E",
"B  c #404023",
"V  c #434029",
"C  c #45432C",
"Z  c #424033",
"A  c #434032",
"S  c #424034",
"D  c #434134",
"F  c #444235",
"G  c #444334",
"H  c #454335",
"J  c #444336",
"K  c #454336",
"L  c #464337",
"P  c #454436",
"I  c #454437",
"U  c #474535",
"Y  c #464537",
"T  c #474537",
"R  c #454239",
"E  c #44423C",
"W  c #45423E",
"Q  c #46413F",
"!  c #47433C",
"~  c #46423E",
"^  c #454439",
"/  c #464438",
"(  c #474439",
")  c #474538",
"_  c #474539",
"`  c #46443B",
"'  c #46453A",
"]  c #474638",
"[  c #474639",
"{  c #47463A",
"}  c #47443D",
"|  c #494730",
" . c #4A4636",
".. c #4A4737",
"X. c #484538",
"o. c #484539",
"O. c #484638",
"+. c #484639",
"@. c #494739",
"#. c #48473A",
"$. c #49473A",
"%. c #4A473B",
"&. c #48473C",
"*. c #49473C",
"=. c #4D4B30",
"-. c #4A483A",
";. c #4A483B",
":. c #4B483A",
">. c #4A483C",
",. c #4B493C",
"<. c #4B493D",
"1. c #4A483E",
"2. c #4B493E",
"3. c #4C493C",
"4. c #4D4A3E",
"5. c #4E4C3A",
"6. c #62623E",
"7. c #454341",
"8. c #414D43",
"9. c #464943",
"0. c #4B4741",
"q. c #4C4746",
"w. c #4B4940",
"e. c #4D4B40",
"r. c #4E4A40",
"t. c #4E4946",
"y. c #4F4B45",
"u. c #4E4B48",
"i. c #4E4E4A",
"p. c #425146",
"a. c #4E504B",
"s. c #504C43",
"d. c #514C47",
"f. c #534E44",
"g. c #504B49",
"h. c #514B48",
"j. c #534D4A",
"k. c #564F4D",
"l. c #555047",
"z. c #545347",
"x. c #555346",
"c. c #51534C",
"v. c #55514A",
"b. c #56504B",
"n. c #58534D",
"m. c #59534F",
"M. c #5B564D",
"N. c #5D5B4B",
"B. c #5E5C4F",
"V. c #5F5C4E",
"C. c #5A5351",
"Z. c #5D5851",
"A. c #5D5853",
"S. c #5C5B51",
"D. c #5E5853",
"F. c #5F5953",
"G. c #5D5C52",
"H. c #5D5C53",
"J. c #5E5C50",
"K. c #5E5C51",
"L. c #5F5C50",
"P. c #5F5D51",
"I. c #5F5E52",
"U. c #5F5E53",
"Y. c #5C5E57",
"T. c #605A56",
"R. c #625B55",
"E. c #615F51",
"W. c #605F53",
"Q. c #615F52",
"!. c #605F55",
"~. c #615F54",
"^. c #626047",
"/. c #63604B",
"(. c #616055",
"). c #616057",
"_. c #626054",
"`. c #626055",
"'. c #636054",
"]. c #646154",
"[. c #6E6A64",
"{. c #7B716D",
"}. c #8C817B",
"|. c #94917F",
" X c #949579",
".X c #95967A",
"XX c #95977A",
"oX c #96947E",
"OX c #8F8E86",
"+X c #939187",
"@X c #949385",
"#X c #969482",
"$X c #929188",
"%X c #939289",
"&X c #9F9E97",
"*X c #A2A094",
"=X c #A7A593",
"-X c #A2A099",
";X c #A2A29B",
":X c #A3A49E",
">X c #A4A39C",
",X c #A5A59F",
"<X c #A6A49C",
"1X c #A6A59E",
"2X c #A6A59F",
"3X c #A9A79A",
"4X c #A8A892",
"5X c #A9A892",
"6X c #B0AFAA",
"7X c #B5B3AA",
"8X c #F7F6F6",
"9X c #F7F7F6",
"0X c gray97",
"qX c #F7F8F7",
"wX c #F8F7F6",
"eX c #F8F7F7",
"rX c #F8F8F6",
"tX c #F8F8F7",
"yX c #F9F8F7",
"uX c #F8F8F8",
"iX c #F9F8F8",
"pX c #FBFAFA",
"aX c #FBFBFA",
"sX c #FBFBFB",
"dX c gray99",
"fX c gray100",
/* pixels */
"fXfXfXfXfXfXfXfXfXfXfXfXfXfXfXfXfXfXfXfX",
"fXfXpX*X#XoX X X X X#X%X+X@X+XOX&XpXfXfX",
"fXfX0Xx.X V M n n M V + # # ;   x.wXfXfX",
"fXfX0XS.z / ..| =...#.I #.&./ S S.tXfXfX",
"fXfX0XS.z I / #./ R ! Q / / #.l S.tXfXfX",
"fXfXtXV.z / / / Q y.a.i.y.E #.L W.tXfXfX",
"fXfXwX^.h / 2.Q 9.0 1 1 8.7.0.L Y.tXfXfX",
"fXfXwX6.C / y.< 0 7 = x 0 6 Q 3.B.wXfXfX",
"fXfXtX/.H 3.d.% 4 c.}.{.e 0 = f.V.pXfXfX",
"fXfXtXB.z 3.j.. y p.[.Y.p 2 = x.V.tXfXfX",
"fXfXpXB.H H m.x & a u i t % g.w.Y.tXfXfX",
"fXfXwXW.z ..s.m.v 6 t e < q.S.R Q.pXfXfX",
"fXfXqXW.L #...j.T.k.j.i.C.A.e.J `.qXfXfX",
"fXfX0XB.X.#.#.#.w.S.R.A.M.w.I I R.0XfXfX",
"fXfXpXY.H #.%.%.3.#./ :.:.:.3.I `.pXfXfX",
"fXfXwXW.L %.#.3.#.#./ :.:.:.5.I B.0XfXfX",
"fXfX0Xx.o # * # h # + h d s N s N.qXfXfX",
"fXfXpX6X-X,X:X-X,X>X2X,X3X4X4X=X7XfXfXfX",
"fXfXfXfXfXfXfXfXfXfXfXfXfXfXfXfXfXfXfXfX",
"fXfXfXfXfXfXfXfXfXfXfXfXfXfXfXfXfXfXfXfX"
};
