/* XPM */
static char * police_car_xpm[] = {
"28 20 165 2",
"  	c #FFFFFF",
". 	c #F3F3F6",
"+ 	c #E6E6EC",
"@ 	c #E2E2E3",
"# 	c #DAD9D9",
"$ 	c #C3B1B1",
"% 	c #E1D7D7",
"& 	c #D2D2DD",
"* 	c #181861",
"= 	c #29295C",
"- 	c #393955",
"; 	c #404140",
"> 	c #2C1E1E",
", 	c #2D1717",
"' 	c #F7F8F8",
") 	c #F6F6F6",
"! 	c #FEFEFE",
"~ 	c #999999",
"{ 	c #505050",
"] 	c #2A2A2A",
"^ 	c #161617",
"/ 	c #1A1A1C",
"( 	c #000001",
"_ 	c #010101",
": 	c #0B0B0B",
"< 	c #272727",
"[ 	c #3D3C39",
"} 	c #5E5E5F",
"| 	c #757575",
"1 	c #9C9C9C",
"2 	c #C6C6C6",
"3 	c #2C2C2C",
"4 	c #444444",
"5 	c #504F4D",
"6 	c #5F5E5C",
"7 	c #9B9892",
"8 	c #393937",
"9 	c #8D8B84",
"0 	c #6E6C6A",
"a 	c #656565",
"b 	c #847F77",
"c 	c #686560",
"d 	c #6A6967",
"e 	c #797A7A",
"f 	c #767677",
"g 	c #747475",
"h 	c #A2A3A3",
"i 	c #383838",
"j 	c #070707",
"k 	c #090909",
"l 	c #040404",
"m 	c #0E0F0F",
"n 	c #838282",
"o 	c #9D9B95",
"p 	c #2C2B2B",
"q 	c #9A968C",
"r 	c #8D8984",
"s 	c #7C7A78",
"t 	c #121212",
"u 	c #827D6F",
"v 	c #5B5A57",
"w 	c #757167",
"x 	c #877F71",
"y 	c #7B766B",
"z 	c #77746D",
"A 	c #A1A1A1",
"B 	c #E3E3E3",
"C 	c #F5F5F5",
"D 	c #494949",
"E 	c #030303",
"F 	c #252525",
"G 	c #FCFCFC",
"H 	c #FDFDFD",
"I 	c #F7F7F7",
"J 	c #D6D5D4",
"K 	c #353434",
"L 	c #131312",
"M 	c #0A0A0A",
"N 	c #232220",
"O 	c #65635E",
"P 	c #736F67",
"Q 	c #6E6C66",
"R 	c #565655",
"S 	c #292928",
"T 	c #020202",
"U 	c #050505",
"V 	c #1E1E1E",
"W 	c #818181",
"X 	c #E7E7E7",
"Y 	c #9C9999",
"Z 	c #060505",
"` 	c #0F0F0F",
" .	c #202020",
"..	c #FAFAFA",
"+.	c #CDCDCD",
"@.	c #D2D2D2",
"#.	c #616161",
"$.	c #222322",
"%.	c #1F1F20",
"&.	c #000000",
"*.	c #060606",
"=.	c #1B1B1B",
"-.	c #6D6D6D",
";.	c #DFDFDF",
">.	c #212121",
",.	c #151515",
"'.	c #F3F3F3",
").	c #C4C4C4",
"!.	c #BBBBBB",
"~.	c #E9E9E9",
"{.	c #EAEAEA",
"].	c #A4A4A4",
"^.	c #0C0C0C",
"/.	c #080808",
"(.	c #969696",
"_.	c #CCCCCC",
":.	c #161616",
"<.	c #F4F4F4",
"[.	c #B0B0B0",
"}.	c #9E9E9E",
"|.	c #7F7F7F",
"1.	c #959595",
"2.	c #171717",
"3.	c #6A6A6A",
"4.	c #717171",
"5.	c #9B9B9B",
"6.	c #0D0D0D",
"7.	c #141414",
"8.	c #222222",
"9.	c #535353",
"0.	c #464646",
"a.	c #DBDBDB",
"b.	c #CACACA",
"c.	c #777777",
"d.	c #828282",
"e.	c #A8A8A8",
"f.	c #666666",
"g.	c #373737",
"h.	c #191919",
"i.	c #313131",
"j.	c #333333",
"k.	c #3D3D3D",
"l.	c #E1E1E1",
"m.	c #4A4A4A",
"n.	c #3C3C3C",
"o.	c #131313",
"p.	c #292929",
"q.	c #9A9A9A",
"r.	c #DEDEDE",
"s.	c #111010",
"t.	c #2B1414",
"u.	c #190707",
"v.	c #100302",
"w.	c #F1F1F1",
"x.	c #FBFBFB",
"y.	c #E0E0E0",
"z.	c #858585",
"A.	c #242424",
"B.	c #0B0606",
"C.	c #030202",
"D.	c #9F9F9F",
"E.	c #C5C5C5",
"F.	c #898989",
"G.	c #454545",
"H.	c #C9C9C9",
"                                                        ",
"                                                        ",
"                                                        ",
"                . + @ # $ %                             ",
"              & * = - ; > , ' )   !                     ",
"        ~ { ] ^ / ( _ : < [ } | 1     !                 ",
"2 3 : 4 5 6 7 8 9 0 ] a b c d e f g h   !               ",
"i j k l m n o p q r s t u v w x y z v A B C       !     ",
"D E k k F G H I J K L M N O P Q R S j T E U V W X     ! ",
"Y Z ` k  ...H     B +.@.#.$.%.M &.&.&._ U *.&.&.&.=.-.H ",
";.&.>.,.` '.G ).!.~.{.  ].*.` ^./.E &._ _ &._ _ _ _ &.(.",
"  _.: :.l <.    '.[.}.|.1.&./.k ` 2.2.j T _ _ _ T T T 3.",
"! H < &.&.4.        ! <.5.&.U E 6.7.8.9.0.,.T j : ^.T &.",
"      a.  b.c.d.e...    f.l l /.^.g.h.i.j.< k.` k E &.k ",
"                l.m.-.a.M j E ^.< 7.n.o.p.m U _ &.&.: q.",
"              !     C r.f.&._ 6.< |. .] s.t.u.v.&.4 w.  ",
"                          x.y.z.&.] =.A.k B.C.&.D.      ",
"                            ! ! i.&.< M h.` >.E.        ",
"                                  F.G.H.G ..G   !       ",
"                                !       !               "};
