/* XPM */
static char *road[] = {
/* columns rows colors chars-per-pixel */
"20 20 203 2",
"   c #494F53",
".  c #4A4F56",
"X  c #4C5357",
"o  c #4D545A",
"O  c #4E555A",
"+  c #4F575D",
"@  c #505558",
"#  c #50565B",
"$  c #51565C",
"%  c #51575C",
"&  c #51575D",
"*  c #51585E",
"=  c #51595E",
"-  c #53585C",
";  c #53595F",
":  c #54595E",
">  c #575B5C",
",  c #585C5F",
"<  c #535961",
"1  c #545B60",
"2  c #545B62",
"3  c #545C62",
"4  c #565D61",
"5  c #575E63",
"6  c #555C64",
"7  c #565C64",
"8  c #575C65",
"9  c #575D65",
"0  c #575E65",
"q  c #575F66",
"w  c #585F67",
"e  c #595F66",
"r  c #5A5F65",
"t  c #586167",
"y  c #596067",
"u  c #5A6167",
"i  c #5B6066",
"p  c #5B6067",
"a  c #5A6267",
"s  c #5B6267",
"d  c #5C6164",
"f  c #5C6166",
"g  c #5C6167",
"h  c #5C6265",
"j  c #5E6365",
"k  c #5F6365",
"l  c #5E6267",
"z  c #5E6467",
"x  c #5B6168",
"c  c #5C6268",
"v  c #5C6369",
"b  c #5D636A",
"n  c #5D646A",
"m  c #5E646A",
"M  c #5F646A",
"N  c #5F646B",
"B  c #5F656D",
"V  c #606266",
"C  c #606467",
"Z  c #606268",
"A  c #616569",
"S  c #60646B",
"D  c #61656A",
"F  c #60656C",
"G  c #60666D",
"H  c #60676C",
"J  c #60676D",
"K  c #61666C",
"L  c #61666D",
"P  c #60666E",
"I  c #61676E",
"U  c #646669",
"Y  c #63686A",
"T  c #61686F",
"R  c #63686C",
"E  c #62686F",
"W  c #63696F",
"Q  c #65686A",
"!  c #65686B",
"~  c #64696F",
"^  c #656B6E",
"/  c #686C6E",
"(  c #6A6E6F",
")  c #626970",
"_  c #646970",
"`  c #646A71",
"'  c #656A73",
"]  c #656B72",
"[  c #656B73",
"{  c #666B71",
"}  c #676C70",
"|  c #676C71",
" . c #676D70",
".. c #666D74",
"X. c #676D75",
"o. c #686C72",
"O. c #686D75",
"+. c #686E75",
"@. c #696E74",
"#. c #686F76",
"$. c #686F77",
"%. c #696E76",
"&. c #696F77",
"*. c #6A6F75",
"=. c #6C6F71",
"-. c #686F78",
";. c #696F78",
":. c #6B7075",
">. c #6B7076",
",. c #6C7177",
"<. c #6E7375",
"1. c #6C7178",
"2. c #6C7179",
"3. c #6D7379",
"4. c #6E7379",
"5. c #6E737A",
"6. c #6F747B",
"7. c #6F757A",
"8. c #6E747D",
"9. c #6F757C",
"0. c #717477",
"q. c #70747B",
"w. c #70757B",
"e. c #707678",
"r. c #717678",
"t. c #71767B",
"y. c #727578",
"u. c #71767C",
"i. c #71777D",
"p. c #70767E",
"a. c #72777E",
"s. c #74787A",
"d. c #76797B",
"f. c #777A7B",
"g. c #777B7D",
"h. c #767A7E",
"j. c #787C7E",
"k. c #7B7D7F",
"l. c #737980",
"z. c #727882",
"x. c #777B81",
"c. c #777C82",
"v. c #777C83",
"b. c #797D82",
"n. c #7E8183",
"m. c #7D8184",
"M. c #7F8385",
"N. c #7F8386",
"B. c #808487",
"V. c #818487",
"C. c #828689",
"Z. c #86888B",
"A. c #898C8F",
"S. c #8B8F94",
"D. c #8B8F95",
"F. c #8E9398",
"G. c #92979C",
"H. c #9B9D9F",
"J. c #999EA0",
"K. c #A0A3A6",
"L. c #A1A4A4",
"P. c #A3A6A8",
"I. c #A6AAAE",
"U. c #ABADAE",
"Y. c #ACB0B2",
"T. c #AFB1B2",
"R. c #B1B3B4",
"E. c #B4B8BA",
"W. c #B4B8BB",
"Q. c #B7B8B9",
"!. c #B9BBBC",
"~. c #C1C3C5",
"^. c #C4C5C7",
"/. c #C5C8CA",
"(. c #C6C8C8",
"). c #CCCECE",
"_. c #D1D2D3",
"`. c #D3D4D5",
"'. c #D3D5D5",
"]. c #D6D6D7",
"[. c #D9DBDB",
"{. c #DBDBDC",
"}. c #DBDCDD",
"|. c gray87",
" X c #E3E4E5",
".X c #E3E5E5",
"XX c #E4E5E6",
"oX c gray91",
"OX c #E9EAEB",
"+X c #ECEDED",
"@X c #EDEEEF",
"#X c #F1F2F3",
"$X c #F3F4F4",
"%X c gray96",
"&X c #F7F7F8",
"*X c #F8F8F8",
"=X c gray98",
"-X c #FBFBFA",
";X c #FBFBFB",
":X c gray99",
">X c #FDFDFD",
",X c #FEFEFE",
"<X c gray100",
/* pixels */
"<X<X<X<X<X<X<X<X<X<X<X<X<X<X<X<X<X<X<X<X",
"<X<X<X<X<X<X<X<X<X<X<XoXL.}.<X<X<X<X<X<X",
"<X<X<X<X<X<X<X}.`.<X_.A.<.H W.<X<X<X<X<X",
"<X<X<X<X<X<XK. .M.H.h.g H $.w G.OX<X<X<X",
"<X<X<X<X#XD.2 O g V.S w H [ [ 8 b ^.<X<X",
"<X<X<X'.i.O.O.x g & ^ O.2.2.b < X @ U.=X",
"<X=X!.4 g E 2.i.h * n v.2.4 b X j V U.<X",
"<X(./ Q g S >.O.X.w & 4 O.b # V r L.<X<X",
"<X%XZ.B.g.x [ 2.O.V h < + O ,  .B.=X<X<X",
"<XT.C.j.E 2.h b * H i.X.B B % S n.R.<X<X",
"<X.X6.* O.>.t.E h [ X.-.h.[ 4 * :..X<X<X",
"<X<X~. .E X.v.b.n H 8 >.6.H H S T.<X<X<X",
"<X<X<XW.<.O.B q.@.w h.i.[ i.t.F.<X<X<X<X",
"<X<X<X<XI.@.w 8 g V [ z.8.t.l.@X<X<X<X<X",
"<X<X<X<X%XD.g : U f./ g i.4 /.<X<X<X<X<X",
"<X<X<X<X<X+X^ > 0.Q y.=.  J.<X<X<X<X<X<X",
"<X<X<X<X<X<X|.s.0.W.k.Q n.*X<X<X<X<X<X<X",
"<X<X<X<X<X<X<X'.).<X{.f..X<X<X<X<X<X<X<X",
"<X<X<X<X<X<X<X<X<X<X<X$X<X<X<X<X<X<X<X<X",
"<X<X<X<X<X<X<X<X<X<X<X<X<X<X<X<X<X<X<X<X"
};
