/* XPM */
static char * sign2_xpm[] = {
"40 40 759 2",
"  	c #999999",
". 	c #989898",
"+ 	c #939596",
"@ 	c #8D8F90",
"# 	c #838989",
"$ 	c #888C8C",
"% 	c #999798",
"& 	c #999899",
"* 	c #959899",
"= 	c #909395",
"- 	c #899190",
"; 	c #848D8D",
"> 	c #838B8C",
", 	c #818B8B",
"' 	c #808A8B",
") 	c #717778",
"! 	c #7F8485",
"~ 	c #9A9C9C",
"{ 	c #969A9A",
"] 	c #939999",
"^ 	c #919A9A",
"/ 	c #909B9A",
"( 	c #909A99",
"_ 	c #8E9999",
": 	c #8C9796",
"< 	c #8A9593",
"[ 	c #879293",
"} 	c #86908F",
"| 	c #828C8C",
"1 	c #727A7C",
"2 	c #676B6D",
"3 	c #9D9D9C",
"4 	c #9EA2A3",
"5 	c #A0A4A5",
"6 	c #9FA5A7",
"7 	c #9DA7A7",
"8 	c #9BA2A3",
"9 	c #949B9C",
"0 	c #979F9F",
"a 	c #8B9495",
"b 	c #909998",
"c 	c #949D9D",
"d 	c #919B9A",
"e 	c #8E9A98",
"f 	c #8B9695",
"g 	c #899293",
"h 	c #858F8F",
"i 	c #838E8D",
"j 	c #72797B",
"k 	c #797F81",
"l 	c #9D9E9F",
"m 	c #A5A9A8",
"n 	c #A9AFAE",
"o 	c #AEB5B5",
"p 	c #AEB6B6",
"q 	c #ADB4B4",
"r 	c #ABB4B2",
"s 	c #9EA8A6",
"t 	c #959C9C",
"u 	c #808687",
"v 	c #808385",
"w 	c #909798",
"x 	c #7E8384",
"y 	c #8D9493",
"z 	c #939C9D",
"A 	c #8F9799",
"B 	c #899494",
"C 	c #879192",
"D 	c #868E8F",
"E 	c #737B7B",
"F 	c #777D7E",
"G 	c #9DA09F",
"H 	c #B0B6B5",
"I 	c #B5BFBD",
"J 	c #B5BDBC",
"K 	c #B3BBBA",
"L 	c #B1BBBA",
"M 	c #AFB9B8",
"N 	c #ABB6B5",
"O 	c #989E9E",
"P 	c #8B9392",
"Q 	c #868B8C",
"R 	c #8B9194",
"S 	c #8F9897",
"T 	c #7F8587",
"U 	c #7F8585",
"V 	c #7C8284",
"W 	c #818887",
"X 	c #8F9798",
"Y 	c #8E9796",
"Z 	c #899191",
"` 	c #85908F",
" .	c #757A7C",
"..	c #767E7E",
"+.	c #A3A9A8",
"@.	c #AFB5B5",
"#.	c #B6C0BF",
"$.	c #B5BEBC",
"%.	c #B2BBBA",
"&.	c #B0B9B9",
"*.	c #AEB5B6",
"=.	c #A5AEAE",
"-.	c #929A99",
";.	c #838A8A",
">.	c #838687",
",.	c #7A807F",
"'.	c #7F8386",
").	c #787B7D",
"!.	c #7A7E7E",
"~.	c #828889",
"{.	c #8C9595",
"].	c #8D9495",
"^.	c #8D9594",
"/.	c #8A9293",
"(.	c #889091",
"_.	c #777E80",
":.	c #72787A",
"<.	c #A5AAA9",
"[.	c #ACB3B3",
"}.	c #B4BDBE",
"|.	c #B1B9B9",
"1.	c #989E9D",
"2.	c #909595",
"3.	c #858889",
"4.	c #838788",
"5.	c #878C8C",
"6.	c #858D8D",
"7.	c #858A89",
"8.	c #7A7F81",
"9.	c #777B7D",
"0.	c #6D7173",
"a.	c #707576",
"b.	c #848C8B",
"c.	c #8B9494",
"d.	c #899392",
"e.	c #868F90",
"f.	c #797E80",
"g.	c #737A7A",
"h.	c #A3A8A8",
"i.	c #ACB1B1",
"j.	c #B3BABB",
"k.	c #B1B8BA",
"l.	c #B0B7B7",
"m.	c #ACB3B4",
"n.	c #9AA0A1",
"o.	c #929696",
"p.	c #888D8E",
"q.	c #85898A",
"r.	c #828788",
"s.	c #7C8082",
"t.	c #7B8080",
"u.	c #8C9294",
"v.	c #767B7D",
"w.	c #747879",
"x.	c #6D6F72",
"y.	c #828989",
"z.	c #899091",
"A.	c #8A9392",
"B.	c #888F91",
"C.	c #798082",
"D.	c #727A7A",
"E.	c #979796",
"F.	c #A2A7A7",
"G.	c #ACB2B1",
"H.	c #B2B8B9",
"I.	c #AFB7B7",
"J.	c #A8B0AF",
"K.	c #939A9A",
"L.	c #8B8E8F",
"M.	c #9BA1A3",
"N.	c #858A8C",
"O.	c #808485",
"P.	c #7E8283",
"Q.	c #7D8083",
"R.	c #818687",
"S.	c #8A8F90",
"T.	c #808686",
"U.	c #787D7D",
"V.	c #74797A",
"W.	c #6F7375",
"X.	c #7A8181",
"Y.	c #899193",
"Z.	c #878F90",
"`.	c #798182",
" +	c #747B7C",
".+	c #919192",
"++	c #A1A4A6",
"@+	c #ABB0B0",
"#+	c #AFB6B6",
"$+	c #A2A8AA",
"%+	c #8D9393",
"&+	c #9BA0A2",
"*+	c #919799",
"=+	c #858B8D",
"-+	c #7F8484",
";+	c #7D8081",
">+	c #818486",
",+	c #727476",
"'+	c #696D6F",
")+	c #74797B",
"!+	c #828A89",
"~+	c #868E8E",
"{+	c #7A8283",
"]+	c #747B7D",
"^+	c #909192",
"/+	c #A0A3A4",
"(+	c #A8AEAF",
"_+	c #ADB3B4",
":+	c #A6ACAD",
"<+	c #9DA4A5",
"[+	c #888E8E",
"}+	c #87898B",
"|+	c #848988",
"1+	c #949A9A",
"2+	c #8D9294",
"3+	c #808285",
"4+	c #777B7C",
"5+	c #757779",
"6+	c #6E7171",
"7+	c #7F8586",
"8+	c #7A8081",
"9+	c #808789",
"0+	c #747A7A",
"a+	c #727879",
"b+	c #707475",
"c+	c #818A89",
"d+	c #7C8384",
"e+	c #8A8B8C",
"f+	c #9EA2A2",
"g+	c #A7ABAD",
"h+	c #A9B0B0",
"i+	c #989D9E",
"j+	c #939899",
"k+	c #7F8282",
"l+	c #7C7F7F",
"m+	c #8E9394",
"n+	c #8B9192",
"o+	c #898F92",
"p+	c #828587",
"q+	c #777A7D",
"r+	c #737879",
"s+	c #888D8F",
"t+	c #707577",
"u+	c #6E7374",
"v+	c #5D5F63",
"w+	c #676C6D",
"x+	c #808887",
"y+	c #7D8486",
"z+	c #777C7E",
"A+	c #898A8B",
"B+	c #9A9D9E",
"C+	c #A4A9AB",
"D+	c #A4ACAB",
"E+	c #909596",
"F+	c #909394",
"G+	c #898D8E",
"H+	c #878B8A",
"I+	c #858A8B",
"J+	c #84898B",
"K+	c #7C7F81",
"L+	c #8E9294",
"M+	c #75787B",
"N+	c #6C6F71",
"O+	c #6B6C6F",
"P+	c #707273",
"Q+	c #8A9091",
"R+	c #808587",
"S+	c #888F90",
"T+	c #878E8F",
"U+	c #7E8486",
"V+	c #757B7E",
"W+	c #848588",
"X+	c #979B9D",
"Y+	c #A0A6A7",
"Z+	c #929797",
"`+	c #868989",
" @	c #7F8284",
".@	c #7A7E7F",
"+@	c #75797B",
"@@	c #737676",
"#@	c #7A7D80",
"$@	c #8B9090",
"%@	c #838787",
"&@	c #7B7F7F",
"*@	c #818587",
"=@	c #8F9495",
"-@	c #919698",
";@	c #8E9696",
">@	c #8C9293",
",@	c #899092",
"'@	c #878F91",
")@	c #7F8589",
"!@	c #818283",
"~@	c #949899",
"{@	c #9DA2A3",
"]@	c #8B8F90",
"^@	c #828486",
"/@	c #8E9192",
"(@	c #919697",
"_@	c #8A8E91",
":@	c #7B7D80",
"<@	c #868A8B",
"[@	c #7C7F82",
"}@	c #6D7171",
"|@	c #8F9295",
"1@	c #8D9295",
"2@	c #82888A",
"3@	c #898D91",
"4@	c #878D8F",
"5@	c #7E8589",
"6@	c #818386",
"7@	c #989899",
"8@	c #949496",
"9@	c #A2A6A7",
"0@	c #A1A6A7",
"a@	c #A1A7A7",
"b@	c #9FA5A6",
"c@	c #9EA2A5",
"d@	c #8D9093",
"e@	c #77787B",
"f@	c #747779",
"g@	c #6E7272",
"h@	c #7F8083",
"i@	c #828687",
"j@	c #787C7D",
"k@	c #7B7F81",
"l@	c #808487",
"m@	c #727578",
"n@	c #7A7D7F",
"o@	c #888C8E",
"p@	c #868C8F",
"q@	c #808588",
"r@	c #747A7B",
"s@	c #7D8181",
"t@	c #979899",
"u@	c #929495",
"v@	c #A2A6A6",
"w@	c #A0A4A4",
"x@	c #9AA09F",
"y@	c #979C9E",
"z@	c #919598",
"A@	c #8B8E90",
"B@	c #7F8385",
"C@	c #808386",
"D@	c #7D8384",
"E@	c #797D7E",
"F@	c #757A7A",
"G@	c #6B6F70",
"H@	c #646568",
"I@	c #5C5C5E",
"J@	c #696B6C",
"K@	c #6B6E71",
"L@	c #868B8D",
"M@	c #80868A",
"N@	c #73787B",
"O@	c #7B7D7F",
"P@	c #8E9191",
"Q@	c #A0A5A6",
"R@	c #9FA2A3",
"S@	c #96999C",
"T@	c #848888",
"U@	c #707374",
"V@	c #737577",
"W@	c #606263",
"X@	c #616263",
"Y@	c #6C6D70",
"Z@	c #868A8C",
"`@	c #777C7C",
" #	c #7F8486",
".#	c #818487",
"+#	c #808489",
"@#	c #858C8D",
"##	c #848B8C",
"$#	c #808688",
"%#	c #71787B",
"&#	c #767A7B",
"*#	c #969799",
"=#	c #8C9091",
"-#	c #9DA1A1",
";#	c #9C9FA1",
">#	c #8A8D8E",
",#	c #6E7071",
"'#	c #727375",
")#	c #818586",
"!#	c #797B7E",
"~#	c #828789",
"{#	c #7C7D7F",
"]#	c #888B8E",
"^#	c #8A8E90",
"/#	c #898E90",
"(#	c #848A8B",
"_#	c #7F8689",
":#	c #72777A",
"<#	c #717475",
"[#	c #959797",
"}#	c #8C8E8F",
"|#	c #999D9F",
"1#	c #9A9EA1",
"2#	c #949A9B",
"3#	c #8C9192",
"4#	c #6E6F71",
"5#	c #626366",
"6#	c #585659",
"7#	c #777A7B",
"8#	c #6B6D6F",
"9#	c #8B9193",
"0#	c #8C9193",
"a#	c #8A8F91",
"b#	c #888E90",
"c#	c #888E8F",
"d#	c #858C8E",
"e#	c #83898B",
"f#	c #808589",
"g#	c #71767A",
"h#	c #707275",
"i#	c #949796",
"j#	c #979B9E",
"k#	c #969B9D",
"l#	c #969A9D",
"m#	c #949B9B",
"n#	c #93989A",
"o#	c #8E9396",
"p#	c #76777A",
"q#	c #787A7D",
"r#	c #787A7C",
"s#	c #7A7E80",
"t#	c #83888B",
"u#	c #8C9194",
"v#	c #898F90",
"w#	c #878D90",
"x#	c #858A8E",
"y#	c #868A8D",
"z#	c #838A8D",
"A#	c #82878B",
"B#	c #7E8488",
"C#	c #6F767A",
"D#	c #6F7476",
"E#	c #888A8B",
"F#	c #959A9C",
"G#	c #959A9D",
"H#	c #95999B",
"I#	c #949A9C",
"J#	c #93989B",
"K#	c #909496",
"L#	c #898C8F",
"M#	c #8A8E92",
"N#	c #83898A",
"O#	c #7F8487",
"P#	c #83878B",
"Q#	c #81878A",
"R#	c #7F8588",
"S#	c #71757A",
"T#	c #6D7072",
"U#	c #929394",
"V#	c #86888A",
"W#	c #95989A",
"X#	c #94979B",
"Y#	c #92979A",
"Z#	c #929799",
"`#	c #909497",
" $	c #8D9192",
".$	c #878D8E",
"+$	c #85888B",
"@$	c #818588",
"#$	c #7E8385",
"$$	c #777C7F",
"%$	c #787B7E",
"&$	c #707377",
"*$	c #6C6F72",
"=$	c #727679",
"-$	c #787E81",
";$	c #7C8285",
">$	c #7E8487",
",$	c #6F777B",
"'$	c #636769",
")$	c #909293",
"!$	c #92969A",
"~$	c #939799",
"{$	c #808486",
"]$	c #7A7C7E",
"^$	c #737779",
"/$	c #74767A",
"($	c #737679",
"_$	c #74787C",
":$	c #75797A",
"<$	c #6E7175",
"[$	c #676C6E",
"}$	c #65686B",
"|$	c #616667",
"1$	c #666B6F",
"2$	c #73777C",
"3$	c #7B8083",
"4$	c #7D8287",
"5$	c #686B6D",
"6$	c #8F9091",
"7$	c #8F9396",
"8$	c #8E9395",
"9$	c #8B9093",
"0$	c #7D8183",
"a$	c #737677",
"b$	c #747778",
"c$	c #727477",
"d$	c #6A6D70",
"e$	c #6A6D6E",
"f$	c #717576",
"g$	c #6D6F73",
"h$	c #64676C",
"i$	c #626769",
"j$	c #666C6E",
"k$	c #6A6F72",
"l$	c #676D6F",
"m$	c #787F83",
"n$	c #7C8185",
"o$	c #71777C",
"p$	c #666A6E",
"q$	c #8D9090",
"r$	c #828386",
"s$	c #86898D",
"t$	c #818488",
"u$	c #797E7F",
"v$	c #6C7072",
"w$	c #6D7175",
"x$	c #696B6F",
"y$	c #686A6D",
"z$	c #67696C",
"A$	c #696D70",
"B$	c #737778",
"C$	c #6F7276",
"D$	c #6A6E71",
"E$	c #626669",
"F$	c #606465",
"G$	c #626568",
"H$	c #74797C",
"I$	c #7A7F82",
"J$	c #7A7E83",
"K$	c #787D80",
"L$	c #787F82",
"M$	c #70767A",
"N$	c #65686E",
"O$	c #818385",
"P$	c #7D8185",
"Q$	c #797C80",
"R$	c #7A7F80",
"S$	c #6B6F73",
"T$	c #707477",
"U$	c #6A6D71",
"V$	c #666B6C",
"W$	c #6E7074",
"X$	c #686D6F",
"Y$	c #6E7174",
"Z$	c #646A6B",
"`$	c #626567",
" %	c #5F6365",
".%	c #5E6163",
"+%	c #686D70",
"@%	c #66696C",
"#%	c #5F6467",
"$%	c #5B6163",
"%%	c #6C7275",
"&%	c #70767B",
"*%	c #979697",
"=%	c #888A8C",
"-%	c #808286",
";%	c #878B8F",
">%	c #878A8F",
",%	c #6E7275",
"'%	c #696C6F",
")%	c #727779",
"!%	c #65696B",
"~%	c #65696A",
"{%	c #696D71",
"]%	c #5B5F62",
"^%	c #5E6266",
"/%	c #5A5D60",
"(%	c #585D60",
"_%	c #575B5F",
":%	c #6A6D72",
"<%	c #70747B",
"[%	c #62666C",
"}%	c #909092",
"|%	c #848788",
"1%	c #7E8185",
"2%	c #747679",
"3%	c #74777A",
"4%	c #6E7376",
"5%	c #73777A",
"6%	c #65686A",
"7%	c #636568",
"8%	c #636567",
"9%	c #696E70",
"0%	c #606366",
"a%	c #676A6E",
"b%	c #61666B",
"c%	c #585B5F",
"d%	c #5E6364",
"e%	c #5E6063",
"f%	c #616468",
"g%	c #64676B",
"h%	c #6D7376",
"i%	c #6F777A",
"j%	c #64686C",
"k%	c #8F9092",
"l%	c #828686",
"m%	c #7E8183",
"n%	c #6A6D6F",
"o%	c #696A6E",
"p%	c #616466",
"q%	c #717478",
"r%	c #606367",
"s%	c #606264",
"t%	c #626768",
"u%	c #676A6D",
"v%	c #626468",
"w%	c #63686A",
"x%	c #5C6163",
"y%	c #5E6164",
"z%	c #7A8083",
"A%	c #7B8084",
"B%	c #7B7F83",
"C%	c #787E83",
"D%	c #777E82",
"E%	c #70777B",
"F%	c #62666B",
"G%	c #7D7F85",
"H%	c #797F80",
"I%	c #777A7C",
"J%	c #64686A",
"K%	c #5C6062",
"L%	c #616367",
"M%	c #63686B",
"N%	c #676A6F",
"O%	c #6D7074",
"P%	c #7B7F84",
"Q%	c #797E82",
"R%	c #777E81",
"S%	c #757C81",
"T%	c #70787C",
"U%	c #63676B",
"V%	c #87878A",
"W%	c #797D80",
"X%	c #84868A",
"Y%	c #83898C",
"Z%	c #84888A",
"`%	c #84888B",
" &	c #808488",
".&	c #76797D",
"+&	c #767A7C",
"@&	c #787C7F",
"#&	c #7B8184",
"$&	c #7E8287",
"%&	c #7D8284",
"&&	c #7B8183",
"*&	c #797F84",
"=&	c #7A7E84",
"-&	c #777D81",
";&	c #767B80",
">&	c #757B7F",
",&	c #71767C",
"'&	c #62676B",
")&	c #808384",
"!&	c #7C8083",
"~&	c #82878A",
"{&	c #84868B",
"]&	c #82868A",
"^&	c #818789",
"/&	c #7E8387",
"(&	c #7D8285",
"_&	c #7D8385",
":&	c #7D8286",
"<&	c #7A7F83",
"[&	c #787C81",
"}&	c #757B81",
"|&	c #757B80",
"1&	c #767B7F",
"2&	c #747A7F",
"3&	c #6F767C",
"4&	c #727579",
"5&	c #7E8184",
"6&	c #818589",
"7&	c #7E8588",
"8&	c #808387",
"9&	c #7E8386",
"0&	c #7E8286",
"a&	c #787D82",
"b&	c #767D81",
"c&	c #747A80",
"d&	c #737A7E",
"e&	c #73787E",
"f&	c #73797E",
"g&	c #6F7579",
"h&	c #61676A",
"i&	c #7D7F80",
"j&	c #707376",
"k&	c #7C8184",
"l&	c #7F8286",
"m&	c #7F8287",
"n&	c #7F8387",
"o&	c #787B81",
"p&	c #757C80",
"q&	c #757A7E",
"r&	c #74797E",
"s&	c #70777C",
"t&	c #6A7076",
"u&	c #55595D",
"v&	c #7A7A7D",
"w&	c #959695",
"x&	c #7B7E82",
"y&	c #7B8085",
"z&	c #797E81",
"A&	c #7A7E81",
"B&	c #787C80",
"C&	c #707378",
"D&	c #757B7C",
"E&	c #75797D",
"F&	c #74777C",
"G&	c #71757B",
"H&	c #6E7478",
"I&	c #6B7175",
"J&	c #6A6E73",
"K&	c #676D71",
"L&	c #656A6E",
"M&	c #64696C",
"N&	c #64686D",
"O&	c #5E6365",
"P&	c #969697",
"Q&	c #797D81",
"R&	c #757A7D",
"S&	c #71777A",
"T&	c #6F7277",
"U&	c #6F7275",
"V&	c #6D7174",
"W&	c #535458",
"X&	c #575A5D",
"Y&	c #5B5F63",
"Z&	c #4D5054",
"`&	c #696C71",
" *	c #595C5E",
".*	c #78797C",
"+*	c #707174",
"@*	c #77787A",
"#*	c #7A7C7D",
"$*	c #828383",
"%*	c #949395",
"&*	c #929594",
"**	c #6F7173",
"=*	c #68696C",
"-*	c #707474",
";*	c #767879",
">*	c #797B7C",
",*	c #838484",
"'*	c #868689",
")*	c #6D6E71",
"!*	c #262D37",
"~*	c #242B37",
"{*	c #414958",
"]*	c #6B6F71",
"^*	c #373E49",
"/*	c #252C37",
"(*	c #3F4A54",
"                                                    . + @ # $ %                 ",
"                                            & * = - ; > , ' ) !                 ",
"                                    ~ { ] ^ / ( _ : < [ } | 1 2                 ",
"                          3 4 5 6 7 8 9 0 a b c d e f g h i j k                 ",
"                  l m n o p q r s t u v w x y z d A : B C D E F                 ",
"                G H I J K L M N O P Q R S T U V W X Y a Z `  ...                ",
"                +.@.#.$.%.&.*.=.-.;.>.,.'.).!.V ~.{.].^./.(._.:.                ",
"                <.[.}.%.|.*.1.2.3.4.5.Q 6.7.8.9.0.a.b.c.d.e.f.g.                ",
"                h.i.j.k.l.m.n.o.p.q.r.s.t.u.v.w.x.a.y.z.A.B.C.D.E.              ",
"                F.G.H.I.J.K.L.M.N.O.P.Q.R.S.T.t.U.V.W.X.Y.Z.`. +.+              ",
"                ++@+#+@.$+z.%+&+*+=+-+;+>+,+;.V F '+'+)+!+~+{+]+^+              ",
"                /+(+_+:+<+[+}+|+1+2+3+4+5+6+7+8+9+0+a+W.b+c+d+]+e+              ",
"                f+g+h+i+j+4.k+l+m+n+R.o+p+>+q+r+s+t+u+v+w+x+y+z+A+              ",
"                B+C+D+E+F+G+H+I+J+K+s.L+M+N+O+P+Q+R+J+=+S+T+U+V+W+              ",
"                X+Y+Z+`+I+ @.@+@M+@@#@$@%@&@*@=@-@;@u.>@,@'@)@]+!@              ",
"                ~@{@]@^@$ /@j+(@_@%@:@<@[@}@v.|@1@B.2@J+3@4@5@ .6@              ",
"              7@8@9@0@a@Y+b@c@d@e@f@g@h@i@j@k@l@k@8.m@n@o@p@q@r@s@              ",
"              t@u@v@6 w@x@y@z@A@B@C@D@E@]@F@G@H@I@J@K@M+L@=+M@N@O@              ",
"              7@P@Q@R@S@T@>+O@U@V@W@X@Y@Z@9.`@s. #.# #+#@###$#%#&#              ",
"              *#=#-#;#>#,#'#E@#@)#4+*@!#~#{#]#^#/#^#/#s+L@(#_#:#<#              ",
"              [#}#|#1#2#(@(@-@z@3#4#5#6#7#8#9#0#a#b#c#d#Q e#f#g#h#              ",
"              i#$ y@j#j#k#l#m#n#o#p#q#r#s#t#u#o+v#w#x#y#z#A#B#C#D#              ",
"              + E#F#X+G#H#I#J#*+K#<@L#/#L#M#M#4@N#O#B@A#P#Q#R#S#T#              ",
"              U#V#j+W#X#Y#Z#*+`# $.$+$@$#$B@$$%$&$*$=$-$;$>$B#,$'$              ",
"              )$4.!$~$z@4@{$>.R.]$^$/$($_$:$<$[$}$|$1$<$2$3$4$C#5$              ",
"              6$W+7$8$9$0$a$b$c$K@d$e$N+m@f$g$h$i$j$k$l$W.m$n$o$p$              ",
"              q$r$2+s$t$u$v$w$h#x$y$z$A$B$C$D$E$F$G$H$I$J$K$L$M$N$              ",
"              >#O$9$P$Q$R$*$S$T$U$V$W$X$Y$Z$`$G$ %.%+%@%#%$%%%&%N$*%            ",
"              =%-%;%>%L@{$,%'%N+)%'%!%T#T$`$~%{%G$]%^%/%(%_%:%<%[%}%            ",
"              |%1%2%0.3%4%5%6%7%H$d$i$~%8%9%0%a%b%c%d%e%f%g%h%i%j%k%            ",
"              l%m%n%o%W.p%q%r%s%t%u%g%v% %w%x%y%]%N@z%A%B%C%D%E%F%A+            ",
"               @G%)%:$H%I%k@J%K%.%L%.%u%d$M%N%D$O%-$P%C%Q%R%S%T%U%V%            ",
"              W%[@X%Y%Z%`% &.&+&@&z%#&$&%&V A%&&*&=&C%R%-&;&>&,&'&)&            ",
"              9.!&~&{&]&^&]& &R+O#C@/&(&_&:&&&<&Q%k [&}&|&1&2&3&[%h@            ",
"              4&5&6&~#R#7&.#8&T O#9& #0&(&n$J$a&-&b&|&c&d&e&f&g&h&i&            ",
"              j&k&'.l&m&'.U+n&9&0&#$(&z%8.J$o&V+p&q&r&r&f&r&s&t&u&v&            ",
"            w&x.x&_&n$k&y&B%B%z&A&Q%B&C&D&E&F&g#G&H&I&J&K&L&M&N&O&              ",
"            P&h#.&Q&K$R&F&S&q%T&U&V&W&X&Y&Z&`&/% *h#N+.*+*@*#*$*%*              ",
"              &*T$**=*8#P+-*;*>*,*'*)*!*~*{*                                    ",
"                                    ]*^*/*(*                                    "};
