/* XPM */
static char * sign1_xpm[] = {
"40 40 600 2",
"  	c #999999",
". 	c #949493",
"+ 	c #757375",
"@ 	c #727173",
"# 	c #6C6B6B",
"$ 	c #787776",
"% 	c #838081",
"& 	c #7C7B7B",
"* 	c #757476",
"= 	c #7F807F",
"- 	c #8C8A89",
"; 	c #848484",
"> 	c #7D7D7D",
", 	c #898888",
"' 	c #949192",
") 	c #8D8D8B",
"! 	c #868685",
"~ 	c #929090",
"{ 	c #9C9C9B",
"] 	c #969696",
"^ 	c #908F8E",
"/ 	c #9A9A9B",
"( 	c #A5A5A5",
"_ 	c #9FA09E",
": 	c #666564",
"< 	c #504848",
"[ 	c #514B4A",
"} 	c #514C4B",
"| 	c #534D4A",
"1 	c #534C4A",
"2 	c #524A4A",
"3 	c #524C4C",
"4 	c #524C4B",
"5 	c #534E4C",
"6 	c #534D4D",
"7 	c #4F4B49",
"8 	c #4F4A48",
"9 	c #4E4A49",
"0 	c #4F4B4A",
"a 	c #4F4A47",
"b 	c #4F4B48",
"c 	c #4E4C4B",
"d 	c #4E4A4A",
"e 	c #4D4949",
"f 	c #524F4F",
"g 	c #848589",
"h 	c #5A5657",
"i 	c #514B48",
"j 	c #524B49",
"k 	c #534C4B",
"l 	c #534B4A",
"m 	c #524B48",
"n 	c #524949",
"o 	c #534B48",
"p 	c #524947",
"q 	c #504745",
"r 	c #514745",
"s 	c #504643",
"t 	c #4F4744",
"u 	c #4D4542",
"v 	c #4D4441",
"w 	c #4E4543",
"x 	c #4E4744",
"y 	c #4E4645",
"z 	c #4C4545",
"A 	c #4B4443",
"B 	c #514F4F",
"C 	c #818384",
"D 	c #5F5D5B",
"E 	c #524E4D",
"F 	c #524D4D",
"G 	c #524C4A",
"H 	c #534B4B",
"I 	c #524B4A",
"J 	c #514948",
"K 	c #504846",
"L 	c #4F4645",
"M 	c #514946",
"N 	c #4F4545",
"O 	c #4F4643",
"P 	c #4F4845",
"Q 	c #4F4745",
"R 	c #504847",
"S 	c #4E4846",
"T 	c #4E4646",
"U 	c #4E4545",
"V 	c #4B4947",
"W 	c #6F7072",
"X 	c #626161",
"Y 	c #534F50",
"Z 	c #544F50",
"` 	c #544E4C",
" .	c #544D4D",
"..	c #544B4C",
"+.	c #524E4C",
"@.	c #514B49",
"#.	c #514A49",
"$.	c #4F4849",
"%.	c #504948",
"&.	c #4F4848",
"*.	c #4E4947",
"=.	c #4C4746",
"-.	c #4B4845",
";.	c #757679",
">.	c #626060",
",.	c #524D4C",
"'.	c #545453",
").	c #545151",
"!.	c #555455",
"~.	c #535253",
"{.	c #535150",
"].	c #545253",
"^.	c #535252",
"/.	c #514F4D",
"(.	c #544E4F",
"_.	c #534E4E",
":.	c #504A4A",
"<.	c #514D4C",
"[.	c #514B4B",
"}.	c #504D4D",
"|.	c #504C4C",
"1.	c #4E4847",
"2.	c #4A4647",
"3.	c #7C7E7E",
"4.	c #676466",
"5.	c #534E4B",
"6.	c #545052",
"7.	c #52504F",
"8.	c #54504F",
"9.	c #545352",
"0.	c #525151",
"a.	c #535251",
"b.	c #535050",
"c.	c #525051",
"d.	c #514F4E",
"e.	c #515151",
"f.	c #505251",
"g.	c #505050",
"h.	c #504D4C",
"i.	c #4E4946",
"j.	c #494748",
"k.	c #7D7D7F",
"l.	c #6C6A6A",
"m.	c #555153",
"n.	c #545150",
"o.	c #534F4F",
"p.	c #524E4E",
"q.	c #555353",
"r.	c #545252",
"s.	c #544D4E",
"t.	c #514E4F",
"u.	c #524F4E",
"v.	c #525150",
"w.	c #4F4A4A",
"x.	c #4A4745",
"y.	c #818284",
"z.	c #6B6B69",
"A.	c #534C4C",
"B.	c #54514F",
"C.	c #535152",
"D.	c #555252",
"E.	c #535051",
"F.	c #555456",
"G.	c #545152",
"H.	c #534D4B",
"I.	c #514E4D",
"J.	c #514D4D",
"K.	c #51504E",
"L.	c #515051",
"M.	c #504E4F",
"N.	c #4F4A49",
"O.	c #4E4747",
"P.	c #444241",
"Q.	c #868789",
"R.	c #6A696A",
"S.	c #534D4C",
"T.	c #535153",
"U.	c #525050",
"V.	c #545455",
"W.	c #4D4745",
"X.	c #4F4242",
"Y.	c #514F50",
"Z.	c #52504E",
"`.	c #51504F",
" +	c #4F4C4C",
".+	c #4E4B4B",
"++	c #868788",
"@+	c #706D6D",
"#+	c #53504E",
"$+	c #545051",
"%+	c #534E4D",
"&+	c #535352",
"*+	c #524B4B",
"=+	c #534E4F",
"-+	c #504C4A",
";+	c #4F4240",
">+	c #4B403D",
",+	c #4F3A38",
"'+	c #504746",
")+	c #524C4D",
"!+	c #534F4E",
"~+	c #4F4C4D",
"{+	c #4D4846",
"]+	c #4C4B4B",
"^+	c #89898A",
"/+	c #747373",
"(+	c #514E4C",
"_+	c #504A4B",
":+	c #4E4542",
"<+	c #4E3936",
"[+	c #4D3E38",
"}+	c #4F342F",
"|+	c #514443",
"1+	c #504A48",
"2+	c #514E4E",
"3+	c #4F4D4D",
"4+	c #4D4847",
"5+	c #4E4D4D",
"6+	c #909190",
"7+	c #747272",
"8+	c #524D4B",
"9+	c #504240",
"0+	c #524746",
"a+	c #534645",
"b+	c #50403C",
"c+	c #4F403D",
"d+	c #4D423C",
"e+	c #514D4B",
"f+	c #514D4E",
"g+	c #4F4847",
"h+	c #908F90",
"i+	c #534A49",
"j+	c #534C49",
"k+	c #534946",
"l+	c #4F3330",
"m+	c #513837",
"n+	c #513E3C",
"o+	c #514340",
"p+	c #523532",
"q+	c #51312B",
"r+	c #4E2A25",
"s+	c #513B37",
"t+	c #514543",
"u+	c #515150",
"v+	c #4E4E4F",
"w+	c #8F8F90",
"x+	c #797876",
"y+	c #524D4A",
"z+	c #524948",
"A+	c #4F312F",
"B+	c #503431",
"C+	c #513B39",
"D+	c #514241",
"E+	c #513735",
"F+	c #512F2B",
"G+	c #502723",
"H+	c #52312F",
"I+	c #513B38",
"J+	c #4F4343",
"K+	c #504744",
"L+	c #4F4646",
"M+	c #4F4746",
"N+	c #979696",
"O+	c #514140",
"P+	c #4F322F",
"Q+	c #4F352F",
"R+	c #503735",
"S+	c #53312E",
"T+	c #512D29",
"U+	c #513130",
"V+	c #513835",
"W+	c #504845",
"X+	c #4F4747",
"Y+	c #4E4745",
"Z+	c #4C4745",
"`+	c #4C4A4C",
" @	c #7D7C7B",
".@	c #514C4A",
"+@	c #544F4F",
"@@	c #53504F",
"#@	c #535354",
"$@	c #4E3F3B",
"%@	c #4F3430",
"&@	c #4E3A34",
"*@	c #4F3B37",
"=@	c #513633",
"-@	c #4F312E",
";@	c #503B39",
">@	c #4F4544",
",@	c #51494A",
"'@	c #4F4948",
")@	c #4E4647",
"!@	c #4D4543",
"~@	c #4E4F50",
"{@	c #817F80",
"]@	c #535151",
"^@	c #534D4E",
"/@	c #4C3C39",
"(@	c #4E423E",
"_@	c #4E372F",
":@	c #4B362D",
"<@	c #4F433C",
"[@	c #4F3A37",
"}@	c #504546",
"|@	c #4F4543",
"1@	c #504C4B",
"2@	c #504949",
"3@	c #525153",
"4@	c #868484",
"5@	c #524A49",
"6@	c #4C3B39",
"7@	c #4D4039",
"8@	c #4E352E",
"9@	c #4D372E",
"0@	c #4F342D",
"a@	c #4D2C25",
"b@	c #4E403C",
"c@	c #514C4D",
"d@	c #515050",
"e@	c #524F51",
"f@	c #4F4B4B",
"g@	c #4D4444",
"h@	c #575757",
"i@	c #858484",
"j@	c #514949",
"k@	c #4D403E",
"l@	c #4E3E38",
"m@	c #4D322B",
"n@	c #4E382F",
"o@	c #4D332C",
"p@	c #4D423D",
"q@	c #4F4D4E",
"r@	c #504747",
"s@	c #4E4643",
"t@	c #545657",
"u@	c #858684",
"v@	c #504A49",
"w@	c #524E4F",
"x@	c #4B3B38",
"y@	c #4E312C",
"z@	c #4D3733",
"A@	c #4F3F3A",
"B@	c #4C3832",
"C@	c #4E423C",
"D@	c #504C4D",
"E@	c #4D4746",
"F@	c #5B5B5D",
"G@	c #8B8B89",
"H@	c #504B4A",
"I@	c #514C4C",
"J@	c #524F4D",
"K@	c #504E4E",
"L@	c #4B3634",
"M@	c #4C3E3A",
"N@	c #4E322F",
"O@	c #4C362F",
"P@	c #4E3D36",
"Q@	c #4D3832",
"R@	c #4D3F3A",
"S@	c #50494A",
"T@	c #504F50",
"U@	c #4D4748",
"V@	c #514A4A",
"W@	c #4F4B4C",
"X@	c #4C4543",
"Y@	c #5D5D5E",
"Z@	c #8E8E8F",
"`@	c #514A48",
" #	c #524A48",
".#	c #504D4B",
"+#	c #4A433D",
"@#	c #4B3B35",
"##	c #514240",
"$#	c #4C322C",
"%#	c #4D3D35",
"&#	c #4D3730",
"*#	c #4F3E3B",
"=#	c #4F4C4B",
"-#	c #4C4443",
";#	c #5E5E60",
">#	c #8E8E8E",
",#	c #514847",
"'#	c #503F3E",
")#	c #4B2720",
"!#	c #4C241E",
"~#	c #50302D",
"{#	c #4F2822",
"]#	c #4C3B32",
"^#	c #4E362E",
"/#	c #4E3F3D",
"(#	c #4D4443",
"_#	c #4B4542",
":#	c #656667",
"<#	c #8E8F8E",
"[#	c #524847",
"}#	c #4F3F3E",
"|#	c #4E241E",
"1#	c #4E1D18",
"2#	c #501D16",
"3#	c #4F1915",
"4#	c #4F1D18",
"5#	c #4C1D17",
"6#	c #4F4340",
"7#	c #504849",
"8#	c #504C4E",
"9#	c #4F4748",
"0#	c #4D4947",
"a#	c #4D4341",
"b#	c #6A6A6B",
"c#	c #504B49",
"d#	c #514848",
"e#	c #4F413F",
"f#	c #502921",
"g#	c #502520",
"h#	c #4F201A",
"i#	c #501B17",
"j#	c #513733",
"k#	c #4F3E3C",
"l#	c #4E4342",
"m#	c #504544",
"n#	c #4E4544",
"o#	c #4F4444",
"p#	c #4D4544",
"q#	c #4B4441",
"r#	c #6A6B6D",
"s#	c #504644",
"t#	c #51322C",
"u#	c #51342F",
"v#	c #512A23",
"w#	c #52211A",
"x#	c #501F19",
"y#	c #502722",
"z#	c #513834",
"A#	c #513B3B",
"B#	c #4E4140",
"C#	c #4F4441",
"D#	c #4E4644",
"E#	c #4C4341",
"F#	c #4D4242",
"G#	c #4B4442",
"H#	c #6C6D6F",
"I#	c #4F4949",
"J#	c #503D3A",
"K#	c #523F3E",
"L#	c #523938",
"M#	c #512620",
"N#	c #502D28",
"O#	c #503836",
"P#	c #513D3D",
"Q#	c #4F4342",
"R#	c #4E4445",
"S#	c #4C4241",
"T#	c #4C4240",
"U#	c #4C4542",
"V#	c #737475",
"W#	c #514747",
"X#	c #4F4442",
"Y#	c #524443",
"Z#	c #4D2620",
"`#	c #4D3E39",
" $	c #4F322E",
".$	c #503A39",
"+$	c #504040",
"@$	c #4A413E",
"#$	c #4B4543",
"$$	c #6F7272",
"%$	c #585251",
"&$	c #504646",
"*$	c #4B4544",
"=$	c #50413F",
"-$	c #4D2A23",
";$	c #4E3D37",
">$	c #4E332E",
",$	c #503E3B",
"'$	c #4F494A",
")$	c #4C4441",
"!$	c #727476",
"~$	c #575253",
"{$	c #4F4D4C",
"]$	c #4D4948",
"^$	c #494544",
"/$	c #4B4545",
"($	c #403A3A",
"_$	c #4C4747",
":$	c #4C3833",
"<$	c #4D3E3A",
"[$	c #4E3631",
"}$	c #4F403F",
"|$	c #504D4E",
"1$	c #4E4443",
"2$	c #484342",
"3$	c #787A7C",
"4$	c #565251",
"5$	c #4A4443",
"6$	c #484141",
"7$	c #352F2F",
"8$	c #484544",
"9$	c #4C4544",
"0$	c #4E4240",
"a$	c #504E4D",
"b$	c #4F4F4E",
"c$	c #4E4B49",
"d$	c #4D4442",
"e$	c #494341",
"f$	c #7C7D7E",
"g$	c #5B5656",
"h$	c #4C4546",
"i$	c #4A4645",
"j$	c #3A3635",
"k$	c #494443",
"l$	c #484444",
"m$	c #4F4E4D",
"n$	c #504B4B",
"o$	c #4F4E4F",
"p$	c #4E4848",
"q$	c #4D4C4A",
"r$	c #4A4140",
"s$	c #4B4644",
"t$	c #7B7E7E",
"u$	c #5E5D5C",
"v$	c #4E4444",
"w$	c #4D4340",
"x$	c #423A39",
"y$	c #443C3B",
"z$	c #3F3837",
"A$	c #383232",
"B$	c #443F3D",
"C$	c #474442",
"D$	c #4F4947",
"E$	c #4E4949",
"F$	c #4E4A48",
"G$	c #4E4D4C",
"H$	c #4D4647",
"I$	c #4C4949",
"J$	c #453C3A",
"K$	c #493E3B",
"L$	c #494545",
"M$	c #808282",
"N$	c #838181",
"O$	c #4E4442",
"P$	c #453D3D",
"Q$	c #433A39",
"R$	c #443B3A",
"S$	c #4A4240",
"T$	c #4A4442",
"U$	c #4E4845",
"V$	c #4C4646",
"W$	c #4D4A4A",
"X$	c #494342",
"Y$	c #3D2F2F",
"Z$	c #413232",
"`$	c #3F3A3B",
" %	c #848688",
".%	c #828382",
"+%	c #6F6F6F",
"@%	c #4A4746",
"#%	c #4D4644",
"$%	c #4F4644",
"%%	c #464241",
"&%	c #3B2F31",
"*%	c #362B2B",
"=%	c #413C3C",
"-%	c #868687",
";%	c #939292",
">%	c #868585",
",%	c #727171",
"'%	c #4F4F4D",
")%	c #4C4744",
"!%	c #4C4644",
"~%	c #4E4341",
"{%	c #4C403F",
"]%	c #4E4242",
"^%	c #4A494B",
"/%	c #494548",
"(%	c #464545",
"_%	c #8B8C8B",
":%	c #959596",
"<%	c #888787",
"[%	c #747372",
"}%	c #5F5D5C",
"|%	c #4B4745",
"1%	c #4B4341",
"2%	c #4B4240",
"3%	c #4D413F",
"4%	c #4B4343",
"5%	c #4B4B4D",
"6%	c #4C494B",
"7%	c #8F8F91",
"8%	c #747473",
"9%	c #625F5F",
"0%	c #4C4444",
"a%	c #4B4242",
"b%	c #463D3D",
"c%	c #3E393A",
"d%	c #444041",
"e%	c #919391",
"f%	c #8C8A8A",
"g%	c #787877",
"h%	c #646262",
"i%	c #434141",
"                . + @ # $ % & * = - ; > , ' ) ! ~ { ] ^ / ( _                   ",
"                : < [ } | 1 2 3 4 5 6 } 7 8 9 0 a 9 b 9 c d e f g               ",
"                h i j k l i m j n o j p q r s t u v w u x y z A B C             ",
"                D [ E 5 F j G H l I 2 J q K L M N O P Q R S T U V W             ",
"                X } Y f Z `  .` ..+.@.[ #.G $.%.R M %.R 8 &.*.=.-.;.            ",
"                >.,.'.).!.~.{.].Y ^./.Z (._.,.:.,.<.} +.[.}.|.1.2.3.            ",
"                4.5.6.` ].).7.~.8.9.0.].a.8.7.k b.c.d.e.f.g.h.i.j.k.            ",
"                l.+.m.n.].^.o.^.p.q.q.r.^.s.t.l _.[ u.Y v.t.w.*.x.y.            ",
"                z.A.B.C.D.b.E.a.[ ~.F.G.r.H.I.j p.J.K.L.L.M.N.O.P.Q.            ",
"                R.H.S.T.n.5 U.C.2 c.V.^.0.J W.X.6 Y.Z.0.`.g. +1..+++            ",
"                @+,.#+r.$+S.%+&+*+=+r.U.-+;+>+,+'+)+!+`.u.}.~+{+]+^+            ",
"                /+(+G.a.7.[ S.$+_+p.,.p.:+<+[+}+|+1+E 2+F } 3+4+5+6+            ",
"                7+8+j H l I j 3 9+0+a+l b+c+d+9 p.f I.e+f+}.I.g+5+h+            ",
"                7+R I i+j j+j k+l+m+n+o+p+q+r+s+t+} [.0 <.u+ +g+v+w+            ",
"                x+[ +.y+H G 1 z+A+B+C+D+E+F+G+H+I+J+K+L+L+M+P P 5+N+            ",
"                & 4 o.!+%+S.F l O+P+Q+n+R+S+T+U+V+o+W+M+'+X+Y+Z+`+              ",
"                 @.@+@$+Y @@#@Z O $@%@&@*@=@m+-@;@>@,@1+%.'@)@!@~@              ",
"                {@} E %+7.o.]@^@/@(@_@:@<@[@}@|@L [ E -+1@[ 2@w 3@              ",
"                4@5@F _.a.b.b.F 6@7@8@9@0@a@b@c@_+2+d@J.}.e@f@g@h@              ",
"                i@j@E 5 @@p.b.f+k@l@m@n@l@o@p@p.c@1@q@[.#.c@r@s@t@              ",
"                u@v@,.S.d.p.w@p.x@x@y@z@A@B@C@|.D@h.~+E@@. +L u F@              ",
"                G@H@I@I@J@I.K@J.L@M@N@O@P@Q@R@#.S@+.T@U@V@W@U X@Y@              ",
"                Z@,@`@ #[.} .#v@+#@###$#%#&#*#%.%.<.2+:.V@=#w -#;#              ",
"                >#%.2@n p ,#K '#)#!#~#{#]#^#/#I@M.|.f f@w.d (#_#:#              ",
"                <#j@2@z+`@[#[#}#|#1#2#3#4#5#l+6#2@7#8#N.9#0#a#A b#              ",
"                . c#R 2  #d#0+e#f#g#h#i#i#1#j#k#l#w m#n#o#p#a#q#r#              ",
"                  7 j@F 3 S.2 s#t#u#v#w#x#y#z#A#B#C#>@|@D#E#F#G#H#              ",
"                  I#J f _. .,. #J#K#L#M#y@N#O#P#Q#:+s@w R#S#T#U#V#              ",
"                  %+W#F u.o.I@G X#Y#k#Z#`# $.$+$9#r@r@)@X+E#@$#$$$              ",
"                  %$&$I.}.H@.@I#*$v@=$-$;$>$,$*#I@N.R '$ +n#)$A !$              ",
"                  ~$W+1@{$]$^$/$($_$r :$<$[$*#}$|${$w.1@h.z+1$2$3$              ",
"                  4$g+1@{$1.5$6$7$8$9$X#S 0$N L+a$b$8 c$L D#d$e$f$              ",
"                  g$W.1.S h$i$($j$k$l$'@m$:.n$2@c o$p$w.q$-#r$s$t$              ",
"                  u$y v$w$x$y$z$A$B$C$D$K@E$0 F$d G$H$'$I$J$K$L$M$              ",
"                  N$4+y O$P$Q$y$R$S$T$T 0 U$&.1.F$p$V$W$X$Y$Z$`$ %              ",
"                    .%+%@%'$#%#%X@(#u |@n#>@$%D#z -#X@U@%%&%*%=%-%              ",
"                          ;%>%,%'%e )%!%_#X@:+~%T#{%]%-#2.^%/%(%_%              ",
"                                  :%<%[%}%H@|%#$1%2%E#3%4%5%6%j.7%              ",
"                                          :%; 8%9%8 0%a%b%c%d%^%e%              ",
"                                                    f%g%h%2.i%&                 "};
