/* XPM */
static char * stand2_xpm[] = {
"40 40 633 2",
"  	c #AEAEAE",
". 	c #AFAFAF",
"+ 	c #AEAEAD",
"@ 	c #AEADAD",
"# 	c #AFADAD",
"$ 	c #AFADAC",
"% 	c #AFACAC",
"& 	c #AFABAB",
"* 	c #AEA9A9",
"= 	c #AEAFAF",
"- 	c #B1B1B1",
"; 	c #8F8685",
"> 	c #613F3D",
", 	c #5E3A38",
"' 	c #5F3633",
") 	c #62322E",
"! 	c #612927",
"~ 	c #622623",
"{ 	c #641E1C",
"] 	c #641815",
"^ 	c #671613",
"/ 	c #6B1B16",
"( 	c #6D1C18",
"_ 	c #72211D",
": 	c #732420",
"< 	c #772A26",
"[ 	c #7D312D",
"} 	c #7F3733",
"| 	c #833937",
"1 	c #863935",
"2 	c #873F39",
"3 	c #89453F",
"4 	c #8A4542",
"5 	c #8E4D4A",
"6 	c #935755",
"7 	c #945C5B",
"8 	c #966765",
"9 	c #A9A1A1",
"0 	c #AFB0B0",
"a 	c #B4B6B6",
"b 	c #6A4D4B",
"c 	c #2A0000",
"d 	c #370200",
"e 	c #3B0000",
"f 	c #330000",
"g 	c #2E0304",
"h 	c #230305",
"i 	c #210202",
"j 	c #200606",
"k 	c #221516",
"l 	c #1F1212",
"m 	c #241011",
"n 	c #260C0E",
"o 	c #2C0F0E",
"p 	c #321211",
"q 	c #381615",
"r 	c #3E1411",
"s 	c #651612",
"t 	c #7E160D",
"u 	c #75140B",
"v 	c #6F1713",
"w 	c #6A1615",
"x 	c #661212",
"y 	c #5F1110",
"z 	c #560C0A",
"A 	c #856664",
"B 	c #B5B9BA",
"C 	c #B2B4B4",
"D 	c #806A67",
"E 	c #331410",
"F 	c #5C0604",
"G 	c #921913",
"H 	c #861A13",
"I 	c #810E0A",
"J 	c #6D0704",
"K 	c #4A0300",
"L 	c #480500",
"M 	c #4A0603",
"N 	c #530604",
"O 	c #4F0504",
"P 	c #430704",
"Q 	c #360808",
"R 	c #2B0707",
"S 	c #230607",
"T 	c #1B0405",
"U 	c #140101",
"V 	c #2D0706",
"W 	c #500B04",
"X 	c #480902",
"Y 	c #430D0A",
"Z 	c #3F0D0C",
"` 	c #3A0B0B",
" .	c #330A08",
"..	c #360B09",
"+.	c #7D6C6A",
"@.	c #B6B8B9",
"#.	c #B0B1B1",
"$.	c #928686",
"%.	c #442421",
"&.	c #5F0503",
"*.	c #C96158",
"=.	c #CD8D82",
"-.	c #C66661",
";.	c #BE5752",
">.	c #A94C45",
",.	c #97433C",
"'.	c #8E3631",
").	c #9E261F",
"!.	c #A1160E",
"~.	c #9A0F07",
"{.	c #920903",
"].	c #8E0A03",
"^.	c #870A04",
"/.	c #700A03",
"(.	c #240404",
"_.	c #220C0B",
":.	c #380702",
"<.	c #370701",
"[.	c #390B09",
"}.	c #3B0B0A",
"|.	c #3A0C0B",
"1.	c #370907",
"2.	c #411513",
"3.	c #948888",
"4.	c #B2B4B5",
"5.	c #9D9695",
"6.	c #472522",
"7.	c #560000",
"8.	c #D59B90",
"9.	c #F6FFFF",
"0.	c #EDFCF3",
"a.	c #DEDFD3",
"b.	c #D8C9BD",
"c.	c #D2B8AB",
"d.	c #CFA9A1",
"e.	c #CA9289",
"f.	c #C47F74",
"g.	c #BE7165",
"h.	c #B96458",
"i.	c #AE3D31",
"j.	c #A8150A",
"k.	c #960B03",
"l.	c #441B18",
"m.	c #362422",
"n.	c #3B0501",
"o.	c #3B0701",
"p.	c #3A0B09",
"q.	c #3C0A09",
"r.	c #3A0B0A",
"s.	c #370704",
"t.	c #461C1A",
"u.	c #A39D9D",
"v.	c #B1B2B2",
"w.	c #A9A8A7",
"x.	c #4A2423",
"y.	c #540000",
"z.	c #C2877D",
"A.	c #FFFFFE",
"B.	c #FCFFFF",
"C.	c #F5FFFF",
"D.	c #EFFFFC",
"E.	c #EDFFFA",
"F.	c #F4FFFF",
"G.	c #EDFFF7",
"H.	c #E3F3E9",
"I.	c #F0F4EC",
"J.	c #CFCAC5",
"K.	c #A5413A",
"L.	c #970C03",
"M.	c #431E1B",
"N.	c #382120",
"O.	c #3B0400",
"P.	c #390702",
"Q.	c #3B0B08",
"R.	c #3A0A09",
"S.	c #360502",
"T.	c #471E1C",
"U.	c #ADAAAA",
"V.	c #B0B0B0",
"W.	c #553130",
"X.	c #4F0403",
"Y.	c #B26E65",
"Z.	c #FBFBF9",
"`.	c #FAFFFF",
" +	c #F8FFFE",
".+	c #F3FFFF",
"++	c #D8F1F2",
"@+	c #CFE6E5",
"#+	c #E2FCF9",
"$+	c #EDFFFF",
"%+	c #FFFFFF",
"&+	c #B96661",
"*+	c #900B02",
"=+	c #3F201E",
"-+	c #381F1D",
";+	c #3A0300",
">+	c #3A0804",
",+	c #3A0907",
"'+	c #3B0906",
")+	c #390907",
"!+	c #370502",
"~+	c #502B29",
"{+	c #B5B8B8",
"]+	c #654443",
"^+	c #4E0A09",
"/+	c #A1524B",
"(+	c #F3F3F1",
"_+	c #F7FFFF",
":+	c #F1FEFF",
"<+	c #EBFFFD",
"[+	c #C9E8E0",
"}+	c #A6C3BD",
"|+	c #B2D6D2",
"1+	c #CBF0EA",
"2+	c #EAFFFD",
"3+	c #F4FEFC",
"4+	c #C06A62",
"5+	c #8D0C07",
"6+	c #3C2121",
"7+	c #371C1C",
"8+	c #3A0704",
"9+	c #3A0909",
"0+	c #3A0805",
"a+	c #390805",
"b+	c #370603",
"c+	c #60403E",
"d+	c #6D504F",
"e+	c #4C110F",
"f+	c #933F38",
"g+	c #F3ECEB",
"h+	c #FBFFFF",
"i+	c #F2FEFF",
"j+	c #ECFFFF",
"k+	c #D5F4EC",
"l+	c #BDD5C9",
"m+	c #B6D0C5",
"n+	c #CFEFE3",
"o+	c #E9FFFD",
"p+	c #EAFFFF",
"q+	c #F1FDFA",
"r+	c #C16960",
"s+	c #8B0D08",
"t+	c #3B2322",
"u+	c #381A18",
"v+	c #3B0804",
"w+	c #390804",
"x+	c #370705",
"y+	c #725A58",
"z+	c #B3B5B5",
"A+	c #7D6968",
"B+	c #491311",
"C+	c #882922",
"D+	c #ECE5DF",
"E+	c #E2FFFF",
"F+	c #E9FFFF",
"G+	c #E5FFFE",
"H+	c #D5F6F1",
"I+	c #C8EBE2",
"J+	c #D9FAF1",
"K+	c #EBFFFE",
"L+	c #E8FFFF",
"M+	c #EBFDF6",
"N+	c #C16660",
"O+	c #8B0C05",
"P+	c #382523",
"Q+	c #391917",
"R+	c #3A0301",
"S+	c #3A0604",
"T+	c #390807",
"U+	c #3B0805",
"V+	c #370905",
"W+	c #380806",
"X+	c #837171",
"Y+	c #B2B3B3",
"Z+	c #897B7A",
"`+	c #46110E",
" @	c #7D1710",
".@	c #E9E1DA",
"+@	c #CDF6F7",
"@@	c #D3F1F0",
"#@	c #E4FFFC",
"$@	c #E3FFFF",
"%@	c #EEFEFF",
"&@	c #F1FEFB",
"*@	c #BE645C",
"=@	c #860B05",
"-@	c #382625",
";@	c #391815",
">@	c #390705",
",@	c #390906",
"'@	c #380807",
")@	c #948988",
"!@	c #928C8C",
"~@	c #3F0F0C",
"{@	c #710701",
"]@	c #D6C8BF",
"^@	c #E5FDFC",
"/@	c #C2E0DC",
"(@	c #9ABCC2",
"_@	c #97B4B3",
":@	c #B9D5CF",
"<@	c #DFF9F6",
"[@	c #EEFFFF",
"}@	c #EFFFFF",
"|@	c #EEFFFC",
"1@	c #BA6460",
"2@	c #800C08",
"3@	c #381614",
"4@	c #3A0401",
"5@	c #390703",
"6@	c #360906",
"7@	c #3A0B07",
"8@	c #A39D9E",
"9@	c #9B9797",
"0@	c #3E0E0D",
"a@	c #670000",
"b@	c #B18F88",
"c@	c #DAF7F1",
"d@	c #BCE6EA",
"e@	c #9CC0C2",
"f@	c #99BBBF",
"g@	c #A1C2C0",
"h@	c #9EB9B8",
"i@	c #B4D1CB",
"j@	c #EFFBFB",
"k@	c #E2FEFB",
"l@	c #DBE9DF",
"m@	c #B55953",
"n@	c #7C0C09",
"o@	c #382726",
"p@	c #391312",
"q@	c #3B0402",
"r@	c #3A0705",
"s@	c #370806",
"t@	c #360706",
"u@	c #421813",
"v@	c #ADACAC",
"w@	c #A09B9B",
"x@	c #3D1B1A",
"y@	c #430000",
"z@	c #935C5F",
"A@	c #B6A0A3",
"B@	c #A7B4BC",
"C@	c #829EA8",
"D@	c #A4CAD0",
"E@	c #BEE9EB",
"F@	c #BBE0E1",
"G@	c #C9EBE4",
"H@	c #F7FEFD",
"I@	c #EDFDFB",
"J@	c #DBE3DA",
"K@	c #B34F48",
"L@	c #780905",
"M@	c #372928",
"N@	c #3A1110",
"O@	c #3B0300",
"P@	c #390603",
"Q@	c #380906",
"R@	c #340504",
"S@	c #502928",
"T@	c #ADADAD",
"U@	c #AAA5A5",
"V@	c #6C3432",
"W@	c #3F0000",
"X@	c #4C1817",
"Y@	c #6F393D",
"Z@	c #865B61",
"`@	c #926F74",
" #	c #A29092",
".#	c #B1BABF",
"+#	c #A3C2C6",
"@#	c #BBE0DC",
"##	c #F8FFFF",
"$#	c #EFF9F7",
"%#	c #B5534B",
"&#	c #760803",
"*#	c #372829",
"=#	c #3A0F0B",
"-#	c #3A0702",
";#	c #330401",
">#	c #5B3737",
",#	c #AA9897",
"'#	c #8A4F4C",
")#	c #69120D",
"!#	c #550805",
"~#	c #440C0B",
"{#	c #512123",
"]#	c #6A3B3B",
"^#	c #886266",
"/#	c #9E7D82",
"(#	c #B29698",
"_#	c #DAD5D2",
":#	c #F0FFFF",
"<#	c #E2EAE2",
"[#	c #B44E48",
"}#	c #740804",
"|#	c #372B2A",
"1#	c #3A0D0B",
"2#	c #360605",
"3#	c #390C0B",
"4#	c #857473",
"5#	c #ACA5A6",
"6#	c #956563",
"7#	c #7E2D27",
"8#	c #5E0F0B",
"9#	c #460000",
"0#	c #4F0D0A",
"a#	c #542A2B",
"b#	c #704D4F",
"c#	c #955556",
"d#	c #BFA2A8",
"e#	c #C59A9A",
"f#	c #B43D37",
"g#	c #740E0A",
"h#	c #362A29",
"i#	c #3B0C09",
"j#	c #3B0500",
"k#	c #380502",
"l#	c #340000",
"m#	c #471F1E",
"n#	c #8B7F7E",
"o#	c #AEAFAE",
"p#	c #B1B6B6",
"q#	c #AFB2B2",
"r#	c #9F807D",
"s#	c #8F4C49",
"t#	c #6C1F1C",
"u#	c #520702",
"v#	c #4B0E0B",
"w#	c #411213",
"x#	c #593639",
"y#	c #824A4C",
"z#	c #922420",
"A#	c #68140F",
"B#	c #342A29",
"C#	c #390300",
"D#	c #360300",
"E#	c #5E3F3D",
"F#	c #9E9899",
"G#	c #B1B6B7",
"H#	c #B2BBBB",
"I#	c #A18A8A",
"J#	c #6B1817",
"K#	c #630906",
"L#	c #620D07",
"M#	c #4C0703",
"N#	c #3C0C0B",
"O#	c #3D0D0F",
"P#	c #3F1111",
"Q#	c #4A1D1B",
"R#	c #3D0B07",
"S#	c #775F5E",
"T#	c #AFB1B1",
"U#	c #ADA8A7",
"V#	c #7B2F2D",
"W#	c #600102",
"X#	c #610504",
"Y#	c #61120E",
"Z#	c #670F07",
"`#	c #5A0B05",
" $	c #630D05",
".$	c #6E120B",
"+$	c #451C19",
"@$	c #8F8280",
"#$	c #ADAFAF",
"$$	c #B6ADAD",
"%$	c #BA4F4F",
"&$	c #8B0000",
"*$	c #7A0200",
"=$	c #4B1D1C",
"-$	c #260504",
";$	c #56110E",
">$	c #883633",
",$	c #8D504C",
"'$	c #A09D9D",
")$	c #B5AFAF",
"!$	c #BC5656",
"~$	c #A80000",
"{$	c #B10101",
"]$	c #702B2A",
"^$	c #2D0203",
"/$	c #421111",
"($	c #A29F9F",
"_$	c #B2B7B7",
":$	c #B3ADAD",
"<$	c #B65351",
"[$	c #A90000",
"}$	c #B50203",
"|$	c #843837",
"1$	c #310404",
"2$	c #441414",
"3$	c #A19D9D",
"4$	c #B2A9A8",
"5$	c #AD4B4B",
"6$	c #A20201",
"7$	c #B30502",
"8$	c #803C3B",
"9$	c #310203",
"0$	c #481C1A",
"a$	c #A4A1A1",
"b$	c #B1B3B3",
"c$	c #B0B2B3",
"d$	c #B0B2B2",
"e$	c #9E8B8B",
"f$	c #8A3F3D",
"g$	c #AA4541",
"h$	c #9C0C0A",
"i$	c #B30706",
"j$	c #7A3534",
"k$	c #2E0505",
"l$	c #481514",
"m$	c #99807E",
"n$	c #ADA8A8",
"o$	c #B1B7B7",
"p$	c #AFB3B4",
"q$	c #ABA8A7",
"r$	c #8F6462",
"s$	c #6E1915",
"t$	c #781A18",
"u$	c #943F3C",
"v$	c #9B1E1C",
"w$	c #B90808",
"x$	c #7E312F",
"y$	c #2C0A09",
"z$	c #440705",
"A$	c #6E0701",
"B$	c #853834",
"C$	c #9A7572",
"D$	c #ABA2A2",
"E$	c #AFAFB0",
"F$	c #AD9D9D",
"G$	c #7E3432",
"H$	c #6C0603",
"I$	c #6D0F09",
"J$	c #6D1612",
"K$	c #6A2620",
"L$	c #823123",
"M$	c #A4110C",
"N$	c #873636",
"O$	c #230E0C",
"P$	c #470C09",
"Q$	c #720E07",
"R$	c #710600",
"S$	c #730300",
"T$	c #7F2A26",
"U$	c #877B7C",
"V$	c #CC5049",
"W$	c #BE2421",
"X$	c #811312",
"Y$	c #700D0C",
"Z$	c #700F0F",
"`$	c #6A120E",
" %	c #5B1510",
".%	c #760C08",
"+%	c #702A28",
"@%	c #38100E",
"#%	c #68110C",
"$%	c #73100A",
"%%	c #73100B",
"&%	c #740E08",
"*%	c #461214",
"=%	c #4E4E52",
"-%	c #ADAEAE",
";%	c #B2A2A2",
">%	c #CC6460",
",%	c #D8342F",
"'%	c #A31E1A",
")%	c #78130E",
"!%	c #710C0D",
"~%	c #700E0C",
"{%	c #640F0C",
"]%	c #5F1916",
"^%	c #67110E",
"/%	c #6D1210",
"(%	c #6F1111",
"_%	c #711009",
":%	c #46161A",
"<%	c #3D424A",
"[%	c #9E9FA1",
"}%	c #ADB0B0",
"|%	c #ACB4B5",
"1%	c #BB7F79",
"2%	c #DD4F48",
"3%	c #C62721",
"4%	c #8C1A17",
"5%	c #6C0D0A",
"6%	c #710E0D",
"7%	c #710F0C",
"8%	c #6E120E",
"9%	c #6C120F",
"0%	c #701112",
"a%	c #491C1F",
"b%	c #3A4046",
"c%	c #999A9C",
"d%	c #B4B3B3",
"e%	c #ABB8B8",
"f%	c #B2A4A4",
"g%	c #CF706B",
"h%	c #DE3931",
"i%	c #B42825",
"j%	c #77130F",
"k%	c #700F0E",
"l%	c #730E0B",
"m%	c #730E0A",
"n%	c #4F1F1F",
"o%	c #43464A",
"p%	c #979998",
"q%	c #B4B4B3",
"r%	c #ACB2B2",
"s%	c #ACB3B3",
"t%	c #BE908D",
"u%	c #DC4B42",
"v%	c #D0302A",
"w%	c #941B18",
"x%	c #720F0D",
"y%	c #592221",
"z%	c #424344",
"A%	c #919291",
"B%	c #B3B3B3",
"C%	c #ACB1B1",
"D%	c #B0AAAA",
"E%	c #CE716C",
"F%	c #E73F37",
"G%	c #93221F",
"H%	c #343636",
"I%	c #8B8C8C",
"J%	c #ABB4B4",
"K%	c #C4918F",
"L%	c #A6524E",
"M%	c #7E797C",
"N%	c #ACAFB0",
"O%	c #B0ACAC",
"P%	c #AEB0AF",
"                                                                                ",
"                                                                                ",
"                                                                                ",
"              .     + @ @ # $ % & * % % % % $ # @ @ @   @     = . .             ",
"            - ; > , ' ) ! ~ { ] ^ / ( _ : < [ } | 1 2 3 4 5 6 7 8 9 0           ",
"            a b c d e f g h i i j k l m n o p q r s t u v w x y z A B           ",
"            C D E F G H I J K L M N O P Q R S T U V W X Y Z `  ...+.@.          ",
"            #.$.%.&.*.=.-.;.>.,.'.).!.~.{.].^./.(._.:.<.[.}.|.1.2.3.4.          ",
"            0 5.6.7.8.9.0.a.b.c.d.e.f.g.h.i.j.k.l.m.n.o.p.q.r.s.t.u.v.          ",
"            . w.x.y.z.A.B.C.D.E.F.F.G.H.I.J.K.L.M.N.O.P.Q.p.R.S.T.U.V.          ",
"                W.X.Y.Z.`. +.+++@+#+$+`.%+F.&+*+=+-+;+>+,+'+)+!+~+{+            ",
"              @ ]+^+/+(+_+:+<+[+}+|+1+2+.+3+4+5+6+7+;+8+9+0+a+b+c+{+            ",
"                d+e+f+g+h+i+j+k+l+m+n+o+p+q+r+s+t+u+O.0+)+v+w+x+y+z+            ",
"                A+B+C+D+.+E+F+G+H+I+J+K+L+M+N+O+P+Q+R+S+T+U+V+W+X+Y+            ",
"              0 Z+`+ @.@F.+@@@#@p+E+$@%@9.&@*@=@-@;@R+8+>@,@'@,@)@#.            ",
"              #.!@~@{@]@B.^@/@(@_@:@<@[@}@|@1@2@-@3@4@5@>@,@6@7@8@.             ",
"              #.9@0@a@b@c@d@e@f@g@h@i@j@k@l@m@n@o@p@q@5@r@s@t@u@v@              ",
"              #.w@x@y@z@A@B@C@D@E@F@G@H@I@J@K@L@M@N@O@P@r@Q@R@S@T@              ",
"              0 U@V@W@X@Y@Z@`@ #.#+#@###%+$#%#&#*#=#O.-#a+'@;#>#@               ",
"                0 ,#'#)#!#~#{#]#^#/#(#_#:#<#[#}#|#1#O@P.>@2#3#4#0               ",
"                  0 . 5#6#7#8#9#0#a#b#c#d#e#f#g#h#i#j#k#l#m#n#v.                ",
"                      o#p#q#r#s#t#u#v#w#x#y#z#A#B#'+C#D#E#F#a                   ",
"                          = G#H#I#J#K#L#M#N#O#P#Q#C#R#S#  C @                   ",
"                              T#U#V#W#X#Y#Z#`# $.$+$@$z+#.                      ",
"                              #$$$%$&$*$=$-$;$>$,$'$C .                         ",
"                              #$)$!$~${$]$^$/$($_$.                             ",
"                              = :$<$[$}$|$1$2$3$#.                              ",
"                            = T#4$5$6$7$8$9$0$a$b$                              ",
"                          c$d$e$f$g$h$i$j$k$l$m$n$o$d$                          ",
"                        p$q$r$s$t$u$v$w$x$y$z$A$B$C$D$a                         ",
"                      E$F$G$H$I$J$K$L$M$N$O$P$Q$R$S$T$U$#$                      ",
"                      + V$W$X$Y$Z$`$ %.%+%@%#%$%%%&%*%=%-%                      ",
"                      = ;%>%,%'%)%!%~%{%]%^%/%(%_%:%<%[%V.                      ",
"                        }%|%1%2%3%4%5%6%7%8%9%0%a%b%c%d%                        ",
"                            e%f%g%h%i%j%k%l%m%n%o%p%q%                          ",
"                              r%s%t%u%v%w%x%y%z%A%B%                            ",
"                                = C%D%E%F%G%H%I%V.                              ",
"                                      J%K%L%M%v..                               ",
"                                        J%N%O%.                                 ",
"                                          P%.                                   "};
