/* XPM */
static char * stand1_xpm[] = {
"40 40 614 2",
"  	c #AEAEAE",
". 	c #B1B1B1",
"+ 	c #B1B0B0",
"@ 	c #B0B0B0",
"# 	c #AFAFAF",
"$ 	c #AEAFAF",
"% 	c #AEAEAF",
"& 	c #B0AFAF",
"* 	c #B0B0AF",
"= 	c #B1B0AF",
"- 	c #ACACAC",
"; 	c #8C8F94",
"> 	c #848D93",
", 	c #7E8992",
"' 	c #76858F",
") 	c #72828E",
"! 	c #6C818E",
"~ 	c #5F7888",
"{ 	c #587285",
"] 	c #506F84",
"^ 	c #44667F",
"/ 	c #4F6F86",
"( 	c #58748A",
"_ 	c #5E7A8E",
": 	c #6B8394",
"< 	c #6E8698",
"[ 	c #74899A",
"} 	c #788B9A",
"| 	c #7C8C98",
"1 	c #82909A",
"2 	c #88949D",
"3 	c #8C97A0",
"4 	c #949EA4",
"5 	c #98A0A5",
"6 	c #99A1A7",
"7 	c #A1A7AB",
"8 	c #919698",
"9 	c #001627",
"0 	c #001220",
"a 	c #001625",
"b 	c #011524",
"c 	c #021622",
"d 	c #031927",
"e 	c #061D2C",
"f 	c #071F30",
"g 	c #092233",
"h 	c #0B2536",
"i 	c #0B293D",
"j 	c #0C2C3F",
"k 	c #0C2D43",
"l 	c #0C2F47",
"m 	c #0D334C",
"n 	c #0D344E",
"o 	c #103A57",
"p 	c #14496E",
"q 	c #10456E",
"r 	c #154971",
"s 	c #194C71",
"t 	c #1A4C70",
"u 	c #1B4B6C",
"v 	c #1A4764",
"w 	c #37586F",
"x 	c #ABAAAB",
"y 	c #172B39",
"z 	c #082538",
"A 	c #0C3D60",
"B 	c #06385B",
"C 	c #093856",
"D 	c #0A324B",
"E 	c #062234",
"F 	c #051F30",
"G 	c #071E2D",
"H 	c #071823",
"I 	c #06131A",
"J 	c #061014",
"K 	c #040E12",
"L 	c #050D12",
"M 	c #040D11",
"N 	c #050C12",
"O 	c #09161E",
"P 	c #163851",
"Q 	c #103B5F",
"R 	c #0F3556",
"S 	c #18384E",
"T 	c #173449",
"U 	c #143144",
"V 	c #0D2939",
"W 	c #1E3443",
"X 	c #9FA1A3",
"Y 	c #B2B1B1",
"Z 	c #AAABAB",
"` 	c #22323F",
" .	c #0C334C",
"..	c #3872A0",
"+.	c #6290B7",
"@.	c #5286AF",
"#.	c #3E79A2",
"$.	c #2D5E80",
"%.	c #204969",
"&.	c #1A405F",
"*.	c #134D75",
"=.	c #0D4D7C",
"-.	c #0D4974",
";.	c #0D446A",
">.	c #0E3C61",
",.	c #0F3856",
"'.	c #0B273A",
").	c #020E15",
"!.	c #071723",
"~.	c #08243B",
"{.	c #082135",
"].	c #0E2633",
"^.	c #0C2434",
"/.	c #0F2332",
"(.	c #09202F",
"_.	c #253946",
":.	c #B0B1B1",
"<.	c #ADADAD",
"[.	c #31424F",
"}.	c #0D2F45",
"|.	c #668AAA",
"1.	c #E3DFEE",
"2.	c #D5D5E2",
"3.	c #B4C1D3",
"4.	c #9AB0C8",
"5.	c #8BA5C0",
"6.	c #83A1BD",
"7.	c #7097B8",
"8.	c #5989B0",
"9.	c #4378A7",
"0.	c #336E9D",
"a.	c #1B5F95",
"b.	c #115890",
"c.	c #0F4977",
"d.	c #192630",
"e.	c #182630",
"f.	c #051F36",
"g.	c #0A2034",
"h.	c #0F2635",
"i.	c #0E2736",
"j.	c #0E2535",
"k.	c #092132",
"l.	c #354653",
"m.	c #B8B7B6",
"n.	c #42535D",
"o.	c #102F43",
"p.	c #577B9A",
"q.	c #F3F0FA",
"r.	c #FFFFFF",
"s.	c #FFF7F9",
"t.	c #FFF0F4",
"u.	c #FEEBF1",
"v.	c #FBEDF2",
"w.	c #EBE2EB",
"x.	c #DCD7E2",
"y.	c #CBC8D5",
"z.	c #BEC8D7",
"A.	c #92A4B8",
"B.	c #306A9A",
"C.	c #105083",
"D.	c #242F39",
"E.	c #1B2935",
"F.	c #041F35",
"G.	c #092134",
"H.	c #0D2334",
"I.	c #0D2536",
"J.	c #0D2435",
"K.	c #082132",
"L.	c #4C5A65",
"M.	c #B6B5B4",
"N.	c #55646D",
"O.	c #132F41",
"P.	c #3D6889",
"Q.	c #ECEBF6",
"R.	c #FFFDFC",
"S.	c #FFFEFE",
"T.	c #FDECE8",
"U.	c #FBE8E4",
"V.	c #FFF7F7",
"W.	c #FFF9FB",
"X.	c #FFFDFD",
"Y.	c #FFF5F1",
"Z.	c #5C88A9",
"`.	c #0C4B7D",
" +	c #262F36",
".+	c #1B2B34",
"++	c #052035",
"@+	c #092234",
"#+	c #0C2435",
"$+	c #0B2336",
"%+	c #0B2234",
"&+	c #646F77",
"*+	c #B4B3B2",
"=+	c #717A7F",
"-+	c #132E40",
";+	c #27587B",
">+	c #E4DFEB",
",+	c #FFFEFB",
"'+	c #FFF6F3",
")+	c #FFF4F4",
"!+	c #EED7D1",
"~+	c #C8B4AE",
"{+	c #D9C6BB",
"]+	c #F0D9D2",
"^+	c #FEF2F2",
"/+	c #FFFEFF",
"(+	c #FEF9F8",
"_+	c #668FB3",
":+	c #0F4D78",
"<+	c #192936",
"[+	c #062034",
"}+	c #0B2235",
"|+	c #0D2535",
"1+	c #0A2234",
"2+	c #0A2134",
"3+	c #787F86",
"4+	c #B2B2B1",
"5+	c #7C8387",
"6+	c #183040",
"7+	c #184B6F",
"8+	c #DDDBE7",
"9+	c #FFFFFE",
"0+	c #FFFAF7",
"a+	c #FFF3F1",
"b+	c #F2DDDB",
"c+	c #CEBCC0",
"d+	c #CBBABA",
"e+	c #E8D1CE",
"f+	c #FEECEB",
"g+	c #FFEFEE",
"h+	c #FBEFF1",
"i+	c #6592B5",
"j+	c #104E75",
"k+	c #282E35",
"l+	c #162735",
"m+	c #062035",
"n+	c #092335",
"o+	c #0B2534",
"p+	c #092133",
"q+	c #0A2233",
"r+	c #0C2334",
"s+	c #919599",
"t+	c #B0B1B0",
"u+	c #8D9094",
"v+	c #142B3E",
"w+	c #0B4063",
"x+	c #CBCFDD",
"y+	c #FFFFFD",
"z+	c #FFF1E7",
"A+	c #FFF2EC",
"B+	c #FCEAE4",
"C+	c #F2DDD8",
"D+	c #E2CBC9",
"E+	c #F2D9D8",
"F+	c #FFEFEC",
"G+	c #FFEFED",
"H+	c #F8EBEC",
"I+	c #5E90B3",
"J+	c #104B75",
"K+	c #272E35",
"L+	c #132535",
"M+	c #072134",
"N+	c #0A2334",
"O+	c #0B2232",
"P+	c #A3A5A6",
"Q+	c #999B9D",
"R+	c #182E41",
"S+	c #08395D",
"T+	c #B7C0D1",
"U+	c #FFFEFA",
"V+	c #F9E5D6",
"W+	c #F5E2DA",
"X+	c #FFF1ED",
"Y+	c #FFF5EE",
"Z+	c #FFE8E1",
"`+	c #FFEBE3",
" @	c #FEF5F2",
".@	c #FFFBF8",
"+@	c #F8EDEE",
"@@	c #588AB0",
"#@	c #0C4771",
"$@	c #122635",
"%@	c #062135",
"&@	c #0A2335",
"*@	c #0A2235",
"=@	c #0B2334",
"-@	c #0A2332",
";@	c #152D3C",
">@	c #ABABAD",
",@	c #9D9EA0",
"'@	c #263A4A",
")@	c #093759",
"!@	c #9BABBF",
"~@	c #FEF2E9",
"{@	c #E6D2CB",
"]@	c #C7B6A6",
"^@	c #BFAFA5",
"/@	c #DDC8C5",
"(@	c #FBE8E6",
"_@	c #FFF4F0",
":@	c #FFF8F5",
"<@	c #5A88AC",
"[@	c #0E456C",
"}@	c #2A3036",
"|@	c #112635",
"1@	c #082133",
"2@	c #082235",
"3@	c #0A2435",
"4@	c #0B2333",
"5@	c #081F31",
"6@	c #283C4A",
"7@	c #9FA1A2",
"8@	c #314451",
"9@	c #093251",
"0@	c #6B859F",
"a@	c #ECDADA",
"b@	c #F2DCCD",
"c@	c #CEBBAB",
"d@	c #BDAC9E",
"e@	c #BBAA9D",
"f@	c #B3A39B",
"g@	c #CBB7B4",
"h@	c #FBF4F1",
"i@	c #FEE9E7",
"j@	c #E5D7DD",
"k@	c #5786A9",
"l@	c #11456A",
"m@	c #2B3035",
"n@	c #0F2535",
"o@	c #061D30",
"p@	c #41515E",
"q@	c #A6A8A9",
"r@	c #414E56",
"s@	c #021E31",
"t@	c #42657A",
"u@	c #A3ACB0",
"v@	c #B8B5AC",
"w@	c #A89E8B",
"x@	c #C6B4A1",
"y@	c #E6D0C0",
"z@	c #E1CCBF",
"A@	c #E6CFCA",
"B@	c #FDF9F8",
"C@	c #FCEFED",
"D@	c #DAD1DA",
"E@	c #5182A7",
"F@	c #104264",
"G@	c #2B3036",
"H@	c #0E2635",
"I@	c #0B2432",
"J@	c #031C2D",
"K@	c #5E6A73",
"L@	c #5B6D7A",
"M@	c #002039",
"N@	c #122F3F",
"O@	c #3B5A66",
"P@	c #5B757E",
"Q@	c #73878C",
"R@	c #8E9B9C",
"S@	c #BEBAB1",
"T@	c #C7B7A8",
"U@	c #DAC3BB",
"V@	c #FFFCFA",
"W@	c #F4EAED",
"X@	c #5182A9",
"Y@	c #0F3E5F",
"Z@	c #2B3135",
"`@	c #041E35",
" #	c #0B2335",
".#	c #021A2A",
"+#	c #747D82",
"@#	c #A0A6AA",
"##	c #5C7689",
"$#	c #204867",
"%#	c #0C3453",
"&#	c #0C2C40",
"*#	c #223C4B",
"=#	c #3B5462",
"-#	c #61767F",
";#	c #819598",
">#	c #98A5AC",
",#	c #D3D4DA",
"'#	c #FFF4F2",
")#	c #E3DDE1",
"!#	c #4D82A9",
"~#	c #113D5C",
"{#	c #2A2F34",
"]#	c #0A2536",
"^#	c #052034",
"/#	c #082233",
"(#	c #0A2333",
"_#	c #072030",
":#	c #1B303D",
"<#	c #909597",
"[#	c #A7AAAD",
"}#	c #7B8A98",
"|#	c #385E7C",
"1#	c #16405E",
"2#	c #042941",
"3#	c #0C2E46",
"4#	c #29414E",
"5#	c #4B5F68",
"6#	c #56758B",
"7#	c #A3B5B9",
"8#	c #98B0BD",
"9#	c #407CA7",
"0#	c #173F5C",
"a#	c #283034",
"b#	c #082336",
"c#	c #072035",
"d#	c #072031",
"e#	c #374954",
"f#	c #969A9C",
"g#	c #B4B2B1",
"h#	c #8A97A0",
"i#	c #57768B",
"j#	c #2E526A",
"k#	c #0B324C",
"l#	c #112F45",
"m#	c #142F3E",
"n#	c #32464F",
"o#	c #486875",
"p#	c #265E85",
"q#	c #193952",
"r#	c #282C31",
"s#	c #062236",
"t#	c #011D30",
"u#	c #0D2437",
"v#	c #5A676F",
"w#	c #ACADAE",
"x#	c #B3B2B2",
"y#	c #B5B2B1",
"z#	c #B9B6B3",
"A#	c #969EA3",
"B#	c #234E66",
"C#	c #0B3958",
"D#	c #113C5C",
"E#	c #0B304E",
"F#	c #0E2839",
"G#	c #122A38",
"H#	c #152B39",
"I#	c #1B3448",
"J#	c #001A2E",
"K#	c #223847",
"L#	c #7D848A",
"M#	c #B5B4B3",
"N#	c #A9ADAE",
"O#	c #3A677A",
"P#	c #013A54",
"Q#	c #063E57",
"R#	c #153953",
"S#	c #103A5B",
"T#	c #113F63",
"U#	c #164161",
"V#	c #41505A",
"W#	c #9C9FA1",
"X#	c #AFAEAE",
"Y#	c #ADB2B4",
"Z#	c #5391AD",
"`#	c #00587F",
" $	c #014F6F",
".$	c #1F3C47",
"+$	c #031720",
"@$	c #17394D",
"#$	c #456A83",
"$$	c #6A7E8D",
"%$	c #AEAEAC",
"&$	c #B0B2B3",
"*$	c #5B91AC",
"=$	c #006592",
"-$	c #006F9C",
";$	c #2D596C",
">$	c #021C26",
",$	c #1A3541",
"'$	c #A5A5A5",
")$	c #B7B4B3",
"!$	c #ADB0B1",
"~$	c #558BA6",
"{$	c #006292",
"]$	c #016E9D",
"^$	c #39667A",
"/$	c #021C29",
"($	c #203945",
"_$	c #A0A2A3",
":$	c #AFAFAE",
"<$	c #A4ABAF",
"[$	c #4A82A0",
"}$	c #09608D",
"|$	c #056D9C",
"1$	c #3B6273",
"2$	c #011B29",
"3$	c #263E49",
"4$	c #A4A5A5",
"5$	c #B4B2B0",
"6$	c #7F8C99",
"7$	c #2C5C80",
"8$	c #3F7797",
"9$	c #186689",
"0$	c #09719D",
"a$	c #325B6C",
"b$	c #051A25",
"c$	c #183848",
"d$	c #778A97",
"e$	c #A5A9AC",
"f$	c #B3B1B0",
"g$	c #B2B0AF",
"h$	c #B3B0AE",
"i$	c #9FA2A5",
"j$	c #506F85",
"k$	c #083B66",
"l$	c #104670",
"m$	c #31617E",
"n$	c #296988",
"o$	c #0A729F",
"p$	c #346178",
"q$	c #0A1B24",
"r$	c #0C2E40",
"s$	c #1A4C71",
"t$	c #416987",
"u$	c #7C8E9E",
"v$	c #A3ABAE",
"w$	c #B6B6B6",
"x$	c #94A6B4",
"y$	c #2F5F85",
"z$	c #00325D",
"A$	c #0B4069",
"B$	c #0D436B",
"C$	c #174360",
"D$	c #284D69",
"E$	c #14628A",
"F$	c #346277",
"G$	c #0C1820",
"H$	c #0C324B",
"I$	c #154B71",
"J$	c #194D75",
"K$	c #235982",
"L$	c #42627B",
"M$	c #727376",
"N$	c #AEADAD",
"O$	c #77A0BD",
"P$	c #2B81C0",
"Q$	c #216291",
"R$	c #0E436D",
"S$	c #0D4267",
"T$	c #0C4168",
"U$	c #0D3C62",
"V$	c #0B3F5C",
"W$	c #264B5D",
"X$	c #0A2A43",
"Y$	c #0D426C",
"Z$	c #0F4670",
"`$	c #124974",
" %	c #224F72",
".%	c #38434C",
"+%	c #777777",
"@%	c #95ACBA",
"#%	c #5EA5CE",
"$%	c #2D7AB3",
"%%	c #18537D",
"&%	c #0C4169",
"*%	c #093F68",
"=%	c #0D416A",
"-%	c #0E3C62",
";%	c #0C436E",
">%	c #0B426D",
",%	c #0B446F",
"'%	c #103F66",
")%	c #2B343A",
"!%	c #74716E",
"~%	c #AEADAE",
"{%	c #B2AFAC",
"]%	c #ACADAD",
"^%	c #6C9EC5",
"/%	c #4E9DD6",
"(%	c #2D72A3",
"_%	c #164D73",
":%	c #073A64",
"<%	c #0D446E",
"[%	c #0D436F",
"}%	c #0B4571",
"|%	c #0D3F68",
"1%	c #1D2937",
"2%	c #666260",
"3%	c #ADAEAE",
"4%	c #B5B1AC",
"5%	c #98ADBA",
"6%	c #71ADDA",
"7%	c #4C99D1",
"8%	c #2F6B96",
"9%	c #094068",
"0%	c #0A4270",
"a%	c #11446F",
"b%	c #1F2D41",
"c%	c #656062",
"d%	c #B3AFAC",
"e%	c #A9ADAF",
"f%	c #8DB2CE",
"g%	c #75BAEC",
"h%	c #4D93C6",
"i%	c #1B507B",
"j%	c #1E2D42",
"k%	c #555153",
"l%	c #ACABAB",
"m%	c #AFAEAD",
"n%	c #B0AEAD",
"o%	c #A4B1BB",
"p%	c #78B9EB",
"q%	c #6291B7",
"r%	c #4D494D",
"s%	c #A6A5A4",
"t%	c #B0AEAC",
"u%	c #B1B2B2",
"v%	c #8FA1AE",
"w%	c #A0A2A2",
"                                                                                ",
"                                                                                ",
"                                                                                ",
"                . . + @ @ @ # # $     % # # # & & & * = = = = = &               ",
"              - ; > , ' ) ! ~ { ] ^ / ( _ : < [ } | 1 2 3 4 5 6 7 =             ",
"            @ 8 9 0 a b c d e f g h i j k l m n o p q r s t u v w x &           ",
"            + 8 y z A B C D E F G H I J K L M N O P Q R S T U V W X Y           ",
"              Z `  ...+.@.#.$.%.&.*.=.-.;.>.,.'.).!.~.{.].^./.(._.:.#           ",
"              <.[.}.|.1.2.3.4.5.6.7.8.9.0.a.b.c.d.e.f.g.h.i.j.k.l.m.            ",
"              <.n.o.p.q.r.s.t.u.v.w.x.y.z.A.B.C.D.E.F.G.H.I.J.K.L.M.            ",
"                N.O.P.Q.r.R.S.T.U.V.W.X.r.Y.Z.`. +.+++@+#+$+%+g.&+*+            ",
"              # =+-+;+>+,+'+)+!+~+{+]+^+/+(+_+:+ +<+[+}+|+1+1+2+3+4+            ",
"              # 5+6+7+8+9+0+a+b+c+d+e+f+g+h+i+j+k+l+m+n+o+p+q+r+s+@             ",
"              t+u+v+w+x+y+z+A+B+C+D+E+F+G+H+I+J+K+L+M+N+%+g O+I.P+#             ",
"              + Q+R+S+T+U+V+W+X+Y+Z+`+ @.@+@@@#@k+$@%@&@*@=@-@;@>@              ",
"              + ,@'@)@!@9+~@{@]@^@/@(@_@:@+@<@[@}@|@1@2@3@4@5@6@<.              ",
"              @ 7@8@9@0@a@b@c@d@e@f@g@h@i@j@k@l@m@n@M+G.n+=@o@p@                ",
"              * q@r@s@t@u@v@w@x@y@z@A@B@C@D@E@F@G@H@[+1@1+I@J@K@#               ",
"                * L@M@N@O@P@Q@R@S@T@U@V@r.W@X@Y@Z@I.`@M+ #4@.#+#@               ",
"                = @###$#%#&#*#=#-#;#>#,#'#)#!#~#{#]#^#/#(#_#:#<#@               ",
"                  # & [#}#|#1#2#3#4#5#6#7#8#9#0#a#b#c#d#_#e#f#Y                 ",
"                        g#g#h#i#j#k#l#m#n#o#p#q#r#s#t#u#v#w#x#                  ",
"                            y#z#A#B#C#D#E#F#G#H#I#J#K#L#M#@                     ",
"                              = N#O#P#Q#R#S#S#T#U#V#W#M.#                       ",
"                              X#Y#Z#`# $.$+$@$#$$$%$.                           ",
"                              X#&$*$=$-$;$>$,$'$)$                              ",
"                              X#!$~${$]$^$/$($_$@                               ",
"                            :$= <$[$}$|$1$2$3$4$Y                               ",
"                          5$# 6$7$8$9$0$a$b$c$d$e$f$g$                          ",
"                        h$i$j$k$l$m$n$o$p$q$r$s$t$u$v$w$                        ",
"                      & x$y$z$A$B$C$D$E$F$G$H$I$J$K$L$M$N$                      ",
"                      :$O$P$Q$R$S$T$U$V$W$X$Y$Z$`$ %.%+%#                       ",
"                        :$@%#%$%%%&%*%=%-%;%>%,%'%)%!%~%#                       ",
"                          {%]%^%/%(%_%:%<%[%}%|%1%2%3%@                         ",
"                            X#4%5%6%7%8%9%0%a%b%c%3%.                           ",
"                                d%e%f%g%h%i%j%k%l%.                             ",
"                                  m%n%o%p%q%r%s%.                               ",
"                                      t%u%v%w%4+                                ",
"                                        N$h$.                                   ",
"                                                                                "};
