/* XPM */
static char * stop_xpm[] = {
"40 40 886 2",
"  	c #999999",
". 	c #9B9C9C",
"+ 	c #A5A6A5",
"@ 	c #9F9F9E",
"# 	c #9A9A9A",
"$ 	c #AAA8A9",
"% 	c #B8B5B6",
"& 	c #C2B6B7",
"* 	c #CAA9AA",
"= 	c #C38E8E",
"- 	c #BB7C7B",
"; 	c #BC8D8D",
"> 	c #AAA5A5",
", 	c #A2A2A2",
"' 	c #B3B0B1",
") 	c #C3B9BB",
"! 	c #D4B9B9",
"~ 	c #E3ABAB",
"{ 	c #E59494",
"] 	c #DA7A7A",
"^ 	c #D36767",
"/ 	c #CA5D5D",
"( 	c #BF5353",
"_ 	c #BC4B4B",
": 	c #BF4E4E",
"< 	c #C07575",
"[ 	c #B49E9E",
"} 	c #9D9D9D",
"| 	c #9F9D9D",
"1 	c #E3C0C0",
"2 	c #EAA5A5",
"3 	c #E28E8E",
"4 	c #E0797A",
"5 	c #DF6E6E",
"6 	c #E16464",
"7 	c #E05B5A",
"8 	c #D65352",
"9 	c #D04F4E",
"0 	c #CB4C4C",
"a 	c #C74A4A",
"b 	c #C84648",
"c 	c #C34544",
"d 	c #BA4746",
"e 	c #BB5D5D",
"f 	c #B98C8D",
"g 	c #A5A3A1",
"h 	c #9E9C9D",
"i 	c #DAADAD",
"j 	c #E97A7C",
"k 	c #E46868",
"l 	c #E1605F",
"m 	c #DA5B5C",
"n 	c #D05859",
"o 	c #CD5555",
"p 	c #CF5354",
"q 	c #C85050",
"r 	c #C14E4E",
"s 	c #BE4A4B",
"t 	c #C04949",
"u 	c #BD4545",
"v 	c #BA4442",
"w 	c #B04141",
"x 	c #AA3E3F",
"y 	c #A94847",
"z 	c #B67070",
"A 	c #AE9C9C",
"B 	c #9C9C9D",
"C 	c #CBACAD",
"D 	c #E87372",
"E 	c #E66162",
"F 	c #E05D5E",
"G 	c #DC5B5A",
"H 	c #D55958",
"I 	c #C75655",
"J 	c #C45354",
"K 	c #C05052",
"L 	c #B84E4F",
"M 	c #AF4C4C",
"N 	c #AF4949",
"O 	c #B84648",
"P 	c #B84445",
"Q 	c #AD4241",
"R 	c #A83F40",
"S 	c #A33E3D",
"T 	c #AC3A3B",
"U 	c #B8393A",
"V 	c #B85B5B",
"W 	c #B78B8C",
"X 	c #A5A1A2",
"Y 	c #C2ACAB",
"Z 	c #E17B7C",
"` 	c #E06161",
" .	c #E05E5D",
"..	c #E05A5B",
"+.	c #D95859",
"@.	c #D45656",
"#.	c #CF5453",
"$.	c #C85151",
"%.	c #C04E4F",
"&.	c #B74D4B",
"*.	c #A9494A",
"=.	c #A74847",
"-.	c #AB4545",
";.	c #B34342",
">.	c #AD4040",
",.	c #A83D3E",
"'.	c #A63C3C",
").	c #B13939",
"!.	c #BF3737",
"~.	c #B93635",
"{.	c #BB4A48",
"].	c #BD7676",
"^.	c #AFA09F",
"/.	c #9B9B99",
"(.	c #ADA5A4",
"_.	c #DB7475",
":.	c #DC605F",
"<.	c #D65C5B",
"[.	c #D85A5A",
"}.	c #DC5758",
"|.	c #D35655",
"1.	c #CD5452",
"2.	c #CA5151",
"3.	c #C64E4F",
"4.	c #C04C4C",
"5.	c #B44A4A",
"6.	c #AA4848",
"7.	c #A54646",
"8.	c #A74344",
"9.	c #AE4241",
"0.	c #B43E3F",
"a.	c #B53D3C",
"b.	c #B13A3B",
"c.	c #B83839",
"d.	c #BA3636",
"e.	c #B53434",
"f.	c #B63333",
"g.	c #B63B3B",
"h.	c #B45C5D",
"i.	c #B39493",
"j.	c #949292",
"k.	c #ACA6A7",
"l.	c #DB8584",
"m.	c #DE5F5D",
"n.	c #DB5B5B",
"o.	c #D45959",
"p.	c #D75757",
"q.	c #D75555",
"r.	c #CD5252",
"s.	c #C45151",
"t.	c #C94E4F",
"u.	c #C24D4D",
"v.	c #BB4A4B",
"w.	c #B04849",
"x.	c #A64647",
"y.	c #AA4543",
"z.	c #B04241",
"A.	c #B6403F",
"B.	c #B83E3D",
"C.	c #BB3B3B",
"D.	c #B1393A",
"E.	c #B33737",
"F.	c #A73535",
"G.	c #A73333",
"H.	c #AB3331",
"I.	c #AE302F",
"J.	c #B03A38",
"K.	c #B57575",
"L.	c #857374",
"M.	c #A3A1A2",
"N.	c #D78180",
"O.	c #DB5D5D",
"P.	c #DB5959",
"Q.	c #DA5657",
"R.	c #D45556",
"S.	c #D45353",
"T.	c #D35251",
"U.	c #CE4F50",
"V.	c #CA4F4D",
"W.	c #CA4B4D",
"X.	c #C14A4A",
"Y.	c #BB4747",
"Z.	c #B14747",
"`.	c #AA4445",
" +	c #B14241",
".+	c #B23F3F",
"++	c #BC3D3F",
"@+	c #BB3D3C",
"#+	c #B33A3A",
"$+	c #AF3937",
"%+	c #A83737",
"&+	c #9D3334",
"*+	c #9A3232",
"=+	c #9E3030",
"-+	c #A42E2E",
";+	c #AC3737",
">+	c #B76F6E",
",+	c #857576",
"'+	c #9E9F9F",
")+	c #D19697",
"!+	c #DD5B5B",
"~+	c #DA5858",
"{+	c #D65455",
"]+	c #D25553",
"^+	c #CF5253",
"/+	c #CD5151",
"(+	c #CC4F50",
"_+	c #C64D4D",
":+	c #C44B4B",
"<+	c #C1494A",
"[+	c #BD4948",
"}+	c #BC4746",
"|+	c #B84343",
"1+	c #B74141",
"2+	c #B83F41",
"3+	c #B83F3F",
"4+	c #BA3C3D",
"5+	c #BB3A3A",
"6+	c #B73938",
"7+	c #AD3738",
"8+	c #A73938",
"9+	c #993736",
"0+	c #993333",
"a+	c #992F30",
"b+	c #9B2E2E",
"c+	c #A43435",
"d+	c #B16565",
"e+	c #867372",
"f+	c #9B9B9B",
"g+	c #D85B5B",
"h+	c #DD5554",
"i+	c #D85353",
"j+	c #D35252",
"k+	c #D25151",
"l+	c #D04E50",
"m+	c #CE4E4D",
"n+	c #C74B4D",
"o+	c #B94B4A",
"p+	c #B2494A",
"q+	c #BB4647",
"r+	c #BA4646",
"s+	c #BF4344",
"t+	c #BE4141",
"u+	c #BC4141",
"v+	c #BF4042",
"w+	c #BB3D3E",
"x+	c #B73B3B",
"y+	c #B93939",
"z+	c #BC4C4B",
"A+	c #BD4F4F",
"B+	c #B45656",
"C+	c #A45656",
"D+	c #A85252",
"E+	c #A53C3C",
"F+	c #9D2E2D",
"G+	c #A03131",
"H+	c #AD5B5C",
"I+	c #8F7F81",
"J+	c #C3A6A5",
"K+	c #CF5F60",
"L+	c #D95353",
"M+	c #D75050",
"N+	c #D14F50",
"O+	c #D34F4F",
"P+	c #D54E4E",
"Q+	c #D34C4D",
"R+	c #D24A4B",
"S+	c #C54949",
"T+	c #B74748",
"U+	c #B94848",
"V+	c #BB4B4A",
"W+	c #BE4344",
"X+	c #C34342",
"Y+	c #C74C4C",
"Z+	c #CC686A",
"`+	c #C76362",
" @	c #C25658",
".@	c #B93E3E",
"+@	c #B63A3B",
"@@	c #C69B9A",
"#@	c #C58C8A",
"$@	c #C08080",
"%@	c #BD8483",
"&@	c #C28888",
"*@	c #B95D5B",
"=@	c #AA2C2C",
"-@	c #A93130",
";@	c #B05453",
">@	c #907F80",
",@	c #A7A1A1",
"'@	c #CC7D7E",
")@	c #D15252",
"!@	c #D44F4F",
"~@	c #D14C4E",
"{@	c #D04C4C",
"]@	c #D54D4D",
"^@	c #D54C4E",
"/@	c #D44B4A",
"(@	c #D15654",
"_@	c #C95C5C",
":@	c #C45E60",
"<@	c #C66464",
"[@	c #C66A6A",
"}@	c #C04747",
"|@	c #CD6767",
"1@	c #D99E9F",
"2@	c #D78484",
"3@	c #D48C8C",
"4@	c #D0A2A3",
"5@	c #C06363",
"6@	c #B7403E",
"7@	c #C6A7A5",
"8@	c #B85050",
"9@	c #B53333",
"0@	c #B84141",
"a@	c #C88A89",
"b@	c #C46E6D",
"c@	c #B72A2C",
"d@	c #B32E2F",
"e@	c #B74D4E",
"f@	c #8E7E7F",
"g@	c #A8A3A2",
"h@	c #C57171",
"i@	c #CA4D4D",
"j@	c #C84B4C",
"k@	c #C65253",
"l@	c #CB6465",
"m@	c #D67575",
"n@	c #D46B6A",
"o@	c #CD5454",
"p@	c #D07676",
"q@	c #CB8687",
"r@	c #D0B7B6",
"s@	c #CA8F8F",
"t@	c #CA7C7D",
"u@	c #DBA4A5",
"v@	c #D05E5E",
"w@	c #CB4242",
"x@	c #C43C3C",
"y@	c #C76869",
"z@	c #C69595",
"A@	c #B84342",
"B@	c #C6A0A0",
"C@	c #B85051",
"D@	c #B53D3D",
"E@	c #BD6262",
"F@	c #C57A7A",
"G@	c #C25253",
"H@	c #B82B2A",
"I@	c #B22D2D",
"J@	c #B24545",
"K@	c #928182",
"L@	c #AAA4A4",
"M@	c #C4686A",
"N@	c #C64948",
"O@	c #BD4E4E",
"P@	c #BB7576",
"Q@	c #CB8F8F",
"R@	c #D28C8C",
"S@	c #D79798",
"T@	c #CA6061",
"U@	c #C75D5D",
"V@	c #BD5453",
"W@	c #C9AAAA",
"X@	c #BA4747",
"Y@	c #BA4040",
"Z@	c #C75F60",
"`@	c #D6A4A4",
" #	c #C03B3B",
".#	c #BB3839",
"+#	c #B63838",
"@#	c #B54140",
"##	c #C6A5A5",
"$#	c #B74646",
"%#	c #C7A8A9",
"&#	c #C29797",
"*#	c #C29193",
"=#	c #C28180",
"-#	c #BD5150",
";#	c #B8302F",
">#	c #B22A29",
",#	c #AA2B2A",
"'#	c #A73D3E",
")#	c #8B7B7B",
"!#	c #928D8C",
"~#	c #AEA4A4",
"{#	c #C26162",
"]#	c #C34446",
"^#	c #B65756",
"/#	c #AE7575",
"(#	c #BB6060",
"_#	c #C95252",
":#	c #CC6A6A",
"<#	c #C74F50",
"[#	c #C14140",
"}#	c #BF3F3E",
"|#	c #CCADAD",
"1#	c #BE4544",
"2#	c #BB3E3F",
"3#	c #C66E6F",
"4#	c #CA8E8E",
"5#	c #B53838",
"6#	c #AF3737",
"7#	c #AD3536",
"8#	c #AE4644",
"9#	c #C19999",
"0#	c #B74544",
"a#	c #C69E9D",
"b#	c #BA5D5E",
"c#	c #B33535",
"d#	c #B32C2C",
"e#	c #B42B2B",
"f#	c #B32A2A",
"g#	c #B12929",
"h#	c #AA2929",
"i#	c #A73635",
"j#	c #918080",
"k#	c #908988",
"l#	c #AEA3A3",
"m#	c #C25758",
"n#	c #BF4243",
"o#	c #B95251",
"p#	c #BD8888",
"q#	c #CC999A",
"r#	c #CF8484",
"s#	c #CD7877",
"t#	c #C65352",
"u#	c #C23E3E",
"v#	c #C53E3E",
"w#	c #D8B4B3",
"x#	c #C74142",
"y#	c #C23C3C",
"z#	c #C66261",
"A#	c #C79D9E",
"B#	c #AA3839",
"C#	c #A63535",
"D#	c #953637",
"E#	c #9D6262",
"F#	c #B16E6E",
"G#	c #B23D3C",
"H#	c #C39696",
"I#	c #BA5050",
"J#	c #B32C2D",
"K#	c #B22C2C",
"L#	c #B02929",
"M#	c #AE2929",
"N#	c #AE2828",
"O#	c #AC2727",
"P#	c #A63534",
"Q#	c #8C7B7A",
"R#	c #887E7E",
"S#	c #AE9E9E",
"T#	c #BC5252",
"U#	c #BB403F",
"V#	c #BC4444",
"W#	c #C04C4D",
"X#	c #C7595A",
"Y#	c #CC7171",
"Z#	c #D2A2A2",
"`#	c #CC6A6B",
" $	c #C6403F",
".$	c #C73B3B",
"+$	c #DFB9BA",
"@$	c #C83939",
"#$	c #C53838",
"$$	c #C34545",
"%$	c #BC8788",
"&$	c #AA7677",
"*$	c #985756",
"=$	c #805856",
"-$	c #866B6B",
";$	c #9A3C3B",
">$	c #AB3334",
",$	c #BB6666",
"'$	c #B8403F",
")$	c #B52B2B",
"!$	c #AB2828",
"~$	c #A92728",
"{$	c #A92627",
"]$	c #AB2626",
"^$	c #A43333",
"/$	c #988484",
"($	c #847576",
"_$	c #AB9998",
":$	c #B74D4D",
"<$	c #B73C3C",
"[$	c #BB5C5D",
"}$	c #C06563",
"|$	c #C14C4C",
"1$	c #C1504F",
"2$	c #CA8F90",
"3$	c #C55D5D",
"4$	c #C43B3B",
"5$	c #C8403F",
"6$	c #DAB4B3",
"7$	c #C43636",
"8$	c #C03636",
"9$	c #B93637",
"0$	c #A94D4E",
"a$	c #9F595A",
"b$	c #915656",
"c$	c #834A4A",
"d$	c #7F3332",
"e$	c #972E2F",
"f$	c #A82D2E",
"g$	c #B13839",
"h$	c #B2292A",
"i$	c #AC2929",
"j$	c #A72828",
"k$	c #A22727",
"l$	c #A42626",
"m$	c #A62524",
"n$	c #A33131",
"o$	c #937B7B",
"p$	c #7E6B6A",
"q$	c #AE9596",
"r$	c #B84949",
"s$	c #B73939",
"t$	c #BB5858",
"u$	c #C78D8B",
"v$	c #C38180",
"w$	c #BF7576",
"x$	c #BF797A",
"y$	c #B74243",
"z$	c #BA3837",
"A$	c #C03939",
"B$	c #C65A5B",
"C$	c #BA3534",
"D$	c #B13232",
"E$	c #A43232",
"F$	c #973637",
"G$	c #8F3637",
"H$	c #843132",
"I$	c #892E2E",
"J$	c #972D2C",
"K$	c #A32C2C",
"L$	c #AB2A2B",
"M$	c #B12A29",
"N$	c #AF2829",
"O$	c #AB2727",
"P$	c #A82626",
"Q$	c #A42625",
"R$	c #A22525",
"S$	c #A42324",
"T$	c #A33B3D",
"U$	c #A08484",
"V$	c #7F6C6E",
"W$	c #B09393",
"X$	c #B74445",
"Y$	c #B93838",
"Z$	c #B83E40",
"`$	c #B94D4C",
" %	c #B55C5C",
".%	c #B45958",
"+%	c #B03E3D",
"@%	c #AE3536",
"#%	c #B03534",
"$%	c #B53433",
"%%	c #B53634",
"&%	c #AE3233",
"*%	c #A93132",
"=%	c #AB3131",
"-%	c #A13030",
";%	c #942E2F",
">%	c #8A2E2E",
",%	c #822E2D",
"'%	c #7F2B2D",
")%	c #882B2A",
"!%	c #9A2B2A",
"~%	c #A42928",
"{%	c #A92829",
"]%	c #A82728",
"^%	c #A62626",
"/%	c #A52525",
"(%	c #A2282A",
"_%	c #A36160",
":%	c #5B3E3D",
"<%	c #7E7272",
"[%	c #B08A8C",
"}%	c #B5403F",
"|%	c #B63534",
"1%	c #B13536",
"2%	c #AF3636",
"3%	c #A73433",
"4%	c #A63434",
"5%	c #A93334",
"6%	c #A93333",
"7%	c #AE3232",
"8%	c #AE3231",
"9%	c #A93131",
"0%	c #A5302F",
"a%	c #A0302F",
"b%	c #952D2E",
"c%	c #8D2C2D",
"d%	c #812D2C",
"e%	c #7C2C2B",
"f%	c #7E2A2B",
"g%	c #842A2B",
"h%	c #932929",
"i%	c #9B2928",
"j%	c #9B2727",
"k%	c #9C2626",
"l%	c #9F2526",
"m%	c #9F2424",
"n%	c #9C2323",
"o%	c #9D2322",
"p%	c #A05150",
"q%	c #6F5454",
"r%	c #786767",
"s%	c #AE8282",
"t%	c #B13B3C",
"u%	c #B23232",
"v%	c #B03232",
"w%	c #AE3132",
"x%	c #A53232",
"y%	c #A03132",
"z%	c #A43131",
"A%	c #AA3031",
"B%	c #AE3131",
"C%	c #AE2F30",
"D%	c #A3302F",
"E%	c #A12E2E",
"F%	c #982D2F",
"G%	c #942D2D",
"H%	c #872B2C",
"I%	c #7F2C2B",
"J%	c #7C2A2B",
"K%	c #7A2B2A",
"L%	c #7D2A29",
"M%	c #852829",
"N%	c #8F2828",
"O%	c #922728",
"P%	c #912525",
"Q%	c #962526",
"R%	c #982425",
"S%	c #972324",
"T%	c #912425",
"U%	c #924848",
"V%	c #786260",
"W%	c #664B4C",
"X%	c #AE8384",
"Y%	c #AE4041",
"Z%	c #AB3130",
"`%	c #AE312F",
" &	c #B02F2F",
".&	c #AB2F2F",
"+&	c #A42E2F",
"@&	c #A82F2F",
"#&	c #AB2F2E",
"$&	c #AC2D2E",
"%&	c #A32E2F",
"&&	c #9A2D2D",
"*&	c #922D2D",
"=&	c #922C2C",
"-&	c #852C2C",
";&	c #7D2A2B",
">&	c #78292A",
",&	c #7B2929",
"'&	c #7C2929",
")&	c #7C2727",
"!&	c #812826",
"~&	c #8F2625",
"{&	c #922525",
"]&	c #912424",
"^&	c #922423",
"/&	c #932422",
"(&	c #922526",
"_&	c #883C3D",
":&	c #785E5E",
"<&	c #634A4B",
"[&	c #A19797",
"}&	c #A75E5D",
"|&	c #A83635",
"1&	c #AD2E2F",
"2&	c #AD2D2D",
"3&	c #AC2D2D",
"4&	c #AD2E2D",
"5&	c #AC2C2E",
"6&	c #AA2D2C",
"7&	c #A62D2B",
"8&	c #992D2B",
"9&	c #922C2A",
"0&	c #892B2A",
"a&	c #832B2A",
"b&	c #802A2A",
"c&	c #7D2928",
"d&	c #7C2928",
"e&	c #812728",
"f&	c #842727",
"g&	c #802726",
"h&	c #812626",
"i&	c #8C2525",
"j&	c #902424",
"k&	c #932324",
"l&	c #922524",
"m&	c #8C3637",
"n&	c #6F5151",
"o&	c #5A3B3A",
"p&	c #939092",
"q&	c #9E9293",
"r&	c #A85B59",
"s&	c #AA3332",
"t&	c #AD2C2C",
"u&	c #AB2B2C",
"v&	c #AC2A2B",
"w&	c #AB2B2B",
"x&	c #AA2B2B",
"y&	c #A12B2B",
"z&	c #942A29",
"A&	c #8A2929",
"B&	c #822A29",
"C&	c #7E2828",
"D&	c #7F2728",
"E&	c #862728",
"F&	c #8B2626",
"G&	c #882726",
"H&	c #822526",
"I&	c #812425",
"J&	c #8C2524",
"K&	c #942323",
"L&	c #962424",
"M&	c #953131",
"N&	c #7D5354",
"O&	c #573737",
"P&	c #949190",
"Q&	c #9D9292",
"R&	c #A34E4F",
"S&	c #A82E2D",
"T&	c #A92A2A",
"U&	c #AD2929",
"V&	c #AE2A29",
"W&	c #9D292A",
"X&	c #932928",
"Y&	c #8A2928",
"Z&	c #832827",
"`&	c #822728",
" *	c #872627",
".*	c #8B2627",
"+*	c #8F2526",
"@*	c #8E2526",
"#*	c #832524",
"$*	c #7E2524",
"%*	c #822323",
"&*	c #8E2322",
"**	c #982122",
"=*	c #9A2121",
"-*	c #982F2F",
";*	c #965C5D",
">*	c #563938",
",*	c #8B8181",
"'*	c #988F8E",
")*	c #9F4A4A",
"!*	c #A72A2A",
"~*	c #AE2729",
"{*	c #AD2927",
"]*	c #A52827",
"^*	c #952828",
"/*	c #8F2727",
"(*	c #8B2726",
"_*	c #8A2526",
":*	c #902626",
"<*	c #942525",
"[*	c #972625",
"}*	c #902425",
"|*	c #872423",
"1*	c #792323",
"2*	c #772223",
"3*	c #7F2123",
"4*	c #842122",
"5*	c #8C2222",
"6*	c #943131",
"7*	c #985D5D",
"8*	c #593D3B",
"9*	c #84797A",
"0*	c #958787",
"a*	c #9E4544",
"b*	c #A12829",
"c*	c #A12626",
"d*	c #9A2626",
"e*	c #8D2526",
"f*	c #8C2626",
"g*	c #902625",
"h*	c #952524",
"i*	c #9B2423",
"j*	c #9D2323",
"k*	c #9A2324",
"l*	c #8E2422",
"m*	c #822322",
"n*	c #792222",
"o*	c #7A2222",
"p*	c #7A2220",
"q*	c #7A2121",
"r*	c #7F2D2B",
"s*	c #8E5555",
"t*	c #5A4141",
"u*	c #7C6C6A",
"v*	c #999798",
"w*	c #978586",
"x*	c #994343",
"y*	c #992827",
"z*	c #932523",
"A*	c #912524",
"B*	c #912324",
"C*	c #952523",
"D*	c #9D2424",
"E*	c #A32423",
"F*	c #A12223",
"G*	c #9E2222",
"H*	c #992223",
"I*	c #8F2122",
"J*	c #892222",
"K*	c #842222",
"L*	c #7E2423",
"M*	c #7A2A2A",
"N*	c #814B4C",
"O*	c #6C5250",
"P*	c #705859",
"Q*	c #999997",
"R*	c #9A8788",
"S*	c #9B4444",
"T*	c #9A2526",
"U*	c #9B2726",
"V*	c #9C2726",
"W*	c #9E2728",
"X*	c #A22A2A",
"Y*	c #A32A2B",
"Z*	c #A12B2C",
"`*	c #A02B2C",
" =	c #992D2C",
".=	c #8A2C2D",
"+=	c #883434",
"@=	c #884D4F",
"#=	c #765D5D",
"$=	c #694D4F",
"%=	c #989797",
"&=	c #9C8688",
"*=	c #A04A49",
"==	c #A03939",
"-=	c #9E4140",
";=	c #9C4748",
">=	c #9B504F",
",=	c #9F5C5B",
"'=	c #A26769",
")=	c #A37372",
"!=	c #A27C7C",
"~=	c #9C8585",
"{=	c #897C7B",
"]=	c #766A6B",
"^=	c #796A6C",
"/=	c #5E413F",
"(=	c #9A9999",
"_=	c #938B8B",
":=	c #7B6C6D",
"<=	c #7B6A6A",
"[=	c #7D6D6D",
"}=	c #736563",
"|=	c #756465",
"1=	c #534546",
"2=	c #3F383E",
"3=	c #3D2F35",
"4=	c #514146",
"5=	c #7E6F6F",
"6=	c #867B7A",
"7=	c #8C8585",
"8=	c #918D8D",
"9=	c #918C8D",
"0=	c #4F5458",
"a=	c #242A35",
"b=	c #262E3A",
"c=	c #53595E",
"d=	c #575D61",
"e=	c #444C57",
"f=	c #2D3440",
"g=	c #595E65",
"h=	c #939FA5",
"i=	c #6A7281",
"j=	c #444C56",
"k=	c #61656B",
"l=	c #9DA6B2",
"m=	c #6D7485",
"n=	c #49515D",
"o=	c #6C757B",
"p=	c #9CA5B3",
"q=	c #7B8496",
"r=	c #6A7382",
"s=	c #6C777F",
"                                                                                ",
"                                              . + @                             ",
"                                    # $ % & * = - ; >                           ",
"                            , ' ) ! ~ { ] ^ / ( _ : < [ }                       ",
"                        | 1 2 3 4 5 6 7 8 9 0 a b c d e f g                     ",
"                      h i j k l m n o p q r s t u v w x y z A B                 ",
"                      C D E F G H I J K L M N O P Q R S T U V W X               ",
"                    Y Z `  ...+.@.#.$.%.&.*.=.-.;.>.,.'.).!.~.{.].^./.          ",
"                  (._.:.<.[.}.|.1.2.3.4.5.6.7.8.9.0.a.b.c.d.e.f.g.h.i.j.        ",
"                k.l.m.n.o.p.q.r.s.t.u.v.w.x.y.z.A.B.C.D.E.F.G.H.I.J.K.L.        ",
"              M.N.O.P.Q.R.S.T.U.V.W.X.Y.Z.`. +.+++@+#+$+%+&+*+=+-+;+>+,+        ",
"            '+)+!+~+{+]+^+/+(+_+:+<+[+}+|+1+2+3+4+5+6+7+8+9+0+a+b+c+d+e+        ",
"          f+= g+h+i+j+k+l+m+n+o+p+q+r+s+t+u+v+w+x+y+z+A+B+C+D+E+F+G+H+I+        ",
"          J+K+L+M+N+O+P+Q+R+S+T+U+V+W+X+Y+Z+`+ @.@+@@@#@$@%@&@*@=@-@;@>@        ",
"        ,@'@)@!@~@{@]@^@/@(@_@:@<@[@}@|@1@2@3@4@5@6@7@8@9@0@a@b@c@d@e@f@        ",
"        g@h@i@j@k@l@m@n@o@p@q@r@s@t@_+u@v@w@x@y@z@A@B@C@D@E@F@G@H@I@J@K@        ",
"        L@M@N@O@P@Q@R@S@T@U@V@W@X@Y@Z@`@ #.#+#@###$#%#&#*#=#-#;#>#,#'#)#!#      ",
"        ~#{#]#^#/#(#_#:#<#[#}#|#1#2#3#4#5#6#7#8#9#0#a#b#c#d#e#f#g#h#i#j#k#      ",
"        l#m#n#o#p#q#r#s#t#u#v#w#x#y#z#A#B#C#D#E#F#G#H#I#J#K#L#M#N#O#P#Q#R#      ",
"        S#T#U#V#W#X#Y#Z#`# $.$+$@$#$$$%$&$*$=$-$;$>$,$'$)$L#!$~${$]$^$/$($      ",
"        _$:$<$[$}$|$1$2$3$4$5$6$7$8$9$0$a$b$c$d$e$f$g$d@h$i$j$k$l$m$n$o$p$      ",
"        q$r$s$t$u$v$w$x$y$z$A$B$C$9@D$E$F$G$H$I$J$K$L$M$N$O$P$Q$R$S$T$U$V$      ",
"        W$X$Y$Z$`$ %.%+%@%#%$%%%&%*%=%-%;%>%,%'%)%!%~%{%]%^%/%m$S$(%_%:%<%      ",
"        [%}%|%1%2%3%4%5%6%7%8%=%9%0%a%b%c%d%e%f%g%h%i%j%k%l%m%n%o%p%q%r%        ",
"        s%t%u%v%w%x%y%z%A%B%C%D%E%F%G%H%I%J%K%L%M%N%O%P%Q%R%S%T%U%V%W%          ",
"        X%Y%Z%`% &.&+&@&#&$&%&&&*&=&-&;&>&,&'&)&!&~&{&]&^&/&(&_&:&<&            ",
"        [&}&|&1&2&3&4&5&6&7&8&9&0&a&b&c&d&e&f&g&h&i&j&j&k&l&m&n&o&p&            ",
"          q&r&s&t&u&v&w&x&y&z&A&B&C&C&D&E&F&G&H&I&J&^&K&L&M&N&O&P&              ",
"            Q&R&S&T&U&V&h#W&X&Y&Z&`& *.*+*@*#*$*%*&***=*-*;*>*,*                ",
"              '*)*!*~*{*]*^*/*(*_*:*<*[*}*|*1*2*3*4*5*6*7*8*9*                  ",
"                0*a*b*c*d*e*f*g*h*i*j*k*l*m*n*o*p*q*r*s*t*u*                    ",
"                v*w*x*y*z*A*B*C*D*E*F*G*H*I*J*K*L*M*N*O*P*                      ",
"                  Q*R*S*j%T*U*V*W*X*Y*Z*`* =G%.=+=@=#=$=                        ",
"                    %=&=*===-=;=>=,='=)=!=~=j#{=]=^=/=                          ",
"                      (=_=:=<=[=}=|=1=2=3=4=5=6=7=8=                            ",
"                          9=        0=a=b=c=                                    ",
"                                    d=e=f=g=                                    ",
"                                    h=i=j=k=                                    ",
"                                    l=m=n=o=                                    ",
"                                    p=q=r=s=                                    "};
