/* XPM */
static char *streetLamp[] = {
/* columns rows colors chars-per-pixel */
"20 20 58 1",
"  c #404446",
". c #5F6164",
"X c #7B7E80",
"o c #969898",
"O c #A2A5A9",
"+ c #A7AAAF",
"@ c #A7ACB0",
"# c #A9ACB1",
"$ c #AFB0AE",
"% c #AFB2B7",
"& c #B4B7BB",
"* c #BABCBE",
"= c #BCC0C3",
"- c #BFC3C5",
"; c #C1C1BF",
": c #C4C5C5",
"> c #C2C6CA",
", c #C5C7C9",
"< c #C7C9CB",
"1 c #C6C8CC",
"2 c #C7C9CD",
"3 c #C8C9C9",
"4 c #C9CBCE",
"5 c #CACDCF",
"6 c #CBCDCF",
"7 c #CBCED0",
"8 c #CDCFD1",
"9 c #CDCFD2",
"0 c #CFD1D3",
"q c #D1D2D5",
"w c #D2D4D6",
"e c #D2D4D7",
"r c #D4D6D7",
"t c #D5D7D9",
"y c #D5D8DA",
"u c #D7D9DA",
"i c #DFD3D0",
"p c #DCDDDE",
"a c #DCDDDF",
"s c #DDDEE0",
"d c #E0E1E2",
"f c #E2E3E4",
"g c #E3E3E4",
"h c #E3E4E4",
"j c #E8E9E9",
"k c #EAEBEC",
"l c #EEEEEF",
"z c #F0F1F1",
"x c #F2F2F3",
"c c gray96",
"v c #F7F5F4",
"b c gray98",
"n c #FAFAFB",
"m c #FBFBFB",
"M c #FAFBFC",
"N c #FCFDFD",
"B c #FEFEFE",
"V c gray100",
/* pixels */
"VVVVMmVVVVVVVVVVVVVV",
"VVg+>tdsgxVVVVVVVVVV",
"VVmivVVmlpedjxVVVVVV",
"VVVVVVVVVVVz*>VVVVVV",
"VVVVVVVVVVVVpeVVVVVV",
"VVVVVVVVVVVVtqVVVVVV",
"VVVVVVVVVVVVtqVVVVVV",
"VVVVVVVVVVVVe6VVVVVV",
"VVVVVVVVVVVV60VVVVVV",
"VVVVVVVVVVVV<6VVVVVV",
"VVVVVVVVVVVV-5VVVVVV",
"VVVVVVVVVVVV=6VVVVVV",
"VVVVVVVVVVVV&6VVVVVV",
"VVVVVVVVVVVV%2VVVVVV",
"VVVVVVVVVVVV#2VVVVVV",
"VVVVVVVVVVVV@6VVVVVV",
"VVVVVVVVVVVVo<VVVVVV",
"VVVVVVVVVVVk.OVVVVVV",
"VVVVVVVVVVV: .VVVVVV",
"VVVVVVVVVVVh$;VVVVVV"
};
