/* XPM */
static char *street[] = {
/* columns rows colors chars-per-pixel */
"20 20 104 2",
"   c #262609",
".  c #2C2D0B",
"X  c #282710",
"o  c #2C2A17",
"O  c #2E2C1D",
"+  c #2F300B",
"@  c #2F3011",
"#  c #31330E",
"$  c #323314",
"%  c #33321C",
"&  c #373815",
"*  c #383A16",
"=  c #3A3B19",
"-  c #2E2C25",
";  c #2F3237",
":  c #322C25",
">  c #342D2C",
",  c #3A2D2C",
"<  c #353422",
"1  c #35322B",
"2  c #3A332E",
"3  c #393823",
"4  c #343332",
"5  c #33373B",
"6  c #3A3633",
"7  c #3C3833",
"8  c #3B3939",
"9  c #3A3C41",
"0  c #3C4045",
"q  c #3C4148",
"w  c #44352B",
"e  c #49332A",
"r  c #413733",
"t  c #433A33",
"y  c #403B3C",
"u  c #4B3C34",
"i  c #424324",
"p  c #4B4C2D",
"a  c #41413E",
"s  c #4C433A",
"d  c #50433A",
"f  c #545439",
"g  c #424445",
"h  c #404449",
"j  c #45494E",
"k  c #4A4241",
"l  c #4E4943",
"z  c #494B4E",
"x  c #464B50",
"c  c #494C50",
"v  c #4D5054",
"b  c #4F5458",
"n  c #534B41",
"m  c #504C48",
"M  c #584A41",
"N  c #5C5046",
"B  c #535252",
"V  c #54575A",
"C  c #5A5450",
"Z  c #5E6045",
"A  c #605B59",
"S  c #685A57",
"D  c #67684F",
"F  c #62615B",
"G  c #78675F",
"H  c #606468",
"J  c #6D6661",
"K  c #77746E",
"L  c #7A716E",
"P  c #757475",
"I  c #7F806A",
"U  c #7E8183",
"Y  c #82836E",
"T  c #8F8382",
"R  c #8D8C85",
"E  c #8D8F91",
"W  c #9C8E8A",
"Q  c #9D9D8C",
"!  c #919395",
"~  c #94989B",
"^  c #9B9794",
"/  c #9E9998",
"(  c #A9A99B",
")  c #A8A7A2",
"_  c #ACAAAA",
"`  c #ABAEB0",
"'  c #B0B0A2",
"]  c #B9B4AF",
"[  c #B7B2B0",
"{  c #BCBCBA",
"}  c #C1C2B7",
"|  c #C5C3BC",
" . c #C3C4C5",
".. c #C9C4C2",
"X. c #CDCDC5",
"o. c #CDCAC9",
"O. c #D2D2D2",
"+. c #DBDBD5",
"@. c #E1E2DD",
"#. c #E9E9E5",
"$. c #EAEBEA",
"%. c #EFF0F0",
"&. c #F5F5F4",
"*. c #FEFEFE",
/* pixels */
"*.*.*.*.*.*.*.*.*.*.*.*.*.*.*.*.*.*.*.*.",
"*.*.*.$.o. .{ &.*.*.*.*.&.$...L ^ / _ &.",
"*.*.| N d t s L J G ] { A 8 C r n 2 k &.",
"*.*...w s e e 7 t u d u 2 > B k t 2 V *.",
"*.*.[ 2 r > > 7 u n M s 6 7 g 9 B g P *.",
"W S 8 > 4 4 > 7 u m C l g q j ! $.$.%.*.",
"T : 7 4 4 4 , 6 s c c c h V O.*.*.*.*.*.",
".., r 8 8 4 , y c x h a h j H E  .%.*.*.",
"o.t 8 1 4 q c c h 8 % @ % 1 8 9 0 b U  .",
"_ 2 8 q c j q q 6 @ @ @ @ - O < 2 5 ; ` ",
"o.y v j q 0 4 % O - 1 4 - % $ $ &   R *.",
"*.~ 5 9 7 % @ @ @ - 7 a 1 = = = + D &.*.",
"*.*._ < + @ $ & % 1 < < < 1 = # p #.*.*.",
"*.*.*.| i + = 3 1 % % & & % - < X.*.*.*.",
"*.*.*.*.+.f o 1 3 = * = = & + ) *.*.*.*.",
"*.*.*.*.*.$.F X & = = = = + I *.*.*.*.*.",
"*.*.*.*.*.*.&.Y . * = = # Z &.*.*.*.*.*.",
"*.*.*.*.*.*.*.*.Q # & $ i @.*.*.*.*.*.*.",
"*.*.*.*.*.*.*.*.*.' $ . } *.*.*.*.*.*.*.",
"*.*.*.*.*.*.*.*.*.*.} ( *.*.*.*.*.*.*.*."
};
