/* XPM */
static char *streetLight[] = {
/* columns rows colors chars-per-pixel */
"20 20 214 2",
"   c #2E1D20",
".  c #2C2A27",
"X  c #292928",
"o  c #32302A",
"O  c #373835",
"+  c #33383D",
"@  c #33393D",
"#  c #36383B",
"$  c #3D3C37",
"%  c #373B45",
"&  c #3E4044",
"*  c #3F4246",
"=  c #553F1D",
"-  c #763317",
";  c #52431D",
":  c #45443F",
">  c #584B2A",
",  c #5D482A",
"<  c #554B39",
"1  c #5F5335",
"2  c #5F553F",
"3  c #506824",
"4  c #54683D",
"5  c #70541D",
"6  c #7B5E1D",
"7  c #6E4B23",
"8  c #615435",
"9  c #615436",
"0  c #635534",
"q  c #645634",
"w  c #62573F",
"e  c #64593B",
"r  c #6A5A35",
"t  c #6C5B34",
"y  c #695A39",
"u  c #6D5E39",
"i  c #755423",
"p  c #745B21",
"a  c #765F21",
"s  c #715C28",
"d  c #745D2A",
"f  c #755E28",
"g  c #765F2A",
"h  c #796317",
"j  c #6D603D",
"k  c #6F603F",
"l  c #77602B",
"z  c #786027",
"x  c #7C6227",
"c  c #7C6327",
"v  c #7D6327",
"b  c #7E6324",
"n  c #7D6426",
"m  c #7F6425",
"M  c #7A6129",
"N  c #7B622B",
"B  c #79622E",
"V  c #7B632D",
"C  c #7C6328",
"Z  c #7C6329",
"A  c #7C642D",
"S  c #776335",
"D  c #786435",
"F  c #796534",
"G  c #786436",
"H  c #7A6534",
"J  c #7B6634",
"K  c #7C6634",
"L  c #78663C",
"P  c #7C673A",
"I  c #7F6832",
"U  c #7C6838",
"Y  c #7F6B3D",
"T  c #404246",
"R  c #414346",
"E  c #4C4B45",
"W  c #4B4A49",
"Q  c #484A4C",
"!  c #474E5B",
"~  c #4E5157",
"^  c #4F5A5B",
"/  c #51474C",
"(  c #594E59",
")  c #55534D",
"_  c #56524D",
"`  c #58554F",
"'  c #5D574B",
"]  c #565555",
"[  c #575B5E",
"{  c #59575F",
"}  c #5F5D59",
"|  c #5D5E5F",
" . c #5E5D5D",
".. c #525763",
"X. c #535A62",
"o. c #555960",
"O. c #545B67",
"+. c #585C64",
"@. c #585C66",
"#. c #5A5D66",
"$. c #5A5E68",
"%. c #525D70",
"&. c #565E73",
"*. c #5C616A",
"=. c #5B6173",
"-. c #5C6173",
";. c #604240",
":. c #635F4B",
">. c #6A5D41",
",. c #6C5F41",
"<. c #6E5E62",
"1. c #6E6247",
"2. c #6F694A",
"3. c #656054",
"4. c #6B6451",
"5. c #796A47",
"6. c #7C6A42",
"7. c #616160",
"8. c #676768",
"9. c #64666C",
"0. c #6C6260",
"q. c #626670",
"w. c #646871",
"e. c #656972",
"r. c #666D7C",
"t. c #6C7773",
"y. c #656E80",
"u. c #676F82",
"i. c #6B7281",
"p. c #687084",
"a. c #6C7181",
"s. c #757A83",
"d. c #7F8080",
"f. c #893D24",
"g. c #874535",
"h. c #8D6D22",
"j. c #846D39",
"k. c #837230",
"l. c #90722A",
"z. c #91722A",
"x. c #92732B",
"c. c #92732C",
"v. c #92732E",
"b. c #92742F",
"n. c #967A3C",
"m. c #836F42",
"M. c #8D7640",
"N. c #917C4A",
"B. c #86696A",
"V. c #837E63",
"C. c #96855C",
"Z. c #86806E",
"A. c #9A917C",
"S. c #AE9967",
"D. c #828684",
"F. c #80838B",
"G. c #888A90",
"H. c #8B8D93",
"J. c #8B8F98",
"K. c #909193",
"L. c #949497",
"P. c #91939A",
"I. c #989898",
"U. c #9B9DA1",
"Y. c #A2AA81",
"T. c #AEAC9F",
"R. c #B1A383",
"E. c #A0A2A6",
"W. c #ABACAC",
"Q. c #A3A8B1",
"!. c #B2B3B5",
"~. c #BDBBB1",
"^. c #BBBDC0",
"/. c #BCBEC4",
"(. c #C6BCA4",
"). c #CACAB9",
"_. c #C2C3C4",
"`. c #C9CDD1",
"'. c #CCCDD0",
"]. c #CDCED1",
"[. c #CCD0D5",
"{. c #D0D5D1",
"}. c #D3D4D7",
"|. c #D6D4D0",
" X c #DFDBD3",
".X c #DCDDDD",
"XX c #DCDDDF",
"oX c #D7DAE0",
"OX c #D9DBE0",
"+X c #E2E2E3",
"@X c #EAE8E3",
"#X c #EEECE8",
"$X c #EEEFF3",
"%X c #F6F3ED",
"&X c #F3F3F3",
"*X c #F4F6F3",
"=X c #F6F5F1",
"-X c #F6F5F2",
";X c gray96",
":X c #F5F5F6",
">X c gray97",
",X c #F8F5F2",
"<X c #F9F8F6",
"1X c #FCFAF5",
"2X c #F9F9F9",
"3X c #FBFAF9",
"4X c #FBFBF9",
"5X c #FEFDFA",
"6X c #FDFDFC",
"7X c #FDFDFD",
"8X c #FDFDFE",
"9X c #FEFDFC",
"0X c #FFFEFD",
"qX c gray100",
/* pixels */
"qXqXqXqXqXqXqXqXqXqXqXqXqXqXqXqXqXqXqXqX",
"qXqXqXqXqXqXqXqXqXP.XXqXqXqXqXqXqXqXqXqX",
"qXqXqXqXqXqXqXqX4Xw.].qXqXqXqXqXqXqXqXqX",
"qXqXqXqXqXqXqXqX:Xq.].qXqXqXqXqXqXqXqXqX",
"qXqXqXqXqXqXqXW.d.Q 8.L.4XqXqXqXqXqXqXqX",
"qXqXqX4X,X1X#XE o $ . . |.5X=X=XqXqXqXqX",
"qXqXqX(.I m.j.d g 1 * t n.M.r e  XqXqXqX",
"qXqXU._ _ X.3.V n q * G z.v } #.s.G._.qX",
"qX$X%   g.<.%.>.v q * S z.j.u.p.( % !.qX",
"qX8X`.0.- f./ w v q * S z.K } / B.[.qXqX",
"qXqXXXV.5 7 i C v q * S b.l = 7 @XqXqXqX",
"qXqXJ.W ' [ 4.C v q * F b.B <.O.d.E.+XqX",
"qXqX9.O 2.9.&.u b q * J l.6.u.i.[ o.XXqX",
"qXqX/.: h k.~ ' b 1 * J v.L O.:.W.$XqXqX",
"qXqXQ.` p a d g v 8 R J b.f ; j 4XqXqXqX",
"qXqXXX| < ] 1.C v 8 R K b.V | #.J.~.:XqX",
"qXqXL.@ ^ =.=.k v 8 R K z.5.p.r.O.d.:XqX",
"qXqX}.d.3 4 ! 2 6 > # f h.u ..t.[.qXqXqX",
"qXqXqXqX).A.V.P N.A.K.R.S.C.~.=XqXqXqXqX",
"qXqXqXqXqXqXqX%X4XqXqXqXqXqXqXqXqXqXqXqX"
};
