/* XPM */
static char * table1_xpm[] = {
"40 40 532 2",
"  	c #999999",
". 	c #9A9895",
"+ 	c #9C9593",
"@ 	c #A4948C",
"# 	c #AE9287",
"$ 	c #B68A79",
"% 	c #C8876E",
"& 	c #C97E61",
"* 	c #CF7552",
"= 	c #C66743",
"- 	c #DA6F45",
"; 	c #C97C5E",
"> 	c #AB8E84",
", 	c #B68B78",
"' 	c #C37656",
") 	c #D06C42",
"! 	c #D26438",
"~ 	c #DB6738",
"{ 	c #D4683A",
"] 	c #E17546",
"^ 	c #E87E51",
"/ 	c #EC7F52",
"( 	c #E67B50",
"_ 	c #D77146",
": 	c #DE7244",
"< 	c #DD7042",
"[ 	c #DF7244",
"} 	c #D77954",
"| 	c #B88A79",
"1 	c #9D9593",
"2 	c #9F9591",
"3 	c #CB866A",
"4 	c #DF7448",
"5 	c #DC6D3D",
"6 	c #DC6B3B",
"7 	c #DF6C3A",
"8 	c #E06F3E",
"9 	c #DD7243",
"0 	c #E7794E",
"a 	c #E98055",
"b 	c #EB8459",
"c 	c #EA8559",
"d 	c #E88157",
"e 	c #E37A52",
"f 	c #E2764F",
"g 	c #E1764E",
"h 	c #DC7651",
"i 	c #C98265",
"j 	c #A89288",
"k 	c #A38C83",
"l 	c #C27555",
"m 	c #E0794F",
"n 	c #DE7348",
"o 	c #E2754B",
"p 	c #E4784E",
"q 	c #E4774F",
"r 	c #E3784F",
"s 	c #E47951",
"t 	c #E98257",
"u 	c #EC875D",
"v 	c #EE8A60",
"w 	c #EA835A",
"x 	c #E47B52",
"y 	c #DF7348",
"z 	c #E07249",
"A 	c #D27C5B",
"B 	c #B28C7D",
"C 	c #9E9794",
"D 	c #C09777",
"E 	c #7A4E3B",
"F 	c #CF7854",
"G 	c #DD744D",
"H 	c #DF724B",
"I 	c #DF744D",
"J 	c #E57951",
"K 	c #E57C53",
"L 	c #EA835C",
"M 	c #EE8A63",
"N 	c #F39167",
"O 	c #EE8C62",
"P 	c #E78057",
"Q 	c #E1794E",
"R 	c #E17449",
"S 	c #E27549",
"T 	c #DF784F",
"U 	c #C7846B",
"V 	c #A6948D",
"W 	c #C6A993",
"X 	c #997458",
"Y 	c #5D4135",
"Z 	c #7C6A62",
"` 	c #BD8F7D",
" .	c #E48662",
"..	c #E17751",
"+.	c #E0764E",
"@.	c #E2764C",
"#.	c #DF7145",
"$.	c #DE7043",
"%.	c #DF744A",
"&.	c #E47A4F",
"*.	c #EA845B",
"=.	c #EF8E65",
"-.	c #F4956A",
";.	c #E48C66",
">.	c #E6865F",
",.	c #E47B51",
"'.	c #E27850",
").	c #E27650",
"!.	c #E17752",
"~.	c #D27E61",
"{.	c #B08F84",
"].	c #9E9795",
"^.	c #B5897A",
"/.	c #C37C5F",
"(.	c #CA7A5A",
"_.	c #A35A3F",
":.	c #A87A67",
"<.	c #CA9970",
"[.	c #5C3F33",
"}.	c #614338",
"|.	c #92604E",
"1.	c #744A3B",
"2.	c #2C1811",
"3.	c #8D543E",
"4.	c #E0845F",
"5.	c #E1774E",
"6.	c #E07247",
"7.	c #DE7045",
"8.	c #DE7245",
"9.	c #DF754A",
"0.	c #DD754B",
"a.	c #E27C52",
"b.	c #ED8862",
"c.	c #F1916F",
"d.	c #F59C77",
"e.	c #F69D77",
"f.	c #E58964",
"g.	c #E07B53",
"h.	c #DF754E",
"i.	c #DD744F",
"j.	c #DD724B",
"k.	c #DC7753",
"l.	c #C28671",
"m.	c #A29591",
"n.	c #C6795C",
"o.	c #DC7448",
"p.	c #DC7042",
"q.	c #DB6B3B",
"r.	c #B35932",
"s.	c #AA5734",
"t.	c #704737",
"u.	c #604238",
"v.	c #5F4135",
"w.	c #614235",
"x.	c #604940",
"y.	c #735C55",
"z.	c #8B746C",
"A.	c #D79376",
"B.	c #E78663",
"C.	c #DD704A",
"D.	c #DE6F49",
"E.	c #E0734B",
"F.	c #E2764E",
"G.	c #E0764D",
"H.	c #E47D55",
"I.	c #EB8461",
"J.	c #EC8A68",
"K.	c #F1906F",
"L.	c #F39771",
"M.	c #ED8E68",
"N.	c #DA7B56",
"O.	c #E07951",
"P.	c #DD744B",
"Q.	c #DC6F48",
"R.	c #DF7048",
"S.	c #CF7C5D",
"T.	c #AE9085",
"U.	c #B58A77",
"V.	c #DD794F",
"W.	c #E3784A",
"X.	c #E17143",
"Y.	c #D86E43",
"Z.	c #BA603B",
"`.	c #9A614D",
" +	c #8A7E79",
".+	c #AC958B",
"++	c #DC9579",
"@+	c #E27D5A",
"#+	c #DC6E49",
"$+	c #DC704A",
"%+	c #DD714B",
"&+	c #DE704A",
"*+	c #DB7049",
"=+	c #DC724C",
"-+	c #DE734C",
";+	c #E67E5A",
">+	c #E88965",
",+	c #EE8D6A",
"'+	c #F4916B",
")+	c #EE8B64",
"!+	c #E5825B",
"~+	c #DF7A53",
"{+	c #DF754D",
"]+	c #DA6F47",
"^+	c #C76641",
"/+	c #D8734E",
"(+	c #BB8672",
"_+	c #9A908C",
":+	c #AA958A",
"<+	c #DE8059",
"[+	c #E37952",
"}+	c #E57851",
"|+	c #E1754E",
"1+	c #D56E45",
"2+	c #B06343",
"3+	c #A08A82",
"4+	c #B2938A",
"5+	c #DE8A6D",
"6+	c #DF764F",
"7+	c #DB724B",
"8+	c #DC734C",
"9+	c #DE7148",
"0+	c #DE6F47",
"a+	c #DF6E44",
"b+	c #E07045",
"c+	c #E57E58",
"d+	c #E88661",
"e+	c #DA7F60",
"f+	c #E38662",
"g+	c #EB8660",
"h+	c #DC7955",
"i+	c #E0764C",
"j+	c #DB7046",
"k+	c #D06942",
"l+	c #BF6441",
"m+	c #A86146",
"n+	c #9B8F89",
"o+	c #CCAD96",
"p+	c #88654E",
"q+	c #B16549",
"r+	c #E07750",
"s+	c #E3764F",
"t+	c #E1714A",
"u+	c #E0714A",
"v+	c #B75D3C",
"w+	c #AC7764",
"x+	c #9B9693",
"y+	c #9D9795",
"z+	c #BF917F",
"A+	c #E48B68",
"B+	c #DB734D",
"C+	c #DB7552",
"D+	c #DB7450",
"E+	c #DA7047",
"F+	c #BF5E3A",
"G+	c #DC6C42",
"H+	c #D56E49",
"I+	c #CE704E",
"J+	c #E07E5C",
"K+	c #DF7F5E",
"L+	c #D17759",
"M+	c #C27252",
"N+	c #955D46",
"O+	c #96624A",
"P+	c #926552",
"Q+	c #967D72",
"R+	c #998B86",
"S+	c #999697",
"T+	c #A69D96",
"U+	c #CEA077",
"V+	c #54392F",
"W+	c #5F4A40",
"X+	c #AF8675",
"Y+	c #DB764F",
"Z+	c #E3784D",
"`+	c #E27449",
" @	c #E07248",
".@	c #E27347",
"+@	c #B6603C",
"@@	c #A08B80",
"#@	c #9D9695",
"$@	c #CA8F7A",
"%@	c #E5825E",
"&@	c #DA724D",
"*@	c #D8714D",
"=@	c #D76F47",
"-@	c #CF663E",
";@	c #C2613D",
">@	c #A76043",
",@	c #A9664A",
"'@	c #895945",
")@	c #815544",
"!@	c #7A503F",
"~@	c #754E3D",
"{@	c #8F5B45",
"]@	c #5A4137",
"^@	c #7B7573",
"/@	c #D8A984",
"(@	c #624639",
"_@	c #5B433B",
":@	c #888380",
"<@	c #A5948D",
"[@	c #D17C5A",
"}@	c #E37C54",
"|@	c #E3774E",
"1@	c #E27448",
"2@	c #E37649",
"3@	c #DD7248",
"4@	c #B26F55",
"5@	c #9A9594",
"6@	c #D18C73",
"7@	c #BD6D4D",
"8@	c #905742",
"9@	c #815442",
"0@	c #7E5242",
"a@	c #7D5341",
"b@	c #6C4837",
"c@	c #8F5C48",
"d@	c #8E5C48",
"e@	c #8D5B49",
"f@	c #94614E",
"g@	c #603C2C",
"h@	c #2C170D",
"i@	c #2C170F",
"j@	c #423129",
"k@	c #736C6A",
"l@	c #919190",
"m@	c #A09890",
"n@	c #8F8C8B",
"o@	c #C3856D",
"p@	c #E1794F",
"q@	c #E57A4F",
"r@	c #E47A50",
"s@	c #B66140",
"t@	c #B86042",
"u@	c #B56547",
"v@	c #A38B82",
"w@	c #B3A38D",
"x@	c #4D3325",
"y@	c #7C5041",
"z@	c #8C5B49",
"A@	c #855547",
"B@	c #8F6552",
"C@	c #917163",
"D@	c #95847D",
"E@	c #503B35",
"F@	c #99654F",
"G@	c #9B6351",
"H@	c #8E5A4A",
"I@	c #311C13",
"J@	c #2B150D",
"K@	c #23110C",
"L@	c #2B160E",
"M@	c #331F17",
"N@	c #655C58",
"O@	c #B18F82",
"P@	c #D87B59",
"Q@	c #E57B55",
"R@	c #E37853",
"S@	c #E17551",
"T@	c #E07650",
"U@	c #B55D3F",
"V@	c #AD6C56",
"W@	c #9D938F",
"X@	c #A6A39C",
"Y@	c #F8D7A1",
"Z@	c #846752",
"`@	c #53382D",
" #	c #7F5241",
".#	c #553225",
"+#	c #8D8986",
"@#	c #7B7B7C",
"##	c #52382E",
"$#	c #9A6350",
"%#	c #9D6852",
"&#	c #462F26",
"*#	c #140906",
"=#	c #27150D",
"-#	c #321910",
";#	c #45281C",
">#	c #663F31",
",#	c #A39693",
"'#	c #CA7E62",
")#	c #DF774F",
"!#	c #E27950",
"~#	c #DE734D",
"{#	c #DD714A",
"]#	c #E1734F",
"^#	c #DF7957",
"/#	c #BB8B7A",
"(#	c #E5CFA2",
"_#	c #E2C395",
":#	c #8C5847",
"<#	c #8E5B48",
"[#	c #71645F",
"}#	c #23130B",
"|#	c #523529",
"1#	c #908B89",
"2#	c #959593",
"3#	c #7D7877",
"4#	c #322723",
"5#	c #482A1F",
"6#	c #3E2319",
"7#	c #503023",
"8#	c #35241F",
"9#	c #221612",
"0#	c #8C5844",
"a#	c #95756B",
"b#	c #988B85",
"c#	c #9B9897",
"d#	c #BB8472",
"e#	c #DC7652",
"f#	c #E27A55",
"g#	c #DF7249",
"h#	c #E3744A",
"i#	c #D17D5F",
"j#	c #B7A08D",
"k#	c #FAE0A7",
"l#	c #A2755E",
"m#	c #936A5C",
"n#	c #72584F",
"o#	c #28150E",
"p#	c #3C271E",
"q#	c #392119",
"r#	c #4D2D20",
"s#	c #6B4030",
"t#	c #804E39",
"u#	c #8D563E",
"v#	c #7D4F3B",
"w#	c #724939",
"x#	c #94624B",
"y#	c #957364",
"z#	c #AA938A",
"A#	c #D57853",
"B#	c #E47C54",
"C#	c #E1784F",
"D#	c #DD7147",
"E#	c #DD6F47",
"F#	c #DE724A",
"G#	c #D28A65",
"H#	c #865644",
"I#	c #7D4D3C",
"J#	c #71483B",
"K#	c #593324",
"L#	c #5C3324",
"M#	c #784834",
"N#	c #824E38",
"O#	c #794C38",
"P#	c #8B553F",
"Q#	c #8B5540",
"R#	c #8E5B45",
"S#	c #794F3E",
"T#	c #97604A",
"U#	c #9A624D",
"V#	c #9C7061",
"W#	c #A29692",
"X#	c #C87C5E",
"Y#	c #E07A53",
"Z#	c #DC734A",
"`#	c #DB6E45",
" $	c #C7653E",
".$	c #DC7047",
"+$	c #D26B47",
"@$	c #B96445",
"#$	c #9D5E45",
"$$	c #8C5742",
"%$	c #895743",
"&$	c #895541",
"*$	c #87523C",
"=$	c #8B5D4A",
"-$	c #906D5F",
";$	c #968781",
">$	c #979795",
",$	c #777778",
"'$	c #53362A",
")$	c #9B634E",
"!$	c #9C634F",
"~$	c #997E76",
"{$	c #9B9898",
"]$	c #BB8975",
"^$	c #D9734C",
"/$	c #DF774D",
"($	c #CC6B45",
"_$	c #BA6140",
":$	c #9A5B41",
"<$	c #845542",
"[$	c #654033",
"}$	c #865540",
"|$	c #895845",
"1$	c #8D695A",
"2$	c #93817A",
"3$	c #97908D",
"4$	c #5F5D5E",
"5$	c #835747",
"6$	c #9B6856",
"7$	c #9A7768",
"8$	c #989896",
"9$	c #A99188",
"0$	c #A16046",
"a$	c #7B4D39",
"b$	c #814E3B",
"c$	c #814E3A",
"d$	c #855F4F",
"e$	c #8C6D61",
"f$	c #948681",
"g$	c #999594",
"h$	c #B5AC9C",
"i$	c #E6CA9D",
"j$	c #794736",
"k$	c #84523F",
"l$	c #8C6758",
"m$	c #9F9D9A",
"n$	c #F5E2B2",
"o$	c #BB9776",
"p$	c #83513F",
"q$	c #885946",
"r$	c #979290",
"s$	c #CFC09F",
"t$	c #EBCD9E",
"u$	c #85513F",
"v$	c #835240",
"w$	c #917870",
"x$	c #AFA89C",
"y$	c #FEDBA0",
"z$	c #9F7259",
"A$	c #7F4E3C",
"B$	c #875E4F",
"C$	c #ACA49B",
"D$	c #D5B58C",
"E$	c #87675C",
"F$	c #907F78",
"G$	c #979494",
"                                                                                ",
"                                                                                ",
"                                                                                ",
"                                                                                ",
"                                                                                ",
"                                                                                ",
"                                                                                ",
"                            .                                                   ",
"            + @ # $ % & * = - ; >                                               ",
"      , ' ) ! ~ { ] ^ / ( _ : < [ } | 1                                         ",
"      2 3 4 5 6 7 8 9 0 a b c d e f g h i j                                     ",
"          k l m n o p q r s t u v w x y n z A B C                               ",
"            D E F G H I f f J K L M N O P Q R S T U V                           ",
"          W X Y Z `  ...+.@.#.$.%.&.*.=.-.;.>.,.'.).!.~.{.].                    ",
"^./.(._.:.<.[.}.|.1.2.3.4.5.6.7.8.9.0.a.b.c.d.e.f.g.h.i.j.k.l.m.                ",
"n.o.p.q.r.s.t.u.v.w.x.y.z.A.B.C.D.E.F.q G.H.I.J.K.L.M.N.O.P.Q.R.S.T.            ",
"  U.V.W.X.Y.Z.`. +          .+++@+#+$+%+&+*+=+-+;+>+,+'+)+!+~+{+]+^+/+(+_+      ",
"    :+<+[+}+|+1+2+3+            4+5+6+7+8+9+0+a+b+|+c+d+e+f+g+h+i+j+k+l+m+n+    ",
"    o+p+q+r+s+t+u+v+w+x+          y+z+A+B+C+D+E+F+G+H+I+J+K+L+M+N+O+P+Q+R+S+    ",
"  T+U+V+W+X+Y+Z+`+ @.@+@@@            #@$@%@&@*@=@-@;@>@,@'@)@!@~@{@]@^@        ",
"  /@(@_@:@  <@[@}@|@1@2@3@4@5@            V 6@7@8@9@0@a@b@c@d@e@f@g@h@i@j@k@l@  ",
"  m@n@        y+o@p@q@r@s@t@u@v@            w@x@y@z@A@B@C@D@E@F@G@H@I@J@K@L@M@N@",
"                  O@P@Q@R@S@T@U@V@W@      X@Y@Z@`@ #.#+#    @###$#%#&#*#=#-#;#>#",
"                    ,#'#)#!#~#{#]#^#/#    (#_#:#<#[#}#|#1#2#3#4#5#6#7#8#9#0#a#b#",
"                      c#d#e#f#{+Q.g#h#i#j#k#l#e@m#  n#o#p#q#r#s#t#u#v#w#x#y#    ",
"                          z#A#B#C#D#E#F#g G#H#I#J#K#L#M#N#O#P#Q#R#S#T#U#V#      ",
"                            W#X#Y#a.Z#`# $.$+$@$#$$$%$&$*$=$-$;$>$,$'$)$!$~$    ",
"                              {$]$^$/$($_$:$<$[$}$|$1$2$3$          4$5$6$7$8$  ",
"                                  9$0$a$b$c$d$e$f$                    g$        ",
"                                  h$i$j$k$l$                                    ",
"                                m$n$o$p$q$r$                                    ",
"                                s$t$u$v$w$                                      ",
"                              x$y$z$A$B$                                        ",
"                              C$D$E$F$G$                                        ",
"                                                                                ",
"                                                                                ",
"                                                                                ",
"                                                                                ",
"                                                                                ",
"                                                                                "};
