/* XPM */
static char * tbag1_xpm[] = {
"40 40 721 2",
"  	c #AEAEAE",
". 	c #B1B1B0",
"+ 	c #AFAFAF",
"@ 	c #AFB0AF",
"# 	c #AEAEAF",
"$ 	c #ACACAD",
"% 	c #868692",
"& 	c #9FA0A4",
"* 	c #ADACAD",
"= 	c #ADADAD",
"- 	c #AEAEAD",
"; 	c #B3B2A9",
"> 	c #B2B6C8",
", 	c #595FA0",
"' 	c #3B3E81",
") 	c #323370",
"! 	c #7076A8",
"~ 	c #8086AB",
"{ 	c #6E7393",
"] 	c #7C7C7E",
"^ 	c #ADAEB3",
"/ 	c #A1A2BB",
"( 	c #5D5F91",
"_ 	c #3A3A82",
": 	c #52529F",
"< 	c #353A73",
"[ 	c #7986B4",
"} 	c #7A89B2",
"| 	c #7E8AB2",
"1 	c #6C7183",
"2 	c #8F8F8D",
"3 	c #B5B5B5",
"4 	c #B0B0AC",
"5 	c #A9A9B3",
"6 	c #6568BC",
"7 	c #303374",
"8 	c #56559A",
"9 	c #54559B",
"0 	c #303466",
"a 	c #3C4478",
"b 	c #434B7F",
"c 	c #4B5481",
"d 	c #6E6F7B",
"e 	c #AEAEAC",
"f 	c #AFAFAB",
"g 	c #A3A3BF",
"h 	c #9197D2",
"i 	c #525497",
"j 	c #46488E",
"k 	c #6265AC",
"l 	c #565C9E",
"m 	c #393D70",
"n 	c #454987",
"o 	c #34356B",
"p 	c #363B6F",
"q 	c #434B83",
"r 	c #222744",
"s 	c #5B5B5E",
"t 	c #B2B2B1",
"u 	c #AFAFAD",
"v 	c #ACACAC",
"w 	c #A2A6C5",
"x 	c #ABB6F4",
"y 	c #96A1E5",
"z 	c #5B62A9",
"A 	c #9199E9",
"B 	c #9EA0EE",
"C 	c #656EBC",
"D 	c #4C5797",
"E 	c #6168AC",
"F 	c #4B4F80",
"G 	c #2E2F57",
"H 	c #212547",
"I 	c #22284A",
"J 	c #14162A",
"K 	c #969697",
"L 	c #B3B3B3",
"M 	c #B0AFA9",
"N 	c #9598C3",
"O 	c #99AAFC",
"P 	c #C1D2FF",
"Q 	c #6772C4",
"R 	c #9EB0F0",
"S 	c #E8F2FF",
"T 	c #D3DBFF",
"U 	c #7580CB",
"V 	c #7E88D6",
"W 	c #9EA9EA",
"X 	c #9AA2DE",
"Y 	c #8086BF",
"Z 	c #626797",
"` 	c #3F426D",
" .	c #2C2F59",
"..	c #2D2E45",
"+.	c #ACADAB",
"@.	c #AEADAC",
"#.	c #9C9EC2",
"$.	c #99A5EB",
"%.	c #E1EAFE",
"&.	c #9CA4EA",
"*.	c #6770C2",
"=.	c #D0DDFB",
"-.	c #FFFFFF",
";.	c #A8AFE5",
">.	c #8492D7",
",.	c #C6D6FD",
"'.	c #DDF1FF",
").	c #E0EEFF",
"!.	c #CFD8F7",
"~.	c #A0A7DA",
"{.	c #828DBF",
"].	c #6B75A8",
"^.	c #4F5681",
"/.	c #48494D",
"(.	c #A8A9A8",
"_.	c #B1B0B0",
":.	c #ADADAC",
"<.	c #B4B9CC",
"[.	c #DBE8F9",
"}.	c #E3F2FF",
"|.	c #F2FFFF",
"1.	c #AEBCFA",
"2.	c #A1A8EB",
"3.	c #FCFEFF",
"4.	c #9199DC",
"5.	c #8D9FE2",
"6.	c #E2F6FF",
"7.	c #FBFFFF",
"8.	c #FDFFFF",
"9.	c #F0FFFF",
"0.	c #C7D2F6",
"a.	c #9EA7D5",
"b.	c #8593BB",
"c.	c #747FAC",
"d.	c #3B4263",
"e.	c #77777A",
"f.	c #B9B9B8",
"g.	c #AFAFAE",
"h.	c #B6B7B0",
"i.	c #7C7CA8",
"j.	c #9EA6E8",
"k.	c #CDD9FF",
"l.	c #9EB1EF",
"m.	c #CFE0FE",
"n.	c #FFFFFE",
"o.	c #DDE5FE",
"p.	c #9EABED",
"q.	c #C1D8FF",
"r.	c #EBFCFF",
"s.	c #FDFFFE",
"t.	c #DFF2FF",
"u.	c #AFBBF0",
"v.	c #9AA9D7",
"w.	c #7E8AB5",
"x.	c #63668E",
"y.	c #61668A",
"z.	c #565A69",
"A.	c #8D8D8F",
"B.	c #9693AB",
"C.	c #5E5890",
"D.	c #7375AE",
"E.	c #FEFFFF",
"F.	c #E7E9F9",
"G.	c #6E77CC",
"H.	c #555C9C",
"I.	c #F3FFFD",
"J.	c #DEE9FF",
"K.	c #B7C6FE",
"L.	c #D6ECFE",
"M.	c #DEF6FF",
"N.	c #CCE6FF",
"O.	c #B2BDEB",
"P.	c #63669F",
"Q.	c #566199",
"R.	c #6A71A0",
"S.	c #787592",
"T.	c #4A4B62",
"U.	c #161827",
"V.	c #ABABAB",
"W.	c #A9A9AC",
"X.	c #9081AD",
"Y.	c #7F69A4",
"Z.	c #6B6098",
"`.	c #CBCDF4",
" +	c #ADB2EB",
".+	c #43489B",
"++	c #8E9DD6",
"@+	c #F0FEFF",
"#+	c #FCFFFF",
"$+	c #F0F4FE",
"%+	c #BDC7F9",
"&+	c #C9DCFF",
"*+	c #E0F5FF",
"=+	c #DAF1FF",
"-+	c #BCD6FF",
";+	c #C3D6F7",
">+	c #766DA3",
",+	c #473D6B",
"'+	c #46497B",
")+	c #5D608F",
"!+	c #505480",
"~+	c #56596A",
"{+	c #AAA7B0",
"]+	c #9883BC",
"^+	c #907BB4",
"/+	c #8571AF",
"(+	c #968ACD",
"_+	c #767ED7",
":+	c #575FB9",
"<+	c #B3C5F3",
"[+	c #E2F3FF",
"}+	c #EAEDFE",
"|+	c #C2CBFD",
"1+	c #8D99E6",
"2+	c #BCCAF7",
"3+	c #CEE0FF",
"4+	c #A2BCFC",
"5+	c #B9D7FF",
"6+	c #BFD1F0",
"7+	c #6E6BA3",
"8+	c #46406E",
"9+	c #373869",
"0+	c #41457A",
"a+	c #343868",
"b+	c #696B7C",
"c+	c #AEAFAD",
"d+	c #ACABB7",
"e+	c #9081C5",
"f+	c #7464A1",
"g+	c #64579D",
"h+	c #595296",
"i+	c #6D73C8",
"j+	c #8B98E7",
"k+	c #CBDCFB",
"l+	c #D8E6FF",
"m+	c #F9FFFF",
"n+	c #C2CBFF",
"o+	c #8690E3",
"p+	c #A1A0E5",
"q+	c #A3AEF6",
"r+	c #879FEB",
"s+	c #BBD7FF",
"t+	c #919CD2",
"u+	c #565B98",
"v+	c #474E89",
"w+	c #343769",
"x+	c #3D4174",
"y+	c #303361",
"z+	c #555A77",
"A+	c #AEAFAE",
"B+	c #AAAAB5",
"C+	c #827EC6",
"D+	c #625997",
"E+	c #5B5093",
"F+	c #4D478B",
"G+	c #7174C5",
"H+	c #D3E4FF",
"I+	c #DFEEFF",
"J+	c #A6B4FD",
"K+	c #C8DCFF",
"L+	c #D6EAFF",
"M+	c #C2CDFB",
"N+	c #7F83CE",
"O+	c #807DBD",
"P+	c #8691D6",
"Q+	c #96AEF0",
"R+	c #8D9FD5",
"S+	c #4E5487",
"T+	c #4E5692",
"U+	c #505996",
"V+	c #3E4376",
"W+	c #3A3E71",
"X+	c #272B57",
"Y+	c #9E9EA2",
"Z+	c #B0B0AF",
"`+	c #9C9CA5",
" @	c #4B488A",
".@	c #5B599D",
"+@	c #5A569F",
"@@	c #55539C",
"#@	c #6263B2",
"$@	c #BECAF8",
"%@	c #868EE3",
"&@	c #8187DD",
"*@	c #979EE9",
"=@	c #949AE7",
"-@	c #7477C0",
";@	c #67619D",
">@	c #575B98",
",@	c #535990",
"'@	c #3D416E",
")@	c #3F4378",
"!@	c #4C5391",
"~@	c #48518D",
"{@	c #3B4175",
"]@	c #353864",
"^@	c #23264E",
"/@	c #98989E",
"(@	c #96959E",
"_@	c #2B245E",
":@	c #4A488C",
"<@	c #5453A1",
"[@	c #5554A2",
"}@	c #4F4D99",
"|@	c #7C7BC3",
"1@	c #BAC3FC",
"2@	c #8388D7",
"3@	c #7C81CF",
"4@	c #8789D6",
"5@	c #777CCA",
"6@	c #6A6DB7",
"7@	c #5D5695",
"8@	c #3E3D75",
"9@	c #292A57",
"0@	c #353665",
"a@	c #4A4E88",
"b@	c #40447E",
"c@	c #424982",
"d@	c #394073",
"e@	c #363B66",
"f@	c #252951",
"g@	c #68637D",
"h@	c #292156",
"i@	c #30295E",
"j@	c #393674",
"k@	c #494790",
"l@	c #474590",
"m@	c #525195",
"n@	c #888AD0",
"o@	c #8387D6",
"p@	c #757BCE",
"q@	c #7073C0",
"r@	c #686CB8",
"s@	c #6768B0",
"t@	c #595494",
"u@	c #333265",
"v@	c #2E305C",
"w@	c #515189",
"x@	c #4E508B",
"y@	c #44457B",
"z@	c #3D4074",
"A@	c #3A3F71",
"B@	c #343C68",
"C@	c #1E234A",
"D@	c #96969D",
"E@	c #4C466B",
"F@	c #352C61",
"G@	c #373264",
"H@	c #363064",
"I@	c #403977",
"J@	c #5C58A8",
"K@	c #484489",
"L@	c #6C6BA8",
"M@	c #9DA6EC",
"N@	c #848ADD",
"O@	c #7175C4",
"P@	c #7175C0",
"Q@	c #6A6EB4",
"R@	c #4B4C88",
"S@	c #232554",
"T@	c #353A6B",
"U@	c #5D639A",
"V@	c #62689B",
"W@	c #4A4F7F",
"X@	c #353664",
"Y@	c #2C2D57",
"Z@	c #252748",
"`@	c #4E4F67",
" #	c #A5A5A8",
".#	c #454367",
"+#	c #2F2B5F",
"@#	c #3E3870",
"##	c #535288",
"$#	c #4F4C87",
"%#	c #4D468D",
"&#	c #514D95",
"*#	c #494683",
"=#	c #6569A8",
"-#	c #7E87CC",
";#	c #858BD4",
">#	c #6466AC",
",#	c #4C4E8C",
"'#	c #36396E",
")#	c #272B55",
"!#	c #5B6293",
"~#	c #6F76A4",
"{#	c #555B85",
"]#	c #32375E",
"^#	c #222548",
"/#	c #1B1E3D",
"(#	c #181633",
"_#	c #676471",
":#	c #B0AFAF",
"<#	c #5F5F7A",
"[#	c #201F53",
"}#	c #2A295B",
"|#	c #4D4E84",
"1#	c #8585C1",
"2#	c #565292",
"3#	c #444282",
"4#	c #56559B",
"5#	c #444386",
"6#	c #525493",
"7#	c #8386C3",
"8#	c #9996CB",
"9#	c #504E83",
"0#	c #333568",
"a#	c #4B5587",
"b#	c #676D95",
"c#	c #43466C",
"d#	c #262750",
"e#	c #1C1F40",
"f#	c #131834",
"g#	c #131630",
"h#	c #0D0D24",
"i#	c #3A3947",
"j#	c #A5A5A6",
"k#	c #B0B0B0",
"l#	c #66667E",
"m#	c #201F56",
"n#	c #29285F",
"o#	c #2D2D63",
"p#	c #4C4986",
"q#	c #5C589B",
"r#	c #414082",
"s#	c #5A5BA2",
"t#	c #5F61A5",
"u#	c #575CA1",
"v#	c #6468AB",
"w#	c #7879B4",
"x#	c #64689E",
"y#	c #393A69",
"z#	c #2C3059",
"A#	c #26264A",
"B#	c #1E1E40",
"C#	c #191937",
"D#	c #141430",
"E#	c #0F1028",
"F#	c #0D0D22",
"G#	c #00000C",
"H#	c #6E6E72",
"I#	c #9A9BA1",
"J#	c #1C1D54",
"K#	c #322E6C",
"L#	c #2F2D66",
"M#	c #36336B",
"N#	c #544F8F",
"O#	c #5E5EA1",
"P#	c #5B5EA3",
"Q#	c #6467A9",
"R#	c #5C62A4",
"S#	c #565A99",
"T#	c #51538F",
"U#	c #454877",
"V#	c #2B2A52",
"W#	c #1C1C41",
"X#	c #19193C",
"Y#	c #161637",
"Z#	c #161534",
"`#	c #12122C",
" $	c #0E0E23",
".$	c #0E0E1F",
"+$	c #000003",
"@$	c #68686D",
"#$	c #BABAB9",
"$$	c #9898A1",
"%$	c #1F1F58",
"&$	c #312E6A",
"*$	c #373674",
"=$	c #33326D",
"-$	c #3E3A73",
";$	c #575598",
">$	c #5859A0",
",$	c #525094",
"'$	c #4F5195",
")$	c #4B4E90",
"!$	c #49498B",
"~$	c #403F6D",
"{$	c #28284F",
"]$	c #1E1F43",
"^$	c #1B1B3E",
"/$	c #171738",
"($	c #151432",
"_$	c #10112A",
":$	c #0F0F23",
"<$	c #060617",
"[$	c #2D2D36",
"}$	c #9F9FA1",
"|$	c #B2B2B2",
"1$	c #A5A5AA",
"2$	c #474771",
"3$	c #23245D",
"4$	c #33336E",
"5$	c #3F3D80",
"6$	c #4B4C8B",
"7$	c #403F7B",
"8$	c #424383",
"9$	c #515094",
"0$	c #515496",
"a$	c #494A88",
"b$	c #3B3B74",
"c$	c #2C2A58",
"d$	c #23244B",
"e$	c #1E2045",
"f$	c #1C1C3E",
"g$	c #181837",
"h$	c #161430",
"i$	c #111229",
"j$	c #0C0D1D",
"k$	c #4C4C53",
"l$	c #C2C2C1",
"m$	c #A9AAAA",
"n$	c #525475",
"o$	c #21215C",
"p$	c #2B2B63",
"q$	c #383574",
"r$	c #5C5B9E",
"s$	c #605FA2",
"t$	c #515295",
"u$	c #494988",
"v$	c #4C4C8B",
"w$	c #3F3F77",
"x$	c #2E2E5E",
"y$	c #252751",
"z$	c #212349",
"A$	c #1D1D42",
"B$	c #19193B",
"C$	c #171735",
"D$	c #13152E",
"E$	c #100F23",
"F$	c #090919",
"G$	c #141520",
"H$	c #898A8C",
"I$	c #B5B5B4",
"J$	c #B7B7B3",
"K$	c #828295",
"L$	c #1F1F5F",
"M$	c #2D2D69",
"N$	c #2D2F69",
"O$	c #484581",
"P$	c #7C79B5",
"Q$	c #8488C7",
"R$	c #676BB0",
"S$	c #4D5292",
"T$	c #3F427A",
"U$	c #333464",
"V$	c #2E2D59",
"W$	c #24224F",
"X$	c #181937",
"Y$	c #141530",
"Z$	c #101126",
"`$	c #0D0C1F",
" %	c #050414",
".%	c #1F202A",
"+%	c #BFBFBD",
"@%	c #ADADAE",
"#%	c #B7B7B2",
"$%	c #8B8C9F",
"%%	c #242564",
"&%	c #272561",
"*%	c #2C2E69",
"=%	c #32326D",
"-%	c #54528A",
";%	c #8B88B8",
">%	c #8E8EBE",
",%	c #5B609F",
"'%	c #3C3F79",
")%	c #303063",
"!%	c #2A2958",
"~%	c #1F1F47",
"{%	c #13142E",
"]%	c #101129",
"^%	c #0F1026",
"/%	c #0C0E1E",
"(%	c #070915",
"_%	c #515156",
":%	c #B6B6B6",
"<%	c #B1B1AF",
"[%	c #9E9EA6",
"}%	c #3D3E7B",
"|%	c #282963",
"1%	c #21235A",
"2%	c #3B3C7E",
"3%	c #46478C",
"4%	c #424184",
"5%	c #494783",
"6%	c #6A699E",
"7%	c #7070A6",
"8%	c #303065",
"9%	c #20204E",
"0%	c #1B1C45",
"a%	c #181639",
"b%	c #141535",
"c%	c #131631",
"d%	c #13142D",
"e%	c #0F1126",
"f%	c #090A19",
"g%	c #030410",
"h%	c #33343C",
"i%	c #9B9BA4",
"j%	c #30347A",
"k%	c #3C4084",
"l%	c #30326E",
"m%	c #393B76",
"n%	c #6868AC",
"o%	c #6C6AAC",
"p%	c #3E3C78",
"q%	c #2E2C64",
"r%	c #272856",
"s%	c #1F1E4B",
"t%	c #1B1C47",
"u%	c #191941",
"v%	c #161739",
"w%	c #161837",
"x%	c #151732",
"y%	c #090A1A",
"z%	c #060712",
"A%	c #020411",
"B%	c #252532",
"C%	c #BEBDBC",
"D%	c #B0B0AE",
"E%	c #9C9FB5",
"F%	c #4E5597",
"G%	c #474B8D",
"H%	c #42457E",
"I%	c #2C2E65",
"J%	c #434176",
"K%	c #454276",
"L%	c #282759",
"M%	c #1D1E4B",
"N%	c #1B1C48",
"O%	c #191A43",
"P%	c #17183D",
"Q%	c #17173B",
"R%	c #141533",
"S%	c #13142F",
"T%	c #0E0E24",
"U%	c #0A0B1B",
"V%	c #080919",
"W%	c #0A0B1E",
"X%	c #08081E",
"Y%	c #17192C",
"Z%	c #A6A5A7",
"`%	c #A4A6B9",
" &	c #8187C4",
".&	c #51589C",
"+&	c #3D417C",
"@&	c #474C81",
"#&	c #282C5D",
"$&	c #201F51",
"%&	c #1F1F4E",
"&&	c #1D1D49",
"*&	c #1B1C44",
"=&	c #18173C",
"-&	c #171839",
";&	c #151534",
">&	c #11122C",
",&	c #0C1025",
"'&	c #0B0C20",
")&	c #0C0D21",
"!&	c #0D0E24",
"~&	c #0B0D27",
"{&	c #3A3B50",
"]&	c #7B7B85",
"^&	c #B6B6B4",
"/&	c #B2B2B5",
"(&	c #8A93C6",
"_&	c #7075A5",
":&	c #3D3F77",
"<&	c #353970",
"[&	c #212356",
"}&	c #1F1C50",
"|&	c #202053",
"1&	c #1C1D4A",
"2&	c #17193D",
"3&	c #151637",
"4&	c #111230",
"5&	c #101028",
"6&	c #0C0C26",
"7&	c #0B0B25",
"8&	c #0B0C24",
"9&	c #323346",
"0&	c #313348",
"a&	c #494A5E",
"b&	c #A6A6A9",
"c&	c #A6A6A8",
"d&	c #AFAEAD",
"e&	c #A2A2A7",
"f&	c #77758D",
"g&	c #444269",
"h&	c #201F50",
"i&	c #191950",
"j&	c #181748",
"k&	c #121334",
"l&	c #0E102F",
"m&	c #161830",
"n&	c #0A0A24",
"o&	c #272640",
"p&	c #2F3046",
"q&	c #787783",
"r&	c #B1B1B1",
"s&	c #858596",
"t&	c #50516F",
"u&	c #383A61",
"v&	c #111231",
"w&	c #202238",
"x&	c #595B67",
"y&	c #5B5B69",
"z&	c #AAAAAB",
"A&	c #BCBCBA",
"B&	c #B2B3B2",
"C&	c #B2B2B0",
"D&	c #B5B5B3",
"E&	c #B8B8B6",
"F&	c #A1A1AB",
"G&	c #7F8089",
"H&	c #8F8F94",
"I&	c #9C9CA0",
"J&	c #BDBDBB",
"K&	c #B6B6B5",
"L&	c #B4B4B3",
"                                                                                ",
"                                                                                ",
"                                            . +                                 ",
"                                    @ # $ . % & * = +                           ",
"                                - ; > , ' ) ! ~ { ] - +                         ",
"                                ^ / ( _ : < [ } | 1 2 3                         ",
"                              4 5 6 7 8 9 0 a a b c d e +                       ",
"                            f g h i j k l m n o p q r s t                       ",
"                        u v w x y z A B C D E F G H I J K L                     ",
"                        M N O P Q R S T U V W X Y Z `  ...+.L                   ",
"                      @.#.$.%.&.*.=.-.;.>.,.'.).!.~.{.].^./.(._.                ",
"                    :.<.[.}.|.1.2.3.-.4.5.6.7.8.9.0.a.b.c.d.e.f.                ",
"                g.h.i.j.-.-.k.l.m.n.-.o.p.q.r.s.t.u.v.w.x.y.z.A.+               ",
"                  B.C.D.E.F.G.H.I.3.-.n.J.K.L.M.N.O.P.Q.R.S.T.U.V.              ",
"              g.W.X.Y.Z.`. +.+++@+#+-.$+%+&+*+=+-+;+>+,+'+)+!+~+=               ",
"              g.{+]+^+/+(+_+:+<+[+-.}+|+1+2+3+4+5+6+7+8+9+0+a+b+g.              ",
"              c+d+e+f+g+h+i+j+k+l+E.m+n+o+p+q+r+s+t+u+v+w+x+y+z+A+              ",
"              u B+C+D+E+F+G+H+I+J+K+L+M+N+O+P+Q+R+S+T+U+V+W+X+Y+.               ",
"              Z+`+ @.@+@@@#@$@|.%@&@*@=@-@;@>@,@'@)@!@~@{@]@^@/@.               ",
"              . (@_@:@<@[@}@|@1@2@3@4@5@6@7@8@9@0@a@b@c@d@e@f@/@.               ",
"                g@h@i@j@k@l@m@n@o@p@q@r@s@t@u@v@w@x@y@z@A@B@C@D@.               ",
"              = E@F@G@H@I@J@K@L@M@N@O@P@Q@R@S@T@U@V@W@X@Y@Z@`@ #Z+              ",
"              = .#+#@###$#%#&#*#=#-#;#>#,#'#)#!#~#{#]#^#/#(#_#:#g.              ",
"                <#[#}#|#1#2#3#4#5#6#7#8#9#0#a#b#c#d#e#f#g#h#i#j#k#              ",
"              g.l#m#n#o#p#q#r#s#t#u#v#w#x#y#z#A#B#C#D#E#F#G#H#f.                ",
"              . I#J#K#L#M#N#O#P#Q#R#S#T#U#V#W#X#Y#Z#`# $.$+$@$#$                ",
"              . $$%$&$*$=$-$;$>$,$'$)$!$~${$]$^$/$($_$:$<$[$}$|$                ",
"              + 1$2$3$4$5$6$7$8$9$0$a$b$c$d$e$f$g$h$i$j$G#k$l$=                 ",
"              Z+m$n$o$p$q$r$s$t$u$v$w$x$y$z$A$B$C$D$E$F$G$H$I$                  ",
"                J$K$L$M$N$O$P$Q$R$S$T$U$V$W$W#X$Y$Z$`$ %.%+%@%                  ",
"                #%$%%%&%*%=%-%;%>%,%'%)%!%~%X#{%]%^%/%(%_%:%                    ",
"              <%[%}%|%1%2%3%4%5%6%7%8%9%0%a%b%c%d%e%f%g%h%f.                    ",
"              <%i%j%k%l%m%n%o%p%q%r%s%t%u%v%w%x%E#y%z%A%B%C%                    ",
"              D%E%F%G%H%I%J%K%L%M%N%O%P%Q%R%S%T%U%V%W%X%Y%Z%.                   ",
"                `% &.&+&@&#&$&%&&&*&=&-&;&>&,&'&)&'&!&~&{&]&^&                  ",
"                g./&(&_&:&<&[&}&|&1&2&3&4&5&6&7&8&9&0&a&b&c&+                   ",
"                  d&+ k#e&f&g&h&i&j&k&l&m&n&o&p&q&r&=   Z++                     ",
"                        g.J$i%s&t&u&v&w&x&y&z&A&B&                              ",
"                          @%C&D&E&F&G&H&I&J&k#                                  ",
"                                g.C&K&L&t                                       "};
