/* XPM */
static char * tcan1_xpm[] = {
"40 40 585 2",
"  	c #AEAEAE",
". 	c #AEAFAE",
"+ 	c #AFAFAE",
"@ 	c #AFAFAF",
"# 	c #ADADAD",
"$ 	c #ADACAC",
"% 	c #A8A7A8",
"& 	c #A7A7A8",
"* 	c #A5A6A6",
"= 	c #A4A4A5",
"- 	c #A1A1A2",
"; 	c #A1A1A1",
"> 	c #9FA0A0",
", 	c #9E9EA0",
"' 	c #9E9FA0",
") 	c #AAA9A9",
"! 	c #B0AFAF",
"~ 	c #B0B0B0",
"{ 	c #ABACAC",
"] 	c #A6A8A9",
"^ 	c #9FA0A1",
"/ 	c #959699",
"( 	c #8F9094",
"_ 	c #939397",
": 	c #95969A",
"< 	c #8E8F94",
"[ 	c #888A91",
"} 	c #898C92",
"| 	c #87898F",
"1 	c #808387",
"2 	c #797A7D",
"3 	c #6E7073",
"4 	c #666A6C",
"5 	c #6A6E72",
"6 	c #727376",
"7 	c #66696A",
"8 	c #6C6D6F",
"9 	c #858686",
"0 	c #A2A3A3",
"a 	c #ACACAC",
"b 	c #A7A7A7",
"c 	c #777777",
"d 	c #78787B",
"e 	c #909094",
"f 	c #A4A3A5",
"g 	c #AAABAD",
"h 	c #A3A4A7",
"i 	c #A3A2A6",
"j 	c #A6A5A9",
"k 	c #ACAAAF",
"l 	c #A4A3A7",
"m 	c #9F9FA3",
"n 	c #9D9FA4",
"o 	c #979A9F",
"p 	c #999B9F",
"q 	c #91959A",
"r 	c #82868A",
"s 	c #6F7377",
"t 	c #5E6164",
"u 	c #515658",
"v 	c #4A4D50",
"w 	c #34383A",
"x 	c #5F6265",
"y 	c #ADADAE",
"z 	c #A1A0A0",
"A 	c #54524E",
"B 	c #5C5B57",
"C 	c #7B7877",
"D 	c #6D6A68",
"E 	c #646261",
"F 	c #6D6B6D",
"G 	c #767577",
"H 	c #7D7C7F",
"I 	c #7E7D82",
"J 	c #7A7A7F",
"K 	c #5F5F63",
"L 	c #5D5D5E",
"M 	c #7C7B7A",
"N 	c #908D8C",
"O 	c #817F7F",
"P 	c #72716E",
"Q 	c #5A5851",
"R 	c #55554E",
"S 	c #545452",
"T 	c #5C5C5D",
"U 	c #676668",
"V 	c #9B9C9E",
"W 	c #BBBCBD",
"X 	c #A9A8A8",
"Y 	c #7A7774",
"Z 	c #716D67",
"` 	c #93948F",
" .	c #9C9B9A",
"..	c #A5A5A3",
"+.	c #B4B1AE",
"@.	c #B8B5B0",
"#.	c #C5BEB9",
"$.	c #B8B2AD",
"%.	c #ADA9A2",
"&.	c #A39F9A",
"*.	c #95918D",
"=.	c #958E87",
"-.	c #8E8984",
";.	c #8B8782",
">.	c #9C9894",
",.	c #A59D9A",
"'.	c #9B9292",
").	c #969492",
"!.	c #939594",
"~.	c #8A8B8D",
"{.	c #BBBCBF",
"].	c #B8B8B9",
"^.	c #A09F9D",
"/.	c #8F8B88",
"(.	c #A6A6A5",
"_.	c #BABDBC",
":.	c #C7C6CB",
"<.	c #D5D3D2",
"[.	c #D3D0CD",
"}.	c #DCD3CD",
"|.	c #D6CBC5",
"1.	c #CDC8BD",
"2.	c #D0C9C0",
"3.	c #C9C3BC",
"4.	c #B4ADA9",
"5.	c #9A9694",
"6.	c #959392",
"7.	c #A5A2A1",
"8.	c #B9B0B2",
"9.	c #C0B8BB",
"0.	c #B5B3B3",
"a.	c #A3A2A3",
"b.	c #919092",
"c.	c #B8B9BC",
"d.	c #B4B5B5",
"e.	c #ABABAB",
"f.	c #A3A3A3",
"g.	c #BBBAB8",
"h.	c #BCBBBC",
"i.	c #D4D5D6",
"j.	c #E4E4E6",
"k.	c #E8E6E7",
"l.	c #E5E4E4",
"m.	c #E6E3E0",
"n.	c #DAD6D3",
"o.	c #E0DDDB",
"p.	c #DAD5D3",
"q.	c #CCC8C3",
"r.	c #B7B2B0",
"s.	c #A19C9C",
"t.	c #A4A2A2",
"u.	c #C3C0BD",
"v.	c #FCF5F4",
"w.	c #FFFDFE",
"x.	c #E4E1E4",
"y.	c #D1CFD1",
"z.	c #A8A7A9",
"A.	c #B0AFB0",
"B.	c #A9A9A9",
"C.	c #BDBDBB",
"D.	c #B9B8B6",
"E.	c #C8C6C5",
"F.	c #FCFDFC",
"G.	c #FFFFFF",
"H.	c #FEFDFE",
"I.	c #FFFEFF",
"J.	c #F7F5F6",
"K.	c #EDEDED",
"L.	c #E8E5E4",
"M.	c #E8E3E0",
"N.	c #EBE3E0",
"O.	c #E8E2DE",
"P.	c #D8D6D2",
"Q.	c #E6E5E4",
"R.	c #DADAD9",
"S.	c #A7A5A6",
"T.	c #ABABAC",
"U.	c #C5C4C3",
"V.	c #C6C5C3",
"W.	c #B4B1B1",
"X.	c #ACABA9",
"Y.	c #E6E5E5",
"Z.	c #FCFAFB",
"`.	c #CFD0D5",
" +	c #E4E5E7",
".+	c #F2F2F2",
"++	c #D4D7DA",
"@+	c #D8DADC",
"#+	c #D9D8D9",
"$+	c #A6A4A3",
"%+	c #8E8B89",
"&+	c #817F7D",
"*+	c #757675",
"=+	c #7A7B79",
"-+	c #B2B3B1",
";+	c #A5A3A3",
">+	c #9B9899",
",+	c #B0B0B1",
"'+	c #B1B2B1",
")+	c #ADAEAE",
"!+	c #AEADAE",
"~+	c #989390",
"{+	c #DBDAD9",
"]+	c #FEFFFF",
"^+	c #BFC2C4",
"/+	c #E2E4E5",
"(+	c #FEFEFE",
"_+	c #C7CACF",
":+	c #BBBCBE",
"<+	c #A3A3A5",
"[+	c #575558",
"}+	c #5E5C5D",
"|+	c #636261",
"1+	c #686A6A",
"2+	c #757779",
"3+	c #AFAFAD",
"4+	c #A1A2A0",
"5+	c #999997",
"6+	c #B1B1B1",
"7+	c #99999B",
"8+	c #A09F9E",
"9+	c #969189",
"0+	c #CAC8C3",
"a+	c #E3E6E7",
"b+	c #B7B8BA",
"c+	c #DCDEE0",
"d+	c #BEC0C4",
"e+	c #9B9D9E",
"f+	c #959395",
"g+	c #615B5C",
"h+	c #656262",
"i+	c #626160",
"j+	c #656867",
"k+	c #787B7A",
"l+	c #9E9F9E",
"m+	c #8F8E8D",
"n+	c #999996",
"o+	c #B1B1B2",
"p+	c #A8A8A8",
"q+	c #939294",
"r+	c #908F8D",
"s+	c #928D85",
"t+	c #B8B4AB",
"u+	c #CDCECD",
"v+	c #B3B4B5",
"w+	c #D6DADD",
"x+	c #BCBEC0",
"y+	c #7D8083",
"z+	c #918F90",
"A+	c #706364",
"B+	c #656362",
"C+	c #5C5D5B",
"D+	c #656A68",
"E+	c #7A7D7E",
"F+	c #909190",
"G+	c #7E7C7C",
"H+	c #A2A09E",
"I+	c #AEAFAF",
"J+	c #838484",
"K+	c #81817E",
"L+	c #8C8882",
"M+	c #B3ADA4",
"N+	c #D0D1CF",
"O+	c #B8B9B9",
"P+	c #B6BBBB",
"Q+	c #717377",
"R+	c #9D9898",
"S+	c #7A6D6B",
"T+	c #635F5F",
"U+	c #5A5B5A",
"V+	c #696D6C",
"W+	c #7D8180",
"X+	c #818282",
"Y+	c #777774",
"Z+	c #ABA9A7",
"`+	c #B2B2B2",
" @	c #7D8080",
".@	c #737272",
"+@	c #84807A",
"@@	c #ACA59D",
"#@	c #D7DADA",
"$@	c #B7BBBD",
"%@	c #DCDFE2",
"&@	c #BBBEC0",
"*@	c #6B6D6E",
"=@	c #969190",
"-@	c #7B6E6D",
";@	c #595C5B",
">@	c #676E6D",
",@	c #7E8383",
"'@	c #6E7170",
")@	c #6F6E6C",
"!@	c #B0B1AF",
"~@	c #AEAEAF",
"{@	c #7D7E7E",
"]@	c #686767",
"^@	c #7D7974",
"/@	c #A0998E",
"(@	c #EBEDEC",
"_@	c #BFC1C2",
":@	c #DFE2E3",
"<@	c #C2C4C5",
"[@	c #676869",
"}@	c #898585",
"|@	c #776E6D",
"1@	c #605E5B",
"2@	c #575A59",
"3@	c #686E6F",
"4@	c #797C7D",
"5@	c #626565",
"6@	c #6F706C",
"7@	c #B3B3B3",
"8@	c #858685",
"9@	c #5C5D5D",
"0@	c #706D6A",
"a@	c #8D867C",
"b@	c #F1F0EE",
"c@	c #C6C8C9",
"d@	c #DFE0E2",
"e@	c #FEFFFE",
"f@	c #BDBFC0",
"g@	c #636565",
"h@	c #838282",
"i@	c #757071",
"j@	c #5D5956",
"k@	c #565857",
"l@	c #696F6F",
"m@	c #6C6F71",
"n@	c #575858",
"o@	c #777674",
"p@	c #B3B2B2",
"q@	c #959595",
"r@	c #58595A",
"s@	c #696664",
"t@	c #7B766E",
"u@	c #E2E1DE",
"v@	c #C0C2C3",
"w@	c #D7D8D7",
"x@	c #F5F8F7",
"y@	c #B7B9BC",
"z@	c #676968",
"A@	c #838384",
"B@	c #757373",
"C@	c #5A5853",
"D@	c #555755",
"E@	c #676C6D",
"F@	c #616464",
"G@	c #4F5250",
"H@	c #848282",
"I@	c #B1B2B2",
"J@	c #9F9F9F",
"K@	c #575959",
"L@	c #64635F",
"M@	c #726E67",
"N@	c #C9C9C4",
"O@	c #B8B8B8",
"P@	c #CCCDCC",
"Q@	c #E7EAEB",
"R@	c #B3B5B7",
"S@	c #71706F",
"T@	c #737273",
"U@	c #575652",
"V@	c #535652",
"W@	c #666968",
"X@	c #5B5D5B",
"Y@	c #4E504E",
"Z@	c #949593",
"`@	c #606261",
" #	c #656461",
".#	c #6B6661",
"+#	c #B2B1AD",
"@#	c #AFB0AE",
"##	c #BEBFBD",
"$#	c #DADCDC",
"%#	c #A7AAAA",
"&#	c #656563",
"*#	c #7D7D7E",
"=#	c #6C6B6B",
"-#	c #575451",
";#	c #555653",
">#	c #636564",
",#	c #515353",
"'#	c #4F5150",
")#	c #A2A3A2",
"!#	c #6C6E6E",
"~#	c #6A6967",
"{#	c #6A6863",
"]#	c #A2A19D",
"^#	c #ABABA9",
"/#	c #B3B1B0",
"(#	c #D0D0CF",
"_#	c #A1A2A2",
":#	c #575855",
"<#	c #737574",
"[#	c #636361",
"}#	c #565552",
"|#	c #5A5A57",
"1#	c #646663",
"2#	c #535454",
"3#	c #585857",
"4#	c #787777",
"5#	c #6D6C6C",
"6#	c #6E6B68",
"7#	c #9D9C98",
"8#	c #B2B2AF",
"9#	c #ADADAB",
"0#	c #C1C2C0",
"a#	c #9B9B9A",
"b#	c #565755",
"c#	c #6E6F6D",
"d#	c #5E5D5C",
"e#	c #616261",
"f#	c #676666",
"g#	c #555655",
"h#	c #696966",
"i#	c #848284",
"j#	c #6E6F6E",
"k#	c #73706B",
"l#	c #999692",
"m#	c #B7B4B3",
"n#	c #A6A6A3",
"o#	c #B4B5B3",
"p#	c #949693",
"q#	c #5D5B59",
"r#	c #676766",
"s#	c #585756",
"t#	c #565452",
"u#	c #656564",
"v#	c #626563",
"w#	c #585A59",
"x#	c #747471",
"y#	c #908F8F",
"z#	c #6D6C6A",
"A#	c #75736E",
"B#	c #92918A",
"C#	c #B5B3AF",
"D#	c #999896",
"E#	c #A8AAA6",
"F#	c #8F928F",
"G#	c #615F5C",
"H#	c #5D5C5B",
"I#	c #525351",
"J#	c #575755",
"K#	c #666766",
"L#	c #616362",
"M#	c #5B5A59",
"N#	c #83817E",
"O#	c #979898",
"P#	c #6A6966",
"Q#	c #777570",
"R#	c #AAA8A3",
"S#	c #908F8B",
"T#	c #9A9C98",
"U#	c #8C8B89",
"V#	c #66645F",
"W#	c #5B5956",
"X#	c #525250",
"Y#	c #5B5A57",
"Z#	c #676868",
"`#	c #616162",
" $	c #585A57",
".$	c #AFAFB0",
"+$	c #6B6A66",
"@$	c #787671",
"#$	c #837E79",
"$$	c #999591",
"%$	c #898781",
"&$	c #878784",
"*$	c #7E7E78",
"=$	c #686761",
"-$	c #61605A",
";$	c #585855",
">$	c #5A5B59",
",$	c #636563",
"'$	c #5B5D5D",
")$	c #575753",
"!$	c #9B9A9A",
"~$	c #A4A4A4",
"{$	c #71726E",
"]$	c #787670",
"^$	c #807C75",
"/$	c #918D88",
"($	c #817E79",
"_$	c #706F6D",
":$	c #686764",
"<$	c #6C6864",
"[$	c #63635E",
"}$	c #585A56",
"|$	c #575956",
"1$	c #5E605D",
"2$	c #585859",
"3$	c #5C5A58",
"4$	c #A4A3A2",
"5$	c #7C7B79",
"6$	c #7B7873",
"7$	c #7F7C74",
"8$	c #928D87",
"9$	c #828077",
"0$	c #676562",
"a$	c #585656",
"b$	c #6E6C66",
"c$	c #62625E",
"d$	c #565754",
"e$	c #565856",
"f$	c #5F6060",
"g$	c #585959",
"h$	c #676462",
"i$	c #A8A7A6",
"j$	c #888884",
"k$	c #7B7973",
"l$	c #807D74",
"m$	c #938F87",
"n$	c #8D8981",
"o$	c #676561",
"p$	c #73706A",
"q$	c #636260",
"r$	c #5A5A59",
"s$	c #5A5C5B",
"t$	c #626361",
"u$	c #5B5D5A",
"v$	c #72716D",
"w$	c #ABAAA9",
"x$	c #8E8E8B",
"y$	c #79776F",
"z$	c #807D77",
"A$	c #949089",
"B$	c #8F8B83",
"C$	c #837F78",
"D$	c #78746F",
"E$	c #797770",
"F$	c #646563",
"G$	c #5D605F",
"H$	c #5F6161",
"I$	c #636664",
"J$	c #5E5D5B",
"K$	c #7E7C7A",
"L$	c #939290",
"M$	c #76726C",
"N$	c #7E7B75",
"O$	c #959089",
"P$	c #8C8881",
"Q$	c #858279",
"R$	c #848179",
"S$	c #7D7B75",
"T$	c #686968",
"U$	c #646666",
"V$	c #6B6D6B",
"W$	c #63635F",
"X$	c #91918E",
"Y$	c #A4A5A4",
"Z$	c #817F7A",
"`$	c #7A7770",
" %	c #928F87",
".%	c #908C85",
"+%	c #84847A",
"@%	c #7C7972",
"#%	c #6D6E6C",
"$%	c #6C6E6F",
"%%	c #737573",
"&%	c #757472",
"*%	c #AAAAAA",
"=%	c #817F79",
"-%	c #8E8B84",
";%	c #918D85",
">%	c #85837C",
",%	c #83817A",
"'%	c #71726F",
")%	c #6F716F",
"!%	c #787674",
"~%	c #949392",
"{%	c #B3B3B4",
"]%	c #B0B1B1",
"^%	c #8D8A84",
"/%	c #8E8983",
"(%	c #86837C",
"_%	c #827F79",
":%	c #78766F",
"<%	c #6B6B68",
"[%	c #858480",
"}%	c #AEADAD",
"|%	c #A09E9C",
"1%	c #92908D",
"2%	c #83817C",
"3%	c #878783",
"4%	c #A6A5A4",
"                                                                                ",
"                                                                                ",
"                              . + @ @ @ @ @ @ @ @                               ",
"                    .     # $ % & * = - ; - > , ' )       ! ~                   ",
"                    { ] ^ / ( _ : < [ } | 1 2 3 4 5 6 7 8 9 0 a                 ",
"              @ b c d e f g h i j k l m n o p q r s t u v w x y @               ",
"              ~ z A B C D E F G H I J K L M N O P Q R S T U V W                 ",
"              @ X Y Z `  ...+.@.#.$.%.&.*.=.-.;.>.,.'.).!.~.{.].#               ",
"                  ^./.(._.:.<.[.}.|.1.2.3.4.5.6.7.8.9.0.a.b.c.d.#               ",
"                e.f.g.h.i.j.k.l.m.n.o.p.q.r.s.t.u.v.w.x.y.z.A.@                 ",
"                  B.C.D.E.F.G.G.G.H.I.H.J.K.L.M.N.O.P.Q.R.S.T.                  ",
"                  T.U.V.W.X.Y.Z.`. +.+++@+#+$+%+&+*+=+-+;+>+,+                  ",
"                  # '+)+!+~+{+]+^+/+(+_+:+<+[+}+|+1+2+3+4+5+6+                  ",
"                  @ b 7+8+9+0+a+b+c+G.d+e+f+g+h+i+j+k+l+m+n+o+                  ",
"                  @ p+q+r+s+t+u+v+w+G.x+y+z+A+B+C+D+E+F+G+H+~                   ",
"                  I+# J+K+L+M+N+O+@+G.P+Q+R+S+T+U+V+W+X+Y+Z+@                   ",
"                    `+ @.@+@@@#@$@%@G.&@*@=@-@T+;@>@,@'@)@!@~@                  ",
"                    `+{@]@^@/@(@_@:@G.<@[@}@|@1@2@3@4@5@6@7@                    ",
"                    6+8@9@0@a@b@c@d@e@f@g@h@i@j@k@l@m@n@o@p@                    ",
"                    ~ q@r@s@t@u@v@w@x@y@z@A@B@C@D@E@F@G@H@I@                    ",
"                    @ J@K@L@M@N@O@P@Q@R@S@9 T@U@V@W@X@Y@Z@~                     ",
"                    I+) `@ #.#+#@###$#%#&#*#=#-#;#>#,#'#)#@                     ",
"                        !#~#{#]#^#/#(#_#:#<#[#}#|#1#2#3#{                       ",
"                      y 4#5#6#7#8#9#0#a#b#c#d#}#e#f#g#h#                        ",
"                        i#j#k#l#m#n#o#p#q#r#s#t#u#v#w#x#                        ",
"                      @ y#z#A#B#C#D#E#F#G#H#I#J#K#L#M#N#                        ",
"                      @ O#P#Q#;.R#S#T#U#V#W#X#Y#Z#`# $r+@                       ",
"                      .$; +$@$#$$$%$&$*$=$-$;$>$,$'$)$!$.$                      ",
"                      @ ~${$]$^$/$($_$:$<$[$}$|$1$2$3$4$~                       ",
"                      @ b 5$6$7$8$9$0$a$b$c$d$e$f$g$h$i$@                       ",
"                        a j$k$l$m$n$]$o$p$q$r$s$t$u$v$w$@                       ",
"                        @ x$y$z$A$B$C$D$E$F$G$H$I$J$K$# @                       ",
"                        ,+L$M$N$O$P$Q$R$S$T$U$W@V$W$X$o+                        ",
"                        ~ Y$Z$`$ %.%+%R$@%#%$%%%P &%*%.$                        ",
"                          6+X =%-%;%>%,%6$'%)%!%@$~%{%                          ",
"                            ]%i$^%/%(%_%:%<%6@[%8+                              ",
"                              @ }%X.|%1%2%3%4%+ @                               ",
"                                    @ ]%`+o+@                                   ",
"                                                                                ",
"                                                                                "};
