/* XPM */
static char * tlight_xpm[] = {
"40 40 597 2",
"  	c #AEAEAE",
". 	c #ADADAC",
"+ 	c #AFAFAF",
"@ 	c #ADACAB",
"# 	c #B8BDC8",
"$ 	c #A1A2A7",
"% 	c #ACABAA",
"& 	c #C6CEDD",
"* 	c #9298A3",
"= 	c #B0B0AF",
"- 	c #ACACA9",
"; 	c #BAC2D4",
"> 	c #9197A2",
", 	c #AEADAB",
"' 	c #B1BCD6",
") 	c #8C92A0",
"! 	c #B1B0AF",
"~ 	c #AEAFAF",
"{ 	c #AFAFB0",
"] 	c #AEAFB1",
"^ 	c #AFB0AE",
"/ 	c #ADB8D1",
"( 	c #8F95A1",
"_ 	c #B2B2B1",
": 	c #AFB0B1",
"< 	c #AEAEAF",
"[ 	c #AEB0B2",
"} 	c #AFB2B7",
"| 	c #AEACAB",
"1 	c #B2A593",
"2 	c #AF9062",
"3 	c #A87634",
"4 	c #624523",
"5 	c #8B7E6F",
"6 	c #A4A19F",
"7 	c #AEB1B6",
"8 	c #B0B1B3",
"9 	c #B3B5B6",
"0 	c #AEB0B3",
"a 	c #B0B3B8",
"b 	c #ACA79F",
"c 	c #A99479",
"d 	c #A28051",
"e 	c #795F40",
"f 	c #87530E",
"g 	c #985807",
"h 	c #A5640F",
"i 	c #583004",
"j 	c #532B00",
"k 	c #735125",
"l 	c #A48D6E",
"m 	c #927B5F",
"n 	c #958D86",
"o 	c #B1B0B1",
"p 	c #B5B7BA",
"q 	c #AFB0B0",
"r 	c #ACA08E",
"s 	c #A57E47",
"t 	c #A16E26",
"u 	c #9E5E09",
"v 	c #9A5A05",
"w 	c #4D2800",
"x 	c #4C2B04",
"y 	c #573308",
"z 	c #84510D",
"A 	c #7B4A0C",
"B 	c #8A550D",
"C 	c #985D0D",
"D 	c #9D5C05",
"E 	c #6E3D00",
"F 	c #482B0A",
"G 	c #695139",
"H 	c #847868",
"I 	c #A8A8A4",
"J 	c #AFAFAE",
"K 	c #ABABAC",
"L 	c #9C9EA3",
"M 	c #A4A9B4",
"N 	c #A0968B",
"O 	c #997B59",
"P 	c #9C7B55",
"Q 	c #9C6A27",
"R 	c #9A5F0F",
"S 	c #553107",
"T 	c #532F06",
"U 	c #4E2D06",
"V 	c #7A4B0C",
"W 	c #8A540E",
"X 	c #9D610F",
"Y 	c #A16311",
"Z 	c #9F6310",
"` 	c #754609",
" .	c #432502",
"..	c #52381D",
"+.	c #574029",
"@.	c #948F8A",
"#.	c #AFB1B3",
"$.	c #ADAEAE",
"%.	c #B0B0B0",
"&.	c #8A8D91",
"*.	c #3C4252",
"=.	c #475164",
"-.	c #7B778D",
";.	c #8796B1",
">.	c #8893AD",
",.	c #8793AD",
"'.	c #946A36",
").	c #532F04",
"!.	c #533006",
"~.	c #502D07",
"{.	c #7C4B0C",
"].	c #88520D",
"^.	c #9A5E10",
"/.	c #9E600E",
"(.	c #7D5018",
"_.	c #9A9BAA",
":.	c #C5D4F9",
"<.	c #B2C0E0",
"[.	c #B0C7E8",
"}.	c #798399",
"|.	c #495061",
"1.	c #7D7E84",
"2.	c #B0AFAF",
"3.	c #6B717C",
"4.	c #434C5D",
"5.	c #424E5F",
"6.	c #C23036",
"7.	c #A86575",
"8.	c #7187A1",
"9.	c #75819C",
"0.	c #826E59",
"a.	c #543107",
"b.	c #522F06",
"c.	c #502E07",
"d.	c #7C4C0B",
"e.	c #995E0F",
"f.	c #9E6311",
"g.	c #9C5F0B",
"h.	c #8B6233",
"i.	c #C5D7FD",
"j.	c #C3D0F3",
"k.	c #C6D8FD",
"l.	c #B87F95",
"m.	c #374353",
"n.	c #383F4E",
"o.	c #686C77",
"p.	c #8F9198",
"q.	c #3E4E61",
"r.	c #674A59",
"s.	c #F52222",
"t.	c #F72425",
"u.	c #815B6D",
"v.	c #586B81",
"w.	c #686365",
"x.	c #543007",
"y.	c #89530E",
"z.	c #996010",
"A.	c #9E6211",
"B.	c #9D600C",
"C.	c #9B7B55",
"D.	c #BBCDF3",
"E.	c #AEC6E8",
"F.	c #D87E92",
"G.	c #EB191C",
"H.	c #7B798F",
"I.	c #6D7992",
"J.	c #92959F",
"K.	c #A2A3A5",
"L.	c #4A5C6D",
"M.	c #7D3F4C",
"N.	c #F71D1E",
"O.	c #FF1614",
"P.	c #B53139",
"Q.	c #3E596E",
"R.	c #575455",
"S.	c #533108",
"T.	c #532F07",
"U.	c #502F07",
"V.	c #7C4B0B",
"W.	c #87530D",
"X.	c #995F0F",
"Y.	c #9F6411",
"Z.	c #97754D",
"`.	c #A7BEE5",
" +	c #ABA8C5",
".+	c #F32428",
"++	c #E41417",
"@+	c #A7839A",
"#+	c #96AAC4",
"$+	c #ACADB1",
"%+	c #B1B0B0",
"&+	c #8A929A",
"*+	c #6E5A6A",
"=+	c #EA1B20",
"-+	c #FF0B0D",
";+	c #E41719",
">+	c #893141",
",+	c #705137",
"'+	c #523107",
")+	c #512E06",
"!+	c #7D4C0C",
"~+	c #87520D",
"{+	c #995E10",
"]+	c #9E6111",
"^+	c #9C610D",
"/+	c #855D2B",
"(+	c #A691AE",
"_+	c #D04D5A",
":+	c #DE0A0A",
"<+	c #CB1B1F",
"[+	c #B4A3BF",
"}+	c #ABB6C4",
"|+	c #AEAEAD",
"1+	c #9BA6AD",
"2+	c #BB5540",
"3+	c #C80F09",
"4+	c #C00004",
"5+	c #BE1805",
"6+	c #9F570B",
"7+	c #543206",
"8+	c #502E06",
"9+	c #7D4B0C",
"0+	c #7B4809",
"a+	c #950B00",
"b+	c #D10002",
"c+	c #B90606",
"d+	c #B04E4E",
"e+	c #B2BAC5",
"f+	c #AEB0B1",
"g+	c #B2B5B8",
"h+	c #A1824B",
"i+	c #974A04",
"j+	c #963700",
"k+	c #9B580C",
"l+	c #955F0F",
"m+	c #553006",
"n+	c #533107",
"o+	c #7D4B0B",
"p+	c #89530D",
"q+	c #9F6211",
"r+	c #A06211",
"s+	c #774B0C",
"t+	c #492304",
"u+	c #6D1400",
"v+	c #671A00",
"w+	c #85796A",
"x+	c #B1B2B2",
"y+	c #A18968",
"z+	c #9A8364",
"A+	c #998F79",
"B+	c #9D702E",
"C+	c #955B0B",
"D+	c #543108",
"E+	c #553008",
"F+	c #512E08",
"G+	c #88520C",
"H+	c #985E0F",
"I+	c #A06310",
"J+	c #9F6410",
"K+	c #794808",
"L+	c #482C0D",
"M+	c #676158",
"N+	c #605C54",
"O+	c #857D76",
"P+	c #AFB1B4",
"Q+	c #98999E",
"R+	c #798292",
"S+	c #8E99B4",
"T+	c #919BBF",
"U+	c #929CBA",
"V+	c #919EBC",
"W+	c #8F95A9",
"X+	c #936427",
"Y+	c #573106",
"Z+	c #553108",
"`+	c #522F07",
" @	c #86530D",
".@	c #975D0F",
"+@	c #7F4F13",
"@@	c #8F8E98",
"#@	c #C3D3F7",
"$@	c #ADB9D9",
"%@	c #AEBBDD",
"&@	c #9FABCA",
"*@	c #7E8797",
"=@	c #86878B",
"-@	c #616772",
";@	c #3B4358",
">@	c #646963",
",@	c #A4AC8A",
"'@	c #838EB3",
")@	c #838DA6",
"!@	c #7A88A6",
"~@	c #846B4F",
"{@	c #583508",
"]@	c #55320A",
"^@	c #533008",
"/@	c #88530C",
"(@	c #975D10",
"_@	c #9D5F0C",
":@	c #8B5F28",
"<@	c #BBCAEC",
"[@	c #C7D7FA",
"}@	c #C6D4F9",
"|@	c #C0CEEF",
"1@	c #959EAB",
"2@	c #4D566A",
"3@	c #545866",
"4@	c #ADADAD",
"5@	c #797D86",
"6@	c #3E4564",
"7@	c #83884A",
"8@	c #F0F129",
"9@	c #A2A879",
"0@	c #6A7496",
"a@	c #6D7890",
"b@	c #6E6563",
"c@	c #5A360D",
"d@	c #57350B",
"e@	c #54310A",
"f@	c #A06210",
"g@	c #9E600D",
"h@	c #997346",
"i@	c #BACDF3",
"j@	c #C0CFF0",
"k@	c #C3D1F4",
"l@	c #E2E46E",
"m@	c #ABA775",
"n@	c #8390B8",
"o@	c #9599A6",
"p@	c #A0A1A4",
"q@	c #484F71",
"r@	c #949747",
"s@	c #FFFF19",
"t@	c #ECED25",
"u@	c #737B6A",
"v@	c #535C7C",
"w@	c #5D585A",
"x@	c #5D3910",
"y@	c #59370D",
"z@	c #55320B",
"A@	c #7D4C0D",
"B@	c #87520E",
"C@	c #99774D",
"D@	c #ADBEE9",
"E@	c #ACBAEB",
"F@	c #DEE473",
"G@	c #FEF31A",
"H@	c #CBC38B",
"I@	c #A2B0DB",
"J@	c #ADAFB2",
"K@	c #898E9D",
"L@	c #7F866F",
"M@	c #F5F521",
"N@	c #FFFF10",
"O@	c #B0B139",
"P@	c #4F5766",
"Q@	c #685640",
"R@	c #613D15",
"S@	c #5C3910",
"T@	c #56340B",
"U@	c #7C4C0C",
"V@	c #87540C",
"W@	c #975D0E",
"X@	c #9F6210",
"Y@	c #8D612A",
"Z@	c #A7B5C6",
"`@	c #B5BEAD",
" #	c #FCF21E",
".#	c #FFDA19",
"+#	c #C2C4B7",
"@#	c #ADB4C5",
"##	c #AEADAC",
"$#	c #AEAFB7",
"%#	c #CEB839",
"&#	c #F7E208",
"*#	c #F8D90E",
"=#	c #C1A01E",
"-#	c #94611A",
";#	c #68441B",
">#	c #613D14",
",#	c #59370E",
"'#	c #7E4C0E",
")#	c #87520C",
"!#	c #975F0F",
"~#	c #9F610F",
"{#	c #80500F",
"]#	c #978125",
"^#	c #EFC91B",
"/#	c #E8B905",
"(#	c #C2A641",
"_#	c #AEAFB4",
":#	c #B0B4B8",
"<#	c #9F7241",
"[#	c #B1760C",
"}#	c #C1810A",
"|#	c #AD6C0B",
"1#	c #975D12",
"2#	c #6E4C21",
"3#	c #67431A",
"4#	c #5D3B13",
"5#	c #7E4E0D",
"6#	c #985D10",
"7#	c #A06311",
"8#	c #7A490B",
"9#	c #4C2800",
"0#	c #784B00",
"a#	c #653D01",
"b#	c #6E5D51",
"c#	c #B3B4B6",
"d#	c #AFB3B8",
"e#	c #A2773D",
"f#	c #995F17",
"g#	c #98652A",
"h#	c #9D5F0E",
"i#	c #985F13",
"j#	c #6E4C22",
"k#	c #66421A",
"l#	c #603D15",
"m#	c #7E4D0D",
"n#	c #87510C",
"o#	c #985D0F",
"p#	c #9E6210",
"q#	c #7E4E0B",
"r#	c #402000",
"s#	c #4C3827",
"t#	c #492F18",
"u#	c #73604C",
"v#	c #B3B4B5",
"w#	c #B2B1B1",
"x#	c #ACAFB6",
"y#	c #9F8D7D",
"z#	c #9799A7",
"A#	c #97A3BD",
"B#	c #9B7A55",
"C#	c #985E11",
"D#	c #755227",
"E#	c #6B471F",
"F#	c #5E3C13",
"G#	c #7E4C0D",
"H#	c #9E6310",
"I#	c #7A4905",
"J#	c #635042",
"K#	c #A7B1CB",
"L#	c #9BA7C5",
"M#	c #8B91A1",
"N#	c #A4A7AF",
"O#	c #AAABAC",
"P#	c #B1B1B1",
"Q#	c #9A9CA0",
"R#	c #9CA2B2",
"S#	c #9DA7C3",
"T#	c #95A2C3",
"U#	c #94A0BE",
"V#	c #909CB9",
"W#	c #8C98B5",
"X#	c #936830",
"Y#	c #775327",
"Z#	c #69471D",
"`#	c #613F15",
" $	c #7F4D0E",
".$	c #9D600E",
"+$	c #855619",
"@$	c #A1A8B9",
"#$	c #C6D6FC",
"$$	c #BDCAED",
"%$	c #AEBBDC",
"&$	c #A4B0D1",
"*$	c #919CB3",
"=$	c #878A93",
"-$	c #ACACAC",
";$	c #5C6270",
">$	c #576076",
",$	c #808DA1",
"'$	c #929DBB",
")$	c #8C97B2",
"!$	c #8792AC",
"~$	c #7E8CAC",
"{$	c #8D704E",
"]$	c #79542A",
"^$	c #6A481E",
"/$	c #634017",
"($	c #9E600C",
"_$	c #8F622A",
":$	c #B9C7E7",
"<$	c #C7D6FA",
"[$	c #C4D3F5",
"}$	c #C5D4F8",
"|$	c #B8C4E7",
"1$	c #6F758B",
"2$	c #ABABAB",
"3$	c #797D87",
"4$	c #424060",
"5$	c #5DA54C",
"6$	c #7DBE76",
"7$	c #838BA8",
"8$	c #77819A",
"9$	c #6F7993",
"0$	c #756D68",
"a$	c #755328",
"b$	c #6B481F",
"c$	c #613F17",
"d$	c #804D0F",
"e$	c #965D0F",
"f$	c #9F620F",
"g$	c #9A7241",
"h$	c #BBCEF5",
"i$	c #BECBED",
"j$	c #C7D2F9",
"k$	c #A6D2C3",
"l$	c #77B684",
"m$	c #A7ADD6",
"n$	c #A8ABB4",
"o$	c #A7A8AA",
"p$	c #6E6B89",
"q$	c #58A251",
"r$	c #66FF29",
"s$	c #6DB26D",
"t$	c #656985",
"u$	c #5F687F",
"v$	c #685F5A",
"w$	c #724F26",
"x$	c #68441C",
"y$	c #613F16",
"z$	c #7F4E0D",
"A$	c #936936",
"B$	c #AEC0E8",
"C$	c #B7C1E8",
"D$	c #AACCCA",
"E$	c #50C639",
"F$	c #7FB58E",
"G$	c #B9B7D2",
"H$	c #A7A4AB",
"I$	c #8FA591",
"J$	c #53E326",
"K$	c #45EE1F",
"L$	c #557B65",
"M$	c #474D72",
"N$	c #685641",
"O$	c #6F4B21",
"P$	c #68451D",
"Q$	c #5F3C13",
"R$	c #7D4E0E",
"S$	c #86530C",
"T$	c #895C21",
"U$	c #8B9EAE",
"V$	c #A4B9D4",
"W$	c #45B638",
"X$	c #379A1A",
"Y$	c #A7B0A7",
"Z$	c #B1AFB1",
"`$	c #B6B0BB",
" %	c #879851",
".%	c #5DA813",
"+%	c #3E8F1B",
"@%	c #576232",
"#%	c #885B1E",
"$%	c #69451A",
"%%	c #623E16",
"&%	c #58340B",
"*%	c #7B4703",
"=%	c #854C02",
"-%	c #955805",
";%	c #9E5F0A",
">%	c #A0610D",
",%	c #84500D",
"'%	c #494720",
")%	c #4A6930",
"!%	c #4C7530",
"~%	c #899C7E",
"{%	c #B4AFB5",
"]%	c #B1A7A8",
"^%	c #A8A296",
"/%	c #989265",
"(%	c #9A7223",
"_%	c #955C10",
":%	c #66431B",
"<%	c #6F5231",
"[%	c #85745F",
"}%	c #A19482",
"|%	c #A79B8D",
"1%	c #AA9A86",
"2%	c #A6875D",
"3%	c #A27331",
"4%	c #855416",
"5%	c #614C33",
"6%	c #8D8C7A",
"7%	c #A9A3A3",
"8%	c #B3AEB3",
"9%	c #AFAFB1",
"0%	c #B0AEAF",
"a%	c #AFAEAE",
"b%	c #A9A094",
"c%	c #A39E97",
"d%	c #AEABA9",
"e%	c #B0B0B1",
"f%	c #AEAFB0",
"                                                                                ",
"                                                                                ",
"                                      . +                                       ",
"                                    @ # $ +                                     ",
"                                    % & * =                                     ",
"                                    - ; > =                                     ",
"                                    , ' ) !                                     ",
"                              ~ { ] ^ / ( _ :   <                               ",
"                        < [ }   | 1 2 3 4 5 6 7 8 9 {                           ",
"                      0 a b c d e f g h i j k l m n o p {                       ",
"                  + q r s t u v w x y z A B C D E F G H I J                     ",
"                K L M N O P Q R S T U V W X Y Z `  ...+.@.#.$.                  ",
"              %.&.*.=.-.;.>.,.'.).!.~.{.].^.Z /.(._.:.<.[.}.|.1.2.              ",
"                3.4.5.6.7.8.9.0.a.b.c.d.].e.f.g.h.i.j.k.l.m.n.o.                ",
"              = p.q.r.s.t.u.v.w.x.T c.{.y.z.A.B.C.D.E.F.G.H.I.J.J               ",
"              = K.L.M.N.O.P.Q.R.S.T.U.V.W.X.Y./.Z.`. +.+++@+#+$+                ",
"                %+&+*+=+-+;+>+,+'+b.)+!+~+{+]+^+/+(+_+:+<+[+}+|+                ",
"                ~ < 1+2+3+4+5+6+7+!.8+9+y.{+Z f.0+a+b+c+d+e+f+|+                ",
"                    g+h+i+j+k+l+m+n+)+o+p+X.q+r+s+t+u+v+w+x+|+                  ",
"                + + } y+z+A+B+C+D+E+F+9+G+H+I+J+K+L+M+N+O+P++ +                 ",
"              + Q+R+S+T+U+V+W+X+Y+Z+`+o+ @.@r+/.+@@@#@$@%@&@*@=@                ",
"                -@;@>@,@'@)@!@~@{@]@^@!+/@(@q+_@:@<@[@}@|@1@2@3@4@              ",
"              + 5@6@7@8@9@0@a@b@c@d@e@!+W.H+f@g@h@i@j@k@l@m@n@o@                ",
"              = p@q@r@s@t@u@v@w@x@y@z@A@B@(@f@/.C@D@E@F@G@H@I@J@                ",
"                %.K@L@M@N@O@P@Q@R@S@T@U@V@W@X@B.Y@Z@`@ #.#+#@###                ",
"                  2.$#%#&#*#=#-#;#>#,#'#)#!#q+~#{#]#^#/#(#_#|+                  ",
"                    :#<#[#}#|#1#2#3#4#5#~+6#X@7#8#9#0#a#b#c#                    ",
"                    d#e#f#g#h#i#j#k#l#m#n#o#Z p#q#r#s#t#u#v#J                   ",
"                w#%.x#y#z#A#B#C#D#E#F#G#B@H+f.H#I#J#K#L#M#N#O#P#                ",
"              4@Q#R#S#T#U#V#W#X#Y#Z#`# $)#.@r+.$+$@$#$$$%$&$*$=$-$              ",
"              -$;$>$,$'$)$!$~${$]$^$/$m#~+H+I+($_$:$<$[$}$|$V#1$2$              ",
"              + 3$4$5$6$7$8$9$0$a$b$c$d$B@e$f$B.g$h$i$j$k$l$m$n$|+              ",
"              + o$p$q$r$s$t$u$v$w$x$y$z$].H+I+B.A$B$C$D$E$F$G$J                 ",
"                = H$I$J$K$L$M$N$O$P$Q$R$S$H+f@g@T$U$V$W$X$Y$Z$|+                ",
"                  = `$ %.%+%@%#%$%%%&%*%=%-%;%>%,%'%)%!%~%{%|+                  ",
"                    ~ ]%^%/%(%_%:%<%[%}%|%1%2%3%4%5%6%7%8%$.                    ",
"                      ~ 9%0%a%b%c%< + : : 9%~ |+d%  e%{                         ",
"                              f%{                                               ",
"                                                                                ",
"                                                                                "};
