<?xml version="1.0" encoding="utf-8"?>
<!-- Generator: Adobe Illustrator 15.0.0, SVG Export Plug-In . SVG Version: 6.00 Build 0)  -->
<!DOCTYPE svg PUBLIC "-//W3C//DTD SVG 1.1//EN" "http://www.w3.org/Graphics/SVG/1.1/DTD/svg11.dtd">
<svg version="1.1" id="Layer_1" xmlns="http://www.w3.org/2000/svg" xmlns:xlink="http://www.w3.org/1999/xlink" x="0px" y="0px"
	 width="960px" height="700px" viewBox="0 0 960 700" enable-background="new 0 0 960 600" xml:space="preserve">


<!--

	<linearGradient id="SVGID_1_" gradientUnits="userSpaceOnUse" x1="267.4321" y1="268.6494" x2="305.0889" y2="268.6494">
		<stop  offset="0" style="stop-color:#FFFFFF"/>
		<stop  offset="1" style="stop-color:#D9D9D9"/>
	</linearGradient>
	<circle fill="url(#SVGID_1_)" cx="286.26" cy="268.649" r="18.828"/>

-->
	
	<filter id="dropshadow" height="150%">
	  <feGaussianBlur in="SourceAlpha" stdDeviation="1"/> <!-- stdDeviation is how much to blur -->
		<feOffset dx="0" dy="1" result="offsetblur"/> <!-- how much to offset -->
		<feComponentTransfer>
			<feFuncA type="linear" slope="0.3"/>
		</feComponentTransfer>
		<feMerge> 
		  <feMergeNode/> <!-- this contains the offset blurred image -->
		  <feMergeNode in="SourceGraphic"/> <!-- this contains the element that the filter is applied to -->
	   </feMerge>
	</filter>

	<defs><!-- Grad -->
        <linearGradient y1="0%" y2="100%" x1="0" x2="0" id="myFillGrad" >
            <stop offset="0%" style="stop-color:#fff;stop-opacity:0.2" />
            <stop offset="100%" style="stop-color:#000;stop-opacity:0.6"  />
        </linearGradient>
        <linearGradient id="VertGrad" spreadMethod="pad" xlink:href="#myFillGrad" />
    </defs>

	<defs><!-- Grad -->
    <linearGradient id="FrontLinearGrad" gradientUnits="userSpaceOnUse">
		<stop  offset="0.0" style="stop-color:#000;stop-opacity:0"/>
		<stop  offset="0.2" style="stop-color:#fff;stop-opacity:0.5"/>
		<stop  offset="0.4" style="stop-color:#000;stop-opacity:0.2"/>
	</linearGradient>
    </defs>

	<defs><!-- Grad -->
    <linearGradient id="SideLinearGrad" gradientUnits="userSpaceOnUse">
		<stop  offset="0.5" style="stop-color:#000;stop-opacity:0.2"/>
		<stop  offset="0.7" style="stop-color:#fff;stop-opacity:0.5"/>
		<stop  offset="0.9" style="stop-color:#000;stop-opacity:0.2"/>
	</linearGradient>
    </defs>
		<defs><!-- Grad -->
	<radialGradient id="RadialGrad" >
		<stop  offset="0.3" style="stop-color:#000;stop-opacity:0"/>
		<stop  offset="0.7" style="stop-color:#000;stop-opacity:0.5"/>
	</radialGradient>
    </defs>

	<!-- ***************** Dalek Side ***************** -->



	<!-- Spheres Back -->

	<path fill="#1da8eb" d="M850.578,384.477c7.686-1.123,13.954,5.738,15.328,15.131c1.375,9.395-2.66,17.766-10.347,18.889	c-5.117,0.752-9.644-6.365-11.018-15.762C843.167,393.344,845.104,385.281,850.578,384.477z"/>
	<path fill="#1da8eb" d="M846.43,331.484c7.686-1.123,13.954,5.738,15.328,15.133c1.374,9.393-2.66,17.764-10.346,18.889	c-5.118,0.748-9.645-6.367-11.019-15.762C839.018,340.352,840.954,332.289,846.43,331.484z"/>
	<path fill="#1da8eb" d="M854.816,438.629c7.687-1.125,13.955,5.736,15.33,15.131c1.374,9.393-2.663,17.764-10.347,18.889	c-5.119,0.75-9.643-6.365-11.019-15.76C847.404,447.494,849.341,439.432,854.816,438.629z"/>
	<path fill="#1da8eb" d="M858.929,491.166c7.687-1.129,13.953,5.732,15.329,15.127c1.376,9.393-2.661,17.766-10.346,18.891	c-5.118,0.75-9.646-6.369-11.02-15.762C851.519,500.023,853.456,491.967,858.929,491.166z"/>
	
	<path fill="url(#RadialGrad)" d="M850.578,384.477c7.686-1.123,13.954,5.738,15.328,15.131c1.375,9.395-2.66,17.766-10.347,18.889	c-5.117,0.752-9.644-6.365-11.018-15.762C843.167,393.344,845.104,385.281,850.578,384.477z"/>
	<path fill="url(#RadialGrad)" d="M846.43,331.484c7.686-1.123,13.954,5.738,15.328,15.133c1.374,9.393-2.66,17.764-10.346,18.889	c-5.118,0.748-9.645-6.367-11.019-15.762C839.018,340.352,840.954,332.289,846.43,331.484z"/>
	<path fill="url(#RadialGrad)" d="M854.816,438.629c7.687-1.125,13.955,5.736,15.33,15.131c1.374,9.393-2.663,17.764-10.347,18.889	c-5.119,0.75-9.643-6.365-11.019-15.76C847.404,447.494,849.341,439.432,854.816,438.629z"/>
	<path fill="url(#RadialGrad)" d="M858.929,491.166c7.687-1.129,13.953,5.732,15.329,15.127c1.376,9.393-2.661,17.766-10.346,18.891	c-5.118,0.75-9.646-6.369-11.02-15.762C851.519,500.023,853.456,491.967,858.929,491.166z"/>

	<!-- Skirt -->	
	
	<polygon fill="#d5d5d5" points="496.2,547.589  590.736,307.246 845.897,307.246	867.903,547.72	"/><!-- Skirt Back -->
	<polygon fill="url(#SideLinearGrad)" opacity="0.5" points="496.2,547.589  590.736,307.246 845.897,307.246	867.903,547.72	"/><!-- Skirt Back -->

	<polygon fill="#000" opacity="0.1" points="845.897,307.628 867.903,547.72 822.053,547.72 820.082,547.72 820.082,547.217 802.238,307.628  	802.238,307.246 845.897,307.246 		"/>
	<polygon fill="#000" opacity="0" points="820.082,547.217 820.082,547.72 676.216,547.72 676.267,547.348 707.691,308 707.691,307.246  	802.238,307.246 802.238,307.628 		"/>
	<polygon fill="#000" opacity="0.1" points="707.691,307.246 707.691,308 676.267,547.348 676.216,547.72 603.705,547.72 654.914,308  	654.914,307.246 		"/>
	<polygon fill="#000" opacity="0.2" points="654.914,307.246 654.914,308 603.705,547.72 601.654,547.72 535.306,547.72 535.306,547.217  	611.627,307.246 		"/>
	<polygon fill="#000" opacity="0.3" points=" 590.736,307.246 611.627,307.246 535.306,547.217 535.306,547.72 531.988,547.72  	496.2,547.72 		"/>

	<rect x="485.436" y="541.633" fill="#202020" width="394.511" height="23.715" /><!-- Base -->
	<rect x="485.436" y="541.633" fill="url(#SideLinearGrad)" width="394.511" height="23.715" />
	
	<path fill="#202020" d="M888,630.913c0,3.914-3.173,7.087-7.087,7.087H474.087c-3.914,0-7.087-3.173-7.087-7.087v-62.826   c0-3.914,3.173-7.087,7.087-7.087h406.826c3.914,0,7.087,3.173,7.087,7.087V630.913z"/>
	<path fill="url(#SideLinearGrad)" opacity="0.4" d="M888,630.913c0,3.914-3.173,7.087-7.087,7.087H474.087c-3.914,0-7.087-3.173-7.087-7.087v-62.826   c0-3.914,3.173-7.087,7.087-7.087h406.826c3.914,0,7.087,3.173,7.087,7.087V630.913z"/>
	
	<!-- Spheres -->

	<path fill="#1da8eb" d="M681.313,404.055c-1.512,9.373-8.981,15.965-18.297,14.463c-9.312-1.502-15.638-10.316-14.126-19.691 c1.511-9.373,10.286-15.754,19.6-14.252C677.806,386.076,682.825,394.682,681.313,404.055z"/>
	<path fill="#1da8eb" d="M689.743,351.066c-1.511,9.373-8.979,15.963-18.295,14.461c-9.313-1.5-15.637-10.316-14.126-19.689 c1.512-9.373,10.287-15.756,19.6-14.254C686.237,333.086,691.255,341.693,689.743,351.066z"/>
	<path fill="#1da8eb" d="M672.691,458.209c-1.511,9.371-8.979,15.965-18.296,14.463c-9.313-1.502-15.637-10.318-14.126-19.691 c1.512-9.375,10.287-15.756,19.6-14.254C669.184,440.229,674.203,448.834,672.691,458.209z"/>
	<path fill="#1da8eb" d="M664.328,510.742c-1.512,9.375-8.979,15.967-18.296,14.465c-9.313-1.502-15.637-10.316-14.125-19.691 c1.511-9.373,10.285-15.756,19.599-14.254C660.822,492.764,665.839,501.369,664.328,510.742z"/>
	<path fill="#1da8eb" d="M818.372,403.248c0.692,9.4,7.107,16.314,15.842,15.258c8.729-1.057,15.247-9.533,14.554-18.934 c-0.691-9.4-8.332-16.166-17.063-15.107C822.972,385.52,817.678,393.848,818.372,403.248z"/>
	<path fill="#1da8eb" d="M814.51,350.26c0.692,9.4,7.107,16.313,15.841,15.256c8.729-1.055,15.247-9.531,14.554-18.932 c-0.692-9.398-8.332-16.166-17.063-15.111C819.108,332.529,813.816,340.859,814.51,350.26z"/>
	<path fill="#1da8eb" d="M822.322,457.402c0.693,9.4,7.106,16.314,15.842,15.258c8.729-1.055,15.247-9.533,14.554-18.934 c-0.692-9.402-8.332-16.166-17.063-15.109C826.923,439.672,821.629,448,822.322,457.402z"/>
	<path fill="#1da8eb" d="M826.155,509.938c0.692,9.402,7.106,16.314,15.84,15.258c8.731-1.055,15.247-9.531,14.556-18.934 c-0.693-9.4-8.332-16.166-17.063-15.109C830.753,492.209,825.463,500.537,826.155,509.938z"/>
	<path fill="#1da8eb" d="M617.096,403.842c-2.099,9.262-7.883,15.842-14.009,14.455c-9.201-2.084-13.67-10.986-11.573-20.248 c2.097-9.26,9.965-15.367,19.166-13.285C617.236,386.25,619.19,394.582,617.096,403.842z"/>
	<path fill="#1da8eb" d="M629.409,350.854c-2.097,9.26-7.883,15.842-14.01,14.453c-9.199-2.08-13.67-10.984-11.572-20.248 c2.097-9.258,9.966-15.369,19.167-13.285C629.552,333.26,631.505,341.592,629.409,350.854z"/>
	<path fill="#1da8eb" d="M602.618,457.996c-2.098,9.26-7.884,15.842-14.009,14.451c-9.202-2.08-13.671-10.984-11.573-20.244 c2.098-9.262,9.966-15.371,19.167-13.287C602.761,440.4,604.713,448.734,602.618,457.996z"/>
	<path fill="#1da8eb" d="M589.088,510.531c-2.097,9.26-7.884,15.842-14.009,14.455c-9.203-2.084-13.671-10.988-11.573-20.248 c2.096-9.262,9.965-15.371,19.166-13.285C589.229,492.938,591.182,501.271,589.088,510.531z"/>
	<path fill="#1da8eb" d="M568.604,404.422c-3.691,8.748-9.859,14.498-14.626,12.486c-7.157-3.02-8.959-12.139-5.266-20.883 c3.69-8.748,11.481-13.813,18.639-10.793C572.446,387.385,572.295,395.676,568.604,404.422z"/>
	<path fill="#1da8eb" d="M585.896,351.432c-3.692,8.748-9.862,14.498-14.626,12.486c-7.158-3.021-8.96-12.137-5.269-20.883 c3.691-8.748,11.482-13.813,18.639-10.795C589.739,334.396,589.587,342.686,585.896,351.432z"/>
	<path fill="#1da8eb" d="M550.933,458.576c-3.692,8.746-9.86,14.496-14.625,12.484c-7.156-3.02-8.959-12.137-5.268-20.883 c3.691-8.748,11.482-13.813,18.639-10.793C554.778,441.539,554.628,449.828,550.933,458.576z"/>
	<path fill="#1da8eb" d="M533.789,511.109c-3.69,8.746-9.86,14.498-14.626,12.486c-7.157-3.02-8.959-12.137-5.267-20.885 c3.693-8.746,11.481-13.813,18.64-10.787C537.633,494.074,537.481,502.359,533.789,511.109z"/>
	<circle fill="#1da8eb" cx="728.618" cy="348.537" r="17.172" />
	<circle fill="#1da8eb" cx="781.262" cy="348.537" r="17.172"/>
	<circle fill="#1da8eb" cx="781.262" cy="401.527" r="17.172"/>
	<circle fill="#1da8eb" cx="721.946" cy="401.527" r="17.172"/>
	<circle fill="#1da8eb" cx="721.946" cy="455.68" r="17.172"/>
	<circle fill="#1da8eb" cx="716.149" cy="508.215" r="17.172"/>
	<circle fill="#1da8eb" cx="781.262" cy="455.68" r="17.172"/>
	<circle fill="#1da8eb" cx="783.451" cy="508.215" r="17.172"/>

	<path fill="url(#RadialGrad)" d="M681.313,404.055c-1.512,9.373-8.981,15.965-18.297,14.463c-9.312-1.502-15.638-10.316-14.126-19.691 c1.511-9.373,10.286-15.754,19.6-14.252C677.806,386.076,682.825,394.682,681.313,404.055z"/>
	<path fill="url(#RadialGrad)" d="M689.743,351.066c-1.511,9.373-8.979,15.963-18.295,14.461c-9.313-1.5-15.637-10.316-14.126-19.689 c1.512-9.373,10.287-15.756,19.6-14.254C686.237,333.086,691.255,341.693,689.743,351.066z"/>
	<path fill="url(#RadialGrad)" d="M672.691,458.209c-1.511,9.371-8.979,15.965-18.296,14.463c-9.313-1.502-15.637-10.318-14.126-19.691 c1.512-9.375,10.287-15.756,19.6-14.254C669.184,440.229,674.203,448.834,672.691,458.209z"/>
	<path fill="url(#RadialGrad)" d="M664.328,510.742c-1.512,9.375-8.979,15.967-18.296,14.465c-9.313-1.502-15.637-10.316-14.125-19.691 c1.511-9.373,10.285-15.756,19.599-14.254C660.822,492.764,665.839,501.369,664.328,510.742z"/>
	<path fill="url(#RadialGrad)" d="M818.372,403.248c0.692,9.4,7.107,16.314,15.842,15.258c8.729-1.057,15.247-9.533,14.554-18.934 c-0.691-9.4-8.332-16.166-17.063-15.107C822.972,385.52,817.678,393.848,818.372,403.248z"/>
	<path fill="url(#RadialGrad)" d="M814.51,350.26c0.692,9.4,7.107,16.313,15.841,15.256c8.729-1.055,15.247-9.531,14.554-18.932 c-0.692-9.398-8.332-16.166-17.063-15.111C819.108,332.529,813.816,340.859,814.51,350.26z"/>
	<path fill="url(#RadialGrad)" d="M822.322,457.402c0.693,9.4,7.106,16.314,15.842,15.258c8.729-1.055,15.247-9.533,14.554-18.934 c-0.692-9.402-8.332-16.166-17.063-15.109C826.923,439.672,821.629,448,822.322,457.402z"/>
	<path fill="url(#RadialGrad)" d="M826.155,509.938c0.692,9.402,7.106,16.314,15.84,15.258c8.731-1.055,15.247-9.531,14.556-18.934 c-0.693-9.4-8.332-16.166-17.063-15.109C830.753,492.209,825.463,500.537,826.155,509.938z"/>
	<path fill="url(#RadialGrad)" d="M617.096,403.842c-2.099,9.262-7.883,15.842-14.009,14.455c-9.201-2.084-13.67-10.986-11.573-20.248 c2.097-9.26,9.965-15.367,19.166-13.285C617.236,386.25,619.19,394.582,617.096,403.842z"/>
	<path fill="url(#RadialGrad)" d="M629.409,350.854c-2.097,9.26-7.883,15.842-14.01,14.453c-9.199-2.08-13.67-10.984-11.572-20.248 c2.097-9.258,9.966-15.369,19.167-13.285C629.552,333.26,631.505,341.592,629.409,350.854z"/>
	<path fill="url(#RadialGrad)" d="M602.618,457.996c-2.098,9.26-7.884,15.842-14.009,14.451c-9.202-2.08-13.671-10.984-11.573-20.244 c2.098-9.262,9.966-15.371,19.167-13.287C602.761,440.4,604.713,448.734,602.618,457.996z"/>
	<path fill="url(#RadialGrad)" d="M589.088,510.531c-2.097,9.26-7.884,15.842-14.009,14.455c-9.203-2.084-13.671-10.988-11.573-20.248 c2.096-9.262,9.965-15.371,19.166-13.285C589.229,492.938,591.182,501.271,589.088,510.531z"/>
	<path fill="url(#RadialGrad)" d="M568.604,404.422c-3.691,8.748-9.859,14.498-14.626,12.486c-7.157-3.02-8.959-12.139-5.266-20.883 c3.69-8.748,11.481-13.813,18.639-10.793C572.446,387.385,572.295,395.676,568.604,404.422z"/>
	<path fill="url(#RadialGrad)" d="M585.896,351.432c-3.692,8.748-9.862,14.498-14.626,12.486c-7.158-3.021-8.96-12.137-5.269-20.883 c3.691-8.748,11.482-13.813,18.639-10.795C589.739,334.396,589.587,342.686,585.896,351.432z"/>
	<path fill="url(#RadialGrad)" d="M550.933,458.576c-3.692,8.746-9.86,14.496-14.625,12.484c-7.156-3.02-8.959-12.137-5.268-20.883 c3.691-8.748,11.482-13.813,18.639-10.793C554.778,441.539,554.628,449.828,550.933,458.576z"/>
	<path fill="url(#RadialGrad)" d="M533.789,511.109c-3.69,8.746-9.86,14.498-14.626,12.486c-7.157-3.02-8.959-12.137-5.267-20.885 c3.693-8.746,11.481-13.813,18.64-10.787C537.633,494.074,537.481,502.359,533.789,511.109z"/>
	<circle fill="url(#RadialGrad)" cx="728.618" cy="348.537" r="17.172" />
	<circle fill="url(#RadialGrad)" cx="781.262" cy="348.537" r="17.172"/>
	<circle fill="url(#RadialGrad)" cx="781.262" cy="401.527" r="17.172"/>
	<circle fill="url(#RadialGrad)" cx="721.946" cy="401.527" r="17.172"/>
	<circle fill="url(#RadialGrad)" cx="721.946" cy="455.68" r="17.172"/>
	<circle fill="url(#RadialGrad)" cx="716.149" cy="508.215" r="17.172"/>
	<circle fill="url(#RadialGrad)" cx="781.262" cy="455.68" r="17.172"/>
	<circle fill="url(#RadialGrad)" cx="783.451" cy="508.215" r="17.172"/>


	<!-- Weapons -->
	
	<rect x="447" y="265" fill="#d5d5d5" width="141" height="7"/><!-- Plunger Arm -->
	<rect x="447" y="265" fill="url(#VertGrad)" width="141" height="7" />
	<rect x="458" y="263" fill="#d1d1d1" width="130" height="10" />
	<rect x="458" y="263" fill="url(#VertGrad)" width="130" height="10" />
	<path fill="#3F3031" d="M422.717,246.768c1.424-0.292,2.898-0.444,4.408-0.444c12.081,0,21.875,9.793,21.875,21.875 c0,12.081-9.793,21.874-21.875,21.874c-1.343,0-3.131-0.121-4.408-0.353"/><!-- Plunger -->
	<path fill="url(#VertGrad)" d="M422.717,246.768c1.424-0.292,2.898-0.444,4.408-0.444c12.081,0,21.875,9.793,21.875,21.875 c0,12.081-9.793,21.874-21.875,21.874c-1.343,0-3.131-0.121-4.408-0.353"/>
	
	<polygon fill="#a9a9a9" points="630.772,181.812 592.167,307.246 843.227,307.246 823.905,181.812 " /><!-- Weapons back -->
	<polygon fill="url(#SideLinearGrad)" points="630.772,181.812 592.167,307.246 843.227,307.246 823.905,181.812 " /><!-- Weapons back -->
	
	<polygon fill="#d5d5d5" points="575.63,317.211 581.896,302.65 635.994,302.65 643.192,281.472 853.355,281.472 858.773,317.211 " style="filter:url(#dropshadow)"/>
	<polygon fill="#d5d5d5" points="839.012,217.401 845.654,253.885 650.511,253.885 655.332,235.101 602.906,235.101 609.96,217.401 " style="filter:url(#dropshadow)"/>
	<polygon fill="url(#SideLinearGrad)" points="575.63,317.211 581.896,302.65 635.994,302.65 643.192,281.472 853.355,281.472 858.773,317.211 " />
	<polygon fill="url(#SideLinearGrad)" points="839.012,217.401 845.654,253.885 650.511,253.885 655.332,235.101 602.906,235.101 609.96,217.401 " />

	<!-- Side Classic Gun -->
	<rect x="487" y="264" fill="#b5b5b5" width="93" height="8"/>
	<rect x="487" y="264" fill="url(#VertGrad)" opacity="0.5" width="93" height="8"/>
	<line fill="none" stroke="#b5b5b5" stroke-miterlimit="10" x1="517.5" y1="257" x2="517.5" y2="279"/>
	<path fill="none" stroke="#b5b5b5" stroke-miterlimit="10" d="M571.5,272.831c0,3.131-2.538,5.669-5.669,5.669h-69.662 c-3.131,0-5.669-2.538-5.669-5.669v-10.661c0-3.131,2.538-5.669,5.669-5.669h69.662c3.131,0,5.669,2.538,5.669,5.669V272.831z"/>
	<path fill="none" stroke="#b5b5b5" stroke-miterlimit="10" d="M571.5,271.749c0,2.072-2.538,3.751-5.669,3.751h-69.662 c-3.131,0-5.669-1.679-5.669-3.751v-7.498c0-2.072,2.538-3.751,5.669-3.751h69.662c3.131,0,5.669,1.679,5.669,3.751V271.749z"/>
	<line fill="none" stroke="#b5b5b5" stroke-miterlimit="10" x1="546.5" y1="256" x2="546.5" y2="278"/>
	<line fill="none" stroke="#b5b5b5" stroke-miterlimit="10" x1="490" y1="268.5" x2="571" y2="268.5"/>

	<circle fill="#000" cx="598.104" cy="268.812" r="18.426"/>

	<polygon fill="#ccc" points="629.915,295.656 589.683,295.656 605.384,243.482 644.616,243.482 "/><!-- Gun box -->

	<rect  x="857.984" y="187.746" transform="matrix(0.9916 -0.1295 0.1295 0.9916 -24.5173 113.5767)" fill="#D3D3D3" width="6.199" height="115.132"/>
	<rect  x="857.984" y="187.746" transform="matrix(0.9916 -0.1295 0.1295 0.9916 -24.5173 113.5767)" fill="url(#VertGrad)" opacity="0.5" width="6.199" height="115.132"/>
	<path fill="#E2E2E2" d="M851.729,188.861c0,0-12.559,17.804-7.217,58.854c5.34,41.051,22.036,55.048,22.036,55.048"/>
	<path fill="url(#VertGrad)" opacity="0.5" d="M851.729,188.861c0,0-12.559,17.804-7.217,58.854c5.34,41.051,22.036,55.048,22.036,55.048"/>
	
	<!-- Neck -->
	

	<polygon fill="#202020" points="816.942,182.037 809.733,106.666 644.988,106.666 637.778,182.037 "/><!-- Neck Back -->
	<polygon fill="url(#SideLinearGrad)" points="816.942,182.037 809.733,106.666 644.988,106.666 637.778,182.037 "/>

	<polygon fill="#d5d5d5" points="697.128,182.037 691.788,182.037 693.585,104.87 698.925,104.87 	" />
	<polygon fill="#d5d5d5" points="648.899,182.037 643.559,182.037 648.947,104.87 654.287,104.87 	"/>
	<polygon fill="#d5d5d5" points="757.593,182.037 762.934,182.037 761.138,104.87 755.796,104.87 	"/>
	<polygon fill="#d5d5d5" points="805.821,182.037 811.163,182.037 805.774,104.87 800.434,104.87 	"/>

	<polygon fill="#d5d5d5" points="822.817,126.425 828.958,132.566 625.763,132.566 631.904,126.425 	" style="filter:url(#dropshadow)"/>
	<polygon fill="#d5d5d5" points="825.888,152.993 832.028,159.134 622.692,159.134 628.834,152.993 	" style="filter:url(#dropshadow)"/>
	<polygon fill="#d5d5d5" points="833.632,185.107 827.489,178.966 627.231,178.966 621.091,185.107 	" style="filter:url(#dropshadow)"/>
	<polygon fill="url(#SideLinearGrad)" points="822.817,126.425 828.958,132.566 625.763,132.566 631.904,126.425 	" />
	<polygon fill="url(#SideLinearGrad)" points="825.888,152.993 832.028,159.134 622.692,159.134 628.834,152.993 	" />
	<polygon fill="url(#SideLinearGrad)" points="833.632,185.107 827.489,178.966 627.231,178.966 621.091,185.107 	" />

	<!-- Eye -->
	<rect x="586.005" y="57.069" fill="#d5d5d5" width="71.49" height="7.975"/>
	<rect x="586.005" y="57.069" fill="url(#VertGrad)" width="71.49" height="7.975"/><!-- Eye stick -->
	
	<path fill="#3F3031" d="M568.709,43.842c-1.319,0-2.709,0.527-3.709,1.44v-0.039c-2,0.357-5,1.171-8,2.341	c0,9.221,0,18.441,0,27.661c3,1.172,6,1.984,8,2.341v-0.463c1,0.914,2.39,1.44,3.709,1.44c10.774,0,19.508-7.772,19.508-17.36 C588.217,51.616,579.483,43.842,568.709,43.842z"/>
	<path fill="url(#VertGrad)" d="M568.709,43.842c-1.319,0-2.709,0.527-3.709,1.44v-0.039c-2,0.357-5,1.171-8,2.341	c0,9.221,0,18.441,0,27.661c3,1.172,6,1.984,8,2.341v-0.463c1,0.914,2.39,1.44,3.709,1.44c10.774,0,19.508-7.772,19.508-17.36 C588.217,51.616,579.483,43.842,568.709,43.842z"/>

	<path fill="#1da8eb" d="M606.769,76.474c0,0.587,0.465,1.063,1.04,1.063l0,0c0.576,0,1.04-0.477,1.04-1.063V45.772 c0-0.587-0.464-1.063-1.04-1.063l0,0c-0.575,0-1.04,0.476-1.04,1.063V76.474z"/>
	<path fill="#1da8eb" d="M611.639,76.474c0,0.587,0.465,1.063,1.042,1.063l0,0c0.575,0,1.039-0.477,1.039-1.063V45.772 c0-0.587-0.464-1.063-1.039-1.063l0,0c-0.577,0-1.042,0.476-1.042,1.063V76.474z"/>
	<path fill="#1da8eb" d="M616.506,73.533c0,0.449,0.469,0.815,1.044,0.815l0,0c0.575,0,1.041-0.366,1.041-0.815V50.041 c0-0.45-0.466-0.813-1.041-0.813l0,0c-0.575,0-1.044,0.364-1.044,0.813V73.533z"/>
	<path fill="#1da8eb" d="M601.897,73.666c0,0.45,0.468,0.814,1.042,0.814l0,0c0.575,0,1.041-0.365,1.041-0.814V50.174 c0-0.449-0.466-0.813-1.041-0.813l0,0c-0.574,0-1.042,0.364-1.042,0.813V73.666z"/>
	<path fill="#1da8eb" d="M597.027,68.156c0,0.243,0.467,0.44,1.042,0.44l0,0c0.573,0,1.042-0.198,1.042-0.44V55.478 c0-0.242-0.469-0.439-1.042-0.439l0,0c-0.575,0-1.042,0.197-1.042,0.439V68.156z"/>
	<path fill="#1da8eb" d="M621.381,68.156c0,0.243,0.464,0.44,1.041,0.44l0,0c0.573,0,1.04-0.198,1.04-0.44V55.478 c0-0.242-0.467-0.439-1.04-0.439l0,0c-0.577,0-1.041,0.197-1.041,0.439V68.156z"/>

	<circle fill="#ccc" cx="669.616" cy="62.22" r="16.11"/>
	<circle fill="url(#VertGrad)" cx="669.616" cy="62.22" r="16.11"/>


	<!-- Head -->

	<path fill="#d5d5d5" d="M647.162,80.87c0,0,28.306-44.857,79.836-44.857h0.728c51.529,0,79.836,44.857,79.836,44.857l9.349,26.699 	H637.813L647.162,80.87z" style="filter:url(#dropshadow)"/>
	<path fill="url(#VertGrad)" opacity="0.2" d="M647.162,80.87c0,0,28.306-44.857,79.836-44.857h0.728c51.529,0,79.836,44.857,79.836,44.857l9.349,26.699 	H637.813L647.162,80.87z"/>

	<polygon fill="url(#SideLinearGrad)" opacity="0.2" points="816.91,107.568 637.813,107.568 647.162,80.87 807.562,80.87 		"/>
	
	<circle fill="#f6f6f6" cx="731.038" cy="64.3" r="8.409"/>
	<circle fill="url(#VertGrad)" cx="731.038" cy="64.3" r="8.409"/>
	<circle fill="url(#RadialGrad)" opacity="0.3" cx="731.038" cy="64.3" r="8.409"/>

	<!-- ***************** Dalek Front ***************** -->


	<!-- Skirt -->
	
	<polygon fill="#d5d5d5" points="89.075,546.046 112.424,311.657 334.241,311.657	357.59,546.046 "/><!-- Skirt Back -->
	<polygon fill="url(#FrontLinearGrad)" opacity="0.5" points="89.075,546.046 112.424,311.657 334.241,311.657	357.59,546.046 "/><!-- Skirt Back -->
	<polygon fill="#000" opacity="0.3" points="89.075,546.046 112.424,311.657 125.707,311.657 107.611,546.046 		"/>
	<polygon fill="#000" opacity="0.2" points="160.623,546.046 107.611,546.046 125.707,311.657 169.001,311.657 		"/>
	<polygon fill="#000" opacity="0" points="223.961,546.046 160.623,546.046 169.001,311.657 223.961,311.657 		"/>
	<polygon fill="#000" opacity="0.2" points="285.441,546.046 223.961,546.046 223.961,311.657 277.063,311.657 		"/>
	<polygon fill="#000" opacity="0.3" points="338.453,546.046 285.441,546.046 277.063,311.657 320.357,311.657 		"/>
	<polygon fill="#000" opacity="0.4" points="357.59,546.046 338.453,546.046 320.357,311.657 334.241,311.657 		"/>
	
	<rect x="78.077" y="541.102" fill="#202020" width="290.517" height="24.246"/><!-- Skirt Back -->
	<rect x="78.077" y="541.102" fill="url(#FrontLinearGrad)" width="290.517" height="24.246"/><!-- Skirt Back -->
	
	<path fill="#202020" d="M378,631.913c0,3.914-3.173,7.087-7.087,7.087H76.087c-3.914,0-7.087-3.173-7.087-7.087v-62.826   c0-3.914,3.173-7.087,7.087-7.087h294.826c3.914,0,7.087,3.173,7.087,7.087V631.913z"/>
	<path fill="url(#FrontLinearGrad)" opacity="0.4" d="M378,631.913c0,3.914-3.173,7.087-7.087,7.087H76.087c-3.914,0-7.087-3.173-7.087-7.087v-62.826   c0-3.914,3.173-7.087,7.087-7.087h294.826c3.914,0,7.087,3.173,7.087,7.087V631.913z"/>
	
	<!-- Spheres -->

	<path fill="#1da8eb" d="M211.864,401.547c0,9.494-6.325,17.191-15.761,17.191c-9.431,0-17.081-7.697-17.081-17.191 s7.647-17.191,17.081-17.191C205.54,384.355,211.864,392.053,211.864,401.547z"/>
	<path fill="#1da8eb" d="M211.958,348.557c0,9.494-6.325,17.191-15.761,17.191c-9.432,0-17.08-7.697-17.08-17.191 s7.647-17.191,17.08-17.191C205.632,331.365,211.958,339.063,211.958,348.557z"/>
	<path fill="#1da8eb" d="M209.362,455.701c0,9.492-6.324,17.191-15.76,17.191c-9.433,0-17.081-7.699-17.081-17.191 c0-9.496,7.647-17.193,17.081-17.193C203.037,438.508,209.362,446.205,209.362,455.701z"/>
	<path fill="#1da8eb" d="M209.692,508.234c0,9.496-6.324,17.193-15.76,17.193c-9.433,0-17.081-7.697-17.081-17.193 c0-9.494,7.647-17.191,17.081-17.191C203.368,491.043,209.692,498.74,209.692,508.234z"/>
	<path fill="#1da8eb" d="M155.637,401.947c-0.365,9.488-4.846,17.018-11.122,16.777c-9.428-0.361-15.453-8.293-15.089-17.783 c0.365-9.486,6.979-16.934,16.407-16.572C152.55,384.627,155.998,392.459,155.637,401.947z"/>
	<path fill="#1da8eb" d="M158.282,348.957c-0.365,9.488-4.846,17.02-11.123,16.777c-9.427-0.359-15.453-8.293-15.088-17.781 c0.363-9.488,6.979-16.938,16.407-16.576C155.195,331.637,158.643,339.471,158.282,348.957z"/>
	<path fill="#1da8eb" d="M151.008,456.102c-0.365,9.486-4.846,17.018-11.122,16.775c-9.427-0.359-15.453-8.293-15.088-17.781 c0.364-9.488,6.98-16.936,16.406-16.574C147.922,438.779,151.369,446.611,151.008,456.102z"/>
	<path fill="#1da8eb" d="M147.041,508.635c-0.363,9.488-4.845,17.02-11.121,16.779c-9.429-0.361-15.454-8.297-15.09-17.785 c0.364-9.486,6.979-16.936,16.407-16.572C143.955,491.314,147.402,499.146,147.041,508.635z"/>
	<path fill="#1da8eb" d="M114.219,402.111c-0.635,9.475-4.589,16.924-9.751,16.576c-7.751-0.52-12.428-8.549-11.792-18.021 c0.635-9.473,6.346-16.803,14.097-16.283C112.292,384.754,114.853,392.641,114.219,402.111z"/>
	<path fill="#1da8eb" d="M118.941,349.121c-0.636,9.473-4.59,16.922-9.75,16.576c-7.751-0.52-12.429-8.549-11.793-18.021 c0.635-9.473,6.346-16.803,14.096-16.285C117.015,331.764,119.577,339.65,118.941,349.121z"/>
	<path fill="#1da8eb" d="M109.23,456.266c-0.636,9.473-4.59,16.92-9.751,16.572c-7.75-0.518-12.429-8.549-11.793-18.02 c0.635-9.473,6.347-16.803,14.097-16.283C107.306,438.906,109.868,446.791,109.23,456.266z"/>
	<path fill="#1da8eb" d="M103.738,508.797c-0.635,9.471-4.59,16.922-9.75,16.576c-7.751-0.52-12.429-8.551-11.794-18.023 c0.637-9.473,6.346-16.803,14.099-16.279C101.812,491.439,104.373,499.322,103.738,508.797z"/>
	<path fill="#1da8eb" d="M250.568,384.355c9.432,0,17.08,7.697,17.08,17.191s-7.648,17.191-17.08,17.191 c-9.437,0-15.761-7.697-15.761-17.191S241.131,384.355,250.568,384.355z"/>
	<path fill="#1da8eb" d="M250.473,331.365c9.433,0,17.081,7.697,17.081,17.191s-7.648,17.191-17.081,17.191 c-9.436,0-15.76-7.697-15.76-17.191S241.038,331.365,250.473,331.365z"/>
	<path fill="#1da8eb" d="M253.069,438.508c9.433,0,17.081,7.697,17.081,17.193c0,9.492-7.648,17.191-17.081,17.191 c-9.436,0-15.761-7.699-15.761-17.191C237.308,446.205,243.633,438.508,253.069,438.508z"/>
	<path fill="#1da8eb" d="M252.738,491.043c9.434,0,17.081,7.697,17.081,17.191c0,9.496-7.647,17.193-17.081,17.193 c-9.436,0-15.76-7.697-15.76-17.193C236.978,498.74,243.303,491.043,252.738,491.043z"/>
	<path fill="#1da8eb" d="M300.838,384.369c9.429-0.361,16.043,7.086,16.408,16.572c0.363,9.49-5.662,17.422-15.089,17.783 c-6.277,0.24-10.758-7.289-11.122-16.777C290.673,392.459,294.12,384.627,300.838,384.369z"/>
	<path fill="#1da8eb" d="M298.194,331.377c9.428-0.361,16.043,7.088,16.407,16.576c0.364,9.488-5.662,17.422-15.089,17.781 c-6.276,0.242-10.757-7.289-11.122-16.777C288.027,339.471,291.476,331.637,298.194,331.377z"/>
	<path fill="#1da8eb" d="M305.467,438.521c9.427-0.361,16.042,7.086,16.406,16.574c0.365,9.488-5.66,17.422-15.087,17.781 c-6.277,0.242-10.757-7.289-11.122-16.775C295.301,446.611,298.748,438.779,305.467,438.521z"/>
	<path fill="#1da8eb" d="M309.434,491.057c9.428-0.363,16.043,7.086,16.407,16.572c0.364,9.488-5.661,17.424-15.089,17.785 c-6.276,0.24-10.757-7.291-11.122-16.779C299.269,499.146,302.716,491.314,309.434,491.057z"/>
	<path fill="#1da8eb" d="M339.898,384.383c7.75-0.52,13.462,6.811,14.097,16.283c0.635,9.473-4.042,17.502-11.793,18.021 c-5.161,0.348-9.116-7.102-9.751-16.576C331.817,392.641,334.378,384.754,339.898,384.383z"/>
	<path fill="#1da8eb" d="M335.177,331.391c7.75-0.518,13.462,6.813,14.097,16.285c0.635,9.473-4.043,17.502-11.793,18.021 c-5.161,0.346-9.116-7.104-9.75-16.576C327.094,339.65,329.655,331.764,335.177,331.391z"/>
	<path fill="#1da8eb" d="M344.887,438.535c7.751-0.52,13.462,6.811,14.097,16.283c0.636,9.471-4.044,17.502-11.792,18.02 c-5.162,0.348-9.115-7.1-9.752-16.572C336.803,446.791,339.364,438.906,344.887,438.535z"/>
	<path fill="#1da8eb" d="M350.378,491.07c7.752-0.523,13.462,6.807,14.098,16.279c0.636,9.473-4.042,17.504-11.793,18.023 c-5.161,0.346-9.116-7.105-9.751-16.576C342.298,499.322,344.859,491.439,350.378,491.07z"/>

	<path fill="url(#RadialGrad)" d="M211.864,401.547c0,9.494-6.325,17.191-15.761,17.191c-9.431,0-17.081-7.697-17.081-17.191 s7.647-17.191,17.081-17.191C205.54,384.355,211.864,392.053,211.864,401.547z"/>
	<path fill="url(#RadialGrad)" d="M211.958,348.557c0,9.494-6.325,17.191-15.761,17.191c-9.432,0-17.08-7.697-17.08-17.191 s7.647-17.191,17.08-17.191C205.632,331.365,211.958,339.063,211.958,348.557z"/>
	<path fill="url(#RadialGrad)" d="M209.362,455.701c0,9.492-6.324,17.191-15.76,17.191c-9.433,0-17.081-7.699-17.081-17.191 c0-9.496,7.647-17.193,17.081-17.193C203.037,438.508,209.362,446.205,209.362,455.701z"/>
	<path fill="url(#RadialGrad)" d="M209.692,508.234c0,9.496-6.324,17.193-15.76,17.193c-9.433,0-17.081-7.697-17.081-17.193 c0-9.494,7.647-17.191,17.081-17.191C203.368,491.043,209.692,498.74,209.692,508.234z"/>
	<path fill="url(#RadialGrad)" d="M155.637,401.947c-0.365,9.488-4.846,17.018-11.122,16.777c-9.428-0.361-15.453-8.293-15.089-17.783 c0.365-9.486,6.979-16.934,16.407-16.572C152.55,384.627,155.998,392.459,155.637,401.947z"/>
	<path fill="url(#RadialGrad)" d="M158.282,348.957c-0.365,9.488-4.846,17.02-11.123,16.777c-9.427-0.359-15.453-8.293-15.088-17.781 c0.363-9.488,6.979-16.938,16.407-16.576C155.195,331.637,158.643,339.471,158.282,348.957z"/>
	<path fill="url(#RadialGrad)" d="M151.008,456.102c-0.365,9.486-4.846,17.018-11.122,16.775c-9.427-0.359-15.453-8.293-15.088-17.781 c0.364-9.488,6.98-16.936,16.406-16.574C147.922,438.779,151.369,446.611,151.008,456.102z"/>
	<path fill="url(#RadialGrad)" d="M147.041,508.635c-0.363,9.488-4.845,17.02-11.121,16.779c-9.429-0.361-15.454-8.297-15.09-17.785 c0.364-9.486,6.979-16.936,16.407-16.572C143.955,491.314,147.402,499.146,147.041,508.635z"/>
	<path fill="url(#RadialGrad)" d="M114.219,402.111c-0.635,9.475-4.589,16.924-9.751,16.576c-7.751-0.52-12.428-8.549-11.792-18.021 c0.635-9.473,6.346-16.803,14.097-16.283C112.292,384.754,114.853,392.641,114.219,402.111z"/>
	<path fill="url(#RadialGrad)" d="M118.941,349.121c-0.636,9.473-4.59,16.922-9.75,16.576c-7.751-0.52-12.429-8.549-11.793-18.021 c0.635-9.473,6.346-16.803,14.096-16.285C117.015,331.764,119.577,339.65,118.941,349.121z"/>
	<path fill="url(#RadialGrad)" d="M109.23,456.266c-0.636,9.473-4.59,16.92-9.751,16.572c-7.75-0.518-12.429-8.549-11.793-18.02 c0.635-9.473,6.347-16.803,14.097-16.283C107.306,438.906,109.868,446.791,109.23,456.266z"/>
	<path fill="url(#RadialGrad)" d="M103.738,508.797c-0.635,9.471-4.59,16.922-9.75,16.576c-7.751-0.52-12.429-8.551-11.794-18.023 c0.637-9.473,6.346-16.803,14.099-16.279C101.812,491.439,104.373,499.322,103.738,508.797z"/>
	<path fill="url(#RadialGrad)" d="M250.568,384.355c9.432,0,17.08,7.697,17.08,17.191s-7.648,17.191-17.08,17.191 c-9.437,0-15.761-7.697-15.761-17.191S241.131,384.355,250.568,384.355z"/>
	<path fill="url(#RadialGrad)" d="M250.473,331.365c9.433,0,17.081,7.697,17.081,17.191s-7.648,17.191-17.081,17.191 c-9.436,0-15.76-7.697-15.76-17.191S241.038,331.365,250.473,331.365z"/>
	<path fill="url(#RadialGrad)" d="M253.069,438.508c9.433,0,17.081,7.697,17.081,17.193c0,9.492-7.648,17.191-17.081,17.191 c-9.436,0-15.761-7.699-15.761-17.191C237.308,446.205,243.633,438.508,253.069,438.508z"/>
	<path fill="url(#RadialGrad)" d="M252.738,491.043c9.434,0,17.081,7.697,17.081,17.191c0,9.496-7.647,17.193-17.081,17.193 c-9.436,0-15.76-7.697-15.76-17.193C236.978,498.74,243.303,491.043,252.738,491.043z"/>
	<path fill="url(#RadialGrad)" d="M300.838,384.369c9.429-0.361,16.043,7.086,16.408,16.572c0.363,9.49-5.662,17.422-15.089,17.783 c-6.277,0.24-10.758-7.289-11.122-16.777C290.673,392.459,294.12,384.627,300.838,384.369z"/>
	<path fill="url(#RadialGrad)" d="M298.194,331.377c9.428-0.361,16.043,7.088,16.407,16.576c0.364,9.488-5.662,17.422-15.089,17.781 c-6.276,0.242-10.757-7.289-11.122-16.777C288.027,339.471,291.476,331.637,298.194,331.377z"/>
	<path fill="url(#RadialGrad)" d="M305.467,438.521c9.427-0.361,16.042,7.086,16.406,16.574c0.365,9.488-5.66,17.422-15.087,17.781 c-6.277,0.242-10.757-7.289-11.122-16.775C295.301,446.611,298.748,438.779,305.467,438.521z"/>
	<path fill="url(#RadialGrad)" d="M309.434,491.057c9.428-0.363,16.043,7.086,16.407,16.572c0.364,9.488-5.661,17.424-15.089,17.785 c-6.276,0.24-10.757-7.291-11.122-16.779C299.269,499.146,302.716,491.314,309.434,491.057z"/>
	<path fill="url(#RadialGrad)" d="M339.898,384.383c7.75-0.52,13.462,6.811,14.097,16.283c0.635,9.473-4.042,17.502-11.793,18.021 c-5.161,0.348-9.116-7.102-9.751-16.576C331.817,392.641,334.378,384.754,339.898,384.383z"/>
	<path fill="url(#RadialGrad)" d="M335.177,331.391c7.75-0.518,13.462,6.813,14.097,16.285c0.635,9.473-4.043,17.502-11.793,18.021 c-5.161,0.346-9.116-7.104-9.75-16.576C327.094,339.65,329.655,331.764,335.177,331.391z"/>
	<path fill="url(#RadialGrad)" d="M344.887,438.535c7.751-0.52,13.462,6.811,14.097,16.283c0.636,9.471-4.044,17.502-11.792,18.02 c-5.162,0.348-9.115-7.1-9.752-16.572C336.803,446.791,339.364,438.906,344.887,438.535z"/>
	<path fill="url(#RadialGrad)" d="M350.378,491.07c7.752-0.523,13.462,6.807,14.098,16.279c0.636,9.473-4.042,17.504-11.793,18.023 c-5.161,0.346-9.116-7.105-9.751-16.576C342.298,499.322,344.859,491.439,350.378,491.07z"/>

	<!-- Weapons -->
	
	<polygon fill="#a9a9a9" points="335.453,311.657 111.212,311.657 124.494,182.043 322.171,182.043" /><!-- Weapons Back -->
	<polygon fill="url(#FrontLinearGrad)" points="335.453,311.657 111.212,311.657 124.494,182.043 322.171,182.043"/><!-- Weapons Back -->

	<polygon fill="#d5d5d5" style="filter:url(#dropshadow)" points="311.826,302.67 317.513,280.519 336.671,280.519 340.264,316.439 106.406,316.439 109.999,280.519 129.156,280.519 134.845,302.67 "/>
	<polygon fill="#d5d5d5" style="filter:url(#dropshadow)" points="317.425,236 321.245,254 333.245,254 328.622,218 118.048,218 113.425,254 125.425,254 129.245,236 "/>
	<polygon fill="url(#FrontLinearGrad)" points="311.826,302.67 317.513,280.519 336.671,280.519 340.264,316.439 106.406,316.439 109.999,280.519 129.156,280.519 134.845,302.67 "/>
	<polygon fill="url(#FrontLinearGrad)" points="317.425,236 321.245,254 333.245,254 328.622,218 118.048,218 113.425,254 125.425,254 129.245,236 "/>

	<polygon fill="#ccc" points="136.895,243.708 184.791,243.708 182.396,295.187 136.895,295.187 	"/>
	<polygon fill="#ccc" points="309.775,243.708 261.88,243.708 264.274,295.187 309.775,295.187 	"/>
	<circle fill="#666" cx="161.134" cy="268.247" r="21.555"/><!-- Plunger -->
	<circle fill="url(#RadialGrad)" cx="161.134" cy="268.247" r="21.555"/>
	<circle fill="#fff" cx="286.26" cy="268.649" r="18.828"/><!-- Gun Back -->
	<circle fill="url(#RadialGrad)" opacity="0.5" cx="286.26" cy="268.649" r="18.828"/>
	<line fill="none" stroke="#424243" stroke-miterlimit="10" x1="298.684" y1="268.649" x2="273.838" y2="268.649"/><!-- Gun Parts -->
	<line fill="none" stroke="#424243" stroke-miterlimit="10" x1="286.26" y1="256.226" x2="286.26" y2="281.072"/>
	<line fill="none" stroke="#424243" stroke-miterlimit="10" x1="277.477" y1="259.865" x2="295.045" y2="277.434"/>
	<line fill="none" stroke="#424243" stroke-miterlimit="10" x1="277.477" y1="277.434" x2="295.045" y2="259.865"/>
	<polygon fill="none" stroke="#424243" stroke-miterlimit="10" points="273.838,268.649 277.477,277.434 286.261,281.072  	295.045,277.434 298.684,268.649 295.045,259.865 286.261,256.227 277.477,259.865 		"/>
	<circle fill="#807F7F" cx="286.26" cy="268.649" r="5.101"/>

	<!-- Neck -->
	
	<polygon fill="#202020" points="312.917,182.037 305.708,106.666 140.963,106.666 133.753,182.037 " />
	<polygon fill="url(#FrontLinearGrad)" points="312.917,182.037 305.708,106.666 140.963,106.666 133.753,182.037 "/>

	<polygon fill="#d5d5d5" points="193.103,182.037 187.762,182.037 189.559,104.87 194.898,104.87 	"/>
	<polygon fill="#d5d5d5" points="144.873,182.037 139.533,182.037 144.921,104.87 150.261,104.87 	"/>
	<polygon fill="#d5d5d5" points="253.567,182.037 258.908,182.037 257.111,104.87 251.771,104.87 	"/>
	<polygon fill="#d5d5d5" points="301.796,182.037 307.137,182.037 301.749,104.87 296.408,104.87 	"/>

	<polygon fill="#d5d5d5" points="318.792,126.425 324.932,132.566 121.737,132.566 127.878,126.425 	" style="filter:url(#dropshadow)"/>
	<polygon fill="#d5d5d5" points="321.862,152.993 328.002,159.134 118.667,159.134 124.808,152.993 	" style="filter:url(#dropshadow)"/>
	<polygon fill="#d5d5d5" points="329.605,185.107 323.464,178.966 123.205,178.966 117.064,185.107 	" style="filter:url(#dropshadow)"/>
	<polygon fill="url(#FrontLinearGrad)" points="318.792,126.425 324.932,132.566 121.737,132.566 127.878,126.425 	"/>
	<polygon fill="url(#FrontLinearGrad)" points="321.862,152.993 328.002,159.134 118.667,159.134 124.808,152.993 	"/>
	<polygon fill="url(#FrontLinearGrad)" points="329.605,185.107 323.464,178.966 123.205,178.966 117.064,185.107 	"/>
	
	<!-- Head -->
	
	<path fill="#f6f6f6"  d="M157.191,59.189c3.284,3.284,1.706,7.03-1.579,10.314c-3.285,3.284-7.029,4.863-10.313,1.579 c-3.284-3.284-3.284-8.608,0-11.893C148.583,55.905,153.908,55.905,157.191,59.189z"/><!-- Ears -->
	<path fill="#f6f6f6" d="M289.478,59.189c-3.284,3.284-1.705,7.03,1.579,10.314c3.284,3.284,7.029,4.863,10.313,1.579 c3.284-3.284,3.284-8.608,0-11.893C298.086,55.905,292.762,55.905,289.478,59.189z"/>
	<path fill="url(#VertGrad)" d="M157.191,59.189c3.284,3.284,1.706,7.03-1.579,10.314c-3.285,3.284-7.029,4.863-10.313,1.579 c-3.284-3.284-3.284-8.608,0-11.893C148.583,55.905,153.908,55.905,157.191,59.189z"/><!-- Ears -->
	<path fill="url(#VertGrad)" d="M289.478,59.189c-3.284,3.284-1.705,7.03,1.579,10.314c3.284,3.284,7.029,4.863,10.313,1.579 c3.284-3.284,3.284-8.608,0-11.893C298.086,55.905,292.762,55.905,289.478,59.189z"/>
	<path fill="url(#SideLinearGrad)" opacity="0.3" d="M157.191,59.189c3.284,3.284,1.706,7.03-1.579,10.314c-3.285,3.284-7.029,4.863-10.313,1.579 c-3.284-3.284-3.284-8.608,0-11.893C148.583,55.905,153.908,55.905,157.191,59.189z"/><!-- Ears -->
	<path fill="url(#SideLinearGrad)" opacity="0.3" d="M289.478,59.189c-3.284,3.284-1.705,7.03,1.579,10.314c3.284,3.284,7.029,4.863,10.313,1.579 c3.284-3.284,3.284-8.608,0-11.893C298.086,55.905,292.762,55.905,289.478,59.189z"/>

	<path fill="#d5d5d5" style="filter:url(#dropshadow)" d="M312.885,107.568H133.789l9.349-26.699c0,0,28.306-44.857,79.836-44.857h0.727 	c51.53,0,79.836,44.857,79.836,44.857L312.885,107.568z"/>
	<path fill="url(#VertGrad)" opacity="0.2" d="M312.885,107.568H133.789l9.349-26.699c0,0,28.306-44.857,79.836-44.857h0.727 	c51.53,0,79.836,44.857,79.836,44.857L312.885,107.568z"/>
	<polygon fill="url(#FrontLinearGrad)" opacity="0.2" points="312.885,107.568 133.789,107.568 143.138,80.87 303.537,80.87 		"/>
	<!-- Eye -->
	<circle fill="#444" cx="223.335" cy="61.332" r="17.623"/>
	<circle fill="#fff" opacity="0.2" cx="223.335" cy="61.332" r="13.351"/>
	<circle fill="#fff" opacity="0.8" cx="223.335" cy="61.332" r="6.983"/>
	

</svg>
