/* XPM */
static char * zombie_icon_xpm[] = {
"32 33 550 2",
"  	c #77899C",
". 	c #76889A",
"+ 	c #798C9F",
"@ 	c #76899C",
"# 	c #76899B",
"$ 	c #778A9D",
"% 	c #76879A",
"& 	c #77889B",
"* 	c #76889B",
"= 	c #77889C",
"- 	c #414852",
"; 	c #6E7D8E",
"> 	c #697888",
", 	c #758699",
"' 	c #708192",
") 	c #5F6C79",
"! 	c #6C7C87",
"~ 	c #637172",
"{ 	c #556059",
"] 	c #616E70",
"^ 	c #6F7F8C",
"/ 	c #272829",
"( 	c #667584",
"_ 	c #5B6774",
": 	c #758698",
"< 	c #505B66",
"[ 	c #738595",
"} 	c #586458",
"| 	c #333630",
"1 	c #5A6654",
"2 	c #5F6C59",
"3 	c #5E6B58",
"4 	c #5C6856",
"5 	c #596553",
"6 	c #464E42",
"7 	c #1A1816",
"8 	c #6F7F91",
"9 	c #748697",
"0 	c #748597",
"a 	c #738597",
"b 	c #728395",
"c 	c #5A676A",
"d 	c #535E4D",
"e 	c #586352",
"f 	c #30332D",
"g 	c #5C6656",
"h 	c #616D5B",
"i 	c #626F5B",
"j 	c #606D59",
"k 	c #606E5A",
"l 	c #5B6755",
"m 	c #576452",
"n 	c #4C5749",
"o 	c #677683",
"p 	c #748598",
"q 	c #738496",
"r 	c #657382",
"s 	c #4B545D",
"t 	c #5C6876",
"u 	c #495345",
"v 	c #576351",
"w 	c #5C6855",
"x 	c #6B7963",
"y 	c #5F6B59",
"z 	c #64715D",
"A 	c #63705C",
"B 	c #64715E",
"C 	c #62705C",
"D 	c #596554",
"E 	c #4A5345",
"F 	c #3D4539",
"G 	c #58666E",
"H 	c #718294",
"I 	c #242523",
"J 	c #4E5949",
"K 	c #586452",
"L 	c #64725D",
"M 	c #63715D",
"N 	c #62705B",
"O 	c #5E6957",
"P 	c #444C41",
"Q 	c #535E4E",
"R 	c #566250",
"S 	c #4A5545",
"T 	c #373F37",
"U 	c #738497",
"V 	c #708193",
"W 	c #708293",
"X 	c #6B7B8B",
"Y 	c #3C4337",
"Z 	c #515D4C",
"` 	c #576250",
" .	c #62715C",
"..	c #616E5A",
"+.	c #66745F",
"@.	c #5F6B58",
"#.	c #63715C",
"$.	c #4A5245",
"%.	c #5F6D59",
"&.	c #4D5949",
"*.	c #363D31",
"=.	c #465156",
"-.	c #718293",
";.	c #495558",
">.	c #3B4337",
",.	c #4F5A4A",
"'.	c #566251",
").	c #616F5B",
"!.	c #606B59",
"~.	c #61705B",
"{.	c #5E6A57",
"].	c #65735E",
"^.	c #596655",
"/.	c #505C4B",
"(.	c #3E473A",
"_.	c #222622",
":.	c #606E7C",
"<.	c #6C7D8D",
"[.	c #6F8091",
"}.	c #343C39",
"|.	c #3A4136",
"1.	c #63705D",
"2.	c #616D5A",
"3.	c #64725E",
"4.	c #545E4E",
"5.	c #566350",
"6.	c #434D3E",
"7.	c #1F221D",
"8.	c #40484F",
"9.	c #63717F",
"0.	c #6E7F90",
"a.	c #657484",
"b.	c #282E2B",
"c.	c #414A3D",
"d.	c #5A6754",
"e.	c #65735F",
"f.	c #626F5C",
"g.	c #667560",
"h.	c #677660",
"i.	c #5D6A57",
"j.	c #525D4D",
"k.	c #485243",
"l.	c #272C24",
"m.	c #373C42",
"n.	c #4D5660",
"o.	c #6D7D8E",
"p.	c #434E53",
"q.	c #3E463A",
"r.	c #55614F",
"s.	c #65745F",
"t.	c #667660",
"u.	c #697862",
"v.	c #606C59",
"w.	c #596653",
"x.	c #495344",
"y.	c #2F352D",
"z.	c #6E7E8F",
"A.	c #6A7A8A",
"B.	c #6C7C8D",
"C.	c #62707F",
"D.	c #2F3437",
"E.	c #434C3F",
"F.	c #586553",
"G.	c #5B6855",
"H.	c #5C6756",
"I.	c #606D5A",
"J.	c #545D4F",
"K.	c #576451",
"L.	c #4B5446",
"M.	c #40483C",
"N.	c #535F63",
"O.	c #5E6C79",
"P.	c #464F46",
"Q.	c #4A5444",
"R.	c #54604F",
"S.	c #515C4C",
"T.	c #4A5445",
"U.	c #464F42",
"V.	c #434B3F",
"W.	c #4C5747",
"X.	c #576553",
"Y.	c #4F5A49",
"Z.	c #454F41",
"`.	c #3F473A",
" +	c #2F352B",
".+	c #657483",
"++	c #61707C",
"@+	c #394135",
"#+	c #475042",
"$+	c #4C5647",
"%+	c #485042",
"&+	c #485043",
"*+	c #424B3E",
"=+	c #363E33",
"-+	c #2E352B",
";+	c #1E221C",
">+	c #141613",
",+	c #191C17",
"'+	c #20251E",
")+	c #252A23",
"!+	c #2B3128",
"~+	c #292E27",
"{+	c #282D26",
"]+	c #262C24",
"^+	c #55626E",
"/+	c #5C6A76",
"(+	c #242921",
"_+	c #262B24",
":+	c #232721",
"<+	c #151812",
"[+	c #252725",
"}+	c #000100",
"|+	c #060706",
"1+	c #0F100D",
"2+	c #1C1E19",
"3+	c #1F231D",
"4+	c #0B0C0A",
"5+	c #010101",
"6+	c #65666C",
"7+	c #93959D",
"8+	c #8D8D96",
"9+	c #343437",
"0+	c #030403",
"a+	c #060805",
"b+	c #5C6A78",
"c+	c #697889",
"d+	c #627180",
"e+	c #050503",
"f+	c #0B0C0B",
"g+	c #141415",
"h+	c #A5A9B1",
"i+	c #C7C9D3",
"j+	c #9C9AA1",
"k+	c #0E0C0A",
"l+	c #1C201B",
"m+	c #3E453A",
"n+	c #090A09",
"o+	c #97969E",
"p+	c #BFC2CA",
"q+	c #C3C5D0",
"r+	c #4B564C",
"s+	c #6C7372",
"t+	c #161616",
"u+	c #0B0D09",
"v+	c #647382",
"w+	c #677787",
"x+	c #262B28",
"y+	c #363D33",
"z+	c #494A4D",
"A+	c #555A51",
"B+	c #9CA2A8",
"C+	c #9A9CA4",
"D+	c #45302D",
"E+	c #252922",
"F+	c #3F463A",
"G+	c #41493D",
"H+	c #1A1A19",
"I+	c #9898A0",
"J+	c #AEB0B9",
"K+	c #B6B8C1",
"L+	c #606B63",
"M+	c #5B635F",
"N+	c #39393C",
"O+	c #202525",
"P+	c #667686",
"Q+	c #69798A",
"R+	c #181B15",
"S+	c #222321",
"T+	c #787980",
"U+	c #7D7F85",
"V+	c #6A6A6E",
"W+	c #201714",
"X+	c #31382D",
"Y+	c #3D4438",
"Z+	c #1A1B18",
"`+	c #7B7A7F",
" @	c #919399",
".@	c #95979E",
"+@	c #8E9097",
"@@	c #797A81",
"#@	c #414A51",
"$@	c #677888",
"%@	c #667685",
"&@	c #2B3130",
"*@	c #454E41",
"=@	c #333B30",
"-@	c #202420",
";@	c #20231F",
">@	c #282D25",
",@	c #3C4538",
"'@	c #424B3D",
")@	c #454D40",
"!@	c #212720",
"~@	c #433331",
"{@	c #66666A",
"]@	c #6B6D71",
"^@	c #626367",
"/@	c #454549",
"(@	c #1E221B",
"_@	c #4A555F",
":@	c #667585",
"<@	c #3D4646",
"[@	c #32392F",
"}@	c #454E40",
"|@	c #4B5746",
"1@	c #495244",
"2@	c #424C3E",
"3@	c #384035",
"4@	c #454F40",
"5@	c #2C3329",
"6@	c #353E32",
"7@	c #252923",
"8@	c #242823",
"9@	c #61707F",
"0@	c #647383",
"a@	c #444E50",
"b@	c #32392E",
"c@	c #2C3128",
"d@	c #434C3E",
"e@	c #4C5646",
"f@	c #373F34",
"g@	c #41493B",
"h@	c #3D4639",
"i@	c #343B31",
"j@	c #1E211C",
"k@	c #616F7E",
"l@	c #637281",
"m@	c #4F5B65",
"n@	c #0F110D",
"o@	c #20251F",
"p@	c #262A22",
"q@	c #2E362C",
"r@	c #455042",
"s@	c #323A2F",
"t@	c #1C211B",
"u@	c #1B1F19",
"v@	c #1A1D18",
"w@	c #404A3C",
"x@	c #3C4438",
"y@	c #32382E",
"z@	c #232720",
"A@	c #0D0E0D",
"B@	c #637180",
"C@	c #21262A",
"D@	c #0D0E0B",
"E@	c #171A16",
"F@	c #2C322A",
"G@	c #444D40",
"H@	c #4B5546",
"I@	c #4A5544",
"J@	c #10120F",
"K@	c #040503",
"L@	c #24292C",
"M@	c #606D7C",
"N@	c #040404",
"O@	c #131511",
"P@	c #2C3028",
"Q@	c #343C31",
"R@	c #2C3729",
"S@	c #2C3629",
"T@	c #2A3427",
"U@	c #293226",
"V@	c #2B3428",
"W@	c #293326",
"X@	c #272D25",
"Y@	c #0A0C0C",
"Z@	c #647282",
"`@	c #151819",
" #	c #090B09",
".#	c #030303",
"+#	c #000000",
"@#	c #606161",
"##	c #020000",
"$#	c #493E3D",
"%#	c #131313",
"&#	c #010201",
"*#	c #040604",
"=#	c #020200",
"-#	c #323941",
";#	c #606E7D",
">#	c #353B42",
",#	c #0A0B09",
"'#	c #0D100C",
")#	c #0C0E0B",
"!#	c #0B0E0B",
"~#	c #0C100B",
"{#	c #212520",
"]#	c #141812",
"^#	c #0F120E",
"/#	c #090A08",
"(#	c #050605",
"_#	c #060806",
":#	c #5F6E7C",
"<#	c #596672",
"[#	c #54616D",
"}#	c #596673",
"|#	c #5E6B79",
"1#	c #5D6A77",
"2#	c #464D56",
"3#	c #484F57",
"4#	c #0B0D0B",
"5#	c #181C16",
"6#	c #333F30",
"7#	c #384534",
"8#	c #364333",
"9#	c #394735",
"0#	c #384434",
"a#	c #334130",
"b#	c #2A3327",
"c#	c #121611",
"d#	c #202326",
"e#	c #465059",
"f#	c #5F6D7B",
"g#	c #616F7D",
"h#	c #61707E",
"i#	c #5A6571",
"j#	c #575F6A",
"k#	c #464D55",
"l#	c #505861",
"m#	c #495058",
"n#	c #474E56",
"o#	c #525861",
"p#	c #59626D",
"q#	c #3F454C",
"r#	c #3F464F",
"s#	c #0C0D0B",
"t#	c #0E100E",
"u#	c #141913",
"v#	c #1C2219",
"w#	c #1E251C",
"x#	c #20271D",
"y#	c #20271E",
"z#	c #1F261D",
"A#	c #1C221A",
"B#	c #141813",
"C#	c #050504",
"D#	c #282B30",
"E#	c #3A3F46",
"F#	c #4A515A",
"G#	c #4C525C",
"H#	c #3E444B",
"I#	c #42474F",
"J#	c #444B53",
"K#	c #545D68",
"L#	c #5F6B78",
"M#	c #5D6A78",
"N#	c #5E6B7A",
"O#	c #66707C",
"P#	c #717B88",
"Q#	c #727C89",
"R#	c #636C78",
"S#	c #545C67",
"T#	c #6A7480",
"U#	c #6E7883",
"V#	c #5D6671",
"W#	c #454B54",
"X#	c #4C535C",
"Y#	c #181B1B",
"Z#	c #0D0E0C",
"`#	c #20241D",
" $	c #3A4236",
".$	c #343A30",
"+$	c #060705",
"@$	c #383D44",
"#$	c #434850",
"$$	c #5C6570",
"%$	c #68727D",
"&$	c #6C7683",
"*$	c #6A7581",
"=$	c #6B7583",
"-$	c #6E7884",
";$	c #606974",
">$	c #737D8A",
",$	c #636D79",
"'$	c #525A65",
")$	c #6B7683",
"!$	c #727D8A",
"~$	c #757F8C",
"{$	c #646D7A",
"]$	c #40464E",
"^$	c #383E42",
"/$	c #0F110E",
"($	c #4D5747",
"_$	c #505B4A",
":$	c #4D5948",
"<$	c #535F4E",
"[$	c #141612",
"}$	c #090A07",
"|$	c #4D555E",
"1$	c #424850",
"2$	c #485058",
"3$	c #616A76",
"4$	c #697380",
"5$	c #76808D",
"6$	c #77828F",
"7$	c #7B8694",
"8$	c #75818F",
"9$	c #737E8C",
"0$	c #778290",
"a$	c #697480",
"b$	c #606873",
"c$	c #5E6772",
"d$	c #6D7886",
"e$	c #6D7885",
"f$	c #76808E",
"g$	c #42484F",
"h$	c #495159",
"i$	c #5C646F",
"j$	c #141713",
"k$	c #191D18",
"l$	c #2E332A",
"m$	c #31372D",
"n$	c #2B3229",
"o$	c #30362D",
"p$	c #20241E",
"q$	c #242828",
"r$	c #4B525B",
"s$	c #5B646F",
"t$	c #656F7C",
"u$	c #6E7986",
"v$	c #7A8492",
"w$	c #788392",
"x$	c #73808D",
"y$	c #717D8B",
"z$	c #67717C",
"A$	c #626B77",
"B$	c #6B7481",
"C$	c #7C8796",
"D$	c #707B89",
"E$	c #707B88",
"F$	c #5F6772",
"G$	c #616975",
"H$	c #42494F",
"I$	c #1A1E18",
"J$	c #1C1F1A",
"K$	c #161815",
"L$	c #1A1E19",
"M$	c #171A15",
"N$	c #151813",
"O$	c #454C52",
"P$	c #3E434B",
"Q$	c #68717E",
"R$	c #737D8B",
"S$	c #76818E",
"T$	c #788391",
"U$	c #747F8D",
"V$	c #75808F",
"W$	c #7D8997",
"X$	c #7C8896",
"Y$	c #727D8B",
"                                  . + @ # $                     ",
"% % % % % % % % % . % % & * & = & * -   ; > % % % % % % % % % % ",
", , , , , , , , , ' % * ) ! ~ { ] ^ / ( _ % , , , , , , , , , , ",
": : : : : : : : : < [ } | 1 2 3 4 5 6 7 8 9 : : : : : : : : : : ",
"0 0 0 0 0 0 0 a b c d e f g h i j k l m n o p 0 0 0 0 0 0 0 0 0 ",
"q q q q q q r s t u v w x y z A B C z D E F G q q q q q q q q q ",
"H H H H H H q 0 I J K 2 L M N C O A P Q R S T U H H H H H H H H ",
"V V V V V V W X Y Z `  ...C j +.@.#.$.%.w &.*.=.H V V V V V V V ",
"' ' ' ' ' ' -.;.>.,.'.).C A !.~.{.].2 3 ^./.(._.:.<.' ' ' ' ' ' ",
"[.[.[.[.[.[.H }.|.d l y 1.2.C i ).L #.3.4.5.6.7.8.9.[.[.[.[.[.[.",
"0.0.0.0.0.0.a.b.c.Q d.N M e.f.g.h.i #.A i.j.k.l.m.n.X 0.0.0.0.0.",
"o.o.o.o.o.o.[.p.q.r.i.].s.t.u.z v.+.u.L %.w.x.y.z.H A.o.o.o.o.o.",
"B.B.B.B.B.o.C.D.E.F.G.@.H.O I.K J.2 j 1 v K.L.M.N.o.B.B.B.B.B.B.",
"X X X X X <.O.P.Q.d R.4.S.T.x.U.V.W.,.v X.Y.Z.`. +.+X X X X X X ",
"X X X X X X ++@+#+$+%+&+*+=+-+;+>+,+'+)+!+~+{+]+,+^+X X X X X X ",
"A.A.A.A.A.A./+(+_+:+<+[+}+|+1+2+3+4+5+6+7+8+9+0+a+b+A.A.A.A.A.A.",
"c+c+c+c+c+c+d+e+f+g+h+i+j+k+l+m+m+n+o+p+q+r+s+t+u+v+c+c+c+c+c+c+",
"w+w+w+w+w+w+A.x+y+z+A+B+C+D+E+F+G+H+I+J+K+L+M+N+O+A.w+w+w+w+w+w+",
"P+P+P+P+P+P+Q+R+c.S+T+U+V+W+X+Y+c.Z+`+ @.@+@@@/ #@$@P+P+P+P+P+P+",
"%@%@%@%@%@%@w+&@*@=@-@S+;@>@,@'@)@!@~@{@]@^@/@(@_@%@%@%@%@%@%@%@",
"a.a.a.a.a.a.:@<@[@}@k.|@1@2@3@(.4@5@6@7@8@{+!@)+9@a.a.a.a.a.a.a.",
"0@0@0@0@0@0@a.a@'+b@>.Z.T.}@c@d@e@!+f@g@,@h@i@j@k@0@0@0@0@0@0@0@",
"l@l@l@l@l@l@v+m@n@o@p@q@d@r@s@t@u@v@w@Z.x@y@z@A@d+l@l@l@l@l@l@l@",
"B@B@B@B@B@B@d+C.C@D@E@F@G@H@|@d@w@4@I@}@-+J@K@L@d+B@B@B@B@B@B@B@",
"k@k@k@k@k@k@k@C.M@N@O@P@Q@R@S@T@U@V@W@W@X@4+Y@Z@k@k@k@k@k@k@k@k@",
"k@k@k@k@k@k@k@k@9@`@4+ #.#+#@###+#$#%#&#*#=#-#k@k@k@k@k@k@k@k@k@",
";#;#;#;#;#;#;#;#C.>#,#'#)#!#~#{#]#^#/#(#_#0+d+;#;#;#;#;#;#;#;#;#",
":#:.<#[#}#|#:.1#2#3#4#5#6#7#8#9#7#0#a#b#c#d#e#f#g#h#h#h#;#f#f#f#",
"i#j#k#l#m#n#o#p#q#r#s#t#u#v#w#x#y#z#A#B#C#D#E#F#G#H#I#J#K#L#M#N#",
"O#P#Q#R#S#T#U#V#W#X#Y#Z#`# $y+=@[@=@.$o@+$@$#$q#$$%$T#&$*$=$-$;$",
"&$>$,$'$)$!$~${$]$m#^$/$>+>.($_$:$<$c.[$}$|$1$2$3$4$5$6$7$8$9$0$",
"&$a$b$c$d$e$f$Q#g$h$i$j$k$,+l$m$n$o$p$j$q$r$H#s$t$u$v$w$x$y$0$7$",
"z${$A$B$C$0$D$E$F$X#G$H$I$J$I$K$L$M$N$M$O$n#P$Q$R$S$T$U$V$W$X$Y$"};
